%TF.GenerationSoftware,KiCad,Pcbnew,8.0.7-8.0.7-0~ubuntu24.04.1*%
%TF.CreationDate,2025-01-29T10:33:42-05:00*%
%TF.ProjectId,imu-splitter,696d752d-7370-46c6-9974-7465722e6b69,rev?*%
%TF.SameCoordinates,Original*%
%TF.FileFunction,Legend,Top*%
%TF.FilePolarity,Positive*%
%FSLAX46Y46*%
G04 Gerber Fmt 4.6, Leading zero omitted, Abs format (unit mm)*
G04 Created by KiCad (PCBNEW 8.0.7-8.0.7-0~ubuntu24.04.1) date 2025-01-29 10:33:42*
%MOMM*%
%LPD*%
G01*
G04 APERTURE LIST*
G04 Aperture macros list*
%AMRoundRect*
0 Rectangle with rounded corners*
0 $1 Rounding radius*
0 $2 $3 $4 $5 $6 $7 $8 $9 X,Y pos of 4 corners*
0 Add a 4 corners polygon primitive as box body*
4,1,4,$2,$3,$4,$5,$6,$7,$8,$9,$2,$3,0*
0 Add four circle primitives for the rounded corners*
1,1,$1+$1,$2,$3*
1,1,$1+$1,$4,$5*
1,1,$1+$1,$6,$7*
1,1,$1+$1,$8,$9*
0 Add four rect primitives between the rounded corners*
20,1,$1+$1,$2,$3,$4,$5,0*
20,1,$1+$1,$4,$5,$6,$7,0*
20,1,$1+$1,$6,$7,$8,$9,0*
20,1,$1+$1,$8,$9,$2,$3,0*%
G04 Aperture macros list end*
%ADD10C,0.150000*%
%ADD11C,0.203200*%
%ADD12C,0.152400*%
%ADD13C,0.100000*%
%ADD14C,0.120000*%
%ADD15C,0.200000*%
%ADD16C,1.524000*%
%ADD17C,4.000000*%
%ADD18RoundRect,0.250000X-0.475000X0.337500X-0.475000X-0.337500X0.475000X-0.337500X0.475000X0.337500X0*%
%ADD19R,1.000000X1.000000*%
%ADD20O,1.000000X1.000000*%
%ADD21RoundRect,0.102000X0.545000X-0.545000X0.545000X0.545000X-0.545000X0.545000X-0.545000X-0.545000X0*%
%ADD22C,1.294000*%
%ADD23RoundRect,0.250000X-0.325000X-0.450000X0.325000X-0.450000X0.325000X0.450000X-0.325000X0.450000X0*%
%ADD24R,1.700000X1.700000*%
%ADD25O,1.700000X1.700000*%
%ADD26RoundRect,0.375000X-0.375000X0.625000X-0.375000X-0.625000X0.375000X-0.625000X0.375000X0.625000X0*%
%ADD27RoundRect,0.500000X-1.400000X0.500000X-1.400000X-0.500000X1.400000X-0.500000X1.400000X0.500000X0*%
%ADD28RoundRect,0.250000X0.325000X0.450000X-0.325000X0.450000X-0.325000X-0.450000X0.325000X-0.450000X0*%
%ADD29RoundRect,0.250000X-0.450000X0.350000X-0.450000X-0.350000X0.450000X-0.350000X0.450000X0.350000X0*%
G04 APERTURE END LIST*
D10*
X196091000Y-98486000D02*
X184091000Y-98486000D01*
X196091000Y-90486000D02*
X196091000Y-98486000D01*
X184091000Y-90486000D02*
X196091000Y-90486000D01*
D11*
X172843826Y-104146924D02*
X173714684Y-104146924D01*
X173279255Y-105670924D02*
X173279255Y-104146924D01*
X174077541Y-104146924D02*
X175093541Y-105670924D01*
X175093541Y-104146924D02*
X174077541Y-105670924D01*
X175964398Y-104146924D02*
X176109541Y-104146924D01*
X176109541Y-104146924D02*
X176254684Y-104219495D01*
X176254684Y-104219495D02*
X176327256Y-104292067D01*
X176327256Y-104292067D02*
X176399827Y-104437210D01*
X176399827Y-104437210D02*
X176472398Y-104727495D01*
X176472398Y-104727495D02*
X176472398Y-105090353D01*
X176472398Y-105090353D02*
X176399827Y-105380638D01*
X176399827Y-105380638D02*
X176327256Y-105525781D01*
X176327256Y-105525781D02*
X176254684Y-105598353D01*
X176254684Y-105598353D02*
X176109541Y-105670924D01*
X176109541Y-105670924D02*
X175964398Y-105670924D01*
X175964398Y-105670924D02*
X175819256Y-105598353D01*
X175819256Y-105598353D02*
X175746684Y-105525781D01*
X175746684Y-105525781D02*
X175674113Y-105380638D01*
X175674113Y-105380638D02*
X175601541Y-105090353D01*
X175601541Y-105090353D02*
X175601541Y-104727495D01*
X175601541Y-104727495D02*
X175674113Y-104437210D01*
X175674113Y-104437210D02*
X175746684Y-104292067D01*
X175746684Y-104292067D02*
X175819256Y-104219495D01*
X175819256Y-104219495D02*
X175964398Y-104146924D01*
X173170398Y-106813924D02*
X174113826Y-106813924D01*
X174113826Y-106813924D02*
X173605826Y-107394495D01*
X173605826Y-107394495D02*
X173823541Y-107394495D01*
X173823541Y-107394495D02*
X173968684Y-107467067D01*
X173968684Y-107467067D02*
X174041255Y-107539638D01*
X174041255Y-107539638D02*
X174113826Y-107684781D01*
X174113826Y-107684781D02*
X174113826Y-108047638D01*
X174113826Y-108047638D02*
X174041255Y-108192781D01*
X174041255Y-108192781D02*
X173968684Y-108265353D01*
X173968684Y-108265353D02*
X173823541Y-108337924D01*
X173823541Y-108337924D02*
X173388112Y-108337924D01*
X173388112Y-108337924D02*
X173242969Y-108265353D01*
X173242969Y-108265353D02*
X173170398Y-108192781D01*
X174766970Y-108192781D02*
X174839541Y-108265353D01*
X174839541Y-108265353D02*
X174766970Y-108337924D01*
X174766970Y-108337924D02*
X174694398Y-108265353D01*
X174694398Y-108265353D02*
X174766970Y-108192781D01*
X174766970Y-108192781D02*
X174766970Y-108337924D01*
X175347541Y-106813924D02*
X176290969Y-106813924D01*
X176290969Y-106813924D02*
X175782969Y-107394495D01*
X175782969Y-107394495D02*
X176000684Y-107394495D01*
X176000684Y-107394495D02*
X176145827Y-107467067D01*
X176145827Y-107467067D02*
X176218398Y-107539638D01*
X176218398Y-107539638D02*
X176290969Y-107684781D01*
X176290969Y-107684781D02*
X176290969Y-108047638D01*
X176290969Y-108047638D02*
X176218398Y-108192781D01*
X176218398Y-108192781D02*
X176145827Y-108265353D01*
X176145827Y-108265353D02*
X176000684Y-108337924D01*
X176000684Y-108337924D02*
X175565255Y-108337924D01*
X175565255Y-108337924D02*
X175420112Y-108265353D01*
X175420112Y-108265353D02*
X175347541Y-108192781D01*
X173478826Y-99139495D02*
X173333684Y-99066924D01*
X173333684Y-99066924D02*
X173115969Y-99066924D01*
X173115969Y-99066924D02*
X172898255Y-99139495D01*
X172898255Y-99139495D02*
X172753112Y-99284638D01*
X172753112Y-99284638D02*
X172680541Y-99429781D01*
X172680541Y-99429781D02*
X172607969Y-99720067D01*
X172607969Y-99720067D02*
X172607969Y-99937781D01*
X172607969Y-99937781D02*
X172680541Y-100228067D01*
X172680541Y-100228067D02*
X172753112Y-100373210D01*
X172753112Y-100373210D02*
X172898255Y-100518353D01*
X172898255Y-100518353D02*
X173115969Y-100590924D01*
X173115969Y-100590924D02*
X173261112Y-100590924D01*
X173261112Y-100590924D02*
X173478826Y-100518353D01*
X173478826Y-100518353D02*
X173551398Y-100445781D01*
X173551398Y-100445781D02*
X173551398Y-99937781D01*
X173551398Y-99937781D02*
X173261112Y-99937781D01*
X174204541Y-100590924D02*
X174204541Y-99066924D01*
X174204541Y-99066924D02*
X175075398Y-100590924D01*
X175075398Y-100590924D02*
X175075398Y-99066924D01*
X175801112Y-100590924D02*
X175801112Y-99066924D01*
X175801112Y-99066924D02*
X176163969Y-99066924D01*
X176163969Y-99066924D02*
X176381683Y-99139495D01*
X176381683Y-99139495D02*
X176526826Y-99284638D01*
X176526826Y-99284638D02*
X176599397Y-99429781D01*
X176599397Y-99429781D02*
X176671969Y-99720067D01*
X176671969Y-99720067D02*
X176671969Y-99937781D01*
X176671969Y-99937781D02*
X176599397Y-100228067D01*
X176599397Y-100228067D02*
X176526826Y-100373210D01*
X176526826Y-100373210D02*
X176381683Y-100518353D01*
X176381683Y-100518353D02*
X176163969Y-100590924D01*
X176163969Y-100590924D02*
X175801112Y-100590924D01*
X173551398Y-103130924D02*
X173043398Y-102405210D01*
X172680541Y-103130924D02*
X172680541Y-101606924D01*
X172680541Y-101606924D02*
X173261112Y-101606924D01*
X173261112Y-101606924D02*
X173406255Y-101679495D01*
X173406255Y-101679495D02*
X173478826Y-101752067D01*
X173478826Y-101752067D02*
X173551398Y-101897210D01*
X173551398Y-101897210D02*
X173551398Y-102114924D01*
X173551398Y-102114924D02*
X173478826Y-102260067D01*
X173478826Y-102260067D02*
X173406255Y-102332638D01*
X173406255Y-102332638D02*
X173261112Y-102405210D01*
X173261112Y-102405210D02*
X172680541Y-102405210D01*
X174059398Y-101606924D02*
X175075398Y-103130924D01*
X175075398Y-101606924D02*
X174059398Y-103130924D01*
X175946255Y-101606924D02*
X176091398Y-101606924D01*
X176091398Y-101606924D02*
X176236541Y-101679495D01*
X176236541Y-101679495D02*
X176309113Y-101752067D01*
X176309113Y-101752067D02*
X176381684Y-101897210D01*
X176381684Y-101897210D02*
X176454255Y-102187495D01*
X176454255Y-102187495D02*
X176454255Y-102550353D01*
X176454255Y-102550353D02*
X176381684Y-102840638D01*
X176381684Y-102840638D02*
X176309113Y-102985781D01*
X176309113Y-102985781D02*
X176236541Y-103058353D01*
X176236541Y-103058353D02*
X176091398Y-103130924D01*
X176091398Y-103130924D02*
X175946255Y-103130924D01*
X175946255Y-103130924D02*
X175801113Y-103058353D01*
X175801113Y-103058353D02*
X175728541Y-102985781D01*
X175728541Y-102985781D02*
X175655970Y-102840638D01*
X175655970Y-102840638D02*
X175583398Y-102550353D01*
X175583398Y-102550353D02*
X175583398Y-102187495D01*
X175583398Y-102187495D02*
X175655970Y-101897210D01*
X175655970Y-101897210D02*
X175728541Y-101752067D01*
X175728541Y-101752067D02*
X175801113Y-101679495D01*
X175801113Y-101679495D02*
X175946255Y-101606924D01*
D10*
X180775779Y-110055819D02*
X180775779Y-109055819D01*
X181347207Y-110055819D02*
X180918636Y-109484390D01*
X181347207Y-109055819D02*
X180775779Y-109627247D01*
D11*
X193871398Y-111258924D02*
X194814826Y-111258924D01*
X194814826Y-111258924D02*
X194306826Y-111839495D01*
X194306826Y-111839495D02*
X194524541Y-111839495D01*
X194524541Y-111839495D02*
X194669684Y-111912067D01*
X194669684Y-111912067D02*
X194742255Y-111984638D01*
X194742255Y-111984638D02*
X194814826Y-112129781D01*
X194814826Y-112129781D02*
X194814826Y-112492638D01*
X194814826Y-112492638D02*
X194742255Y-112637781D01*
X194742255Y-112637781D02*
X194669684Y-112710353D01*
X194669684Y-112710353D02*
X194524541Y-112782924D01*
X194524541Y-112782924D02*
X194089112Y-112782924D01*
X194089112Y-112782924D02*
X193943969Y-112710353D01*
X193943969Y-112710353D02*
X193871398Y-112637781D01*
X195467970Y-112637781D02*
X195540541Y-112710353D01*
X195540541Y-112710353D02*
X195467970Y-112782924D01*
X195467970Y-112782924D02*
X195395398Y-112710353D01*
X195395398Y-112710353D02*
X195467970Y-112637781D01*
X195467970Y-112637781D02*
X195467970Y-112782924D01*
X196048541Y-111258924D02*
X196991969Y-111258924D01*
X196991969Y-111258924D02*
X196483969Y-111839495D01*
X196483969Y-111839495D02*
X196701684Y-111839495D01*
X196701684Y-111839495D02*
X196846827Y-111912067D01*
X196846827Y-111912067D02*
X196919398Y-111984638D01*
X196919398Y-111984638D02*
X196991969Y-112129781D01*
X196991969Y-112129781D02*
X196991969Y-112492638D01*
X196991969Y-112492638D02*
X196919398Y-112637781D01*
X196919398Y-112637781D02*
X196846827Y-112710353D01*
X196846827Y-112710353D02*
X196701684Y-112782924D01*
X196701684Y-112782924D02*
X196266255Y-112782924D01*
X196266255Y-112782924D02*
X196121112Y-112710353D01*
X196121112Y-112710353D02*
X196048541Y-112637781D01*
X171725017Y-90145840D02*
X171725017Y-88367840D01*
X171725017Y-88367840D02*
X172741017Y-90145840D01*
X172741017Y-90145840D02*
X172741017Y-88367840D01*
X173587684Y-90145840D02*
X173587684Y-88367840D01*
X173587684Y-88367840D02*
X174603684Y-90145840D01*
X174603684Y-90145840D02*
X174603684Y-88367840D01*
X175365684Y-88537174D02*
X175450351Y-88452507D01*
X175450351Y-88452507D02*
X175619684Y-88367840D01*
X175619684Y-88367840D02*
X176043018Y-88367840D01*
X176043018Y-88367840D02*
X176212351Y-88452507D01*
X176212351Y-88452507D02*
X176297018Y-88537174D01*
X176297018Y-88537174D02*
X176381684Y-88706507D01*
X176381684Y-88706507D02*
X176381684Y-88875840D01*
X176381684Y-88875840D02*
X176297018Y-89129840D01*
X176297018Y-89129840D02*
X175281018Y-90145840D01*
X175281018Y-90145840D02*
X176381684Y-90145840D01*
X177905684Y-88960507D02*
X177905684Y-90145840D01*
X177482351Y-88283174D02*
X177059017Y-89553174D01*
X177059017Y-89553174D02*
X178159684Y-89553174D01*
X180191684Y-90145840D02*
X180191684Y-88367840D01*
X181038351Y-90145840D02*
X181038351Y-88367840D01*
X181038351Y-88367840D02*
X181631018Y-89637840D01*
X181631018Y-89637840D02*
X182223684Y-88367840D01*
X182223684Y-88367840D02*
X182223684Y-90145840D01*
X183070351Y-88367840D02*
X183070351Y-89807174D01*
X183070351Y-89807174D02*
X183155018Y-89976507D01*
X183155018Y-89976507D02*
X183239684Y-90061174D01*
X183239684Y-90061174D02*
X183409018Y-90145840D01*
X183409018Y-90145840D02*
X183747684Y-90145840D01*
X183747684Y-90145840D02*
X183917018Y-90061174D01*
X183917018Y-90061174D02*
X184001684Y-89976507D01*
X184001684Y-89976507D02*
X184086351Y-89807174D01*
X184086351Y-89807174D02*
X184086351Y-88367840D01*
X186203018Y-90061174D02*
X186457018Y-90145840D01*
X186457018Y-90145840D02*
X186880352Y-90145840D01*
X186880352Y-90145840D02*
X187049685Y-90061174D01*
X187049685Y-90061174D02*
X187134352Y-89976507D01*
X187134352Y-89976507D02*
X187219018Y-89807174D01*
X187219018Y-89807174D02*
X187219018Y-89637840D01*
X187219018Y-89637840D02*
X187134352Y-89468507D01*
X187134352Y-89468507D02*
X187049685Y-89383840D01*
X187049685Y-89383840D02*
X186880352Y-89299174D01*
X186880352Y-89299174D02*
X186541685Y-89214507D01*
X186541685Y-89214507D02*
X186372352Y-89129840D01*
X186372352Y-89129840D02*
X186287685Y-89045174D01*
X186287685Y-89045174D02*
X186203018Y-88875840D01*
X186203018Y-88875840D02*
X186203018Y-88706507D01*
X186203018Y-88706507D02*
X186287685Y-88537174D01*
X186287685Y-88537174D02*
X186372352Y-88452507D01*
X186372352Y-88452507D02*
X186541685Y-88367840D01*
X186541685Y-88367840D02*
X186965018Y-88367840D01*
X186965018Y-88367840D02*
X187219018Y-88452507D01*
X187981018Y-88960507D02*
X187981018Y-90738507D01*
X187981018Y-89045174D02*
X188150351Y-88960507D01*
X188150351Y-88960507D02*
X188489018Y-88960507D01*
X188489018Y-88960507D02*
X188658351Y-89045174D01*
X188658351Y-89045174D02*
X188743018Y-89129840D01*
X188743018Y-89129840D02*
X188827685Y-89299174D01*
X188827685Y-89299174D02*
X188827685Y-89807174D01*
X188827685Y-89807174D02*
X188743018Y-89976507D01*
X188743018Y-89976507D02*
X188658351Y-90061174D01*
X188658351Y-90061174D02*
X188489018Y-90145840D01*
X188489018Y-90145840D02*
X188150351Y-90145840D01*
X188150351Y-90145840D02*
X187981018Y-90061174D01*
X189843685Y-90145840D02*
X189674352Y-90061174D01*
X189674352Y-90061174D02*
X189589685Y-89891840D01*
X189589685Y-89891840D02*
X189589685Y-88367840D01*
X190521018Y-90145840D02*
X190521018Y-88960507D01*
X190521018Y-88367840D02*
X190436351Y-88452507D01*
X190436351Y-88452507D02*
X190521018Y-88537174D01*
X190521018Y-88537174D02*
X190605685Y-88452507D01*
X190605685Y-88452507D02*
X190521018Y-88367840D01*
X190521018Y-88367840D02*
X190521018Y-88537174D01*
X191113685Y-88960507D02*
X191791018Y-88960507D01*
X191367685Y-88367840D02*
X191367685Y-89891840D01*
X191367685Y-89891840D02*
X191452352Y-90061174D01*
X191452352Y-90061174D02*
X191621685Y-90145840D01*
X191621685Y-90145840D02*
X191791018Y-90145840D01*
X192129685Y-88960507D02*
X192807018Y-88960507D01*
X192383685Y-88367840D02*
X192383685Y-89891840D01*
X192383685Y-89891840D02*
X192468352Y-90061174D01*
X192468352Y-90061174D02*
X192637685Y-90145840D01*
X192637685Y-90145840D02*
X192807018Y-90145840D01*
X194077018Y-90061174D02*
X193907685Y-90145840D01*
X193907685Y-90145840D02*
X193569018Y-90145840D01*
X193569018Y-90145840D02*
X193399685Y-90061174D01*
X193399685Y-90061174D02*
X193315018Y-89891840D01*
X193315018Y-89891840D02*
X193315018Y-89214507D01*
X193315018Y-89214507D02*
X193399685Y-89045174D01*
X193399685Y-89045174D02*
X193569018Y-88960507D01*
X193569018Y-88960507D02*
X193907685Y-88960507D01*
X193907685Y-88960507D02*
X194077018Y-89045174D01*
X194077018Y-89045174D02*
X194161685Y-89214507D01*
X194161685Y-89214507D02*
X194161685Y-89383840D01*
X194161685Y-89383840D02*
X193315018Y-89553174D01*
X194923685Y-90145840D02*
X194923685Y-88960507D01*
X194923685Y-89299174D02*
X195008352Y-89129840D01*
X195008352Y-89129840D02*
X195093018Y-89045174D01*
X195093018Y-89045174D02*
X195262352Y-88960507D01*
X195262352Y-88960507D02*
X195431685Y-88960507D01*
X197125019Y-88367840D02*
X197717686Y-90145840D01*
X197717686Y-90145840D02*
X198310352Y-88367840D01*
X198818352Y-88537174D02*
X198903019Y-88452507D01*
X198903019Y-88452507D02*
X199072352Y-88367840D01*
X199072352Y-88367840D02*
X199495686Y-88367840D01*
X199495686Y-88367840D02*
X199665019Y-88452507D01*
X199665019Y-88452507D02*
X199749686Y-88537174D01*
X199749686Y-88537174D02*
X199834352Y-88706507D01*
X199834352Y-88706507D02*
X199834352Y-88875840D01*
X199834352Y-88875840D02*
X199749686Y-89129840D01*
X199749686Y-89129840D02*
X198733686Y-90145840D01*
X198733686Y-90145840D02*
X199834352Y-90145840D01*
X200596352Y-89976507D02*
X200681019Y-90061174D01*
X200681019Y-90061174D02*
X200596352Y-90145840D01*
X200596352Y-90145840D02*
X200511685Y-90061174D01*
X200511685Y-90061174D02*
X200596352Y-89976507D01*
X200596352Y-89976507D02*
X200596352Y-90145840D01*
X201781686Y-88367840D02*
X201951019Y-88367840D01*
X201951019Y-88367840D02*
X202120352Y-88452507D01*
X202120352Y-88452507D02*
X202205019Y-88537174D01*
X202205019Y-88537174D02*
X202289686Y-88706507D01*
X202289686Y-88706507D02*
X202374352Y-89045174D01*
X202374352Y-89045174D02*
X202374352Y-89468507D01*
X202374352Y-89468507D02*
X202289686Y-89807174D01*
X202289686Y-89807174D02*
X202205019Y-89976507D01*
X202205019Y-89976507D02*
X202120352Y-90061174D01*
X202120352Y-90061174D02*
X201951019Y-90145840D01*
X201951019Y-90145840D02*
X201781686Y-90145840D01*
X201781686Y-90145840D02*
X201612352Y-90061174D01*
X201612352Y-90061174D02*
X201527686Y-89976507D01*
X201527686Y-89976507D02*
X201443019Y-89807174D01*
X201443019Y-89807174D02*
X201358352Y-89468507D01*
X201358352Y-89468507D02*
X201358352Y-89045174D01*
X201358352Y-89045174D02*
X201443019Y-88706507D01*
X201443019Y-88706507D02*
X201527686Y-88537174D01*
X201527686Y-88537174D02*
X201612352Y-88452507D01*
X201612352Y-88452507D02*
X201781686Y-88367840D01*
D10*
X194491779Y-110055819D02*
X194491779Y-109055819D01*
X195063207Y-110055819D02*
X194634636Y-109484390D01*
X195063207Y-109055819D02*
X194491779Y-109627247D01*
X189960819Y-97149220D02*
X188960819Y-97149220D01*
X189960819Y-96673030D02*
X188960819Y-96673030D01*
X188960819Y-96673030D02*
X189675104Y-96339697D01*
X189675104Y-96339697D02*
X188960819Y-96006364D01*
X188960819Y-96006364D02*
X189960819Y-96006364D01*
X188960819Y-95530173D02*
X189770342Y-95530173D01*
X189770342Y-95530173D02*
X189865580Y-95482554D01*
X189865580Y-95482554D02*
X189913200Y-95434935D01*
X189913200Y-95434935D02*
X189960819Y-95339697D01*
X189960819Y-95339697D02*
X189960819Y-95149221D01*
X189960819Y-95149221D02*
X189913200Y-95053983D01*
X189913200Y-95053983D02*
X189865580Y-95006364D01*
X189865580Y-95006364D02*
X189770342Y-94958745D01*
X189770342Y-94958745D02*
X188960819Y-94958745D01*
X189960819Y-93720649D02*
X188960819Y-93720649D01*
X188960819Y-93720649D02*
X188960819Y-93339697D01*
X188960819Y-93339697D02*
X189008438Y-93244459D01*
X189008438Y-93244459D02*
X189056057Y-93196840D01*
X189056057Y-93196840D02*
X189151295Y-93149221D01*
X189151295Y-93149221D02*
X189294152Y-93149221D01*
X189294152Y-93149221D02*
X189389390Y-93196840D01*
X189389390Y-93196840D02*
X189437009Y-93244459D01*
X189437009Y-93244459D02*
X189484628Y-93339697D01*
X189484628Y-93339697D02*
X189484628Y-93720649D01*
X189865580Y-92149221D02*
X189913200Y-92196840D01*
X189913200Y-92196840D02*
X189960819Y-92339697D01*
X189960819Y-92339697D02*
X189960819Y-92434935D01*
X189960819Y-92434935D02*
X189913200Y-92577792D01*
X189913200Y-92577792D02*
X189817961Y-92673030D01*
X189817961Y-92673030D02*
X189722723Y-92720649D01*
X189722723Y-92720649D02*
X189532247Y-92768268D01*
X189532247Y-92768268D02*
X189389390Y-92768268D01*
X189389390Y-92768268D02*
X189198914Y-92720649D01*
X189198914Y-92720649D02*
X189103676Y-92673030D01*
X189103676Y-92673030D02*
X189008438Y-92577792D01*
X189008438Y-92577792D02*
X188960819Y-92434935D01*
X188960819Y-92434935D02*
X188960819Y-92339697D01*
X188960819Y-92339697D02*
X189008438Y-92196840D01*
X189008438Y-92196840D02*
X189056057Y-92149221D01*
X189437009Y-91387316D02*
X189484628Y-91244459D01*
X189484628Y-91244459D02*
X189532247Y-91196840D01*
X189532247Y-91196840D02*
X189627485Y-91149221D01*
X189627485Y-91149221D02*
X189770342Y-91149221D01*
X189770342Y-91149221D02*
X189865580Y-91196840D01*
X189865580Y-91196840D02*
X189913200Y-91244459D01*
X189913200Y-91244459D02*
X189960819Y-91339697D01*
X189960819Y-91339697D02*
X189960819Y-91720649D01*
X189960819Y-91720649D02*
X188960819Y-91720649D01*
X188960819Y-91720649D02*
X188960819Y-91387316D01*
X188960819Y-91387316D02*
X189008438Y-91292078D01*
X189008438Y-91292078D02*
X189056057Y-91244459D01*
X189056057Y-91244459D02*
X189151295Y-91196840D01*
X189151295Y-91196840D02*
X189246533Y-91196840D01*
X189246533Y-91196840D02*
X189341771Y-91244459D01*
X189341771Y-91244459D02*
X189389390Y-91292078D01*
X189389390Y-91292078D02*
X189437009Y-91387316D01*
X189437009Y-91387316D02*
X189437009Y-91720649D01*
D12*
X206689167Y-117496974D02*
X206749643Y-117436498D01*
X206749643Y-117436498D02*
X206870596Y-117376022D01*
X206870596Y-117376022D02*
X207172977Y-117376022D01*
X207172977Y-117376022D02*
X207293929Y-117436498D01*
X207293929Y-117436498D02*
X207354405Y-117496974D01*
X207354405Y-117496974D02*
X207414882Y-117617926D01*
X207414882Y-117617926D02*
X207414882Y-117738879D01*
X207414882Y-117738879D02*
X207354405Y-117920307D01*
X207354405Y-117920307D02*
X206628691Y-118646022D01*
X206628691Y-118646022D02*
X207414882Y-118646022D01*
X208201072Y-117376022D02*
X208322025Y-117376022D01*
X208322025Y-117376022D02*
X208442977Y-117436498D01*
X208442977Y-117436498D02*
X208503453Y-117496974D01*
X208503453Y-117496974D02*
X208563929Y-117617926D01*
X208563929Y-117617926D02*
X208624406Y-117859831D01*
X208624406Y-117859831D02*
X208624406Y-118162212D01*
X208624406Y-118162212D02*
X208563929Y-118404117D01*
X208563929Y-118404117D02*
X208503453Y-118525069D01*
X208503453Y-118525069D02*
X208442977Y-118585546D01*
X208442977Y-118585546D02*
X208322025Y-118646022D01*
X208322025Y-118646022D02*
X208201072Y-118646022D01*
X208201072Y-118646022D02*
X208080120Y-118585546D01*
X208080120Y-118585546D02*
X208019644Y-118525069D01*
X208019644Y-118525069D02*
X207959167Y-118404117D01*
X207959167Y-118404117D02*
X207898691Y-118162212D01*
X207898691Y-118162212D02*
X207898691Y-117859831D01*
X207898691Y-117859831D02*
X207959167Y-117617926D01*
X207959167Y-117617926D02*
X208019644Y-117496974D01*
X208019644Y-117496974D02*
X208080120Y-117436498D01*
X208080120Y-117436498D02*
X208201072Y-117376022D01*
X209108215Y-117496974D02*
X209168691Y-117436498D01*
X209168691Y-117436498D02*
X209289644Y-117376022D01*
X209289644Y-117376022D02*
X209592025Y-117376022D01*
X209592025Y-117376022D02*
X209712977Y-117436498D01*
X209712977Y-117436498D02*
X209773453Y-117496974D01*
X209773453Y-117496974D02*
X209833930Y-117617926D01*
X209833930Y-117617926D02*
X209833930Y-117738879D01*
X209833930Y-117738879D02*
X209773453Y-117920307D01*
X209773453Y-117920307D02*
X209047739Y-118646022D01*
X209047739Y-118646022D02*
X209833930Y-118646022D01*
X210922501Y-117799355D02*
X210922501Y-118646022D01*
X210620120Y-117315546D02*
X210317739Y-118222688D01*
X210317739Y-118222688D02*
X211103930Y-118222688D01*
X211587739Y-118162212D02*
X212555359Y-118162212D01*
X213402025Y-117376022D02*
X213522978Y-117376022D01*
X213522978Y-117376022D02*
X213643930Y-117436498D01*
X213643930Y-117436498D02*
X213704406Y-117496974D01*
X213704406Y-117496974D02*
X213764882Y-117617926D01*
X213764882Y-117617926D02*
X213825359Y-117859831D01*
X213825359Y-117859831D02*
X213825359Y-118162212D01*
X213825359Y-118162212D02*
X213764882Y-118404117D01*
X213764882Y-118404117D02*
X213704406Y-118525069D01*
X213704406Y-118525069D02*
X213643930Y-118585546D01*
X213643930Y-118585546D02*
X213522978Y-118646022D01*
X213522978Y-118646022D02*
X213402025Y-118646022D01*
X213402025Y-118646022D02*
X213281073Y-118585546D01*
X213281073Y-118585546D02*
X213220597Y-118525069D01*
X213220597Y-118525069D02*
X213160120Y-118404117D01*
X213160120Y-118404117D02*
X213099644Y-118162212D01*
X213099644Y-118162212D02*
X213099644Y-117859831D01*
X213099644Y-117859831D02*
X213160120Y-117617926D01*
X213160120Y-117617926D02*
X213220597Y-117496974D01*
X213220597Y-117496974D02*
X213281073Y-117436498D01*
X213281073Y-117436498D02*
X213402025Y-117376022D01*
X214974406Y-117376022D02*
X214369644Y-117376022D01*
X214369644Y-117376022D02*
X214309168Y-117980784D01*
X214309168Y-117980784D02*
X214369644Y-117920307D01*
X214369644Y-117920307D02*
X214490597Y-117859831D01*
X214490597Y-117859831D02*
X214792978Y-117859831D01*
X214792978Y-117859831D02*
X214913930Y-117920307D01*
X214913930Y-117920307D02*
X214974406Y-117980784D01*
X214974406Y-117980784D02*
X215034883Y-118101736D01*
X215034883Y-118101736D02*
X215034883Y-118404117D01*
X215034883Y-118404117D02*
X214974406Y-118525069D01*
X214974406Y-118525069D02*
X214913930Y-118585546D01*
X214913930Y-118585546D02*
X214792978Y-118646022D01*
X214792978Y-118646022D02*
X214490597Y-118646022D01*
X214490597Y-118646022D02*
X214369644Y-118585546D01*
X214369644Y-118585546D02*
X214309168Y-118525069D01*
X206749643Y-120025413D02*
X207172977Y-120025413D01*
X207354405Y-120690651D02*
X206749643Y-120690651D01*
X206749643Y-120690651D02*
X206749643Y-119420651D01*
X206749643Y-119420651D02*
X207354405Y-119420651D01*
X207898691Y-120569698D02*
X207959168Y-120630175D01*
X207959168Y-120630175D02*
X207898691Y-120690651D01*
X207898691Y-120690651D02*
X207838215Y-120630175D01*
X207838215Y-120630175D02*
X207898691Y-120569698D01*
X207898691Y-120569698D02*
X207898691Y-120690651D01*
X209471072Y-120690651D02*
X209471072Y-119420651D01*
X209471072Y-120025413D02*
X210196787Y-120025413D01*
X210196787Y-120690651D02*
X210196787Y-119420651D01*
X211345834Y-120690651D02*
X211345834Y-120025413D01*
X211345834Y-120025413D02*
X211285358Y-119904460D01*
X211285358Y-119904460D02*
X211164406Y-119843984D01*
X211164406Y-119843984D02*
X210922501Y-119843984D01*
X210922501Y-119843984D02*
X210801548Y-119904460D01*
X211345834Y-120630175D02*
X211224882Y-120690651D01*
X211224882Y-120690651D02*
X210922501Y-120690651D01*
X210922501Y-120690651D02*
X210801548Y-120630175D01*
X210801548Y-120630175D02*
X210741072Y-120509222D01*
X210741072Y-120509222D02*
X210741072Y-120388270D01*
X210741072Y-120388270D02*
X210801548Y-120267317D01*
X210801548Y-120267317D02*
X210922501Y-120206841D01*
X210922501Y-120206841D02*
X211224882Y-120206841D01*
X211224882Y-120206841D02*
X211345834Y-120146365D01*
X211829644Y-119843984D02*
X212494882Y-119843984D01*
X212494882Y-119843984D02*
X211829644Y-120690651D01*
X211829644Y-120690651D02*
X212494882Y-120690651D01*
X213462501Y-120630175D02*
X213341549Y-120690651D01*
X213341549Y-120690651D02*
X213099644Y-120690651D01*
X213099644Y-120690651D02*
X212978691Y-120630175D01*
X212978691Y-120630175D02*
X212918215Y-120509222D01*
X212918215Y-120509222D02*
X212918215Y-120025413D01*
X212918215Y-120025413D02*
X212978691Y-119904460D01*
X212978691Y-119904460D02*
X213099644Y-119843984D01*
X213099644Y-119843984D02*
X213341549Y-119843984D01*
X213341549Y-119843984D02*
X213462501Y-119904460D01*
X213462501Y-119904460D02*
X213522977Y-120025413D01*
X213522977Y-120025413D02*
X213522977Y-120146365D01*
X213522977Y-120146365D02*
X212918215Y-120267317D01*
X214067262Y-119843984D02*
X214067262Y-120690651D01*
X214067262Y-119964936D02*
X214127739Y-119904460D01*
X214127739Y-119904460D02*
X214248691Y-119843984D01*
X214248691Y-119843984D02*
X214430120Y-119843984D01*
X214430120Y-119843984D02*
X214551072Y-119904460D01*
X214551072Y-119904460D02*
X214611548Y-120025413D01*
X214611548Y-120025413D02*
X214611548Y-120690651D01*
D11*
X174168255Y-109226924D02*
X173442541Y-109226924D01*
X173442541Y-109226924D02*
X173369969Y-109952638D01*
X173369969Y-109952638D02*
X173442541Y-109880067D01*
X173442541Y-109880067D02*
X173587684Y-109807495D01*
X173587684Y-109807495D02*
X173950541Y-109807495D01*
X173950541Y-109807495D02*
X174095684Y-109880067D01*
X174095684Y-109880067D02*
X174168255Y-109952638D01*
X174168255Y-109952638D02*
X174240826Y-110097781D01*
X174240826Y-110097781D02*
X174240826Y-110460638D01*
X174240826Y-110460638D02*
X174168255Y-110605781D01*
X174168255Y-110605781D02*
X174095684Y-110678353D01*
X174095684Y-110678353D02*
X173950541Y-110750924D01*
X173950541Y-110750924D02*
X173587684Y-110750924D01*
X173587684Y-110750924D02*
X173442541Y-110678353D01*
X173442541Y-110678353D02*
X173369969Y-110605781D01*
X174893970Y-110605781D02*
X174966541Y-110678353D01*
X174966541Y-110678353D02*
X174893970Y-110750924D01*
X174893970Y-110750924D02*
X174821398Y-110678353D01*
X174821398Y-110678353D02*
X174893970Y-110605781D01*
X174893970Y-110605781D02*
X174893970Y-110750924D01*
X175909969Y-109226924D02*
X176055112Y-109226924D01*
X176055112Y-109226924D02*
X176200255Y-109299495D01*
X176200255Y-109299495D02*
X176272827Y-109372067D01*
X176272827Y-109372067D02*
X176345398Y-109517210D01*
X176345398Y-109517210D02*
X176417969Y-109807495D01*
X176417969Y-109807495D02*
X176417969Y-110170353D01*
X176417969Y-110170353D02*
X176345398Y-110460638D01*
X176345398Y-110460638D02*
X176272827Y-110605781D01*
X176272827Y-110605781D02*
X176200255Y-110678353D01*
X176200255Y-110678353D02*
X176055112Y-110750924D01*
X176055112Y-110750924D02*
X175909969Y-110750924D01*
X175909969Y-110750924D02*
X175764827Y-110678353D01*
X175764827Y-110678353D02*
X175692255Y-110605781D01*
X175692255Y-110605781D02*
X175619684Y-110460638D01*
X175619684Y-110460638D02*
X175547112Y-110170353D01*
X175547112Y-110170353D02*
X175547112Y-109807495D01*
X175547112Y-109807495D02*
X175619684Y-109517210D01*
X175619684Y-109517210D02*
X175692255Y-109372067D01*
X175692255Y-109372067D02*
X175764827Y-109299495D01*
X175764827Y-109299495D02*
X175909969Y-109226924D01*
X181153255Y-111004924D02*
X180427541Y-111004924D01*
X180427541Y-111004924D02*
X180354969Y-111730638D01*
X180354969Y-111730638D02*
X180427541Y-111658067D01*
X180427541Y-111658067D02*
X180572684Y-111585495D01*
X180572684Y-111585495D02*
X180935541Y-111585495D01*
X180935541Y-111585495D02*
X181080684Y-111658067D01*
X181080684Y-111658067D02*
X181153255Y-111730638D01*
X181153255Y-111730638D02*
X181225826Y-111875781D01*
X181225826Y-111875781D02*
X181225826Y-112238638D01*
X181225826Y-112238638D02*
X181153255Y-112383781D01*
X181153255Y-112383781D02*
X181080684Y-112456353D01*
X181080684Y-112456353D02*
X180935541Y-112528924D01*
X180935541Y-112528924D02*
X180572684Y-112528924D01*
X180572684Y-112528924D02*
X180427541Y-112456353D01*
X180427541Y-112456353D02*
X180354969Y-112383781D01*
X181878970Y-112383781D02*
X181951541Y-112456353D01*
X181951541Y-112456353D02*
X181878970Y-112528924D01*
X181878970Y-112528924D02*
X181806398Y-112456353D01*
X181806398Y-112456353D02*
X181878970Y-112383781D01*
X181878970Y-112383781D02*
X181878970Y-112528924D01*
X182894969Y-111004924D02*
X183040112Y-111004924D01*
X183040112Y-111004924D02*
X183185255Y-111077495D01*
X183185255Y-111077495D02*
X183257827Y-111150067D01*
X183257827Y-111150067D02*
X183330398Y-111295210D01*
X183330398Y-111295210D02*
X183402969Y-111585495D01*
X183402969Y-111585495D02*
X183402969Y-111948353D01*
X183402969Y-111948353D02*
X183330398Y-112238638D01*
X183330398Y-112238638D02*
X183257827Y-112383781D01*
X183257827Y-112383781D02*
X183185255Y-112456353D01*
X183185255Y-112456353D02*
X183040112Y-112528924D01*
X183040112Y-112528924D02*
X182894969Y-112528924D01*
X182894969Y-112528924D02*
X182749827Y-112456353D01*
X182749827Y-112456353D02*
X182677255Y-112383781D01*
X182677255Y-112383781D02*
X182604684Y-112238638D01*
X182604684Y-112238638D02*
X182532112Y-111948353D01*
X182532112Y-111948353D02*
X182532112Y-111585495D01*
X182532112Y-111585495D02*
X182604684Y-111295210D01*
X182604684Y-111295210D02*
X182677255Y-111150067D01*
X182677255Y-111150067D02*
X182749827Y-111077495D01*
X182749827Y-111077495D02*
X182894969Y-111004924D01*
X172691999Y-85480464D02*
X172691999Y-86569035D01*
X172691999Y-86569035D02*
X172619428Y-86786750D01*
X172619428Y-86786750D02*
X172474285Y-86931893D01*
X172474285Y-86931893D02*
X172256571Y-87004464D01*
X172256571Y-87004464D02*
X172111428Y-87004464D01*
X174070857Y-85480464D02*
X173780571Y-85480464D01*
X173780571Y-85480464D02*
X173635428Y-85553035D01*
X173635428Y-85553035D02*
X173562857Y-85625607D01*
X173562857Y-85625607D02*
X173417714Y-85843321D01*
X173417714Y-85843321D02*
X173345142Y-86133607D01*
X173345142Y-86133607D02*
X173345142Y-86714178D01*
X173345142Y-86714178D02*
X173417714Y-86859321D01*
X173417714Y-86859321D02*
X173490285Y-86931893D01*
X173490285Y-86931893D02*
X173635428Y-87004464D01*
X173635428Y-87004464D02*
X173925714Y-87004464D01*
X173925714Y-87004464D02*
X174070857Y-86931893D01*
X174070857Y-86931893D02*
X174143428Y-86859321D01*
X174143428Y-86859321D02*
X174215999Y-86714178D01*
X174215999Y-86714178D02*
X174215999Y-86351321D01*
X174215999Y-86351321D02*
X174143428Y-86206178D01*
X174143428Y-86206178D02*
X174070857Y-86133607D01*
X174070857Y-86133607D02*
X173925714Y-86061035D01*
X173925714Y-86061035D02*
X173635428Y-86061035D01*
X173635428Y-86061035D02*
X173490285Y-86133607D01*
X173490285Y-86133607D02*
X173417714Y-86206178D01*
X173417714Y-86206178D02*
X173345142Y-86351321D01*
X185265000Y-102988321D02*
X185192428Y-103060893D01*
X185192428Y-103060893D02*
X184974714Y-103133464D01*
X184974714Y-103133464D02*
X184829571Y-103133464D01*
X184829571Y-103133464D02*
X184611857Y-103060893D01*
X184611857Y-103060893D02*
X184466714Y-102915750D01*
X184466714Y-102915750D02*
X184394143Y-102770607D01*
X184394143Y-102770607D02*
X184321571Y-102480321D01*
X184321571Y-102480321D02*
X184321571Y-102262607D01*
X184321571Y-102262607D02*
X184394143Y-101972321D01*
X184394143Y-101972321D02*
X184466714Y-101827178D01*
X184466714Y-101827178D02*
X184611857Y-101682035D01*
X184611857Y-101682035D02*
X184829571Y-101609464D01*
X184829571Y-101609464D02*
X184974714Y-101609464D01*
X184974714Y-101609464D02*
X185192428Y-101682035D01*
X185192428Y-101682035D02*
X185265000Y-101754607D01*
X186716428Y-103133464D02*
X185845571Y-103133464D01*
X186281000Y-103133464D02*
X186281000Y-101609464D01*
X186281000Y-101609464D02*
X186135857Y-101827178D01*
X186135857Y-101827178D02*
X185990714Y-101972321D01*
X185990714Y-101972321D02*
X185845571Y-102044893D01*
X181291999Y-93237464D02*
X181291999Y-94326035D01*
X181291999Y-94326035D02*
X181219428Y-94543750D01*
X181219428Y-94543750D02*
X181074285Y-94688893D01*
X181074285Y-94688893D02*
X180856571Y-94761464D01*
X180856571Y-94761464D02*
X180711428Y-94761464D01*
X182235428Y-93890607D02*
X182090285Y-93818035D01*
X182090285Y-93818035D02*
X182017714Y-93745464D01*
X182017714Y-93745464D02*
X181945142Y-93600321D01*
X181945142Y-93600321D02*
X181945142Y-93527750D01*
X181945142Y-93527750D02*
X182017714Y-93382607D01*
X182017714Y-93382607D02*
X182090285Y-93310035D01*
X182090285Y-93310035D02*
X182235428Y-93237464D01*
X182235428Y-93237464D02*
X182525714Y-93237464D01*
X182525714Y-93237464D02*
X182670857Y-93310035D01*
X182670857Y-93310035D02*
X182743428Y-93382607D01*
X182743428Y-93382607D02*
X182815999Y-93527750D01*
X182815999Y-93527750D02*
X182815999Y-93600321D01*
X182815999Y-93600321D02*
X182743428Y-93745464D01*
X182743428Y-93745464D02*
X182670857Y-93818035D01*
X182670857Y-93818035D02*
X182525714Y-93890607D01*
X182525714Y-93890607D02*
X182235428Y-93890607D01*
X182235428Y-93890607D02*
X182090285Y-93963178D01*
X182090285Y-93963178D02*
X182017714Y-94035750D01*
X182017714Y-94035750D02*
X181945142Y-94180893D01*
X181945142Y-94180893D02*
X181945142Y-94471178D01*
X181945142Y-94471178D02*
X182017714Y-94616321D01*
X182017714Y-94616321D02*
X182090285Y-94688893D01*
X182090285Y-94688893D02*
X182235428Y-94761464D01*
X182235428Y-94761464D02*
X182525714Y-94761464D01*
X182525714Y-94761464D02*
X182670857Y-94688893D01*
X182670857Y-94688893D02*
X182743428Y-94616321D01*
X182743428Y-94616321D02*
X182815999Y-94471178D01*
X182815999Y-94471178D02*
X182815999Y-94180893D01*
X182815999Y-94180893D02*
X182743428Y-94035750D01*
X182743428Y-94035750D02*
X182670857Y-93963178D01*
X182670857Y-93963178D02*
X182525714Y-93890607D01*
X195679000Y-102988321D02*
X195606428Y-103060893D01*
X195606428Y-103060893D02*
X195388714Y-103133464D01*
X195388714Y-103133464D02*
X195243571Y-103133464D01*
X195243571Y-103133464D02*
X195025857Y-103060893D01*
X195025857Y-103060893D02*
X194880714Y-102915750D01*
X194880714Y-102915750D02*
X194808143Y-102770607D01*
X194808143Y-102770607D02*
X194735571Y-102480321D01*
X194735571Y-102480321D02*
X194735571Y-102262607D01*
X194735571Y-102262607D02*
X194808143Y-101972321D01*
X194808143Y-101972321D02*
X194880714Y-101827178D01*
X194880714Y-101827178D02*
X195025857Y-101682035D01*
X195025857Y-101682035D02*
X195243571Y-101609464D01*
X195243571Y-101609464D02*
X195388714Y-101609464D01*
X195388714Y-101609464D02*
X195606428Y-101682035D01*
X195606428Y-101682035D02*
X195679000Y-101754607D01*
X196259571Y-101754607D02*
X196332143Y-101682035D01*
X196332143Y-101682035D02*
X196477286Y-101609464D01*
X196477286Y-101609464D02*
X196840143Y-101609464D01*
X196840143Y-101609464D02*
X196985286Y-101682035D01*
X196985286Y-101682035D02*
X197057857Y-101754607D01*
X197057857Y-101754607D02*
X197130428Y-101899750D01*
X197130428Y-101899750D02*
X197130428Y-102044893D01*
X197130428Y-102044893D02*
X197057857Y-102262607D01*
X197057857Y-102262607D02*
X196187000Y-103133464D01*
X196187000Y-103133464D02*
X197130428Y-103133464D01*
X159677964Y-112675500D02*
X160766535Y-112675500D01*
X160766535Y-112675500D02*
X160984250Y-112748071D01*
X160984250Y-112748071D02*
X161129393Y-112893214D01*
X161129393Y-112893214D02*
X161201964Y-113110928D01*
X161201964Y-113110928D02*
X161201964Y-113256071D01*
X159677964Y-112094928D02*
X159677964Y-111078928D01*
X159677964Y-111078928D02*
X161201964Y-111732071D01*
X180184999Y-113420464D02*
X180184999Y-114509035D01*
X180184999Y-114509035D02*
X180112428Y-114726750D01*
X180112428Y-114726750D02*
X179967285Y-114871893D01*
X179967285Y-114871893D02*
X179749571Y-114944464D01*
X179749571Y-114944464D02*
X179604428Y-114944464D01*
X181708999Y-114944464D02*
X180838142Y-114944464D01*
X181273571Y-114944464D02*
X181273571Y-113420464D01*
X181273571Y-113420464D02*
X181128428Y-113638178D01*
X181128428Y-113638178D02*
X180983285Y-113783321D01*
X180983285Y-113783321D02*
X180838142Y-113855893D01*
X197964999Y-113547464D02*
X197964999Y-114636035D01*
X197964999Y-114636035D02*
X197892428Y-114853750D01*
X197892428Y-114853750D02*
X197747285Y-114998893D01*
X197747285Y-114998893D02*
X197529571Y-115071464D01*
X197529571Y-115071464D02*
X197384428Y-115071464D01*
X198618142Y-113692607D02*
X198690714Y-113620035D01*
X198690714Y-113620035D02*
X198835857Y-113547464D01*
X198835857Y-113547464D02*
X199198714Y-113547464D01*
X199198714Y-113547464D02*
X199343857Y-113620035D01*
X199343857Y-113620035D02*
X199416428Y-113692607D01*
X199416428Y-113692607D02*
X199488999Y-113837750D01*
X199488999Y-113837750D02*
X199488999Y-113982893D01*
X199488999Y-113982893D02*
X199416428Y-114200607D01*
X199416428Y-114200607D02*
X198545571Y-115071464D01*
X198545571Y-115071464D02*
X199488999Y-115071464D01*
X198491143Y-112785464D02*
X198491143Y-111261464D01*
X198491143Y-111261464D02*
X198854000Y-111261464D01*
X198854000Y-111261464D02*
X199071714Y-111334035D01*
X199071714Y-111334035D02*
X199216857Y-111479178D01*
X199216857Y-111479178D02*
X199289428Y-111624321D01*
X199289428Y-111624321D02*
X199362000Y-111914607D01*
X199362000Y-111914607D02*
X199362000Y-112132321D01*
X199362000Y-112132321D02*
X199289428Y-112422607D01*
X199289428Y-112422607D02*
X199216857Y-112567750D01*
X199216857Y-112567750D02*
X199071714Y-112712893D01*
X199071714Y-112712893D02*
X198854000Y-112785464D01*
X198854000Y-112785464D02*
X198491143Y-112785464D01*
X199942571Y-111406607D02*
X200015143Y-111334035D01*
X200015143Y-111334035D02*
X200160286Y-111261464D01*
X200160286Y-111261464D02*
X200523143Y-111261464D01*
X200523143Y-111261464D02*
X200668286Y-111334035D01*
X200668286Y-111334035D02*
X200740857Y-111406607D01*
X200740857Y-111406607D02*
X200813428Y-111551750D01*
X200813428Y-111551750D02*
X200813428Y-111696893D01*
X200813428Y-111696893D02*
X200740857Y-111914607D01*
X200740857Y-111914607D02*
X199870000Y-112785464D01*
X199870000Y-112785464D02*
X200813428Y-112785464D01*
X177517999Y-97418464D02*
X177517999Y-98507035D01*
X177517999Y-98507035D02*
X177445428Y-98724750D01*
X177445428Y-98724750D02*
X177300285Y-98869893D01*
X177300285Y-98869893D02*
X177082571Y-98942464D01*
X177082571Y-98942464D02*
X176937428Y-98942464D01*
X178316285Y-98942464D02*
X178606571Y-98942464D01*
X178606571Y-98942464D02*
X178751714Y-98869893D01*
X178751714Y-98869893D02*
X178824285Y-98797321D01*
X178824285Y-98797321D02*
X178969428Y-98579607D01*
X178969428Y-98579607D02*
X179041999Y-98289321D01*
X179041999Y-98289321D02*
X179041999Y-97708750D01*
X179041999Y-97708750D02*
X178969428Y-97563607D01*
X178969428Y-97563607D02*
X178896857Y-97491035D01*
X178896857Y-97491035D02*
X178751714Y-97418464D01*
X178751714Y-97418464D02*
X178461428Y-97418464D01*
X178461428Y-97418464D02*
X178316285Y-97491035D01*
X178316285Y-97491035D02*
X178243714Y-97563607D01*
X178243714Y-97563607D02*
X178171142Y-97708750D01*
X178171142Y-97708750D02*
X178171142Y-98071607D01*
X178171142Y-98071607D02*
X178243714Y-98216750D01*
X178243714Y-98216750D02*
X178316285Y-98289321D01*
X178316285Y-98289321D02*
X178461428Y-98361893D01*
X178461428Y-98361893D02*
X178751714Y-98361893D01*
X178751714Y-98361893D02*
X178896857Y-98289321D01*
X178896857Y-98289321D02*
X178969428Y-98216750D01*
X178969428Y-98216750D02*
X179041999Y-98071607D01*
X188929857Y-112912464D02*
X188929857Y-114146178D01*
X188929857Y-114146178D02*
X189002428Y-114291321D01*
X189002428Y-114291321D02*
X189075000Y-114363893D01*
X189075000Y-114363893D02*
X189220142Y-114436464D01*
X189220142Y-114436464D02*
X189510428Y-114436464D01*
X189510428Y-114436464D02*
X189655571Y-114363893D01*
X189655571Y-114363893D02*
X189728142Y-114291321D01*
X189728142Y-114291321D02*
X189800714Y-114146178D01*
X189800714Y-114146178D02*
X189800714Y-112912464D01*
X191324713Y-114436464D02*
X190453856Y-114436464D01*
X190889285Y-114436464D02*
X190889285Y-112912464D01*
X190889285Y-112912464D02*
X190744142Y-113130178D01*
X190744142Y-113130178D02*
X190598999Y-113275321D01*
X190598999Y-113275321D02*
X190453856Y-113347893D01*
X184775143Y-112531464D02*
X184775143Y-111007464D01*
X184775143Y-111007464D02*
X185138000Y-111007464D01*
X185138000Y-111007464D02*
X185355714Y-111080035D01*
X185355714Y-111080035D02*
X185500857Y-111225178D01*
X185500857Y-111225178D02*
X185573428Y-111370321D01*
X185573428Y-111370321D02*
X185646000Y-111660607D01*
X185646000Y-111660607D02*
X185646000Y-111878321D01*
X185646000Y-111878321D02*
X185573428Y-112168607D01*
X185573428Y-112168607D02*
X185500857Y-112313750D01*
X185500857Y-112313750D02*
X185355714Y-112458893D01*
X185355714Y-112458893D02*
X185138000Y-112531464D01*
X185138000Y-112531464D02*
X184775143Y-112531464D01*
X187097428Y-112531464D02*
X186226571Y-112531464D01*
X186662000Y-112531464D02*
X186662000Y-111007464D01*
X186662000Y-111007464D02*
X186516857Y-111225178D01*
X186516857Y-111225178D02*
X186371714Y-111370321D01*
X186371714Y-111370321D02*
X186226571Y-111442893D01*
X181836000Y-103133464D02*
X181328000Y-102407750D01*
X180965143Y-103133464D02*
X180965143Y-101609464D01*
X180965143Y-101609464D02*
X181545714Y-101609464D01*
X181545714Y-101609464D02*
X181690857Y-101682035D01*
X181690857Y-101682035D02*
X181763428Y-101754607D01*
X181763428Y-101754607D02*
X181836000Y-101899750D01*
X181836000Y-101899750D02*
X181836000Y-102117464D01*
X181836000Y-102117464D02*
X181763428Y-102262607D01*
X181763428Y-102262607D02*
X181690857Y-102335178D01*
X181690857Y-102335178D02*
X181545714Y-102407750D01*
X181545714Y-102407750D02*
X180965143Y-102407750D01*
X183287428Y-103133464D02*
X182416571Y-103133464D01*
X182852000Y-103133464D02*
X182852000Y-101609464D01*
X182852000Y-101609464D02*
X182706857Y-101827178D01*
X182706857Y-101827178D02*
X182561714Y-101972321D01*
X182561714Y-101972321D02*
X182416571Y-102044893D01*
X199362000Y-103133464D02*
X198854000Y-102407750D01*
X198491143Y-103133464D02*
X198491143Y-101609464D01*
X198491143Y-101609464D02*
X199071714Y-101609464D01*
X199071714Y-101609464D02*
X199216857Y-101682035D01*
X199216857Y-101682035D02*
X199289428Y-101754607D01*
X199289428Y-101754607D02*
X199362000Y-101899750D01*
X199362000Y-101899750D02*
X199362000Y-102117464D01*
X199362000Y-102117464D02*
X199289428Y-102262607D01*
X199289428Y-102262607D02*
X199216857Y-102335178D01*
X199216857Y-102335178D02*
X199071714Y-102407750D01*
X199071714Y-102407750D02*
X198491143Y-102407750D01*
X199942571Y-101754607D02*
X200015143Y-101682035D01*
X200015143Y-101682035D02*
X200160286Y-101609464D01*
X200160286Y-101609464D02*
X200523143Y-101609464D01*
X200523143Y-101609464D02*
X200668286Y-101682035D01*
X200668286Y-101682035D02*
X200740857Y-101754607D01*
X200740857Y-101754607D02*
X200813428Y-101899750D01*
X200813428Y-101899750D02*
X200813428Y-102044893D01*
X200813428Y-102044893D02*
X200740857Y-102262607D01*
X200740857Y-102262607D02*
X199870000Y-103133464D01*
X199870000Y-103133464D02*
X200813428Y-103133464D01*
X202028999Y-91703464D02*
X202028999Y-92792035D01*
X202028999Y-92792035D02*
X201956428Y-93009750D01*
X201956428Y-93009750D02*
X201811285Y-93154893D01*
X201811285Y-93154893D02*
X201593571Y-93227464D01*
X201593571Y-93227464D02*
X201448428Y-93227464D01*
X203407857Y-92211464D02*
X203407857Y-93227464D01*
X203044999Y-91630893D02*
X202682142Y-92719464D01*
X202682142Y-92719464D02*
X203625571Y-92719464D01*
X201774999Y-107959464D02*
X201774999Y-109048035D01*
X201774999Y-109048035D02*
X201702428Y-109265750D01*
X201702428Y-109265750D02*
X201557285Y-109410893D01*
X201557285Y-109410893D02*
X201339571Y-109483464D01*
X201339571Y-109483464D02*
X201194428Y-109483464D01*
X202355571Y-107959464D02*
X203298999Y-107959464D01*
X203298999Y-107959464D02*
X202790999Y-108540035D01*
X202790999Y-108540035D02*
X203008714Y-108540035D01*
X203008714Y-108540035D02*
X203153857Y-108612607D01*
X203153857Y-108612607D02*
X203226428Y-108685178D01*
X203226428Y-108685178D02*
X203298999Y-108830321D01*
X203298999Y-108830321D02*
X203298999Y-109193178D01*
X203298999Y-109193178D02*
X203226428Y-109338321D01*
X203226428Y-109338321D02*
X203153857Y-109410893D01*
X203153857Y-109410893D02*
X203008714Y-109483464D01*
X203008714Y-109483464D02*
X202573285Y-109483464D01*
X202573285Y-109483464D02*
X202428142Y-109410893D01*
X202428142Y-109410893D02*
X202355571Y-109338321D01*
X205965999Y-84972464D02*
X205965999Y-86061035D01*
X205965999Y-86061035D02*
X205893428Y-86278750D01*
X205893428Y-86278750D02*
X205748285Y-86423893D01*
X205748285Y-86423893D02*
X205530571Y-86496464D01*
X205530571Y-86496464D02*
X205385428Y-86496464D01*
X207417428Y-84972464D02*
X206691714Y-84972464D01*
X206691714Y-84972464D02*
X206619142Y-85698178D01*
X206619142Y-85698178D02*
X206691714Y-85625607D01*
X206691714Y-85625607D02*
X206836857Y-85553035D01*
X206836857Y-85553035D02*
X207199714Y-85553035D01*
X207199714Y-85553035D02*
X207344857Y-85625607D01*
X207344857Y-85625607D02*
X207417428Y-85698178D01*
X207417428Y-85698178D02*
X207489999Y-85843321D01*
X207489999Y-85843321D02*
X207489999Y-86206178D01*
X207489999Y-86206178D02*
X207417428Y-86351321D01*
X207417428Y-86351321D02*
X207344857Y-86423893D01*
X207344857Y-86423893D02*
X207199714Y-86496464D01*
X207199714Y-86496464D02*
X206836857Y-86496464D01*
X206836857Y-86496464D02*
X206691714Y-86423893D01*
X206691714Y-86423893D02*
X206619142Y-86351321D01*
D13*
%TO.C,J6*%
X175220000Y-69900000D02*
X186420000Y-69900000D01*
X175220000Y-87900000D02*
X175220000Y-69900000D01*
X186420000Y-69900000D02*
X186420000Y-87900000D01*
X186420000Y-87900000D02*
X175220000Y-87900000D01*
D14*
%TO.C,C1*%
X184022000Y-105225748D02*
X184022000Y-105748252D01*
X185492000Y-105225748D02*
X185492000Y-105748252D01*
%TO.C,J8*%
X183981000Y-91916000D02*
X185091000Y-91916000D01*
X183981000Y-92676000D02*
X183981000Y-91916000D01*
X183981000Y-93436000D02*
X183981000Y-97181000D01*
X183981000Y-93436000D02*
X184527529Y-93436000D01*
X183981000Y-97181000D02*
X184783470Y-97181000D01*
X185398530Y-97181000D02*
X186201000Y-97181000D01*
X185654471Y-93436000D02*
X186201000Y-93436000D01*
X186201000Y-93436000D02*
X186201000Y-97181000D01*
%TO.C,C2*%
X195265000Y-105413748D02*
X195265000Y-105936252D01*
X196735000Y-105413748D02*
X196735000Y-105936252D01*
D15*
%TO.C,J7*%
X162392500Y-91482500D02*
X162392500Y-114342500D01*
X162392500Y-91482500D02*
X167722500Y-91482500D01*
X167722500Y-91482500D02*
X167722500Y-114342500D01*
X167722500Y-114342500D02*
X162392500Y-114342500D01*
X170362500Y-114992500D02*
G75*
G02*
X170162500Y-114992500I-100000J0D01*
G01*
X170162500Y-114992500D02*
G75*
G02*
X170362500Y-114992500I100000J0D01*
G01*
D13*
%TO.C,J1*%
X175490000Y-115640000D02*
X186690000Y-115640000D01*
X175490000Y-133640000D02*
X175490000Y-115640000D01*
X186690000Y-115640000D02*
X186690000Y-133640000D01*
X186690000Y-133640000D02*
X175490000Y-133640000D01*
%TO.C,J2*%
X193205000Y-115750000D02*
X204405000Y-115750000D01*
X193205000Y-133750000D02*
X193205000Y-115750000D01*
X204405000Y-115750000D02*
X204405000Y-133750000D01*
X204405000Y-133750000D02*
X193205000Y-133750000D01*
D14*
%TO.C,D2*%
X195470000Y-108591000D02*
X195470000Y-110511000D01*
X195470000Y-110511000D02*
X198330000Y-110511000D01*
X198330000Y-108591000D02*
X195470000Y-108591000D01*
%TO.C,J9*%
X177077000Y-109805000D02*
X177077000Y-99585000D01*
X179737000Y-99585000D02*
X177077000Y-99585000D01*
X179737000Y-109805000D02*
X177077000Y-109805000D01*
X179737000Y-109805000D02*
X179737000Y-99585000D01*
X179737000Y-111075000D02*
X179737000Y-112405000D01*
X179737000Y-112405000D02*
X178407000Y-112405000D01*
%TO.C,U1*%
X186590000Y-106150000D02*
X186590000Y-109910000D01*
X186590000Y-109910000D02*
X187850000Y-109910000D01*
X193410000Y-106150000D02*
X193410000Y-109910000D01*
X193410000Y-109910000D02*
X192150000Y-109910000D01*
X193640000Y-105110000D02*
X193310000Y-104870000D01*
X193640000Y-104630000D01*
X193640000Y-105110000D01*
G36*
X193640000Y-105110000D02*
G01*
X193310000Y-104870000D01*
X193640000Y-104630000D01*
X193640000Y-105110000D01*
G37*
%TO.C,D1*%
X182360000Y-110511000D02*
X185220000Y-110511000D01*
X185220000Y-108591000D02*
X182360000Y-108591000D01*
X185220000Y-110511000D02*
X185220000Y-108591000D01*
%TO.C,R1*%
X181482000Y-105259936D02*
X181482000Y-105714064D01*
X182952000Y-105259936D02*
X182952000Y-105714064D01*
%TO.C,R2*%
X197992000Y-105374248D02*
X197992000Y-105896752D01*
X199462000Y-105374248D02*
X199462000Y-105896752D01*
D13*
%TO.C,J4*%
X204225000Y-89310000D02*
X222225000Y-89310000D01*
X204225000Y-100510000D02*
X204225000Y-89310000D01*
X222225000Y-89310000D02*
X222225000Y-100510000D01*
X222225000Y-100510000D02*
X204225000Y-100510000D01*
%TO.C,J3*%
X204225000Y-102940000D02*
X222225000Y-102940000D01*
X204225000Y-114140000D02*
X204225000Y-102940000D01*
X222225000Y-102940000D02*
X222225000Y-114140000D01*
X222225000Y-114140000D02*
X204225000Y-114140000D01*
%TO.C,J5*%
X193407500Y-69900000D02*
X204607500Y-69900000D01*
X193407500Y-87900000D02*
X193407500Y-69900000D01*
X204607500Y-69900000D02*
X204607500Y-87900000D01*
X204607500Y-87900000D02*
X193407500Y-87900000D01*
%TD*%
D16*
%TO.C,J6*%
X182720000Y-84000000D03*
X181450000Y-86540000D03*
X180180000Y-84000000D03*
X178910000Y-86540000D03*
D17*
X184625000Y-77650000D03*
X177000000Y-77650000D03*
%TD*%
D18*
%TO.C,C1*%
X184757000Y-104449500D03*
X184757000Y-106524500D03*
%TD*%
D19*
%TO.C,J8*%
X185091000Y-92676000D03*
D20*
X185091000Y-93946000D03*
X185091000Y-95216000D03*
X185091000Y-96486000D03*
%TD*%
D18*
%TO.C,C2*%
X196000000Y-104637500D03*
X196000000Y-106712500D03*
%TD*%
D21*
%TO.C,J7*%
X170262500Y-110532500D03*
D22*
X168992500Y-110532500D03*
X170262500Y-109262500D03*
X168992500Y-109262500D03*
X170262500Y-107992500D03*
X168992500Y-107992500D03*
X170262500Y-106722500D03*
X168992500Y-106722500D03*
X170262500Y-105452500D03*
X168992500Y-105452500D03*
X170262500Y-104182500D03*
X168992500Y-104182500D03*
X170262500Y-102912500D03*
X168992500Y-102912500D03*
X170262500Y-101642500D03*
X168992500Y-101642500D03*
X170262500Y-100372500D03*
X168992500Y-100372500D03*
X170262500Y-99102500D03*
X168992500Y-99102500D03*
X170262500Y-97832500D03*
X168992500Y-97832500D03*
X170262500Y-96562500D03*
X168992500Y-96562500D03*
X170262500Y-95292500D03*
X168992500Y-95292500D03*
%TD*%
D16*
%TO.C,J1*%
X179190000Y-119540000D03*
X180460000Y-117000000D03*
X181730000Y-119540000D03*
X183000000Y-117000000D03*
D17*
X177285000Y-125890000D03*
X184910000Y-125890000D03*
%TD*%
D16*
%TO.C,J2*%
X196905000Y-119650000D03*
X198175000Y-117110000D03*
X199445000Y-119650000D03*
X200715000Y-117110000D03*
D17*
X195000000Y-126000000D03*
X202625000Y-126000000D03*
%TD*%
D23*
%TO.C,D2*%
X196305000Y-109551000D03*
X198355000Y-109551000D03*
%TD*%
D24*
%TO.C,J9*%
X178407000Y-111075000D03*
D25*
X178407000Y-108535000D03*
X178407000Y-105995000D03*
X178407000Y-103455000D03*
X178407000Y-100915000D03*
%TD*%
D26*
%TO.C,U1*%
X192300000Y-104850000D03*
X190000000Y-104850000D03*
D27*
X190000000Y-111150000D03*
D26*
X187700000Y-104850000D03*
%TD*%
D28*
%TO.C,D1*%
X184385000Y-109551000D03*
X182335000Y-109551000D03*
%TD*%
D29*
%TO.C,R1*%
X182217000Y-104487000D03*
X182217000Y-106487000D03*
%TD*%
D18*
%TO.C,R2*%
X198727000Y-104598000D03*
X198727000Y-106673000D03*
%TD*%
D16*
%TO.C,J4*%
X208125000Y-96810000D03*
X205585000Y-95540000D03*
X208125000Y-94270000D03*
X205585000Y-93000000D03*
D17*
X214475000Y-98715000D03*
X214475000Y-91090000D03*
%TD*%
D16*
%TO.C,J3*%
X208125000Y-110440000D03*
X205585000Y-109170000D03*
X208125000Y-107900000D03*
X205585000Y-106630000D03*
D17*
X214475000Y-112345000D03*
X214475000Y-104720000D03*
%TD*%
D16*
%TO.C,J5*%
X200907500Y-84000000D03*
X199637500Y-86540000D03*
X198367500Y-84000000D03*
X197097500Y-86540000D03*
D17*
X202812500Y-77650000D03*
X195187500Y-77650000D03*
%TD*%
D10*
X178986667Y-70289219D02*
X179081905Y-70289219D01*
X179081905Y-70289219D02*
X179177143Y-70336838D01*
X179177143Y-70336838D02*
X179224762Y-70384457D01*
X179224762Y-70384457D02*
X179272381Y-70479695D01*
X179272381Y-70479695D02*
X179320000Y-70670171D01*
X179320000Y-70670171D02*
X179320000Y-70908266D01*
X179320000Y-70908266D02*
X179272381Y-71098742D01*
X179272381Y-71098742D02*
X179224762Y-71193980D01*
X179224762Y-71193980D02*
X179177143Y-71241600D01*
X179177143Y-71241600D02*
X179081905Y-71289219D01*
X179081905Y-71289219D02*
X178986667Y-71289219D01*
X178986667Y-71289219D02*
X178891429Y-71241600D01*
X178891429Y-71241600D02*
X178843810Y-71193980D01*
X178843810Y-71193980D02*
X178796191Y-71098742D01*
X178796191Y-71098742D02*
X178748572Y-70908266D01*
X178748572Y-70908266D02*
X178748572Y-70670171D01*
X178748572Y-70670171D02*
X178796191Y-70479695D01*
X178796191Y-70479695D02*
X178843810Y-70384457D01*
X178843810Y-70384457D02*
X178891429Y-70336838D01*
X178891429Y-70336838D02*
X178986667Y-70289219D01*
X179748572Y-71193980D02*
X179796191Y-71241600D01*
X179796191Y-71241600D02*
X179748572Y-71289219D01*
X179748572Y-71289219D02*
X179700953Y-71241600D01*
X179700953Y-71241600D02*
X179748572Y-71193980D01*
X179748572Y-71193980D02*
X179748572Y-71289219D01*
X180653333Y-70622552D02*
X180653333Y-71289219D01*
X180415238Y-70241600D02*
X180177143Y-70955885D01*
X180177143Y-70955885D02*
X180796190Y-70955885D01*
X181939048Y-71289219D02*
X181939048Y-70622552D01*
X181939048Y-70289219D02*
X181891429Y-70336838D01*
X181891429Y-70336838D02*
X181939048Y-70384457D01*
X181939048Y-70384457D02*
X181986667Y-70336838D01*
X181986667Y-70336838D02*
X181939048Y-70289219D01*
X181939048Y-70289219D02*
X181939048Y-70384457D01*
X182415238Y-70622552D02*
X182415238Y-71289219D01*
X182415238Y-70717790D02*
X182462857Y-70670171D01*
X182462857Y-70670171D02*
X182558095Y-70622552D01*
X182558095Y-70622552D02*
X182700952Y-70622552D01*
X182700952Y-70622552D02*
X182796190Y-70670171D01*
X182796190Y-70670171D02*
X182843809Y-70765409D01*
X182843809Y-70765409D02*
X182843809Y-71289219D01*
X175220000Y-70400000D02*
X175220000Y-72570820D01*
X186420000Y-72570820D02*
X186420000Y-70400000D01*
X175220000Y-71984400D02*
X186420000Y-71984400D01*
X175220000Y-71984400D02*
X186420000Y-71984400D01*
X175220000Y-71984400D02*
X176346504Y-71397979D01*
X175220000Y-71984400D02*
X176346504Y-72570821D01*
X186420000Y-71984400D02*
X185293496Y-72570821D01*
X186420000Y-71984400D02*
X185293496Y-71397979D01*
X171950817Y-66412419D02*
X171379389Y-66412419D01*
X171665103Y-66412419D02*
X171665103Y-65412419D01*
X171665103Y-65412419D02*
X171569865Y-65555276D01*
X171569865Y-65555276D02*
X171474627Y-65650514D01*
X171474627Y-65650514D02*
X171379389Y-65698133D01*
X172331770Y-65507657D02*
X172379389Y-65460038D01*
X172379389Y-65460038D02*
X172474627Y-65412419D01*
X172474627Y-65412419D02*
X172712722Y-65412419D01*
X172712722Y-65412419D02*
X172807960Y-65460038D01*
X172807960Y-65460038D02*
X172855579Y-65507657D01*
X172855579Y-65507657D02*
X172903198Y-65602895D01*
X172903198Y-65602895D02*
X172903198Y-65698133D01*
X172903198Y-65698133D02*
X172855579Y-65840990D01*
X172855579Y-65840990D02*
X172284151Y-66412419D01*
X172284151Y-66412419D02*
X172903198Y-66412419D01*
X173331770Y-66317180D02*
X173379389Y-66364800D01*
X173379389Y-66364800D02*
X173331770Y-66412419D01*
X173331770Y-66412419D02*
X173284151Y-66364800D01*
X173284151Y-66364800D02*
X173331770Y-66317180D01*
X173331770Y-66317180D02*
X173331770Y-66412419D01*
X174284150Y-65412419D02*
X173807960Y-65412419D01*
X173807960Y-65412419D02*
X173760341Y-65888609D01*
X173760341Y-65888609D02*
X173807960Y-65840990D01*
X173807960Y-65840990D02*
X173903198Y-65793371D01*
X173903198Y-65793371D02*
X174141293Y-65793371D01*
X174141293Y-65793371D02*
X174236531Y-65840990D01*
X174236531Y-65840990D02*
X174284150Y-65888609D01*
X174284150Y-65888609D02*
X174331769Y-65983847D01*
X174331769Y-65983847D02*
X174331769Y-66221942D01*
X174331769Y-66221942D02*
X174284150Y-66317180D01*
X174284150Y-66317180D02*
X174236531Y-66364800D01*
X174236531Y-66364800D02*
X174141293Y-66412419D01*
X174141293Y-66412419D02*
X173903198Y-66412419D01*
X173903198Y-66412419D02*
X173807960Y-66364800D01*
X173807960Y-66364800D02*
X173760341Y-66317180D01*
X175522246Y-66412419D02*
X175522246Y-65745752D01*
X175522246Y-65840990D02*
X175569865Y-65793371D01*
X175569865Y-65793371D02*
X175665103Y-65745752D01*
X175665103Y-65745752D02*
X175807960Y-65745752D01*
X175807960Y-65745752D02*
X175903198Y-65793371D01*
X175903198Y-65793371D02*
X175950817Y-65888609D01*
X175950817Y-65888609D02*
X175950817Y-66412419D01*
X175950817Y-65888609D02*
X175998436Y-65793371D01*
X175998436Y-65793371D02*
X176093674Y-65745752D01*
X176093674Y-65745752D02*
X176236531Y-65745752D01*
X176236531Y-65745752D02*
X176331770Y-65793371D01*
X176331770Y-65793371D02*
X176379389Y-65888609D01*
X176379389Y-65888609D02*
X176379389Y-66412419D01*
X176855579Y-66412419D02*
X176855579Y-65745752D01*
X176855579Y-65840990D02*
X176903198Y-65793371D01*
X176903198Y-65793371D02*
X176998436Y-65745752D01*
X176998436Y-65745752D02*
X177141293Y-65745752D01*
X177141293Y-65745752D02*
X177236531Y-65793371D01*
X177236531Y-65793371D02*
X177284150Y-65888609D01*
X177284150Y-65888609D02*
X177284150Y-66412419D01*
X177284150Y-65888609D02*
X177331769Y-65793371D01*
X177331769Y-65793371D02*
X177427007Y-65745752D01*
X177427007Y-65745752D02*
X177569864Y-65745752D01*
X177569864Y-65745752D02*
X177665103Y-65793371D01*
X177665103Y-65793371D02*
X177712722Y-65888609D01*
X177712722Y-65888609D02*
X177712722Y-66412419D01*
X168319730Y-78919730D02*
X168319730Y-66521180D01*
X180820000Y-66521180D02*
X180820000Y-69400000D01*
X168319730Y-67107600D02*
X180820000Y-67107600D01*
X168319730Y-67107600D02*
X180820000Y-67107600D01*
X168319730Y-67107600D02*
X169446234Y-66521179D01*
X168319730Y-67107600D02*
X169446234Y-67694021D01*
X180820000Y-67107600D02*
X179693496Y-67694021D01*
X180820000Y-67107600D02*
X179693496Y-66521179D01*
X225378219Y-103558332D02*
X225378219Y-103463094D01*
X225378219Y-103463094D02*
X225425838Y-103367856D01*
X225425838Y-103367856D02*
X225473457Y-103320237D01*
X225473457Y-103320237D02*
X225568695Y-103272618D01*
X225568695Y-103272618D02*
X225759171Y-103224999D01*
X225759171Y-103224999D02*
X225997266Y-103224999D01*
X225997266Y-103224999D02*
X226187742Y-103272618D01*
X226187742Y-103272618D02*
X226282980Y-103320237D01*
X226282980Y-103320237D02*
X226330600Y-103367856D01*
X226330600Y-103367856D02*
X226378219Y-103463094D01*
X226378219Y-103463094D02*
X226378219Y-103558332D01*
X226378219Y-103558332D02*
X226330600Y-103653570D01*
X226330600Y-103653570D02*
X226282980Y-103701189D01*
X226282980Y-103701189D02*
X226187742Y-103748808D01*
X226187742Y-103748808D02*
X225997266Y-103796427D01*
X225997266Y-103796427D02*
X225759171Y-103796427D01*
X225759171Y-103796427D02*
X225568695Y-103748808D01*
X225568695Y-103748808D02*
X225473457Y-103701189D01*
X225473457Y-103701189D02*
X225425838Y-103653570D01*
X225425838Y-103653570D02*
X225378219Y-103558332D01*
X226282980Y-102796427D02*
X226330600Y-102748808D01*
X226330600Y-102748808D02*
X226378219Y-102796427D01*
X226378219Y-102796427D02*
X226330600Y-102844046D01*
X226330600Y-102844046D02*
X226282980Y-102796427D01*
X226282980Y-102796427D02*
X226378219Y-102796427D01*
X225378219Y-101844047D02*
X225378219Y-102320237D01*
X225378219Y-102320237D02*
X225854409Y-102367856D01*
X225854409Y-102367856D02*
X225806790Y-102320237D01*
X225806790Y-102320237D02*
X225759171Y-102224999D01*
X225759171Y-102224999D02*
X225759171Y-101986904D01*
X225759171Y-101986904D02*
X225806790Y-101891666D01*
X225806790Y-101891666D02*
X225854409Y-101844047D01*
X225854409Y-101844047D02*
X225949647Y-101796428D01*
X225949647Y-101796428D02*
X226187742Y-101796428D01*
X226187742Y-101796428D02*
X226282980Y-101844047D01*
X226282980Y-101844047D02*
X226330600Y-101891666D01*
X226330600Y-101891666D02*
X226378219Y-101986904D01*
X226378219Y-101986904D02*
X226378219Y-102224999D01*
X226378219Y-102224999D02*
X226330600Y-102320237D01*
X226330600Y-102320237D02*
X226282980Y-102367856D01*
X226378219Y-100605951D02*
X225711552Y-100605951D01*
X225378219Y-100605951D02*
X225425838Y-100653570D01*
X225425838Y-100653570D02*
X225473457Y-100605951D01*
X225473457Y-100605951D02*
X225425838Y-100558332D01*
X225425838Y-100558332D02*
X225378219Y-100605951D01*
X225378219Y-100605951D02*
X225473457Y-100605951D01*
X225711552Y-100129761D02*
X226378219Y-100129761D01*
X225806790Y-100129761D02*
X225759171Y-100082142D01*
X225759171Y-100082142D02*
X225711552Y-99986904D01*
X225711552Y-99986904D02*
X225711552Y-99844047D01*
X225711552Y-99844047D02*
X225759171Y-99748809D01*
X225759171Y-99748809D02*
X225854409Y-99701190D01*
X225854409Y-99701190D02*
X226378219Y-99701190D01*
X222725000Y-94910000D02*
X227659820Y-94910000D01*
X227659820Y-108540000D02*
X222725000Y-108540000D01*
X227073400Y-94910000D02*
X227073400Y-108540000D01*
X227073400Y-94910000D02*
X227073400Y-108540000D01*
X227073400Y-94910000D02*
X227659821Y-96036504D01*
X227073400Y-94910000D02*
X226486979Y-96036504D01*
X227073400Y-108540000D02*
X226486979Y-107413496D01*
X227073400Y-108540000D02*
X227659821Y-107413496D01*
X182062365Y-142206019D02*
X181490937Y-142206019D01*
X181776651Y-142206019D02*
X181776651Y-141206019D01*
X181776651Y-141206019D02*
X181681413Y-141348876D01*
X181681413Y-141348876D02*
X181586175Y-141444114D01*
X181586175Y-141444114D02*
X181490937Y-141491733D01*
X182490937Y-142110780D02*
X182538556Y-142158400D01*
X182538556Y-142158400D02*
X182490937Y-142206019D01*
X182490937Y-142206019D02*
X182443318Y-142158400D01*
X182443318Y-142158400D02*
X182490937Y-142110780D01*
X182490937Y-142110780D02*
X182490937Y-142206019D01*
X182919508Y-141301257D02*
X182967127Y-141253638D01*
X182967127Y-141253638D02*
X183062365Y-141206019D01*
X183062365Y-141206019D02*
X183300460Y-141206019D01*
X183300460Y-141206019D02*
X183395698Y-141253638D01*
X183395698Y-141253638D02*
X183443317Y-141301257D01*
X183443317Y-141301257D02*
X183490936Y-141396495D01*
X183490936Y-141396495D02*
X183490936Y-141491733D01*
X183490936Y-141491733D02*
X183443317Y-141634590D01*
X183443317Y-141634590D02*
X182871889Y-142206019D01*
X182871889Y-142206019D02*
X183490936Y-142206019D01*
X184681413Y-142206019D02*
X184681413Y-141539352D01*
X184681413Y-141206019D02*
X184633794Y-141253638D01*
X184633794Y-141253638D02*
X184681413Y-141301257D01*
X184681413Y-141301257D02*
X184729032Y-141253638D01*
X184729032Y-141253638D02*
X184681413Y-141206019D01*
X184681413Y-141206019D02*
X184681413Y-141301257D01*
X185157603Y-141539352D02*
X185157603Y-142206019D01*
X185157603Y-141634590D02*
X185205222Y-141586971D01*
X185205222Y-141586971D02*
X185300460Y-141539352D01*
X185300460Y-141539352D02*
X185443317Y-141539352D01*
X185443317Y-141539352D02*
X185538555Y-141586971D01*
X185538555Y-141586971D02*
X185586174Y-141682209D01*
X185586174Y-141682209D02*
X185586174Y-142206019D01*
X168319730Y-79919730D02*
X168319730Y-143487620D01*
X198805000Y-143487620D02*
X198805000Y-134250000D01*
X168319730Y-142901200D02*
X198805000Y-142901200D01*
X168319730Y-142901200D02*
X198805000Y-142901200D01*
X168319730Y-142901200D02*
X169446234Y-142314779D01*
X168319730Y-142901200D02*
X169446234Y-143487621D01*
X198805000Y-142901200D02*
X197678496Y-143487621D01*
X198805000Y-142901200D02*
X197678496Y-142314779D01*
X154309019Y-92999447D02*
X154309019Y-92904209D01*
X154309019Y-92904209D02*
X154356638Y-92808971D01*
X154356638Y-92808971D02*
X154404257Y-92761352D01*
X154404257Y-92761352D02*
X154499495Y-92713733D01*
X154499495Y-92713733D02*
X154689971Y-92666114D01*
X154689971Y-92666114D02*
X154928066Y-92666114D01*
X154928066Y-92666114D02*
X155118542Y-92713733D01*
X155118542Y-92713733D02*
X155213780Y-92761352D01*
X155213780Y-92761352D02*
X155261400Y-92808971D01*
X155261400Y-92808971D02*
X155309019Y-92904209D01*
X155309019Y-92904209D02*
X155309019Y-92999447D01*
X155309019Y-92999447D02*
X155261400Y-93094685D01*
X155261400Y-93094685D02*
X155213780Y-93142304D01*
X155213780Y-93142304D02*
X155118542Y-93189923D01*
X155118542Y-93189923D02*
X154928066Y-93237542D01*
X154928066Y-93237542D02*
X154689971Y-93237542D01*
X154689971Y-93237542D02*
X154499495Y-93189923D01*
X154499495Y-93189923D02*
X154404257Y-93142304D01*
X154404257Y-93142304D02*
X154356638Y-93094685D01*
X154356638Y-93094685D02*
X154309019Y-92999447D01*
X155213780Y-92237542D02*
X155261400Y-92189923D01*
X155261400Y-92189923D02*
X155309019Y-92237542D01*
X155309019Y-92237542D02*
X155261400Y-92285161D01*
X155261400Y-92285161D02*
X155213780Y-92237542D01*
X155213780Y-92237542D02*
X155309019Y-92237542D01*
X155309019Y-91713733D02*
X155309019Y-91523257D01*
X155309019Y-91523257D02*
X155261400Y-91428019D01*
X155261400Y-91428019D02*
X155213780Y-91380400D01*
X155213780Y-91380400D02*
X155070923Y-91285162D01*
X155070923Y-91285162D02*
X154880447Y-91237543D01*
X154880447Y-91237543D02*
X154499495Y-91237543D01*
X154499495Y-91237543D02*
X154404257Y-91285162D01*
X154404257Y-91285162D02*
X154356638Y-91332781D01*
X154356638Y-91332781D02*
X154309019Y-91428019D01*
X154309019Y-91428019D02*
X154309019Y-91618495D01*
X154309019Y-91618495D02*
X154356638Y-91713733D01*
X154356638Y-91713733D02*
X154404257Y-91761352D01*
X154404257Y-91761352D02*
X154499495Y-91808971D01*
X154499495Y-91808971D02*
X154737590Y-91808971D01*
X154737590Y-91808971D02*
X154832828Y-91761352D01*
X154832828Y-91761352D02*
X154880447Y-91713733D01*
X154880447Y-91713733D02*
X154928066Y-91618495D01*
X154928066Y-91618495D02*
X154928066Y-91428019D01*
X154928066Y-91428019D02*
X154880447Y-91332781D01*
X154880447Y-91332781D02*
X154832828Y-91285162D01*
X154832828Y-91285162D02*
X154737590Y-91237543D01*
X155309019Y-90047066D02*
X154642352Y-90047066D01*
X154309019Y-90047066D02*
X154356638Y-90094685D01*
X154356638Y-90094685D02*
X154404257Y-90047066D01*
X154404257Y-90047066D02*
X154356638Y-89999447D01*
X154356638Y-89999447D02*
X154309019Y-90047066D01*
X154309019Y-90047066D02*
X154404257Y-90047066D01*
X154642352Y-89570876D02*
X155309019Y-89570876D01*
X154737590Y-89570876D02*
X154689971Y-89523257D01*
X154689971Y-89523257D02*
X154642352Y-89428019D01*
X154642352Y-89428019D02*
X154642352Y-89285162D01*
X154642352Y-89285162D02*
X154689971Y-89189924D01*
X154689971Y-89189924D02*
X154785209Y-89142305D01*
X154785209Y-89142305D02*
X155309019Y-89142305D01*
X167819730Y-79419730D02*
X155417780Y-79419730D01*
X155417780Y-102912500D02*
X161642500Y-102912500D01*
X156004200Y-79419730D02*
X156004200Y-102912500D01*
X156004200Y-79419730D02*
X156004200Y-102912500D01*
X156004200Y-79419730D02*
X156590621Y-80546234D01*
X156004200Y-79419730D02*
X155417779Y-80546234D01*
X156004200Y-102912500D02*
X155417779Y-101785996D01*
X156004200Y-102912500D02*
X156590621Y-101785996D01*
X231204219Y-111164864D02*
X231204219Y-111736292D01*
X231204219Y-111450578D02*
X230204219Y-111450578D01*
X230204219Y-111450578D02*
X230347076Y-111545816D01*
X230347076Y-111545816D02*
X230442314Y-111641054D01*
X230442314Y-111641054D02*
X230489933Y-111736292D01*
X231108980Y-110736292D02*
X231156600Y-110688673D01*
X231156600Y-110688673D02*
X231204219Y-110736292D01*
X231204219Y-110736292D02*
X231156600Y-110783911D01*
X231156600Y-110783911D02*
X231108980Y-110736292D01*
X231108980Y-110736292D02*
X231204219Y-110736292D01*
X230299457Y-110307721D02*
X230251838Y-110260102D01*
X230251838Y-110260102D02*
X230204219Y-110164864D01*
X230204219Y-110164864D02*
X230204219Y-109926769D01*
X230204219Y-109926769D02*
X230251838Y-109831531D01*
X230251838Y-109831531D02*
X230299457Y-109783912D01*
X230299457Y-109783912D02*
X230394695Y-109736293D01*
X230394695Y-109736293D02*
X230489933Y-109736293D01*
X230489933Y-109736293D02*
X230632790Y-109783912D01*
X230632790Y-109783912D02*
X231204219Y-110355340D01*
X231204219Y-110355340D02*
X231204219Y-109736293D01*
X231204219Y-108545816D02*
X230537552Y-108545816D01*
X230204219Y-108545816D02*
X230251838Y-108593435D01*
X230251838Y-108593435D02*
X230299457Y-108545816D01*
X230299457Y-108545816D02*
X230251838Y-108498197D01*
X230251838Y-108498197D02*
X230204219Y-108545816D01*
X230204219Y-108545816D02*
X230299457Y-108545816D01*
X230537552Y-108069626D02*
X231204219Y-108069626D01*
X230632790Y-108069626D02*
X230585171Y-108022007D01*
X230585171Y-108022007D02*
X230537552Y-107926769D01*
X230537552Y-107926769D02*
X230537552Y-107783912D01*
X230537552Y-107783912D02*
X230585171Y-107688674D01*
X230585171Y-107688674D02*
X230680409Y-107641055D01*
X230680409Y-107641055D02*
X231204219Y-107641055D01*
X213819730Y-124419730D02*
X232485820Y-124419730D01*
X232485820Y-94910000D02*
X222725000Y-94910000D01*
X231899400Y-124419730D02*
X231899400Y-94910000D01*
X231899400Y-124419730D02*
X231899400Y-94910000D01*
X231899400Y-124419730D02*
X231312979Y-123293226D01*
X231899400Y-124419730D02*
X232485821Y-123293226D01*
X231899400Y-94910000D02*
X232485821Y-96036504D01*
X231899400Y-94910000D02*
X231312979Y-96036504D01*
X188080417Y-65666419D02*
X188175655Y-65666419D01*
X188175655Y-65666419D02*
X188270893Y-65714038D01*
X188270893Y-65714038D02*
X188318512Y-65761657D01*
X188318512Y-65761657D02*
X188366131Y-65856895D01*
X188366131Y-65856895D02*
X188413750Y-66047371D01*
X188413750Y-66047371D02*
X188413750Y-66285466D01*
X188413750Y-66285466D02*
X188366131Y-66475942D01*
X188366131Y-66475942D02*
X188318512Y-66571180D01*
X188318512Y-66571180D02*
X188270893Y-66618800D01*
X188270893Y-66618800D02*
X188175655Y-66666419D01*
X188175655Y-66666419D02*
X188080417Y-66666419D01*
X188080417Y-66666419D02*
X187985179Y-66618800D01*
X187985179Y-66618800D02*
X187937560Y-66571180D01*
X187937560Y-66571180D02*
X187889941Y-66475942D01*
X187889941Y-66475942D02*
X187842322Y-66285466D01*
X187842322Y-66285466D02*
X187842322Y-66047371D01*
X187842322Y-66047371D02*
X187889941Y-65856895D01*
X187889941Y-65856895D02*
X187937560Y-65761657D01*
X187937560Y-65761657D02*
X187985179Y-65714038D01*
X187985179Y-65714038D02*
X188080417Y-65666419D01*
X188842322Y-66571180D02*
X188889941Y-66618800D01*
X188889941Y-66618800D02*
X188842322Y-66666419D01*
X188842322Y-66666419D02*
X188794703Y-66618800D01*
X188794703Y-66618800D02*
X188842322Y-66571180D01*
X188842322Y-66571180D02*
X188842322Y-66666419D01*
X189223274Y-65666419D02*
X189889940Y-65666419D01*
X189889940Y-65666419D02*
X189461369Y-66666419D01*
X191032798Y-66666419D02*
X191032798Y-65999752D01*
X191032798Y-65666419D02*
X190985179Y-65714038D01*
X190985179Y-65714038D02*
X191032798Y-65761657D01*
X191032798Y-65761657D02*
X191080417Y-65714038D01*
X191080417Y-65714038D02*
X191032798Y-65666419D01*
X191032798Y-65666419D02*
X191032798Y-65761657D01*
X191508988Y-65999752D02*
X191508988Y-66666419D01*
X191508988Y-66094990D02*
X191556607Y-66047371D01*
X191556607Y-66047371D02*
X191651845Y-65999752D01*
X191651845Y-65999752D02*
X191794702Y-65999752D01*
X191794702Y-65999752D02*
X191889940Y-66047371D01*
X191889940Y-66047371D02*
X191937559Y-66142609D01*
X191937559Y-66142609D02*
X191937559Y-66666419D01*
X180820000Y-69400000D02*
X180820000Y-66775180D01*
X199007500Y-66775180D02*
X199007500Y-69400000D01*
X180820000Y-67361600D02*
X199007500Y-67361600D01*
X180820000Y-67361600D02*
X199007500Y-67361600D01*
X180820000Y-67361600D02*
X181946504Y-66775179D01*
X180820000Y-67361600D02*
X181946504Y-67948021D01*
X199007500Y-67361600D02*
X197880996Y-67948021D01*
X199007500Y-67361600D02*
X197880996Y-66775179D01*
X225454419Y-118313197D02*
X225454419Y-118217959D01*
X225454419Y-118217959D02*
X225502038Y-118122721D01*
X225502038Y-118122721D02*
X225549657Y-118075102D01*
X225549657Y-118075102D02*
X225644895Y-118027483D01*
X225644895Y-118027483D02*
X225835371Y-117979864D01*
X225835371Y-117979864D02*
X226073466Y-117979864D01*
X226073466Y-117979864D02*
X226263942Y-118027483D01*
X226263942Y-118027483D02*
X226359180Y-118075102D01*
X226359180Y-118075102D02*
X226406800Y-118122721D01*
X226406800Y-118122721D02*
X226454419Y-118217959D01*
X226454419Y-118217959D02*
X226454419Y-118313197D01*
X226454419Y-118313197D02*
X226406800Y-118408435D01*
X226406800Y-118408435D02*
X226359180Y-118456054D01*
X226359180Y-118456054D02*
X226263942Y-118503673D01*
X226263942Y-118503673D02*
X226073466Y-118551292D01*
X226073466Y-118551292D02*
X225835371Y-118551292D01*
X225835371Y-118551292D02*
X225644895Y-118503673D01*
X225644895Y-118503673D02*
X225549657Y-118456054D01*
X225549657Y-118456054D02*
X225502038Y-118408435D01*
X225502038Y-118408435D02*
X225454419Y-118313197D01*
X226359180Y-117551292D02*
X226406800Y-117503673D01*
X226406800Y-117503673D02*
X226454419Y-117551292D01*
X226454419Y-117551292D02*
X226406800Y-117598911D01*
X226406800Y-117598911D02*
X226359180Y-117551292D01*
X226359180Y-117551292D02*
X226454419Y-117551292D01*
X225454419Y-116646531D02*
X225454419Y-116837007D01*
X225454419Y-116837007D02*
X225502038Y-116932245D01*
X225502038Y-116932245D02*
X225549657Y-116979864D01*
X225549657Y-116979864D02*
X225692514Y-117075102D01*
X225692514Y-117075102D02*
X225882990Y-117122721D01*
X225882990Y-117122721D02*
X226263942Y-117122721D01*
X226263942Y-117122721D02*
X226359180Y-117075102D01*
X226359180Y-117075102D02*
X226406800Y-117027483D01*
X226406800Y-117027483D02*
X226454419Y-116932245D01*
X226454419Y-116932245D02*
X226454419Y-116741769D01*
X226454419Y-116741769D02*
X226406800Y-116646531D01*
X226406800Y-116646531D02*
X226359180Y-116598912D01*
X226359180Y-116598912D02*
X226263942Y-116551293D01*
X226263942Y-116551293D02*
X226025847Y-116551293D01*
X226025847Y-116551293D02*
X225930609Y-116598912D01*
X225930609Y-116598912D02*
X225882990Y-116646531D01*
X225882990Y-116646531D02*
X225835371Y-116741769D01*
X225835371Y-116741769D02*
X225835371Y-116932245D01*
X225835371Y-116932245D02*
X225882990Y-117027483D01*
X225882990Y-117027483D02*
X225930609Y-117075102D01*
X225930609Y-117075102D02*
X226025847Y-117122721D01*
X226454419Y-115360816D02*
X225787752Y-115360816D01*
X225454419Y-115360816D02*
X225502038Y-115408435D01*
X225502038Y-115408435D02*
X225549657Y-115360816D01*
X225549657Y-115360816D02*
X225502038Y-115313197D01*
X225502038Y-115313197D02*
X225454419Y-115360816D01*
X225454419Y-115360816D02*
X225549657Y-115360816D01*
X225787752Y-114884626D02*
X226454419Y-114884626D01*
X225882990Y-114884626D02*
X225835371Y-114837007D01*
X225835371Y-114837007D02*
X225787752Y-114741769D01*
X225787752Y-114741769D02*
X225787752Y-114598912D01*
X225787752Y-114598912D02*
X225835371Y-114503674D01*
X225835371Y-114503674D02*
X225930609Y-114456055D01*
X225930609Y-114456055D02*
X226454419Y-114456055D01*
X213819730Y-124419730D02*
X227736020Y-124419730D01*
X227736020Y-108540000D02*
X222725000Y-108540000D01*
X227149600Y-124419730D02*
X227149600Y-108540000D01*
X227149600Y-124419730D02*
X227149600Y-108540000D01*
X227149600Y-124419730D02*
X226563179Y-123293226D01*
X227149600Y-124419730D02*
X227736021Y-123293226D01*
X227149600Y-108540000D02*
X227736021Y-109666504D01*
X227149600Y-108540000D02*
X226563179Y-109666504D01*
X180425520Y-62745419D02*
X181044567Y-62745419D01*
X181044567Y-62745419D02*
X180711234Y-63126371D01*
X180711234Y-63126371D02*
X180854091Y-63126371D01*
X180854091Y-63126371D02*
X180949329Y-63173990D01*
X180949329Y-63173990D02*
X180996948Y-63221609D01*
X180996948Y-63221609D02*
X181044567Y-63316847D01*
X181044567Y-63316847D02*
X181044567Y-63554942D01*
X181044567Y-63554942D02*
X180996948Y-63650180D01*
X180996948Y-63650180D02*
X180949329Y-63697800D01*
X180949329Y-63697800D02*
X180854091Y-63745419D01*
X180854091Y-63745419D02*
X180568377Y-63745419D01*
X180568377Y-63745419D02*
X180473139Y-63697800D01*
X180473139Y-63697800D02*
X180425520Y-63650180D01*
X181663615Y-62745419D02*
X181758853Y-62745419D01*
X181758853Y-62745419D02*
X181854091Y-62793038D01*
X181854091Y-62793038D02*
X181901710Y-62840657D01*
X181901710Y-62840657D02*
X181949329Y-62935895D01*
X181949329Y-62935895D02*
X181996948Y-63126371D01*
X181996948Y-63126371D02*
X181996948Y-63364466D01*
X181996948Y-63364466D02*
X181949329Y-63554942D01*
X181949329Y-63554942D02*
X181901710Y-63650180D01*
X181901710Y-63650180D02*
X181854091Y-63697800D01*
X181854091Y-63697800D02*
X181758853Y-63745419D01*
X181758853Y-63745419D02*
X181663615Y-63745419D01*
X181663615Y-63745419D02*
X181568377Y-63697800D01*
X181568377Y-63697800D02*
X181520758Y-63650180D01*
X181520758Y-63650180D02*
X181473139Y-63554942D01*
X181473139Y-63554942D02*
X181425520Y-63364466D01*
X181425520Y-63364466D02*
X181425520Y-63126371D01*
X181425520Y-63126371D02*
X181473139Y-62935895D01*
X181473139Y-62935895D02*
X181520758Y-62840657D01*
X181520758Y-62840657D02*
X181568377Y-62793038D01*
X181568377Y-62793038D02*
X181663615Y-62745419D01*
X182425520Y-63650180D02*
X182473139Y-63697800D01*
X182473139Y-63697800D02*
X182425520Y-63745419D01*
X182425520Y-63745419D02*
X182377901Y-63697800D01*
X182377901Y-63697800D02*
X182425520Y-63650180D01*
X182425520Y-63650180D02*
X182425520Y-63745419D01*
X182806472Y-62745419D02*
X183473138Y-62745419D01*
X183473138Y-62745419D02*
X183044567Y-63745419D01*
X184615996Y-63745419D02*
X184615996Y-63078752D01*
X184615996Y-63173990D02*
X184663615Y-63126371D01*
X184663615Y-63126371D02*
X184758853Y-63078752D01*
X184758853Y-63078752D02*
X184901710Y-63078752D01*
X184901710Y-63078752D02*
X184996948Y-63126371D01*
X184996948Y-63126371D02*
X185044567Y-63221609D01*
X185044567Y-63221609D02*
X185044567Y-63745419D01*
X185044567Y-63221609D02*
X185092186Y-63126371D01*
X185092186Y-63126371D02*
X185187424Y-63078752D01*
X185187424Y-63078752D02*
X185330281Y-63078752D01*
X185330281Y-63078752D02*
X185425520Y-63126371D01*
X185425520Y-63126371D02*
X185473139Y-63221609D01*
X185473139Y-63221609D02*
X185473139Y-63745419D01*
X185949329Y-63745419D02*
X185949329Y-63078752D01*
X185949329Y-63173990D02*
X185996948Y-63126371D01*
X185996948Y-63126371D02*
X186092186Y-63078752D01*
X186092186Y-63078752D02*
X186235043Y-63078752D01*
X186235043Y-63078752D02*
X186330281Y-63126371D01*
X186330281Y-63126371D02*
X186377900Y-63221609D01*
X186377900Y-63221609D02*
X186377900Y-63745419D01*
X186377900Y-63221609D02*
X186425519Y-63126371D01*
X186425519Y-63126371D02*
X186520757Y-63078752D01*
X186520757Y-63078752D02*
X186663614Y-63078752D01*
X186663614Y-63078752D02*
X186758853Y-63126371D01*
X186758853Y-63126371D02*
X186806472Y-63221609D01*
X186806472Y-63221609D02*
X186806472Y-63745419D01*
X168319730Y-78919730D02*
X168319730Y-63854180D01*
X199007500Y-63854180D02*
X199007500Y-69400000D01*
X168319730Y-64440600D02*
X199007500Y-64440600D01*
X168319730Y-64440600D02*
X199007500Y-64440600D01*
X168319730Y-64440600D02*
X169446234Y-63854179D01*
X168319730Y-64440600D02*
X169446234Y-65027021D01*
X199007500Y-64440600D02*
X197880996Y-65027021D01*
X199007500Y-64440600D02*
X197880996Y-63854179D01*
X172871532Y-138183419D02*
X172966770Y-138183419D01*
X172966770Y-138183419D02*
X173062008Y-138231038D01*
X173062008Y-138231038D02*
X173109627Y-138278657D01*
X173109627Y-138278657D02*
X173157246Y-138373895D01*
X173157246Y-138373895D02*
X173204865Y-138564371D01*
X173204865Y-138564371D02*
X173204865Y-138802466D01*
X173204865Y-138802466D02*
X173157246Y-138992942D01*
X173157246Y-138992942D02*
X173109627Y-139088180D01*
X173109627Y-139088180D02*
X173062008Y-139135800D01*
X173062008Y-139135800D02*
X172966770Y-139183419D01*
X172966770Y-139183419D02*
X172871532Y-139183419D01*
X172871532Y-139183419D02*
X172776294Y-139135800D01*
X172776294Y-139135800D02*
X172728675Y-139088180D01*
X172728675Y-139088180D02*
X172681056Y-138992942D01*
X172681056Y-138992942D02*
X172633437Y-138802466D01*
X172633437Y-138802466D02*
X172633437Y-138564371D01*
X172633437Y-138564371D02*
X172681056Y-138373895D01*
X172681056Y-138373895D02*
X172728675Y-138278657D01*
X172728675Y-138278657D02*
X172776294Y-138231038D01*
X172776294Y-138231038D02*
X172871532Y-138183419D01*
X173633437Y-139088180D02*
X173681056Y-139135800D01*
X173681056Y-139135800D02*
X173633437Y-139183419D01*
X173633437Y-139183419D02*
X173585818Y-139135800D01*
X173585818Y-139135800D02*
X173633437Y-139088180D01*
X173633437Y-139088180D02*
X173633437Y-139183419D01*
X174585817Y-138183419D02*
X174109627Y-138183419D01*
X174109627Y-138183419D02*
X174062008Y-138659609D01*
X174062008Y-138659609D02*
X174109627Y-138611990D01*
X174109627Y-138611990D02*
X174204865Y-138564371D01*
X174204865Y-138564371D02*
X174442960Y-138564371D01*
X174442960Y-138564371D02*
X174538198Y-138611990D01*
X174538198Y-138611990D02*
X174585817Y-138659609D01*
X174585817Y-138659609D02*
X174633436Y-138754847D01*
X174633436Y-138754847D02*
X174633436Y-138992942D01*
X174633436Y-138992942D02*
X174585817Y-139088180D01*
X174585817Y-139088180D02*
X174538198Y-139135800D01*
X174538198Y-139135800D02*
X174442960Y-139183419D01*
X174442960Y-139183419D02*
X174204865Y-139183419D01*
X174204865Y-139183419D02*
X174109627Y-139135800D01*
X174109627Y-139135800D02*
X174062008Y-139088180D01*
X175823913Y-139183419D02*
X175823913Y-138516752D01*
X175823913Y-138183419D02*
X175776294Y-138231038D01*
X175776294Y-138231038D02*
X175823913Y-138278657D01*
X175823913Y-138278657D02*
X175871532Y-138231038D01*
X175871532Y-138231038D02*
X175823913Y-138183419D01*
X175823913Y-138183419D02*
X175823913Y-138278657D01*
X176300103Y-138516752D02*
X176300103Y-139183419D01*
X176300103Y-138611990D02*
X176347722Y-138564371D01*
X176347722Y-138564371D02*
X176442960Y-138516752D01*
X176442960Y-138516752D02*
X176585817Y-138516752D01*
X176585817Y-138516752D02*
X176681055Y-138564371D01*
X176681055Y-138564371D02*
X176728674Y-138659609D01*
X176728674Y-138659609D02*
X176728674Y-139183419D01*
X168319730Y-79919730D02*
X168319730Y-140465020D01*
X181090000Y-140465020D02*
X181090000Y-134140000D01*
X168319730Y-139878600D02*
X181090000Y-139878600D01*
X168319730Y-139878600D02*
X181090000Y-139878600D01*
X168319730Y-139878600D02*
X169446234Y-139292179D01*
X168319730Y-139878600D02*
X169446234Y-140465021D01*
X181090000Y-139878600D02*
X179963496Y-140465021D01*
X181090000Y-139878600D02*
X179963496Y-139292179D01*
X188114167Y-135516419D02*
X188209405Y-135516419D01*
X188209405Y-135516419D02*
X188304643Y-135564038D01*
X188304643Y-135564038D02*
X188352262Y-135611657D01*
X188352262Y-135611657D02*
X188399881Y-135706895D01*
X188399881Y-135706895D02*
X188447500Y-135897371D01*
X188447500Y-135897371D02*
X188447500Y-136135466D01*
X188447500Y-136135466D02*
X188399881Y-136325942D01*
X188399881Y-136325942D02*
X188352262Y-136421180D01*
X188352262Y-136421180D02*
X188304643Y-136468800D01*
X188304643Y-136468800D02*
X188209405Y-136516419D01*
X188209405Y-136516419D02*
X188114167Y-136516419D01*
X188114167Y-136516419D02*
X188018929Y-136468800D01*
X188018929Y-136468800D02*
X187971310Y-136421180D01*
X187971310Y-136421180D02*
X187923691Y-136325942D01*
X187923691Y-136325942D02*
X187876072Y-136135466D01*
X187876072Y-136135466D02*
X187876072Y-135897371D01*
X187876072Y-135897371D02*
X187923691Y-135706895D01*
X187923691Y-135706895D02*
X187971310Y-135611657D01*
X187971310Y-135611657D02*
X188018929Y-135564038D01*
X188018929Y-135564038D02*
X188114167Y-135516419D01*
X188876072Y-136421180D02*
X188923691Y-136468800D01*
X188923691Y-136468800D02*
X188876072Y-136516419D01*
X188876072Y-136516419D02*
X188828453Y-136468800D01*
X188828453Y-136468800D02*
X188876072Y-136421180D01*
X188876072Y-136421180D02*
X188876072Y-136516419D01*
X189257024Y-135516419D02*
X189923690Y-135516419D01*
X189923690Y-135516419D02*
X189495119Y-136516419D01*
X191066548Y-136516419D02*
X191066548Y-135849752D01*
X191066548Y-135516419D02*
X191018929Y-135564038D01*
X191018929Y-135564038D02*
X191066548Y-135611657D01*
X191066548Y-135611657D02*
X191114167Y-135564038D01*
X191114167Y-135564038D02*
X191066548Y-135516419D01*
X191066548Y-135516419D02*
X191066548Y-135611657D01*
X191542738Y-135849752D02*
X191542738Y-136516419D01*
X191542738Y-135944990D02*
X191590357Y-135897371D01*
X191590357Y-135897371D02*
X191685595Y-135849752D01*
X191685595Y-135849752D02*
X191828452Y-135849752D01*
X191828452Y-135849752D02*
X191923690Y-135897371D01*
X191923690Y-135897371D02*
X191971309Y-135992609D01*
X191971309Y-135992609D02*
X191971309Y-136516419D01*
X181090000Y-134140000D02*
X181090000Y-137798020D01*
X198805000Y-137798020D02*
X198805000Y-134250000D01*
X181090000Y-137211600D02*
X198805000Y-137211600D01*
X181090000Y-137211600D02*
X198805000Y-137211600D01*
X181090000Y-137211600D02*
X182216504Y-136625179D01*
X181090000Y-137211600D02*
X182216504Y-137798021D01*
X198805000Y-137211600D02*
X197678496Y-137798021D01*
X198805000Y-137211600D02*
X197678496Y-136625179D01*
X157433219Y-104745832D02*
X157433219Y-104650594D01*
X157433219Y-104650594D02*
X157480838Y-104555356D01*
X157480838Y-104555356D02*
X157528457Y-104507737D01*
X157528457Y-104507737D02*
X157623695Y-104460118D01*
X157623695Y-104460118D02*
X157814171Y-104412499D01*
X157814171Y-104412499D02*
X158052266Y-104412499D01*
X158052266Y-104412499D02*
X158242742Y-104460118D01*
X158242742Y-104460118D02*
X158337980Y-104507737D01*
X158337980Y-104507737D02*
X158385600Y-104555356D01*
X158385600Y-104555356D02*
X158433219Y-104650594D01*
X158433219Y-104650594D02*
X158433219Y-104745832D01*
X158433219Y-104745832D02*
X158385600Y-104841070D01*
X158385600Y-104841070D02*
X158337980Y-104888689D01*
X158337980Y-104888689D02*
X158242742Y-104936308D01*
X158242742Y-104936308D02*
X158052266Y-104983927D01*
X158052266Y-104983927D02*
X157814171Y-104983927D01*
X157814171Y-104983927D02*
X157623695Y-104936308D01*
X157623695Y-104936308D02*
X157528457Y-104888689D01*
X157528457Y-104888689D02*
X157480838Y-104841070D01*
X157480838Y-104841070D02*
X157433219Y-104745832D01*
X158337980Y-103983927D02*
X158385600Y-103936308D01*
X158385600Y-103936308D02*
X158433219Y-103983927D01*
X158433219Y-103983927D02*
X158385600Y-104031546D01*
X158385600Y-104031546D02*
X158337980Y-103983927D01*
X158337980Y-103983927D02*
X158433219Y-103983927D01*
X158433219Y-103460118D02*
X158433219Y-103269642D01*
X158433219Y-103269642D02*
X158385600Y-103174404D01*
X158385600Y-103174404D02*
X158337980Y-103126785D01*
X158337980Y-103126785D02*
X158195123Y-103031547D01*
X158195123Y-103031547D02*
X158004647Y-102983928D01*
X158004647Y-102983928D02*
X157623695Y-102983928D01*
X157623695Y-102983928D02*
X157528457Y-103031547D01*
X157528457Y-103031547D02*
X157480838Y-103079166D01*
X157480838Y-103079166D02*
X157433219Y-103174404D01*
X157433219Y-103174404D02*
X157433219Y-103364880D01*
X157433219Y-103364880D02*
X157480838Y-103460118D01*
X157480838Y-103460118D02*
X157528457Y-103507737D01*
X157528457Y-103507737D02*
X157623695Y-103555356D01*
X157623695Y-103555356D02*
X157861790Y-103555356D01*
X157861790Y-103555356D02*
X157957028Y-103507737D01*
X157957028Y-103507737D02*
X158004647Y-103460118D01*
X158004647Y-103460118D02*
X158052266Y-103364880D01*
X158052266Y-103364880D02*
X158052266Y-103174404D01*
X158052266Y-103174404D02*
X158004647Y-103079166D01*
X158004647Y-103079166D02*
X157957028Y-103031547D01*
X157957028Y-103031547D02*
X157861790Y-102983928D01*
X158433219Y-101793451D02*
X157766552Y-101793451D01*
X157433219Y-101793451D02*
X157480838Y-101841070D01*
X157480838Y-101841070D02*
X157528457Y-101793451D01*
X157528457Y-101793451D02*
X157480838Y-101745832D01*
X157480838Y-101745832D02*
X157433219Y-101793451D01*
X157433219Y-101793451D02*
X157528457Y-101793451D01*
X157766552Y-101317261D02*
X158433219Y-101317261D01*
X157861790Y-101317261D02*
X157814171Y-101269642D01*
X157814171Y-101269642D02*
X157766552Y-101174404D01*
X157766552Y-101174404D02*
X157766552Y-101031547D01*
X157766552Y-101031547D02*
X157814171Y-100936309D01*
X157814171Y-100936309D02*
X157909409Y-100888690D01*
X157909409Y-100888690D02*
X158433219Y-100888690D01*
X161892500Y-91482500D02*
X158541980Y-91482500D01*
X158541980Y-114342500D02*
X161892500Y-114342500D01*
X159128400Y-91482500D02*
X159128400Y-114342500D01*
X159128400Y-91482500D02*
X159128400Y-114342500D01*
X159128400Y-91482500D02*
X159714821Y-92609004D01*
X159128400Y-91482500D02*
X158541979Y-92609004D01*
X159128400Y-114342500D02*
X158541979Y-113215996D01*
X159128400Y-114342500D02*
X159714821Y-113215996D01*
M02*
