%TF.GenerationSoftware,KiCad,Pcbnew,8.0.7-8.0.7-0~ubuntu24.04.1*%
%TF.CreationDate,2025-01-29T10:33:42-05:00*%
%TF.ProjectId,imu-splitter,696d752d-7370-46c6-9974-7465722e6b69,rev?*%
%TF.SameCoordinates,Original*%
%TF.FileFunction,Copper,L2,Bot*%
%TF.FilePolarity,Positive*%
%FSLAX46Y46*%
G04 Gerber Fmt 4.6, Leading zero omitted, Abs format (unit mm)*
G04 Created by KiCad (PCBNEW 8.0.7-8.0.7-0~ubuntu24.04.1) date 2025-01-29 10:33:42*
%MOMM*%
%LPD*%
G01*
G04 APERTURE LIST*
G04 Aperture macros list*
%AMRoundRect*
0 Rectangle with rounded corners*
0 $1 Rounding radius*
0 $2 $3 $4 $5 $6 $7 $8 $9 X,Y pos of 4 corners*
0 Add a 4 corners polygon primitive as box body*
4,1,4,$2,$3,$4,$5,$6,$7,$8,$9,$2,$3,0*
0 Add four circle primitives for the rounded corners*
1,1,$1+$1,$2,$3*
1,1,$1+$1,$4,$5*
1,1,$1+$1,$6,$7*
1,1,$1+$1,$8,$9*
0 Add four rect primitives between the rounded corners*
20,1,$1+$1,$2,$3,$4,$5,0*
20,1,$1+$1,$4,$5,$6,$7,0*
20,1,$1+$1,$6,$7,$8,$9,0*
20,1,$1+$1,$8,$9,$2,$3,0*%
G04 Aperture macros list end*
%TA.AperFunction,ComponentPad*%
%ADD10C,1.524000*%
%TD*%
%TA.AperFunction,ComponentPad*%
%ADD11C,4.000000*%
%TD*%
%TA.AperFunction,ComponentPad*%
%ADD12R,1.000000X1.000000*%
%TD*%
%TA.AperFunction,ComponentPad*%
%ADD13O,1.000000X1.000000*%
%TD*%
%TA.AperFunction,ComponentPad*%
%ADD14R,1.090000X1.090000*%
%TD*%
%TA.AperFunction,ComponentPad*%
%ADD15C,1.090000*%
%TD*%
%TA.AperFunction,ComponentPad*%
%ADD16R,1.700000X1.700000*%
%TD*%
%TA.AperFunction,ComponentPad*%
%ADD17O,1.700000X1.700000*%
%TD*%
%TA.AperFunction,ViaPad*%
%ADD18C,1.016000*%
%TD*%
%TA.AperFunction,ViaPad*%
%ADD19C,0.508000*%
%TD*%
%TA.AperFunction,Conductor*%
%ADD20C,0.304800*%
%TD*%
%ADD21C,1.524000*%
%ADD22C,4.000000*%
%ADD23RoundRect,0.250000X-0.475000X0.337500X-0.475000X-0.337500X0.475000X-0.337500X0.475000X0.337500X0*%
%ADD24R,1.000000X1.000000*%
%ADD25O,1.000000X1.000000*%
%ADD26RoundRect,0.102000X0.545000X-0.545000X0.545000X0.545000X-0.545000X0.545000X-0.545000X-0.545000X0*%
%ADD27C,1.294000*%
%ADD28RoundRect,0.250000X-0.325000X-0.450000X0.325000X-0.450000X0.325000X0.450000X-0.325000X0.450000X0*%
%ADD29R,1.700000X1.700000*%
%ADD30O,1.700000X1.700000*%
%ADD31RoundRect,0.375000X-0.375000X0.625000X-0.375000X-0.625000X0.375000X-0.625000X0.375000X0.625000X0*%
%ADD32RoundRect,0.500000X-1.400000X0.500000X-1.400000X-0.500000X1.400000X-0.500000X1.400000X0.500000X0*%
%ADD33RoundRect,0.250000X0.325000X0.450000X-0.325000X0.450000X-0.325000X-0.450000X0.325000X-0.450000X0*%
%ADD34RoundRect,0.250000X-0.450000X0.350000X-0.450000X-0.350000X0.450000X-0.350000X0.450000X0.350000X0*%
%ADD35C,0.150000*%
%ADD36C,0.203200*%
%ADD37C,0.152400*%
%ADD38C,0.100000*%
%ADD39C,0.120000*%
%ADD40C,0.200000*%
G04 APERTURE END LIST*
D10*
%TO.P,J6,1*%
%TO.N,+3.3V*%
X182720000Y-84000000D03*
%TO.P,J6,2*%
%TO.N,/TX5*%
X181450000Y-86540000D03*
%TO.P,J6,3*%
%TO.N,/RX5*%
X180180000Y-84000000D03*
%TO.P,J6,4*%
%TO.N,GND*%
X178910000Y-86540000D03*
D11*
%TO.P,J6,5*%
%TO.N,N/C*%
X184625000Y-77650000D03*
%TO.P,J6,6*%
X177000000Y-77650000D03*
%TD*%
D12*
%TO.P,J8,1,Pin_1*%
%TO.N,+3.3V*%
X185091000Y-92676000D03*
D13*
%TO.P,J8,2,Pin_2*%
%TO.N,/TX6*%
X185091000Y-93946000D03*
%TO.P,J8,3,Pin_3*%
%TO.N,/RX6*%
X185091000Y-95216000D03*
%TO.P,J8,4,Pin_4*%
%TO.N,GND*%
X185091000Y-96486000D03*
%TD*%
D14*
%TO.P,J7,1,Pin_1*%
%TO.N,+5V*%
X170262500Y-110532500D03*
D15*
%TO.P,J7,2,Pin_2*%
%TO.N,GND*%
X168992500Y-110532500D03*
%TO.P,J7,3,Pin_3*%
%TO.N,+5V*%
X170262500Y-109262500D03*
%TO.P,J7,4,Pin_4*%
%TO.N,GND*%
X168992500Y-109262500D03*
%TO.P,J7,5,Pin_5*%
%TO.N,unconnected-(J7-Pin_5-Pad5)*%
X170262500Y-107992500D03*
%TO.P,J7,6,Pin_6*%
%TO.N,/RX2*%
X168992500Y-107992500D03*
%TO.P,J7,7,Pin_7*%
%TO.N,/TX3*%
X170262500Y-106722500D03*
%TO.P,J7,8,Pin_8*%
%TO.N,/TX2*%
X168992500Y-106722500D03*
%TO.P,J7,9,Pin_9*%
%TO.N,/RX3*%
X170262500Y-105452500D03*
%TO.P,J7,10,Pin_10*%
%TO.N,/TX1*%
X168992500Y-105452500D03*
%TO.P,J7,11,Pin_11*%
%TO.N,/TX6*%
X170262500Y-104182500D03*
%TO.P,J7,12,Pin_12*%
%TO.N,/RX1*%
X168992500Y-104182500D03*
%TO.P,J7,13,Pin_13*%
%TO.N,/RX6*%
X170262500Y-102912500D03*
%TO.P,J7,14,Pin_14*%
%TO.N,/RX0*%
X168992500Y-102912500D03*
%TO.P,J7,15,Pin_15*%
%TO.N,/TX4*%
X170262500Y-101642500D03*
%TO.P,J7,16,Pin_16*%
%TO.N,/TX0*%
X168992500Y-101642500D03*
%TO.P,J7,17,Pin_17*%
%TO.N,/RX4*%
X170262500Y-100372500D03*
%TO.P,J7,18,Pin_18*%
%TO.N,/RX5*%
X168992500Y-100372500D03*
%TO.P,J7,19,Pin_19*%
%TO.N,unconnected-(J7-Pin_19-Pad19)*%
X170262500Y-99102500D03*
%TO.P,J7,20,Pin_20*%
%TO.N,/TX5*%
X168992500Y-99102500D03*
%TO.P,J7,21,Pin_21*%
%TO.N,unconnected-(J7-Pin_21-Pad21)*%
X170262500Y-97832500D03*
%TO.P,J7,22,Pin_22*%
%TO.N,GND*%
X168992500Y-97832500D03*
%TO.P,J7,23,Pin_23*%
%TO.N,unconnected-(J7-Pin_23-Pad23)*%
X170262500Y-96562500D03*
%TO.P,J7,24,Pin_24*%
%TO.N,GND*%
X168992500Y-96562500D03*
%TO.P,J7,25,Pin_25*%
%TO.N,unconnected-(J7-Pin_25-Pad25)*%
X170262500Y-95292500D03*
%TO.P,J7,26,Pin_26*%
%TO.N,unconnected-(J7-Pin_26-Pad26)*%
X168992500Y-95292500D03*
%TD*%
D10*
%TO.P,J1,1*%
%TO.N,+3.3V*%
X179190000Y-119540000D03*
%TO.P,J1,2*%
%TO.N,/TX0*%
X180460000Y-117000000D03*
%TO.P,J1,3*%
%TO.N,/RX0*%
X181730000Y-119540000D03*
%TO.P,J1,4*%
%TO.N,GND*%
X183000000Y-117000000D03*
D11*
%TO.P,J1,5*%
%TO.N,N/C*%
X177285000Y-125890000D03*
%TO.P,J1,6*%
X184910000Y-125890000D03*
%TD*%
D10*
%TO.P,J2,1*%
%TO.N,+3.3V*%
X196905000Y-119650000D03*
%TO.P,J2,2*%
%TO.N,/TX1*%
X198175000Y-117110000D03*
%TO.P,J2,3*%
%TO.N,/RX1*%
X199445000Y-119650000D03*
%TO.P,J2,4*%
%TO.N,GND*%
X200715000Y-117110000D03*
D11*
%TO.P,J2,5*%
%TO.N,N/C*%
X195000000Y-126000000D03*
%TO.P,J2,6*%
X202625000Y-126000000D03*
%TD*%
D16*
%TO.P,J9,1,Pin_1*%
%TO.N,+5V*%
X178407000Y-111075000D03*
D17*
%TO.P,J9,2,Pin_2*%
%TO.N,+3.3V*%
X178407000Y-108535000D03*
%TO.P,J9,3,Pin_3*%
%TO.N,/TX0*%
X178407000Y-105995000D03*
%TO.P,J9,4,Pin_4*%
%TO.N,/RX0*%
X178407000Y-103455000D03*
%TO.P,J9,5,Pin_5*%
%TO.N,GND*%
X178407000Y-100915000D03*
%TD*%
D10*
%TO.P,J4,1*%
%TO.N,+3.3V*%
X208125000Y-96810000D03*
%TO.P,J4,2*%
%TO.N,/TX3*%
X205585000Y-95540000D03*
%TO.P,J4,3*%
%TO.N,/RX3*%
X208125000Y-94270000D03*
%TO.P,J4,4*%
%TO.N,GND*%
X205585000Y-93000000D03*
D11*
%TO.P,J4,5*%
%TO.N,N/C*%
X214475000Y-98715000D03*
%TO.P,J4,6*%
X214475000Y-91090000D03*
%TD*%
D10*
%TO.P,J3,1*%
%TO.N,+3.3V*%
X208125000Y-110440000D03*
%TO.P,J3,2*%
%TO.N,/TX2*%
X205585000Y-109170000D03*
%TO.P,J3,3*%
%TO.N,/RX2*%
X208125000Y-107900000D03*
%TO.P,J3,4*%
%TO.N,GND*%
X205585000Y-106630000D03*
D11*
%TO.P,J3,5*%
%TO.N,N/C*%
X214475000Y-112345000D03*
%TO.P,J3,6*%
X214475000Y-104720000D03*
%TD*%
D10*
%TO.P,J5,1*%
%TO.N,+3.3V*%
X200907500Y-84000000D03*
%TO.P,J5,2*%
%TO.N,/TX4*%
X199637500Y-86540000D03*
%TO.P,J5,3*%
%TO.N,/RX4*%
X198367500Y-84000000D03*
%TO.P,J5,4*%
%TO.N,GND*%
X197097500Y-86540000D03*
D11*
%TO.P,J5,5*%
%TO.N,N/C*%
X202812500Y-77650000D03*
%TO.P,J5,6*%
X195187500Y-77650000D03*
%TD*%
D18*
%TO.N,GND*%
X192250000Y-106503000D03*
X194409000Y-106630000D03*
X184757000Y-107707000D03*
D19*
%TO.N,/RX6*%
X181632800Y-95301600D03*
%TD*%
D20*
%TO.N,GND*%
X167265500Y-96562500D02*
X167231000Y-96597000D01*
X168992500Y-110532500D02*
X168992500Y-111871300D01*
X168992500Y-97832500D02*
X167069500Y-97832500D01*
X168992500Y-96562500D02*
X167265500Y-96562500D01*
X168992500Y-109262500D02*
X167138500Y-109262500D01*
X169034400Y-111913200D02*
X168992500Y-111871300D01*
X167138500Y-109262500D02*
X167104000Y-109297000D01*
X167069500Y-97832500D02*
X166850000Y-97613000D01*
%TO.N,/TX0*%
X176883000Y-116155000D02*
X177728000Y-117000000D01*
X176883000Y-116155000D02*
X176883000Y-107519000D01*
X177728000Y-117000000D02*
X180460000Y-117000000D01*
X176883000Y-107519000D02*
X178407000Y-105995000D01*
%TO.N,/RX0*%
X175867000Y-116282000D02*
X177391000Y-117806000D01*
X179423000Y-117806000D02*
X181157000Y-119540000D01*
X175867000Y-116282000D02*
X175867000Y-105995000D01*
X175867000Y-105995000D02*
X178407000Y-103455000D01*
X177391000Y-117806000D02*
X179423000Y-117806000D01*
X181157000Y-119540000D02*
X181730000Y-119540000D01*
%TO.N,/RX6*%
X181632800Y-95301600D02*
X181718400Y-95216000D01*
X181718400Y-95216000D02*
X185091000Y-95216000D01*
%TD*%
%TA.AperFunction,Conductor*%
%TO.N,GND*%
G36*
X169426096Y-110786491D02*
G01*
X169460121Y-110848803D01*
X169463000Y-110875586D01*
X169463000Y-110878414D01*
X169442998Y-110946535D01*
X169389342Y-110993028D01*
X169319068Y-111003132D01*
X169254488Y-110973638D01*
X169247905Y-110967509D01*
X169149494Y-110869098D01*
X169219686Y-110828574D01*
X169288574Y-110759686D01*
X169329099Y-110689493D01*
X169426096Y-110786491D01*
G37*
%TD.AperFunction*%
%TA.AperFunction,Conductor*%
G36*
X168572934Y-108673375D02*
G01*
X168579587Y-108677277D01*
X168587197Y-108682059D01*
X168609253Y-108699648D01*
X168835506Y-108925900D01*
X168765314Y-108966426D01*
X168696426Y-109035314D01*
X168655900Y-109105506D01*
X168423452Y-108873057D01*
X168389427Y-108810745D01*
X168394492Y-108739929D01*
X168437039Y-108683094D01*
X168503559Y-108658283D01*
X168572934Y-108673375D01*
G37*
%TD.AperFunction*%
%TA.AperFunction,Conductor*%
G36*
X168696426Y-98059686D02*
G01*
X168765314Y-98128574D01*
X168835505Y-98169098D01*
X168609254Y-98395349D01*
X168587192Y-98412942D01*
X168579581Y-98417724D01*
X168511259Y-98437028D01*
X168443347Y-98416331D01*
X168397405Y-98362202D01*
X168388020Y-98291829D01*
X168418173Y-98227553D01*
X168423453Y-98221939D01*
X168655900Y-97989492D01*
X168696426Y-98059686D01*
G37*
%TD.AperFunction*%
%TA.AperFunction,Conductor*%
G36*
X168572934Y-95973375D02*
G01*
X168579587Y-95977277D01*
X168587197Y-95982059D01*
X168609253Y-95999648D01*
X168835506Y-96225900D01*
X168765314Y-96266426D01*
X168696426Y-96335314D01*
X168655900Y-96405506D01*
X168423452Y-96173057D01*
X168389427Y-96110745D01*
X168394492Y-96039929D01*
X168437039Y-95983094D01*
X168503559Y-95958283D01*
X168572934Y-95973375D01*
G37*
%TD.AperFunction*%
%TA.AperFunction,Conductor*%
G36*
X209837676Y-75100502D02*
G01*
X209849676Y-75100501D01*
X209849678Y-75100502D01*
X209883372Y-75100500D01*
X209895712Y-75101105D01*
X210033180Y-75114639D01*
X210057408Y-75119458D01*
X210183630Y-75157744D01*
X210206451Y-75167196D01*
X210322783Y-75229376D01*
X210343320Y-75243099D01*
X210445281Y-75326779D01*
X210462748Y-75344247D01*
X210546423Y-75446212D01*
X210560141Y-75466744D01*
X210622319Y-75583086D01*
X210631769Y-75605905D01*
X210670050Y-75732133D01*
X210674867Y-75756361D01*
X210688443Y-75894323D01*
X210689049Y-75906673D01*
X210689045Y-75953051D01*
X210689050Y-75953098D01*
X210689050Y-78471888D01*
X210689089Y-78472288D01*
X210689087Y-78598090D01*
X210689087Y-78598108D01*
X210724044Y-78953089D01*
X210724049Y-78953123D01*
X210793631Y-79302962D01*
X210793635Y-79302979D01*
X210897181Y-79644343D01*
X210897183Y-79644348D01*
X211006941Y-79909337D01*
X211033691Y-79973918D01*
X211201847Y-80288525D01*
X211352863Y-80514540D01*
X211400030Y-80585132D01*
X211400036Y-80585140D01*
X211626331Y-80860887D01*
X211626335Y-80860891D01*
X211878578Y-81113136D01*
X212154331Y-81339443D01*
X212154335Y-81339445D01*
X212154339Y-81339449D01*
X212381666Y-81491344D01*
X212450939Y-81537631D01*
X212765544Y-81705791D01*
X213095118Y-81842304D01*
X213436485Y-81945856D01*
X213786358Y-82015448D01*
X214141368Y-82050411D01*
X214319732Y-82050409D01*
X214359614Y-82050409D01*
X216786782Y-82050409D01*
X216786860Y-82050416D01*
X216799602Y-82050414D01*
X216799605Y-82050415D01*
X216833309Y-82050409D01*
X216845627Y-82051012D01*
X216983116Y-82064537D01*
X217007345Y-82069354D01*
X217133580Y-82107633D01*
X217156402Y-82117085D01*
X217272741Y-82179261D01*
X217293281Y-82192984D01*
X217395252Y-82276663D01*
X217412717Y-82294127D01*
X217496403Y-82396099D01*
X217510125Y-82416636D01*
X217572303Y-82532973D01*
X217581756Y-82555796D01*
X217620041Y-82682032D01*
X217624858Y-82706262D01*
X217638352Y-82843396D01*
X217638958Y-82855746D01*
X217638954Y-82902958D01*
X217638959Y-82903005D01*
X217638959Y-128429512D01*
X217637406Y-128449235D01*
X217627414Y-128512282D01*
X217615231Y-128549768D01*
X217590802Y-128597706D01*
X217567633Y-128629592D01*
X217529592Y-128667633D01*
X217497706Y-128690802D01*
X217449768Y-128715231D01*
X217412282Y-128727414D01*
X217373416Y-128733573D01*
X217349233Y-128737406D01*
X217329512Y-128738959D01*
X171756093Y-128738959D01*
X171743744Y-128738352D01*
X171709742Y-128735003D01*
X171606284Y-128724814D01*
X171582058Y-128719995D01*
X171455837Y-128681706D01*
X171433016Y-128672254D01*
X171316680Y-128610070D01*
X171296143Y-128596347D01*
X171194183Y-128512669D01*
X171176716Y-128495202D01*
X171138993Y-128449235D01*
X171093032Y-128393228D01*
X171079311Y-128372691D01*
X171017136Y-128256362D01*
X171007686Y-128233549D01*
X170976282Y-128130008D01*
X170969399Y-128107314D01*
X170964581Y-128083089D01*
X170959741Y-128033932D01*
X170951014Y-127945288D01*
X170950409Y-127932952D01*
X170950411Y-127899585D01*
X170950410Y-127899583D01*
X170950411Y-127887583D01*
X170950409Y-127887551D01*
X170950409Y-125889996D01*
X175025663Y-125889996D01*
X175025663Y-125890003D01*
X175044991Y-126184898D01*
X175044993Y-126184913D01*
X175102648Y-126474757D01*
X175102650Y-126474767D01*
X175197642Y-126754603D01*
X175197648Y-126754617D01*
X175328355Y-127019666D01*
X175492546Y-127265396D01*
X175492549Y-127265400D01*
X175687406Y-127487593D01*
X175909599Y-127682450D01*
X175909603Y-127682453D01*
X176155331Y-127846643D01*
X176420389Y-127977355D01*
X176700241Y-128072352D01*
X176950789Y-128122189D01*
X176990086Y-128130006D01*
X176990088Y-128130006D01*
X176990097Y-128130008D01*
X177158613Y-128141053D01*
X177284997Y-128149337D01*
X177285000Y-128149337D01*
X177285003Y-128149337D01*
X177395588Y-128142088D01*
X177579903Y-128130008D01*
X177869759Y-128072352D01*
X178149611Y-127977355D01*
X178414669Y-127846643D01*
X178660397Y-127682453D01*
X178882593Y-127487593D01*
X179077453Y-127265397D01*
X179241643Y-127019669D01*
X179372355Y-126754611D01*
X179467352Y-126474759D01*
X179525008Y-126184903D01*
X179544337Y-125890000D01*
X179544337Y-125889996D01*
X182650663Y-125889996D01*
X182650663Y-125890003D01*
X182669991Y-126184898D01*
X182669993Y-126184913D01*
X182727648Y-126474757D01*
X182727650Y-126474767D01*
X182822642Y-126754603D01*
X182822648Y-126754617D01*
X182953355Y-127019666D01*
X183117546Y-127265396D01*
X183117549Y-127265400D01*
X183312406Y-127487593D01*
X183534599Y-127682450D01*
X183534603Y-127682453D01*
X183780331Y-127846643D01*
X184045389Y-127977355D01*
X184325241Y-128072352D01*
X184575789Y-128122189D01*
X184615086Y-128130006D01*
X184615088Y-128130006D01*
X184615097Y-128130008D01*
X184783613Y-128141053D01*
X184909997Y-128149337D01*
X184910000Y-128149337D01*
X184910003Y-128149337D01*
X185020588Y-128142088D01*
X185204903Y-128130008D01*
X185494759Y-128072352D01*
X185774611Y-127977355D01*
X186039669Y-127846643D01*
X186285397Y-127682453D01*
X186507593Y-127487593D01*
X186702453Y-127265397D01*
X186866643Y-127019669D01*
X186997355Y-126754611D01*
X187092352Y-126474759D01*
X187150008Y-126184903D01*
X187162127Y-125999996D01*
X192740663Y-125999996D01*
X192740663Y-126000003D01*
X192759991Y-126294898D01*
X192759993Y-126294913D01*
X192817648Y-126584757D01*
X192817650Y-126584767D01*
X192912642Y-126864603D01*
X192912648Y-126864617D01*
X193043355Y-127129666D01*
X193207546Y-127375396D01*
X193207549Y-127375400D01*
X193402406Y-127597593D01*
X193624599Y-127792450D01*
X193624603Y-127792453D01*
X193870331Y-127956643D01*
X194135389Y-128087355D01*
X194415241Y-128182352D01*
X194665789Y-128232189D01*
X194705086Y-128240006D01*
X194705088Y-128240006D01*
X194705097Y-128240008D01*
X194873613Y-128251053D01*
X194999997Y-128259337D01*
X195000000Y-128259337D01*
X195000003Y-128259337D01*
X195110588Y-128252088D01*
X195294903Y-128240008D01*
X195584759Y-128182352D01*
X195864611Y-128087355D01*
X196129669Y-127956643D01*
X196375397Y-127792453D01*
X196597593Y-127597593D01*
X196792453Y-127375397D01*
X196956643Y-127129669D01*
X197087355Y-126864611D01*
X197182352Y-126584759D01*
X197240008Y-126294903D01*
X197259337Y-126000000D01*
X197259337Y-125999996D01*
X200365663Y-125999996D01*
X200365663Y-126000003D01*
X200384991Y-126294898D01*
X200384993Y-126294913D01*
X200442648Y-126584757D01*
X200442650Y-126584767D01*
X200537642Y-126864603D01*
X200537648Y-126864617D01*
X200668355Y-127129666D01*
X200832546Y-127375396D01*
X200832549Y-127375400D01*
X201027406Y-127597593D01*
X201249599Y-127792450D01*
X201249603Y-127792453D01*
X201495331Y-127956643D01*
X201760389Y-128087355D01*
X202040241Y-128182352D01*
X202290789Y-128232189D01*
X202330086Y-128240006D01*
X202330088Y-128240006D01*
X202330097Y-128240008D01*
X202498613Y-128251053D01*
X202624997Y-128259337D01*
X202625000Y-128259337D01*
X202625003Y-128259337D01*
X202735588Y-128252088D01*
X202919903Y-128240008D01*
X203209759Y-128182352D01*
X203489611Y-128087355D01*
X203754669Y-127956643D01*
X204000397Y-127792453D01*
X204222593Y-127597593D01*
X204417453Y-127375397D01*
X204581643Y-127129669D01*
X204712355Y-126864611D01*
X204807352Y-126584759D01*
X204865008Y-126294903D01*
X204884337Y-126000000D01*
X204865008Y-125705097D01*
X204860056Y-125680204D01*
X204843128Y-125595101D01*
X204807352Y-125415241D01*
X204712355Y-125135389D01*
X204581643Y-124870332D01*
X204417453Y-124624603D01*
X204417450Y-124624599D01*
X204237786Y-124419730D01*
X211814087Y-124419730D01*
X211831063Y-124624603D01*
X211834623Y-124667558D01*
X211895665Y-124908607D01*
X211895668Y-124908614D01*
X211995556Y-125136336D01*
X212131565Y-125344515D01*
X212299979Y-125527462D01*
X212299984Y-125527466D01*
X212299986Y-125527468D01*
X212386862Y-125595086D01*
X212496220Y-125680203D01*
X212496221Y-125680204D01*
X212714920Y-125798558D01*
X212714922Y-125798559D01*
X212838407Y-125840951D01*
X212950116Y-125879301D01*
X213195395Y-125920230D01*
X213195399Y-125920230D01*
X213444061Y-125920230D01*
X213444065Y-125920230D01*
X213689344Y-125879301D01*
X213924540Y-125798558D01*
X214143239Y-125680204D01*
X214339474Y-125527468D01*
X214385697Y-125477257D01*
X214507894Y-125344515D01*
X214538839Y-125297150D01*
X214643903Y-125136337D01*
X214743793Y-124908611D01*
X214804838Y-124667551D01*
X214825373Y-124419730D01*
X214804838Y-124171909D01*
X214743793Y-123930849D01*
X214643903Y-123703123D01*
X214538839Y-123542310D01*
X214507894Y-123494944D01*
X214339480Y-123311997D01*
X214265397Y-123254336D01*
X214143239Y-123159256D01*
X214143238Y-123159255D01*
X213924539Y-123040901D01*
X213924537Y-123040900D01*
X213689348Y-122960160D01*
X213689339Y-122960158D01*
X213640566Y-122952019D01*
X213444065Y-122919230D01*
X213195395Y-122919230D01*
X213031683Y-122946548D01*
X212950120Y-122960158D01*
X212950111Y-122960160D01*
X212714922Y-123040900D01*
X212714920Y-123040901D01*
X212496221Y-123159255D01*
X212496220Y-123159256D01*
X212299979Y-123311997D01*
X212131565Y-123494944D01*
X211995556Y-123703123D01*
X211895668Y-123930845D01*
X211895665Y-123930852D01*
X211834623Y-124171901D01*
X211834622Y-124171907D01*
X211834622Y-124171909D01*
X211814087Y-124419730D01*
X204237786Y-124419730D01*
X204222593Y-124402406D01*
X204000400Y-124207549D01*
X204000396Y-124207546D01*
X203754666Y-124043355D01*
X203489617Y-123912648D01*
X203489611Y-123912645D01*
X203489606Y-123912643D01*
X203489603Y-123912642D01*
X203209767Y-123817650D01*
X203209761Y-123817648D01*
X203209759Y-123817648D01*
X203126619Y-123801110D01*
X202919913Y-123759993D01*
X202919898Y-123759991D01*
X202625003Y-123740663D01*
X202624997Y-123740663D01*
X202330101Y-123759991D01*
X202330086Y-123759993D01*
X202081810Y-123809379D01*
X202040241Y-123817648D01*
X202040239Y-123817648D01*
X202040232Y-123817650D01*
X201760396Y-123912642D01*
X201760382Y-123912648D01*
X201495334Y-124043355D01*
X201249603Y-124207546D01*
X201249599Y-124207549D01*
X201027406Y-124402406D01*
X200832549Y-124624599D01*
X200832546Y-124624603D01*
X200668355Y-124870334D01*
X200537648Y-125135382D01*
X200537642Y-125135396D01*
X200442650Y-125415232D01*
X200442648Y-125415242D01*
X200384993Y-125705086D01*
X200384991Y-125705101D01*
X200365663Y-125999996D01*
X197259337Y-125999996D01*
X197240008Y-125705097D01*
X197235056Y-125680204D01*
X197218128Y-125595101D01*
X197182352Y-125415241D01*
X197087355Y-125135389D01*
X196956643Y-124870332D01*
X196792453Y-124624603D01*
X196792450Y-124624599D01*
X196597593Y-124402406D01*
X196375400Y-124207549D01*
X196375396Y-124207546D01*
X196129666Y-124043355D01*
X195864617Y-123912648D01*
X195864611Y-123912645D01*
X195864606Y-123912643D01*
X195864603Y-123912642D01*
X195584767Y-123817650D01*
X195584761Y-123817648D01*
X195584759Y-123817648D01*
X195501619Y-123801110D01*
X195294913Y-123759993D01*
X195294898Y-123759991D01*
X195000003Y-123740663D01*
X194999997Y-123740663D01*
X194705101Y-123759991D01*
X194705086Y-123759993D01*
X194456810Y-123809379D01*
X194415241Y-123817648D01*
X194415239Y-123817648D01*
X194415232Y-123817650D01*
X194135396Y-123912642D01*
X194135382Y-123912648D01*
X193870334Y-124043355D01*
X193624603Y-124207546D01*
X193624599Y-124207549D01*
X193402406Y-124402406D01*
X193207549Y-124624599D01*
X193207546Y-124624603D01*
X193043355Y-124870334D01*
X192912648Y-125135382D01*
X192912642Y-125135396D01*
X192817650Y-125415232D01*
X192817648Y-125415242D01*
X192759993Y-125705086D01*
X192759991Y-125705101D01*
X192740663Y-125999996D01*
X187162127Y-125999996D01*
X187169337Y-125890000D01*
X187150008Y-125595097D01*
X187092352Y-125305241D01*
X187089605Y-125297150D01*
X187034695Y-125135389D01*
X186997355Y-125025389D01*
X186866643Y-124760332D01*
X186702453Y-124514603D01*
X186702450Y-124514599D01*
X186507593Y-124292406D01*
X186285400Y-124097549D01*
X186285396Y-124097546D01*
X186039666Y-123933355D01*
X185794025Y-123812219D01*
X185774611Y-123802645D01*
X185774606Y-123802643D01*
X185774603Y-123802642D01*
X185494767Y-123707650D01*
X185494761Y-123707648D01*
X185494759Y-123707648D01*
X185411619Y-123691110D01*
X185204913Y-123649993D01*
X185204898Y-123649991D01*
X184910003Y-123630663D01*
X184909997Y-123630663D01*
X184615101Y-123649991D01*
X184615086Y-123649993D01*
X184366810Y-123699379D01*
X184325241Y-123707648D01*
X184325239Y-123707648D01*
X184325232Y-123707650D01*
X184045396Y-123802642D01*
X184045382Y-123802648D01*
X183780334Y-123933355D01*
X183534603Y-124097546D01*
X183534599Y-124097549D01*
X183312406Y-124292406D01*
X183117549Y-124514599D01*
X183117546Y-124514603D01*
X182953355Y-124760334D01*
X182822648Y-125025382D01*
X182822642Y-125025396D01*
X182727650Y-125305232D01*
X182727648Y-125305242D01*
X182669993Y-125595086D01*
X182669991Y-125595101D01*
X182650663Y-125889996D01*
X179544337Y-125889996D01*
X179525008Y-125595097D01*
X179467352Y-125305241D01*
X179464605Y-125297150D01*
X179409695Y-125135389D01*
X179372355Y-125025389D01*
X179241643Y-124760332D01*
X179077453Y-124514603D01*
X179077450Y-124514599D01*
X178882593Y-124292406D01*
X178660400Y-124097549D01*
X178660396Y-124097546D01*
X178414666Y-123933355D01*
X178169025Y-123812219D01*
X178149611Y-123802645D01*
X178149606Y-123802643D01*
X178149603Y-123802642D01*
X177869767Y-123707650D01*
X177869761Y-123707648D01*
X177869759Y-123707648D01*
X177786619Y-123691110D01*
X177579913Y-123649993D01*
X177579898Y-123649991D01*
X177285003Y-123630663D01*
X177284997Y-123630663D01*
X176990101Y-123649991D01*
X176990086Y-123649993D01*
X176741810Y-123699379D01*
X176700241Y-123707648D01*
X176700239Y-123707648D01*
X176700232Y-123707650D01*
X176420396Y-123802642D01*
X176420382Y-123802648D01*
X176155334Y-123933355D01*
X175909603Y-124097546D01*
X175909599Y-124097549D01*
X175687406Y-124292406D01*
X175492549Y-124514599D01*
X175492546Y-124514603D01*
X175328355Y-124760334D01*
X175197648Y-125025382D01*
X175197642Y-125025396D01*
X175102650Y-125305232D01*
X175102648Y-125305242D01*
X175044993Y-125595086D01*
X175044991Y-125595101D01*
X175025663Y-125889996D01*
X170950409Y-125889996D01*
X170950409Y-125472010D01*
X170950450Y-125471866D01*
X170950449Y-125419726D01*
X170950450Y-125419726D01*
X170950447Y-125241362D01*
X170915475Y-124886352D01*
X170845875Y-124536480D01*
X170742317Y-124195114D01*
X170679455Y-124043357D01*
X170605802Y-123865547D01*
X170605797Y-123865537D01*
X170517167Y-123699728D01*
X170437635Y-123550938D01*
X170360499Y-123435498D01*
X170239448Y-123254336D01*
X170239444Y-123254331D01*
X170013136Y-122978578D01*
X169760890Y-122726335D01*
X169753156Y-122719988D01*
X169485152Y-122500043D01*
X169485142Y-122500036D01*
X169485135Y-122500030D01*
X169257797Y-122348128D01*
X169188528Y-122301844D01*
X168873920Y-122133683D01*
X168797669Y-122102099D01*
X168544346Y-121997169D01*
X168544341Y-121997167D01*
X168544340Y-121997167D01*
X168202994Y-121893619D01*
X168202985Y-121893616D01*
X168202979Y-121893615D01*
X167853106Y-121824019D01*
X167853102Y-121824018D01*
X167853099Y-121824018D01*
X167498100Y-121789051D01*
X167498087Y-121789050D01*
X167359612Y-121789050D01*
X164806187Y-121789050D01*
X164793837Y-121788443D01*
X164656372Y-121774904D01*
X164632147Y-121770086D01*
X164505908Y-121731793D01*
X164483089Y-121722341D01*
X164366752Y-121660160D01*
X164346215Y-121646438D01*
X164244240Y-121562753D01*
X164226774Y-121545288D01*
X164143082Y-121443315D01*
X164129364Y-121422787D01*
X164067171Y-121306441D01*
X164057722Y-121283629D01*
X164019423Y-121157395D01*
X164014603Y-121133170D01*
X164001107Y-120996207D01*
X164000500Y-120983851D01*
X164000500Y-96562496D01*
X167934405Y-96562496D01*
X167934405Y-96562503D01*
X167954734Y-96768916D01*
X167954736Y-96768927D01*
X168014945Y-96967410D01*
X168014949Y-96967419D01*
X168106182Y-97138105D01*
X168120654Y-97207611D01*
X168106182Y-97256895D01*
X168014949Y-97427580D01*
X168014945Y-97427589D01*
X167954736Y-97626072D01*
X167954734Y-97626083D01*
X167934405Y-97832496D01*
X167934405Y-97832503D01*
X167954734Y-98038916D01*
X167954736Y-98038927D01*
X168014945Y-98237410D01*
X168014947Y-98237414D01*
X168112726Y-98420346D01*
X168163355Y-98482038D01*
X168214841Y-98484567D01*
X168281899Y-98507887D01*
X168325704Y-98563759D01*
X168332348Y-98634444D01*
X168315348Y-98677450D01*
X168267617Y-98753414D01*
X168267617Y-98753415D01*
X168208113Y-98923469D01*
X168187941Y-99102500D01*
X168208113Y-99281531D01*
X168208113Y-99281533D01*
X168208114Y-99281534D01*
X168267617Y-99451585D01*
X168267618Y-99451588D01*
X168363468Y-99604132D01*
X168363469Y-99604134D01*
X168407740Y-99648405D01*
X168441766Y-99710717D01*
X168436701Y-99781532D01*
X168407740Y-99826595D01*
X168363469Y-99870865D01*
X168363468Y-99870867D01*
X168267618Y-100023411D01*
X168267617Y-100023414D01*
X168244180Y-100090396D01*
X168208113Y-100193469D01*
X168187941Y-100372500D01*
X168208113Y-100551531D01*
X168208113Y-100551533D01*
X168208114Y-100551534D01*
X168267617Y-100721585D01*
X168267618Y-100721588D01*
X168363468Y-100874132D01*
X168363469Y-100874134D01*
X168407740Y-100918405D01*
X168441766Y-100980717D01*
X168436701Y-101051532D01*
X168407740Y-101096595D01*
X168363469Y-101140865D01*
X168363468Y-101140867D01*
X168267618Y-101293411D01*
X168267617Y-101293414D01*
X168245211Y-101357449D01*
X168208113Y-101463469D01*
X168187941Y-101642500D01*
X168208113Y-101821531D01*
X168208113Y-101821533D01*
X168208114Y-101821534D01*
X168267617Y-101991585D01*
X168267618Y-101991588D01*
X168363468Y-102144132D01*
X168363469Y-102144134D01*
X168407740Y-102188405D01*
X168441766Y-102250717D01*
X168436701Y-102321532D01*
X168407740Y-102366595D01*
X168363469Y-102410865D01*
X168363468Y-102410867D01*
X168267618Y-102563411D01*
X168267617Y-102563414D01*
X168217125Y-102707715D01*
X168208113Y-102733469D01*
X168187941Y-102912500D01*
X168208113Y-103091531D01*
X168208113Y-103091533D01*
X168208114Y-103091534D01*
X168267617Y-103261585D01*
X168267618Y-103261588D01*
X168363468Y-103414132D01*
X168363469Y-103414134D01*
X168407740Y-103458405D01*
X168441766Y-103520717D01*
X168436701Y-103591532D01*
X168407740Y-103636595D01*
X168363469Y-103680865D01*
X168363468Y-103680867D01*
X168267618Y-103833411D01*
X168267617Y-103833414D01*
X168225649Y-103953354D01*
X168208113Y-104003469D01*
X168187941Y-104182500D01*
X168208113Y-104361531D01*
X168208113Y-104361533D01*
X168208114Y-104361534D01*
X168267617Y-104531585D01*
X168267618Y-104531588D01*
X168363468Y-104684132D01*
X168363469Y-104684134D01*
X168407740Y-104728405D01*
X168441766Y-104790717D01*
X168436701Y-104861532D01*
X168407740Y-104906595D01*
X168363469Y-104950865D01*
X168363468Y-104950867D01*
X168267618Y-105103411D01*
X168267617Y-105103414D01*
X168217125Y-105247715D01*
X168208113Y-105273469D01*
X168187941Y-105452500D01*
X168208113Y-105631531D01*
X168208113Y-105631533D01*
X168208114Y-105631534D01*
X168267617Y-105801585D01*
X168267618Y-105801588D01*
X168363468Y-105954132D01*
X168363469Y-105954134D01*
X168407740Y-105998405D01*
X168441766Y-106060717D01*
X168436701Y-106131532D01*
X168407740Y-106176595D01*
X168363469Y-106220865D01*
X168363468Y-106220867D01*
X168267618Y-106373411D01*
X168267617Y-106373414D01*
X168218966Y-106512453D01*
X168208113Y-106543469D01*
X168187941Y-106722500D01*
X168208113Y-106901531D01*
X168208113Y-106901533D01*
X168208114Y-106901534D01*
X168267617Y-107071585D01*
X168267618Y-107071588D01*
X168363468Y-107224132D01*
X168363469Y-107224134D01*
X168407740Y-107268405D01*
X168441766Y-107330717D01*
X168436701Y-107401532D01*
X168407740Y-107446595D01*
X168363469Y-107490865D01*
X168363468Y-107490867D01*
X168267618Y-107643411D01*
X168267617Y-107643414D01*
X168217125Y-107787715D01*
X168208113Y-107813469D01*
X168187941Y-107992500D01*
X168208113Y-108171531D01*
X168208113Y-108171533D01*
X168208114Y-108171534D01*
X168267616Y-108341583D01*
X168315347Y-108417547D01*
X168334652Y-108485869D01*
X168313956Y-108553782D01*
X168259829Y-108599725D01*
X168214842Y-108610431D01*
X168163357Y-108612960D01*
X168112724Y-108674656D01*
X168014947Y-108857585D01*
X168014945Y-108857589D01*
X167954736Y-109056072D01*
X167954734Y-109056083D01*
X167934405Y-109262496D01*
X167934405Y-109262503D01*
X167954734Y-109468916D01*
X167954736Y-109468927D01*
X168014945Y-109667410D01*
X168014949Y-109667419D01*
X168106182Y-109838105D01*
X168120654Y-109907611D01*
X168106182Y-109956895D01*
X168014949Y-110127580D01*
X168014945Y-110127589D01*
X167954736Y-110326072D01*
X167954734Y-110326083D01*
X167934405Y-110532496D01*
X167934405Y-110532503D01*
X167954734Y-110738916D01*
X167954736Y-110738927D01*
X168014945Y-110937410D01*
X168014947Y-110937414D01*
X168112726Y-111120346D01*
X168163355Y-111182037D01*
X168655899Y-110689492D01*
X168696426Y-110759686D01*
X168765314Y-110828574D01*
X168835504Y-110869097D01*
X168342960Y-111361642D01*
X168404653Y-111412273D01*
X168587585Y-111510052D01*
X168587589Y-111510054D01*
X168786072Y-111570263D01*
X168786083Y-111570265D01*
X168992497Y-111590595D01*
X168992503Y-111590595D01*
X169198916Y-111570265D01*
X169198927Y-111570263D01*
X169397410Y-111510054D01*
X169397414Y-111510052D01*
X169580340Y-111412276D01*
X169580351Y-111412269D01*
X169643305Y-111360602D01*
X169708651Y-111332847D01*
X169723224Y-111331999D01*
X170832566Y-111331999D01*
X170832569Y-111331998D01*
X170832573Y-111331998D01*
X170881826Y-111322201D01*
X170906801Y-111317234D01*
X170990984Y-111260984D01*
X171047234Y-111176801D01*
X171062000Y-111102567D01*
X171061999Y-109962434D01*
X171061998Y-109962431D01*
X171061998Y-109962426D01*
X171047234Y-109888199D01*
X170990982Y-109804013D01*
X170985569Y-109798600D01*
X170951543Y-109736288D01*
X170956608Y-109665473D01*
X170967978Y-109642467D01*
X170987383Y-109611585D01*
X171046887Y-109441531D01*
X171067059Y-109262500D01*
X171046887Y-109083469D01*
X170987383Y-108913415D01*
X170987381Y-108913412D01*
X170987381Y-108913411D01*
X170891531Y-108760867D01*
X170891530Y-108760865D01*
X170847260Y-108716595D01*
X170813234Y-108654283D01*
X170818299Y-108583468D01*
X170847260Y-108538405D01*
X170891530Y-108494134D01*
X170891531Y-108494132D01*
X170897501Y-108484632D01*
X170987383Y-108341585D01*
X171046887Y-108171531D01*
X171067059Y-107992500D01*
X171046887Y-107813469D01*
X170987383Y-107643415D01*
X170987381Y-107643412D01*
X170987381Y-107643411D01*
X170891531Y-107490867D01*
X170891530Y-107490865D01*
X170847260Y-107446595D01*
X170813234Y-107384283D01*
X170818299Y-107313468D01*
X170847260Y-107268405D01*
X170891530Y-107224134D01*
X170891531Y-107224132D01*
X170897501Y-107214632D01*
X170987383Y-107071585D01*
X171046887Y-106901531D01*
X171067059Y-106722500D01*
X171046887Y-106543469D01*
X170987383Y-106373415D01*
X170987381Y-106373412D01*
X170987381Y-106373411D01*
X170891531Y-106220867D01*
X170891530Y-106220865D01*
X170847260Y-106176595D01*
X170813234Y-106114283D01*
X170818299Y-106043468D01*
X170847260Y-105998405D01*
X170891530Y-105954134D01*
X170891531Y-105954132D01*
X170897501Y-105944632D01*
X170899514Y-105941428D01*
X175460100Y-105941428D01*
X175460100Y-116335573D01*
X175487829Y-116439057D01*
X175487830Y-116439060D01*
X175541396Y-116531839D01*
X175541398Y-116531841D01*
X175541399Y-116531843D01*
X177065399Y-118055842D01*
X177141158Y-118131601D01*
X177141159Y-118131602D01*
X177141161Y-118131603D01*
X177233940Y-118185169D01*
X177233943Y-118185170D01*
X177281697Y-118197966D01*
X177337431Y-118212900D01*
X179202266Y-118212900D01*
X179270387Y-118232902D01*
X179291361Y-118249805D01*
X179351571Y-118310015D01*
X179385597Y-118372327D01*
X179380532Y-118443142D01*
X179337985Y-118499978D01*
X179271465Y-118524789D01*
X179250127Y-118524503D01*
X179190005Y-118518582D01*
X179189997Y-118518582D01*
X178990738Y-118538206D01*
X178990736Y-118538206D01*
X178799122Y-118596332D01*
X178799116Y-118596334D01*
X178622533Y-118690720D01*
X178467748Y-118817748D01*
X178340720Y-118972533D01*
X178246334Y-119149116D01*
X178246332Y-119149122D01*
X178188206Y-119340736D01*
X178188206Y-119340738D01*
X178168582Y-119539996D01*
X178168582Y-119540003D01*
X178188206Y-119739261D01*
X178188206Y-119739263D01*
X178246332Y-119930877D01*
X178246334Y-119930883D01*
X178340720Y-120107466D01*
X178340722Y-120107469D01*
X178467748Y-120262252D01*
X178622531Y-120389278D01*
X178799120Y-120483667D01*
X178990731Y-120541792D01*
X178990735Y-120541792D01*
X178990737Y-120541793D01*
X179189997Y-120561418D01*
X179190000Y-120561418D01*
X179190003Y-120561418D01*
X179389261Y-120541793D01*
X179389263Y-120541793D01*
X179389264Y-120541792D01*
X179389269Y-120541792D01*
X179580880Y-120483667D01*
X179757469Y-120389278D01*
X179912252Y-120262252D01*
X180039278Y-120107469D01*
X180133667Y-119930880D01*
X180191792Y-119739269D01*
X180194543Y-119711336D01*
X180211418Y-119540003D01*
X180211418Y-119539998D01*
X180205496Y-119479874D01*
X180218724Y-119410120D01*
X180267564Y-119358592D01*
X180336509Y-119341648D01*
X180403670Y-119364669D01*
X180419984Y-119378428D01*
X180690580Y-119649024D01*
X180724606Y-119711336D01*
X180726877Y-119725762D01*
X180728208Y-119739269D01*
X180778826Y-119906135D01*
X180786332Y-119930877D01*
X180786334Y-119930883D01*
X180880720Y-120107466D01*
X180880722Y-120107469D01*
X181007748Y-120262252D01*
X181162531Y-120389278D01*
X181339120Y-120483667D01*
X181530731Y-120541792D01*
X181530735Y-120541792D01*
X181530737Y-120541793D01*
X181729997Y-120561418D01*
X181730000Y-120561418D01*
X181730003Y-120561418D01*
X181929261Y-120541793D01*
X181929263Y-120541793D01*
X181929264Y-120541792D01*
X181929269Y-120541792D01*
X182120880Y-120483667D01*
X182297469Y-120389278D01*
X182452252Y-120262252D01*
X182579278Y-120107469D01*
X182673667Y-119930880D01*
X182731792Y-119739269D01*
X182734543Y-119711336D01*
X182740585Y-119649996D01*
X195883582Y-119649996D01*
X195883582Y-119650003D01*
X195903206Y-119849261D01*
X195903206Y-119849263D01*
X195961332Y-120040877D01*
X195961334Y-120040883D01*
X196055720Y-120217466D01*
X196055722Y-120217469D01*
X196182748Y-120372252D01*
X196337531Y-120499278D01*
X196337533Y-120499279D01*
X196453786Y-120561418D01*
X196514120Y-120593667D01*
X196705731Y-120651792D01*
X196705735Y-120651792D01*
X196705737Y-120651793D01*
X196904997Y-120671418D01*
X196905000Y-120671418D01*
X196905003Y-120671418D01*
X197104261Y-120651793D01*
X197104263Y-120651793D01*
X197104264Y-120651792D01*
X197104269Y-120651792D01*
X197295880Y-120593667D01*
X197472469Y-120499278D01*
X197627252Y-120372252D01*
X197754278Y-120217469D01*
X197848667Y-120040880D01*
X197906792Y-119849269D01*
X197917626Y-119739267D01*
X197926418Y-119650003D01*
X197926418Y-119649996D01*
X198423582Y-119649996D01*
X198423582Y-119650003D01*
X198443206Y-119849261D01*
X198443206Y-119849263D01*
X198501332Y-120040877D01*
X198501334Y-120040883D01*
X198595720Y-120217466D01*
X198595722Y-120217469D01*
X198722748Y-120372252D01*
X198877531Y-120499278D01*
X198877533Y-120499279D01*
X198993786Y-120561418D01*
X199054120Y-120593667D01*
X199245731Y-120651792D01*
X199245735Y-120651792D01*
X199245737Y-120651793D01*
X199444997Y-120671418D01*
X199445000Y-120671418D01*
X199445003Y-120671418D01*
X199644261Y-120651793D01*
X199644263Y-120651793D01*
X199644264Y-120651792D01*
X199644269Y-120651792D01*
X199835880Y-120593667D01*
X200012469Y-120499278D01*
X200167252Y-120372252D01*
X200294278Y-120217469D01*
X200388667Y-120040880D01*
X200446792Y-119849269D01*
X200457626Y-119739267D01*
X200466418Y-119650003D01*
X200466418Y-119649996D01*
X200446793Y-119450738D01*
X200446793Y-119450736D01*
X200446792Y-119450733D01*
X200446792Y-119450731D01*
X200388667Y-119259120D01*
X200294278Y-119082531D01*
X200167252Y-118927748D01*
X200012469Y-118800722D01*
X200012467Y-118800721D01*
X200012466Y-118800720D01*
X199835883Y-118706334D01*
X199835877Y-118706332D01*
X199644262Y-118648206D01*
X199445003Y-118628582D01*
X199444997Y-118628582D01*
X199245738Y-118648206D01*
X199245736Y-118648206D01*
X199054122Y-118706332D01*
X199054116Y-118706334D01*
X198877533Y-118800720D01*
X198722748Y-118927748D01*
X198595720Y-119082533D01*
X198501334Y-119259116D01*
X198501332Y-119259122D01*
X198443206Y-119450736D01*
X198443206Y-119450738D01*
X198423582Y-119649996D01*
X197926418Y-119649996D01*
X197906793Y-119450738D01*
X197906793Y-119450736D01*
X197906792Y-119450733D01*
X197906792Y-119450731D01*
X197848667Y-119259120D01*
X197754278Y-119082531D01*
X197627252Y-118927748D01*
X197472469Y-118800722D01*
X197472467Y-118800721D01*
X197472466Y-118800720D01*
X197295883Y-118706334D01*
X197295877Y-118706332D01*
X197104262Y-118648206D01*
X196905003Y-118628582D01*
X196904997Y-118628582D01*
X196705738Y-118648206D01*
X196705736Y-118648206D01*
X196514122Y-118706332D01*
X196514116Y-118706334D01*
X196337533Y-118800720D01*
X196182748Y-118927748D01*
X196055720Y-119082533D01*
X195961334Y-119259116D01*
X195961332Y-119259122D01*
X195903206Y-119450736D01*
X195903206Y-119450738D01*
X195883582Y-119649996D01*
X182740585Y-119649996D01*
X182751418Y-119540003D01*
X182751418Y-119539996D01*
X182731793Y-119340738D01*
X182731793Y-119340736D01*
X182731792Y-119340733D01*
X182731792Y-119340731D01*
X182673667Y-119149120D01*
X182579278Y-118972531D01*
X182452252Y-118817748D01*
X182297469Y-118690722D01*
X182297467Y-118690721D01*
X182297466Y-118690720D01*
X182120883Y-118596334D01*
X182120877Y-118596332D01*
X181929262Y-118538206D01*
X181730003Y-118518582D01*
X181729997Y-118518582D01*
X181530738Y-118538206D01*
X181530736Y-118538206D01*
X181339122Y-118596332D01*
X181339116Y-118596334D01*
X181162531Y-118690721D01*
X181162524Y-118690726D01*
X181097364Y-118744200D01*
X181032017Y-118771952D01*
X180962039Y-118759969D01*
X180928338Y-118735894D01*
X180424307Y-118231863D01*
X180390281Y-118169551D01*
X180395346Y-118098736D01*
X180437893Y-118041900D01*
X180501052Y-118017375D01*
X180659261Y-118001793D01*
X180659263Y-118001793D01*
X180659264Y-118001792D01*
X180659269Y-118001792D01*
X180850880Y-117943667D01*
X181027469Y-117849278D01*
X181182252Y-117722252D01*
X181309278Y-117567469D01*
X181403667Y-117390880D01*
X181461792Y-117199269D01*
X181477677Y-117037977D01*
X181492978Y-117000085D01*
X181713165Y-117000085D01*
X181726863Y-117026849D01*
X181728590Y-117039346D01*
X181744515Y-117221365D01*
X181744516Y-117221371D01*
X181802031Y-117436023D01*
X181802033Y-117436027D01*
X181895946Y-117637424D01*
X181895947Y-117637426D01*
X182014151Y-117806240D01*
X182014154Y-117806240D01*
X182655348Y-117165046D01*
X182695124Y-117233940D01*
X182766060Y-117304876D01*
X182834952Y-117344651D01*
X182193758Y-117985845D01*
X182362575Y-118104053D01*
X182362574Y-118104053D01*
X182563972Y-118197966D01*
X182563976Y-118197968D01*
X182778625Y-118255482D01*
X183000000Y-118274850D01*
X183221374Y-118255482D01*
X183436023Y-118197968D01*
X183436027Y-118197966D01*
X183637425Y-118104053D01*
X183806240Y-117985846D01*
X183806240Y-117985844D01*
X183165047Y-117344651D01*
X183233940Y-117304876D01*
X183304876Y-117233940D01*
X183344651Y-117165047D01*
X183985844Y-117806240D01*
X183985846Y-117806240D01*
X184104053Y-117637425D01*
X184197966Y-117436027D01*
X184197968Y-117436023D01*
X184255482Y-117221374D01*
X184265226Y-117109996D01*
X197153582Y-117109996D01*
X197153582Y-117110003D01*
X197173206Y-117309261D01*
X197173206Y-117309263D01*
X197231332Y-117500877D01*
X197231334Y-117500883D01*
X197325720Y-117677466D01*
X197325722Y-117677469D01*
X197452748Y-117832252D01*
X197607531Y-117959278D01*
X197607533Y-117959279D01*
X197762105Y-118041900D01*
X197784120Y-118053667D01*
X197975731Y-118111792D01*
X197975735Y-118111792D01*
X197975737Y-118111793D01*
X198174997Y-118131418D01*
X198175000Y-118131418D01*
X198175003Y-118131418D01*
X198374261Y-118111793D01*
X198374263Y-118111793D01*
X198374264Y-118111792D01*
X198374269Y-118111792D01*
X198565880Y-118053667D01*
X198742469Y-117959278D01*
X198897252Y-117832252D01*
X199024278Y-117677469D01*
X199118667Y-117500880D01*
X199176792Y-117309269D01*
X199192677Y-117147977D01*
X199207978Y-117110085D01*
X199428165Y-117110085D01*
X199441863Y-117136849D01*
X199443590Y-117149346D01*
X199459515Y-117331365D01*
X199459516Y-117331371D01*
X199517031Y-117546023D01*
X199517033Y-117546027D01*
X199610946Y-117747424D01*
X199610947Y-117747426D01*
X199729151Y-117916240D01*
X199729154Y-117916240D01*
X200370348Y-117275046D01*
X200410124Y-117343940D01*
X200481060Y-117414876D01*
X200549952Y-117454651D01*
X199908758Y-118095845D01*
X200077575Y-118214053D01*
X200077574Y-118214053D01*
X200278972Y-118307966D01*
X200278976Y-118307968D01*
X200493625Y-118365482D01*
X200715000Y-118384850D01*
X200936374Y-118365482D01*
X201151023Y-118307968D01*
X201151027Y-118307966D01*
X201352425Y-118214053D01*
X201521240Y-118095846D01*
X201521240Y-118095844D01*
X200880047Y-117454651D01*
X200948940Y-117414876D01*
X201019876Y-117343940D01*
X201059651Y-117275047D01*
X201700844Y-117916240D01*
X201700846Y-117916240D01*
X201819053Y-117747425D01*
X201912966Y-117546027D01*
X201912968Y-117546023D01*
X201970482Y-117331374D01*
X201989850Y-117110000D01*
X201970482Y-116888625D01*
X201912968Y-116673976D01*
X201912966Y-116673972D01*
X201819052Y-116472574D01*
X201700846Y-116303758D01*
X201700845Y-116303758D01*
X201059651Y-116944952D01*
X201019876Y-116876060D01*
X200948940Y-116805124D01*
X200880046Y-116765348D01*
X201521240Y-116124154D01*
X201521240Y-116124151D01*
X201352426Y-116005947D01*
X201352424Y-116005946D01*
X201151027Y-115912033D01*
X201151023Y-115912031D01*
X200936374Y-115854517D01*
X200715000Y-115835149D01*
X200493625Y-115854517D01*
X200278976Y-115912031D01*
X200278972Y-115912033D01*
X200077571Y-116005948D01*
X199908758Y-116124151D01*
X199908758Y-116124153D01*
X200549953Y-116765347D01*
X200481060Y-116805124D01*
X200410124Y-116876060D01*
X200370348Y-116944953D01*
X199729153Y-116303758D01*
X199729151Y-116303758D01*
X199610948Y-116472571D01*
X199517033Y-116673972D01*
X199517031Y-116673976D01*
X199459516Y-116888628D01*
X199459515Y-116888634D01*
X199443590Y-117070653D01*
X199428165Y-117110085D01*
X199207978Y-117110085D01*
X199207983Y-117110072D01*
X199194540Y-117084497D01*
X199192677Y-117072020D01*
X199192542Y-117070653D01*
X199176793Y-116910738D01*
X199176793Y-116910736D01*
X199176792Y-116910733D01*
X199176792Y-116910731D01*
X199118667Y-116719120D01*
X199024278Y-116542531D01*
X198897252Y-116387748D01*
X198742469Y-116260722D01*
X198742467Y-116260721D01*
X198742466Y-116260720D01*
X198565883Y-116166334D01*
X198565877Y-116166332D01*
X198485105Y-116141830D01*
X198374269Y-116108208D01*
X198374268Y-116108207D01*
X198374262Y-116108206D01*
X198175003Y-116088582D01*
X198174997Y-116088582D01*
X197975738Y-116108206D01*
X197975736Y-116108206D01*
X197784122Y-116166332D01*
X197784116Y-116166334D01*
X197607533Y-116260720D01*
X197452748Y-116387748D01*
X197325720Y-116542533D01*
X197231334Y-116719116D01*
X197231332Y-116719122D01*
X197173206Y-116910736D01*
X197173206Y-116910738D01*
X197153582Y-117109996D01*
X184265226Y-117109996D01*
X184274850Y-117000000D01*
X184255482Y-116778625D01*
X184197968Y-116563976D01*
X184197966Y-116563972D01*
X184104052Y-116362574D01*
X183985846Y-116193758D01*
X183985845Y-116193758D01*
X183344651Y-116834952D01*
X183304876Y-116766060D01*
X183233940Y-116695124D01*
X183165046Y-116655348D01*
X183806240Y-116014154D01*
X183806240Y-116014151D01*
X183637426Y-115895947D01*
X183637424Y-115895946D01*
X183436027Y-115802033D01*
X183436023Y-115802031D01*
X183221374Y-115744517D01*
X183000000Y-115725149D01*
X182778625Y-115744517D01*
X182563976Y-115802031D01*
X182563972Y-115802033D01*
X182362571Y-115895948D01*
X182193758Y-116014151D01*
X182193758Y-116014153D01*
X182834953Y-116655347D01*
X182766060Y-116695124D01*
X182695124Y-116766060D01*
X182655348Y-116834953D01*
X182014153Y-116193758D01*
X182014151Y-116193758D01*
X181895948Y-116362571D01*
X181802033Y-116563972D01*
X181802031Y-116563976D01*
X181744516Y-116778628D01*
X181744515Y-116778634D01*
X181728590Y-116960653D01*
X181713165Y-117000085D01*
X181492978Y-117000085D01*
X181492983Y-117000072D01*
X181479540Y-116974497D01*
X181477677Y-116962020D01*
X181477542Y-116960653D01*
X181461793Y-116800739D01*
X181461793Y-116800736D01*
X181461792Y-116800733D01*
X181461792Y-116800731D01*
X181403667Y-116609120D01*
X181386575Y-116577144D01*
X181309279Y-116432533D01*
X181309278Y-116432531D01*
X181182252Y-116277748D01*
X181027469Y-116150722D01*
X181027467Y-116150721D01*
X181027466Y-116150720D01*
X180850883Y-116056334D01*
X180850877Y-116056332D01*
X180742183Y-116023360D01*
X180659269Y-115998208D01*
X180659268Y-115998207D01*
X180659262Y-115998206D01*
X180460003Y-115978582D01*
X180459997Y-115978582D01*
X180260738Y-115998206D01*
X180260736Y-115998206D01*
X180069122Y-116056332D01*
X180069116Y-116056334D01*
X179892533Y-116150720D01*
X179737748Y-116277748D01*
X179610720Y-116432533D01*
X179560497Y-116526496D01*
X179510745Y-116577144D01*
X179449375Y-116593100D01*
X177948734Y-116593100D01*
X177880613Y-116573098D01*
X177859638Y-116556195D01*
X177326804Y-116023360D01*
X177292779Y-115961048D01*
X177289900Y-115934265D01*
X177289900Y-112344996D01*
X212215663Y-112344996D01*
X212215663Y-112345003D01*
X212234991Y-112639898D01*
X212234993Y-112639913D01*
X212292648Y-112929757D01*
X212292650Y-112929767D01*
X212387642Y-113209603D01*
X212387648Y-113209617D01*
X212518355Y-113474666D01*
X212682546Y-113720396D01*
X212682549Y-113720400D01*
X212877406Y-113942593D01*
X213099599Y-114137450D01*
X213099603Y-114137453D01*
X213345331Y-114301643D01*
X213610389Y-114432355D01*
X213890241Y-114527352D01*
X214140789Y-114577189D01*
X214180086Y-114585006D01*
X214180088Y-114585006D01*
X214180097Y-114585008D01*
X214348613Y-114596053D01*
X214474997Y-114604337D01*
X214475000Y-114604337D01*
X214475003Y-114604337D01*
X214585588Y-114597088D01*
X214769903Y-114585008D01*
X215059759Y-114527352D01*
X215339611Y-114432355D01*
X215604669Y-114301643D01*
X215850397Y-114137453D01*
X216072593Y-113942593D01*
X216267453Y-113720397D01*
X216431643Y-113474669D01*
X216562355Y-113209611D01*
X216657352Y-112929759D01*
X216715008Y-112639903D01*
X216734337Y-112345000D01*
X216715008Y-112050097D01*
X216657352Y-111760241D01*
X216562355Y-111480389D01*
X216431643Y-111215332D01*
X216267453Y-110969603D01*
X216267450Y-110969599D01*
X216072593Y-110747406D01*
X215850400Y-110552549D01*
X215850396Y-110552546D01*
X215604666Y-110388355D01*
X215339617Y-110257648D01*
X215339611Y-110257645D01*
X215339606Y-110257643D01*
X215339603Y-110257642D01*
X215059767Y-110162650D01*
X215059761Y-110162648D01*
X215059759Y-110162648D01*
X214976619Y-110146110D01*
X214769913Y-110104993D01*
X214769898Y-110104991D01*
X214475003Y-110085663D01*
X214474997Y-110085663D01*
X214180101Y-110104991D01*
X214180086Y-110104993D01*
X213931810Y-110154379D01*
X213890241Y-110162648D01*
X213890239Y-110162648D01*
X213890232Y-110162650D01*
X213610396Y-110257642D01*
X213610382Y-110257648D01*
X213345334Y-110388355D01*
X213099603Y-110552546D01*
X213099599Y-110552549D01*
X212877406Y-110747406D01*
X212682549Y-110969599D01*
X212682546Y-110969603D01*
X212518355Y-111215334D01*
X212387648Y-111480382D01*
X212387642Y-111480396D01*
X212292650Y-111760232D01*
X212292648Y-111760242D01*
X212234993Y-112050086D01*
X212234991Y-112050101D01*
X212215663Y-112344996D01*
X177289900Y-112344996D01*
X177289900Y-112283801D01*
X177309902Y-112215680D01*
X177363558Y-112169187D01*
X177433832Y-112159083D01*
X177445796Y-112162366D01*
X177457698Y-112164733D01*
X177457699Y-112164734D01*
X177531933Y-112179500D01*
X179282066Y-112179499D01*
X179282069Y-112179498D01*
X179282073Y-112179498D01*
X179333912Y-112169187D01*
X179356301Y-112164734D01*
X179440484Y-112108484D01*
X179496734Y-112024301D01*
X179511500Y-111950067D01*
X179511499Y-110439996D01*
X207103582Y-110439996D01*
X207103582Y-110440003D01*
X207123206Y-110639261D01*
X207123206Y-110639263D01*
X207181332Y-110830877D01*
X207181334Y-110830883D01*
X207275720Y-111007466D01*
X207275722Y-111007469D01*
X207402748Y-111162252D01*
X207557531Y-111289278D01*
X207557533Y-111289279D01*
X207690968Y-111360602D01*
X207734120Y-111383667D01*
X207925731Y-111441792D01*
X207925735Y-111441792D01*
X207925737Y-111441793D01*
X208124997Y-111461418D01*
X208125000Y-111461418D01*
X208125003Y-111461418D01*
X208324261Y-111441793D01*
X208324263Y-111441793D01*
X208324264Y-111441792D01*
X208324269Y-111441792D01*
X208515880Y-111383667D01*
X208692469Y-111289278D01*
X208847252Y-111162252D01*
X208974278Y-111007469D01*
X209068667Y-110830880D01*
X209126792Y-110639269D01*
X209135333Y-110552547D01*
X209146418Y-110440003D01*
X209146418Y-110439996D01*
X209126793Y-110240738D01*
X209126793Y-110240736D01*
X209126792Y-110240733D01*
X209126792Y-110240731D01*
X209068667Y-110049120D01*
X208974278Y-109872531D01*
X208847252Y-109717748D01*
X208692469Y-109590722D01*
X208692467Y-109590721D01*
X208692466Y-109590720D01*
X208515883Y-109496334D01*
X208515877Y-109496332D01*
X208324262Y-109438206D01*
X208125003Y-109418582D01*
X208124997Y-109418582D01*
X207925738Y-109438206D01*
X207925736Y-109438206D01*
X207734122Y-109496332D01*
X207734116Y-109496334D01*
X207557533Y-109590720D01*
X207402748Y-109717748D01*
X207275720Y-109872533D01*
X207181334Y-110049116D01*
X207181332Y-110049122D01*
X207123206Y-110240736D01*
X207123206Y-110240738D01*
X207103582Y-110439996D01*
X179511499Y-110439996D01*
X179511499Y-110199934D01*
X179511498Y-110199931D01*
X179511498Y-110199926D01*
X179496734Y-110125699D01*
X179488693Y-110113665D01*
X179440484Y-110041516D01*
X179440483Y-110041515D01*
X179356302Y-109985266D01*
X179282067Y-109970500D01*
X177531936Y-109970500D01*
X177531926Y-109970501D01*
X177445527Y-109987687D01*
X177444927Y-109984671D01*
X177393517Y-109990194D01*
X177330033Y-109958409D01*
X177293811Y-109897348D01*
X177289900Y-109866198D01*
X177289900Y-109264439D01*
X177309902Y-109196318D01*
X177363558Y-109149825D01*
X177433832Y-109139721D01*
X177498412Y-109169215D01*
X177516450Y-109188507D01*
X177587266Y-109282284D01*
X177738536Y-109420185D01*
X177912566Y-109527940D01*
X177912568Y-109527940D01*
X177912573Y-109527944D01*
X178103444Y-109601888D01*
X178304653Y-109639500D01*
X178304655Y-109639500D01*
X178509345Y-109639500D01*
X178509347Y-109639500D01*
X178710556Y-109601888D01*
X178901427Y-109527944D01*
X179075462Y-109420186D01*
X179226732Y-109282285D01*
X179311529Y-109169996D01*
X204563582Y-109169996D01*
X204563582Y-109170003D01*
X204583206Y-109369261D01*
X204583206Y-109369263D01*
X204641332Y-109560877D01*
X204641334Y-109560883D01*
X204735720Y-109737466D01*
X204735722Y-109737469D01*
X204862748Y-109892252D01*
X205017531Y-110019278D01*
X205194120Y-110113667D01*
X205385731Y-110171792D01*
X205385735Y-110171792D01*
X205385737Y-110171793D01*
X205584997Y-110191418D01*
X205585000Y-110191418D01*
X205585003Y-110191418D01*
X205784261Y-110171793D01*
X205784263Y-110171793D01*
X205784264Y-110171792D01*
X205784269Y-110171792D01*
X205975880Y-110113667D01*
X206152469Y-110019278D01*
X206307252Y-109892252D01*
X206434278Y-109737469D01*
X206528667Y-109560880D01*
X206586792Y-109369269D01*
X206597238Y-109263207D01*
X206606418Y-109170003D01*
X206606418Y-109169996D01*
X206586793Y-108970738D01*
X206586793Y-108970736D01*
X206586792Y-108970733D01*
X206586792Y-108970731D01*
X206528667Y-108779120D01*
X206527473Y-108776887D01*
X206434279Y-108602533D01*
X206434278Y-108602531D01*
X206307252Y-108447748D01*
X206152469Y-108320722D01*
X206152467Y-108320721D01*
X206152466Y-108320720D01*
X205975883Y-108226334D01*
X205975877Y-108226332D01*
X205784262Y-108168206D01*
X205622978Y-108152322D01*
X205585072Y-108137016D01*
X205559497Y-108150459D01*
X205547021Y-108152322D01*
X205385738Y-108168206D01*
X205385736Y-108168206D01*
X205194122Y-108226332D01*
X205194116Y-108226334D01*
X205017533Y-108320720D01*
X204862748Y-108447748D01*
X204735720Y-108602533D01*
X204641334Y-108779116D01*
X204641332Y-108779122D01*
X204583206Y-108970736D01*
X204583206Y-108970738D01*
X204563582Y-109169996D01*
X179311529Y-109169996D01*
X179350088Y-109118935D01*
X179441328Y-108935701D01*
X179497345Y-108738821D01*
X179514492Y-108553782D01*
X179516232Y-108535004D01*
X179516232Y-108534995D01*
X179500492Y-108365149D01*
X179497345Y-108331179D01*
X179441328Y-108134299D01*
X179350088Y-107951065D01*
X179297549Y-107881492D01*
X179226733Y-107787715D01*
X179075463Y-107649814D01*
X178901433Y-107542059D01*
X178901428Y-107542057D01*
X178901427Y-107542056D01*
X178816410Y-107509120D01*
X178710559Y-107468113D01*
X178710560Y-107468113D01*
X178710557Y-107468112D01*
X178710556Y-107468112D01*
X178509347Y-107430500D01*
X178304653Y-107430500D01*
X178103444Y-107468112D01*
X178103439Y-107468113D01*
X177912577Y-107542054D01*
X177912566Y-107542059D01*
X177738536Y-107649814D01*
X177587266Y-107787715D01*
X177516450Y-107881492D01*
X177459436Y-107923800D01*
X177388600Y-107928567D01*
X177326431Y-107894280D01*
X177292668Y-107831826D01*
X177289900Y-107805560D01*
X177289900Y-107739733D01*
X177309902Y-107671612D01*
X177326799Y-107650643D01*
X177909967Y-107067475D01*
X177972276Y-107033453D01*
X178043091Y-107038517D01*
X178044520Y-107039061D01*
X178103444Y-107061888D01*
X178304653Y-107099500D01*
X178304655Y-107099500D01*
X178509345Y-107099500D01*
X178509347Y-107099500D01*
X178710556Y-107061888D01*
X178901427Y-106987944D01*
X179075462Y-106880186D01*
X179226732Y-106742285D01*
X179311526Y-106630000D01*
X204310149Y-106630000D01*
X204329517Y-106851374D01*
X204387031Y-107066023D01*
X204387033Y-107066027D01*
X204480946Y-107267424D01*
X204480947Y-107267426D01*
X204599151Y-107436240D01*
X204599154Y-107436240D01*
X205240348Y-106795046D01*
X205280124Y-106863940D01*
X205351060Y-106934876D01*
X205419952Y-106974651D01*
X204778758Y-107615845D01*
X204947575Y-107734053D01*
X204947574Y-107734053D01*
X205148972Y-107827966D01*
X205148976Y-107827968D01*
X205363625Y-107885482D01*
X205545653Y-107901408D01*
X205585085Y-107916833D01*
X205611850Y-107903136D01*
X205624346Y-107901408D01*
X205640485Y-107899996D01*
X207103582Y-107899996D01*
X207103582Y-107900003D01*
X207123206Y-108099261D01*
X207123206Y-108099263D01*
X207181332Y-108290877D01*
X207181334Y-108290883D01*
X207275720Y-108467466D01*
X207275722Y-108467469D01*
X207402748Y-108622252D01*
X207557531Y-108749278D01*
X207734120Y-108843667D01*
X207925731Y-108901792D01*
X207925735Y-108901792D01*
X207925737Y-108901793D01*
X208124997Y-108921418D01*
X208125000Y-108921418D01*
X208125003Y-108921418D01*
X208324261Y-108901793D01*
X208324263Y-108901793D01*
X208324264Y-108901792D01*
X208324269Y-108901792D01*
X208515880Y-108843667D01*
X208692469Y-108749278D01*
X208847252Y-108622252D01*
X208974278Y-108467469D01*
X209068667Y-108290880D01*
X209126792Y-108099269D01*
X209141389Y-107951063D01*
X209146418Y-107900003D01*
X209146418Y-107899996D01*
X209126793Y-107700738D01*
X209126793Y-107700736D01*
X209126792Y-107700733D01*
X209126792Y-107700731D01*
X209068667Y-107509120D01*
X209063988Y-107500367D01*
X208974279Y-107332533D01*
X208974278Y-107332531D01*
X208847252Y-107177748D01*
X208692469Y-107050722D01*
X208692467Y-107050721D01*
X208692466Y-107050720D01*
X208515883Y-106956334D01*
X208515877Y-106956332D01*
X208435105Y-106931830D01*
X208324269Y-106898208D01*
X208324268Y-106898207D01*
X208324262Y-106898206D01*
X208125003Y-106878582D01*
X208124997Y-106878582D01*
X207925738Y-106898206D01*
X207925736Y-106898206D01*
X207734122Y-106956332D01*
X207734116Y-106956334D01*
X207557533Y-107050720D01*
X207402748Y-107177748D01*
X207275720Y-107332533D01*
X207181334Y-107509116D01*
X207181332Y-107509122D01*
X207123206Y-107700736D01*
X207123206Y-107700738D01*
X207103582Y-107899996D01*
X205640485Y-107899996D01*
X205806374Y-107885482D01*
X206021023Y-107827968D01*
X206021027Y-107827966D01*
X206222425Y-107734053D01*
X206391240Y-107615846D01*
X206391240Y-107615844D01*
X205750047Y-106974651D01*
X205818940Y-106934876D01*
X205889876Y-106863940D01*
X205929651Y-106795047D01*
X206570844Y-107436240D01*
X206570846Y-107436240D01*
X206689053Y-107267425D01*
X206782966Y-107066027D01*
X206782968Y-107066023D01*
X206840482Y-106851374D01*
X206859850Y-106630000D01*
X206840482Y-106408625D01*
X206782968Y-106193976D01*
X206782966Y-106193972D01*
X206689052Y-105992574D01*
X206570846Y-105823758D01*
X206570845Y-105823758D01*
X205929651Y-106464952D01*
X205889876Y-106396060D01*
X205818940Y-106325124D01*
X205750046Y-106285348D01*
X206391240Y-105644154D01*
X206391240Y-105644151D01*
X206222426Y-105525947D01*
X206222424Y-105525946D01*
X206021027Y-105432033D01*
X206021023Y-105432031D01*
X205806374Y-105374517D01*
X205585000Y-105355149D01*
X205363625Y-105374517D01*
X205148976Y-105432031D01*
X205148972Y-105432033D01*
X204947571Y-105525948D01*
X204778758Y-105644151D01*
X204778758Y-105644153D01*
X205419953Y-106285347D01*
X205351060Y-106325124D01*
X205280124Y-106396060D01*
X205240348Y-106464953D01*
X204599153Y-105823758D01*
X204599151Y-105823758D01*
X204480948Y-105992571D01*
X204387033Y-106193972D01*
X204387031Y-106193976D01*
X204329517Y-106408625D01*
X204310149Y-106630000D01*
X179311526Y-106630000D01*
X179350088Y-106578935D01*
X179441328Y-106395701D01*
X179497345Y-106198821D01*
X179505179Y-106114283D01*
X179516232Y-105995004D01*
X179516232Y-105994995D01*
X179500364Y-105823758D01*
X179497345Y-105791179D01*
X179441328Y-105594299D01*
X179350088Y-105411065D01*
X179269810Y-105304759D01*
X179226733Y-105247715D01*
X179075463Y-105109814D01*
X178901433Y-105002059D01*
X178901428Y-105002057D01*
X178901427Y-105002056D01*
X178793816Y-104960367D01*
X178710559Y-104928113D01*
X178710560Y-104928113D01*
X178710557Y-104928112D01*
X178710556Y-104928112D01*
X178509347Y-104890500D01*
X178304653Y-104890500D01*
X178103444Y-104928112D01*
X178103439Y-104928113D01*
X177912577Y-105002054D01*
X177912566Y-105002059D01*
X177738536Y-105109814D01*
X177587266Y-105247715D01*
X177463913Y-105411063D01*
X177372671Y-105594301D01*
X177316654Y-105791180D01*
X177297768Y-105994995D01*
X177297768Y-105995004D01*
X177316654Y-106198819D01*
X177365296Y-106369778D01*
X177364700Y-106440772D01*
X177333201Y-106493354D01*
X176557404Y-107269150D01*
X176557396Y-107269160D01*
X176509019Y-107352954D01*
X176457637Y-107401947D01*
X176387923Y-107415384D01*
X176322012Y-107388997D01*
X176280830Y-107331165D01*
X176273900Y-107289954D01*
X176273900Y-106215733D01*
X176293902Y-106147612D01*
X176310805Y-106126638D01*
X177082294Y-105355149D01*
X177717446Y-104719996D01*
X212215663Y-104719996D01*
X212215663Y-104720003D01*
X212234991Y-105014898D01*
X212234993Y-105014913D01*
X212292648Y-105304757D01*
X212292650Y-105304767D01*
X212387642Y-105584603D01*
X212387648Y-105584617D01*
X212518355Y-105849666D01*
X212682546Y-106095396D01*
X212682549Y-106095400D01*
X212877406Y-106317593D01*
X213099599Y-106512450D01*
X213099603Y-106512453D01*
X213345331Y-106676643D01*
X213610389Y-106807355D01*
X213890241Y-106902352D01*
X214140789Y-106952189D01*
X214180086Y-106960006D01*
X214180088Y-106960006D01*
X214180097Y-106960008D01*
X214348613Y-106971053D01*
X214474997Y-106979337D01*
X214475000Y-106979337D01*
X214475003Y-106979337D01*
X214585588Y-106972088D01*
X214769903Y-106960008D01*
X215059759Y-106902352D01*
X215339611Y-106807355D01*
X215604669Y-106676643D01*
X215850397Y-106512453D01*
X216072593Y-106317593D01*
X216267453Y-106095397D01*
X216431643Y-105849669D01*
X216562355Y-105584611D01*
X216657352Y-105304759D01*
X216715008Y-105014903D01*
X216734337Y-104720000D01*
X216731363Y-104674632D01*
X216717913Y-104469424D01*
X216715008Y-104425097D01*
X216657352Y-104135241D01*
X216562355Y-103855389D01*
X216431643Y-103590332D01*
X216267453Y-103344603D01*
X216267450Y-103344599D01*
X216072593Y-103122406D01*
X215850400Y-102927549D01*
X215850396Y-102927546D01*
X215604666Y-102763355D01*
X215339617Y-102632648D01*
X215339611Y-102632645D01*
X215339606Y-102632643D01*
X215339603Y-102632642D01*
X215059767Y-102537650D01*
X215059761Y-102537648D01*
X215059759Y-102537648D01*
X214976619Y-102521110D01*
X214769913Y-102479993D01*
X214769898Y-102479991D01*
X214475003Y-102460663D01*
X214474997Y-102460663D01*
X214180101Y-102479991D01*
X214180086Y-102479993D01*
X213931810Y-102529379D01*
X213890241Y-102537648D01*
X213890239Y-102537648D01*
X213890232Y-102537650D01*
X213610396Y-102632642D01*
X213610382Y-102632648D01*
X213345334Y-102763355D01*
X213099603Y-102927546D01*
X213099599Y-102927549D01*
X212877406Y-103122406D01*
X212682549Y-103344599D01*
X212682546Y-103344603D01*
X212518355Y-103590334D01*
X212387648Y-103855382D01*
X212387642Y-103855396D01*
X212292650Y-104135232D01*
X212292648Y-104135242D01*
X212234993Y-104425086D01*
X212234991Y-104425101D01*
X212215663Y-104719996D01*
X177717446Y-104719996D01*
X177909966Y-104527476D01*
X177972276Y-104493453D01*
X178043091Y-104498517D01*
X178044520Y-104499061D01*
X178103444Y-104521888D01*
X178304653Y-104559500D01*
X178304655Y-104559500D01*
X178509345Y-104559500D01*
X178509347Y-104559500D01*
X178710556Y-104521888D01*
X178901427Y-104447944D01*
X179075462Y-104340186D01*
X179226732Y-104202285D01*
X179350088Y-104038935D01*
X179441328Y-103855701D01*
X179497345Y-103658821D01*
X179508214Y-103541530D01*
X179516232Y-103455004D01*
X179516232Y-103454995D01*
X179500492Y-103285149D01*
X179497345Y-103251179D01*
X179441328Y-103054299D01*
X179350088Y-102871065D01*
X179268751Y-102763357D01*
X179226733Y-102707715D01*
X179075463Y-102569814D01*
X178901433Y-102462059D01*
X178901425Y-102462055D01*
X178838589Y-102437712D01*
X178782295Y-102394452D01*
X178758325Y-102327624D01*
X178774290Y-102258446D01*
X178825121Y-102208881D01*
X178843196Y-102201048D01*
X178954365Y-102162884D01*
X178954371Y-102162882D01*
X179152300Y-102055768D01*
X179152301Y-102055767D01*
X179329902Y-101917534D01*
X179482325Y-101751958D01*
X179605419Y-101563548D01*
X179695820Y-101357456D01*
X179695823Y-101357449D01*
X179751066Y-101139297D01*
X179751068Y-101139288D01*
X179759130Y-101042000D01*
X178890608Y-101042000D01*
X178907000Y-100980826D01*
X178907000Y-100849174D01*
X178890608Y-100788000D01*
X179759129Y-100788000D01*
X179751068Y-100690711D01*
X179751066Y-100690702D01*
X179695823Y-100472550D01*
X179695820Y-100472543D01*
X179605419Y-100266451D01*
X179482325Y-100078041D01*
X179329902Y-99912465D01*
X179152301Y-99774232D01*
X179152300Y-99774231D01*
X178954371Y-99667117D01*
X178954369Y-99667116D01*
X178741516Y-99594044D01*
X178741509Y-99594042D01*
X178534000Y-99559415D01*
X178534000Y-100431391D01*
X178472826Y-100415000D01*
X178341174Y-100415000D01*
X178280000Y-100431391D01*
X178280000Y-99559415D01*
X178072490Y-99594042D01*
X178072483Y-99594044D01*
X177859630Y-99667116D01*
X177859628Y-99667117D01*
X177661699Y-99774231D01*
X177661698Y-99774232D01*
X177484097Y-99912465D01*
X177331674Y-100078041D01*
X177208580Y-100266451D01*
X177118179Y-100472543D01*
X177118176Y-100472550D01*
X177062933Y-100690702D01*
X177062931Y-100690711D01*
X177054870Y-100788000D01*
X177923392Y-100788000D01*
X177907000Y-100849174D01*
X177907000Y-100980826D01*
X177923392Y-101042000D01*
X177054870Y-101042000D01*
X177062931Y-101139288D01*
X177062933Y-101139297D01*
X177118176Y-101357449D01*
X177118179Y-101357456D01*
X177208580Y-101563548D01*
X177331674Y-101751958D01*
X177484097Y-101917534D01*
X177661698Y-102055767D01*
X177661699Y-102055768D01*
X177859628Y-102162882D01*
X177859634Y-102162884D01*
X177970803Y-102201048D01*
X178028739Y-102242084D01*
X178055291Y-102307929D01*
X178042030Y-102377676D01*
X177993166Y-102429182D01*
X177975410Y-102437712D01*
X177912574Y-102462055D01*
X177912566Y-102462059D01*
X177738536Y-102569814D01*
X177587266Y-102707715D01*
X177463913Y-102871063D01*
X177372671Y-103054301D01*
X177316654Y-103251180D01*
X177297768Y-103454995D01*
X177297768Y-103455004D01*
X177316654Y-103658819D01*
X177365296Y-103829778D01*
X177364700Y-103900772D01*
X177333201Y-103953354D01*
X175541404Y-105745150D01*
X175541396Y-105745160D01*
X175487830Y-105837940D01*
X175461134Y-105937570D01*
X175461132Y-105937580D01*
X175460100Y-105941428D01*
X170899514Y-105941428D01*
X170987383Y-105801585D01*
X171046887Y-105631531D01*
X171067059Y-105452500D01*
X171046887Y-105273469D01*
X170987383Y-105103415D01*
X170987381Y-105103412D01*
X170987381Y-105103411D01*
X170891531Y-104950867D01*
X170891530Y-104950865D01*
X170847260Y-104906595D01*
X170813234Y-104844283D01*
X170818299Y-104773468D01*
X170847260Y-104728405D01*
X170891530Y-104684134D01*
X170891531Y-104684132D01*
X170897501Y-104674632D01*
X170987383Y-104531585D01*
X171046887Y-104361531D01*
X171067059Y-104182500D01*
X171046887Y-104003469D01*
X170987383Y-103833415D01*
X170987381Y-103833412D01*
X170987381Y-103833411D01*
X170891531Y-103680867D01*
X170891530Y-103680865D01*
X170847260Y-103636595D01*
X170813234Y-103574283D01*
X170818299Y-103503468D01*
X170847260Y-103458405D01*
X170891530Y-103414134D01*
X170891531Y-103414132D01*
X170897501Y-103404632D01*
X170987383Y-103261585D01*
X171046887Y-103091531D01*
X171067059Y-102912500D01*
X171046887Y-102733469D01*
X170987383Y-102563415D01*
X170987381Y-102563412D01*
X170987381Y-102563411D01*
X170891531Y-102410867D01*
X170891530Y-102410865D01*
X170847260Y-102366595D01*
X170813234Y-102304283D01*
X170818299Y-102233468D01*
X170847260Y-102188405D01*
X170891530Y-102144134D01*
X170891531Y-102144132D01*
X170897501Y-102134632D01*
X170987383Y-101991585D01*
X171046887Y-101821531D01*
X171067059Y-101642500D01*
X171046887Y-101463469D01*
X170987383Y-101293415D01*
X170987381Y-101293412D01*
X170987381Y-101293411D01*
X170891531Y-101140867D01*
X170891530Y-101140865D01*
X170847260Y-101096595D01*
X170813234Y-101034283D01*
X170818299Y-100963468D01*
X170847260Y-100918405D01*
X170891530Y-100874134D01*
X170891531Y-100874132D01*
X170897501Y-100864632D01*
X170987383Y-100721585D01*
X171046887Y-100551531D01*
X171067059Y-100372500D01*
X171046887Y-100193469D01*
X170987383Y-100023415D01*
X170987381Y-100023412D01*
X170987381Y-100023411D01*
X170891531Y-99870867D01*
X170891530Y-99870865D01*
X170847260Y-99826595D01*
X170813234Y-99764283D01*
X170818299Y-99693468D01*
X170847260Y-99648405D01*
X170891530Y-99604134D01*
X170891531Y-99604132D01*
X170897501Y-99594632D01*
X170987383Y-99451585D01*
X171046887Y-99281531D01*
X171067059Y-99102500D01*
X171046887Y-98923469D01*
X170987383Y-98753415D01*
X170987381Y-98753412D01*
X170987381Y-98753411D01*
X170963243Y-98714996D01*
X212215663Y-98714996D01*
X212215663Y-98715003D01*
X212234991Y-99009898D01*
X212234993Y-99009913D01*
X212276110Y-99216619D01*
X212289022Y-99281531D01*
X212292648Y-99299757D01*
X212292650Y-99299767D01*
X212387642Y-99579603D01*
X212387648Y-99579617D01*
X212518355Y-99844666D01*
X212682546Y-100090396D01*
X212682549Y-100090400D01*
X212877406Y-100312593D01*
X213099599Y-100507450D01*
X213099603Y-100507453D01*
X213345331Y-100671643D01*
X213610389Y-100802355D01*
X213890241Y-100897352D01*
X214140789Y-100947189D01*
X214180086Y-100955006D01*
X214180088Y-100955006D01*
X214180097Y-100955008D01*
X214348613Y-100966053D01*
X214474997Y-100974337D01*
X214475000Y-100974337D01*
X214475003Y-100974337D01*
X214585588Y-100967088D01*
X214769903Y-100955008D01*
X215059759Y-100897352D01*
X215339611Y-100802355D01*
X215604669Y-100671643D01*
X215850397Y-100507453D01*
X216072593Y-100312593D01*
X216267453Y-100090397D01*
X216431643Y-99844669D01*
X216562355Y-99579611D01*
X216657352Y-99299759D01*
X216715008Y-99009903D01*
X216731819Y-98753414D01*
X216734337Y-98715003D01*
X216734337Y-98714996D01*
X216719870Y-98494283D01*
X216715008Y-98420097D01*
X216657352Y-98130241D01*
X216562355Y-97850389D01*
X216431643Y-97585332D01*
X216267453Y-97339603D01*
X216267450Y-97339599D01*
X216072593Y-97117406D01*
X215850400Y-96922549D01*
X215850396Y-96922546D01*
X215604666Y-96758355D01*
X215339617Y-96627648D01*
X215339611Y-96627645D01*
X215339606Y-96627643D01*
X215339603Y-96627642D01*
X215059767Y-96532650D01*
X215059761Y-96532648D01*
X215059759Y-96532648D01*
X214976619Y-96516110D01*
X214769913Y-96474993D01*
X214769898Y-96474991D01*
X214475003Y-96455663D01*
X214474997Y-96455663D01*
X214180101Y-96474991D01*
X214180086Y-96474993D01*
X213931810Y-96524379D01*
X213890241Y-96532648D01*
X213890239Y-96532648D01*
X213890232Y-96532650D01*
X213610396Y-96627642D01*
X213610382Y-96627648D01*
X213345334Y-96758355D01*
X213099603Y-96922546D01*
X213099599Y-96922549D01*
X212877406Y-97117406D01*
X212682549Y-97339599D01*
X212682546Y-97339603D01*
X212518355Y-97585334D01*
X212387648Y-97850382D01*
X212387642Y-97850396D01*
X212292650Y-98130232D01*
X212292648Y-98130242D01*
X212234993Y-98420086D01*
X212234991Y-98420101D01*
X212215663Y-98714996D01*
X170963243Y-98714996D01*
X170891531Y-98600867D01*
X170891530Y-98600865D01*
X170847260Y-98556595D01*
X170813234Y-98494283D01*
X170818299Y-98423468D01*
X170847260Y-98378405D01*
X170891530Y-98334134D01*
X170891531Y-98334132D01*
X170901597Y-98318113D01*
X170987383Y-98181585D01*
X171046887Y-98011531D01*
X171067059Y-97832500D01*
X171046887Y-97653469D01*
X170987383Y-97483415D01*
X170987381Y-97483412D01*
X170987381Y-97483411D01*
X170891531Y-97330867D01*
X170891530Y-97330865D01*
X170847260Y-97286595D01*
X170813234Y-97224283D01*
X170818299Y-97153468D01*
X170847260Y-97108405D01*
X170891530Y-97064134D01*
X170891531Y-97064132D01*
X170987381Y-96911588D01*
X170987380Y-96911588D01*
X170987383Y-96911585D01*
X171046887Y-96741531D01*
X171067059Y-96562500D01*
X171046887Y-96383469D01*
X170987383Y-96213415D01*
X170987381Y-96213412D01*
X170987381Y-96213411D01*
X170891531Y-96060867D01*
X170891530Y-96060865D01*
X170847260Y-96016595D01*
X170813234Y-95954283D01*
X170818299Y-95883468D01*
X170847260Y-95838405D01*
X170891530Y-95794134D01*
X170891531Y-95794132D01*
X170895019Y-95788582D01*
X170987383Y-95641585D01*
X171046887Y-95471531D01*
X171066034Y-95301596D01*
X181119071Y-95301596D01*
X181119071Y-95301603D01*
X181139879Y-95446327D01*
X181139881Y-95446334D01*
X181200624Y-95579343D01*
X181296379Y-95689850D01*
X181419389Y-95768904D01*
X181538839Y-95803978D01*
X181559685Y-95810099D01*
X181559686Y-95810099D01*
X181559689Y-95810100D01*
X181559692Y-95810100D01*
X181705908Y-95810100D01*
X181705911Y-95810100D01*
X181846211Y-95768904D01*
X181969221Y-95689850D01*
X181989552Y-95666387D01*
X182049278Y-95628004D01*
X182084776Y-95622900D01*
X184228931Y-95622900D01*
X184297052Y-95642902D01*
X184343545Y-95696558D01*
X184353649Y-95766832D01*
X184326331Y-95828833D01*
X184248824Y-95923276D01*
X184155225Y-96098385D01*
X184155219Y-96098400D01*
X184097585Y-96288394D01*
X184090630Y-96358999D01*
X184090631Y-96359000D01*
X184789047Y-96359000D01*
X184788149Y-96360555D01*
X184766000Y-96443213D01*
X184766000Y-96528787D01*
X184788149Y-96611445D01*
X184789047Y-96613000D01*
X184090631Y-96613000D01*
X184097585Y-96683605D01*
X184155219Y-96873599D01*
X184155225Y-96873614D01*
X184248824Y-97048724D01*
X184374788Y-97202211D01*
X184528275Y-97328175D01*
X184703385Y-97421774D01*
X184703391Y-97421776D01*
X184893405Y-97479416D01*
X184963999Y-97486368D01*
X184964000Y-97486367D01*
X184964000Y-96787953D01*
X184965555Y-96788851D01*
X185048213Y-96811000D01*
X185133787Y-96811000D01*
X185216445Y-96788851D01*
X185218000Y-96787953D01*
X185218000Y-97486368D01*
X185288592Y-97479416D01*
X185288596Y-97479416D01*
X185478608Y-97421776D01*
X185478614Y-97421774D01*
X185653724Y-97328175D01*
X185807211Y-97202211D01*
X185933175Y-97048724D01*
X186026774Y-96873614D01*
X186026780Y-96873599D01*
X186046074Y-96809996D01*
X207103582Y-96809996D01*
X207103582Y-96810003D01*
X207123206Y-97009261D01*
X207123206Y-97009263D01*
X207181332Y-97200877D01*
X207181334Y-97200883D01*
X207255480Y-97339599D01*
X207275722Y-97377469D01*
X207402748Y-97532252D01*
X207557531Y-97659278D01*
X207734120Y-97753667D01*
X207925731Y-97811792D01*
X207925735Y-97811792D01*
X207925737Y-97811793D01*
X208124997Y-97831418D01*
X208125000Y-97831418D01*
X208125003Y-97831418D01*
X208324261Y-97811793D01*
X208324263Y-97811793D01*
X208324264Y-97811792D01*
X208324269Y-97811792D01*
X208515880Y-97753667D01*
X208692469Y-97659278D01*
X208847252Y-97532252D01*
X208974278Y-97377469D01*
X209068667Y-97200880D01*
X209126792Y-97009269D01*
X209135333Y-96922547D01*
X209146418Y-96810003D01*
X209146418Y-96809996D01*
X209126793Y-96610738D01*
X209126793Y-96610736D01*
X209126792Y-96610733D01*
X209126792Y-96610731D01*
X209068667Y-96419120D01*
X208974278Y-96242531D01*
X208847252Y-96087748D01*
X208692469Y-95960722D01*
X208692467Y-95960721D01*
X208692466Y-95960720D01*
X208515883Y-95866334D01*
X208515877Y-95866332D01*
X208330506Y-95810100D01*
X208324269Y-95808208D01*
X208324268Y-95808207D01*
X208324262Y-95808206D01*
X208125003Y-95788582D01*
X208124997Y-95788582D01*
X207925738Y-95808206D01*
X207925736Y-95808206D01*
X207734122Y-95866332D01*
X207734116Y-95866334D01*
X207557533Y-95960720D01*
X207402748Y-96087748D01*
X207275720Y-96242533D01*
X207181334Y-96419116D01*
X207181332Y-96419122D01*
X207123206Y-96610736D01*
X207123206Y-96610738D01*
X207103582Y-96809996D01*
X186046074Y-96809996D01*
X186084414Y-96683605D01*
X186091369Y-96613000D01*
X185392953Y-96613000D01*
X185393851Y-96611445D01*
X185416000Y-96528787D01*
X185416000Y-96443213D01*
X185393851Y-96360555D01*
X185392953Y-96359000D01*
X186091369Y-96359000D01*
X186091369Y-96358999D01*
X186084414Y-96288394D01*
X186026780Y-96098400D01*
X186026774Y-96098385D01*
X185933175Y-95923275D01*
X185807211Y-95769788D01*
X185778825Y-95746492D01*
X185738856Y-95687815D01*
X185736956Y-95616843D01*
X185752073Y-95582056D01*
X185775079Y-95545441D01*
X185775082Y-95545437D01*
X185776986Y-95539996D01*
X204563582Y-95539996D01*
X204563582Y-95540003D01*
X204583206Y-95739261D01*
X204583206Y-95739263D01*
X204641332Y-95930877D01*
X204641334Y-95930883D01*
X204735720Y-96107466D01*
X204735722Y-96107469D01*
X204862748Y-96262252D01*
X205017531Y-96389278D01*
X205194120Y-96483667D01*
X205385731Y-96541792D01*
X205385735Y-96541792D01*
X205385737Y-96541793D01*
X205584997Y-96561418D01*
X205585000Y-96561418D01*
X205585003Y-96561418D01*
X205784261Y-96541793D01*
X205784263Y-96541793D01*
X205784264Y-96541792D01*
X205784269Y-96541792D01*
X205975880Y-96483667D01*
X206152469Y-96389278D01*
X206307252Y-96262252D01*
X206434278Y-96107469D01*
X206528667Y-95930880D01*
X206586792Y-95739269D01*
X206586793Y-95739261D01*
X206606418Y-95540003D01*
X206606418Y-95539996D01*
X206586793Y-95340738D01*
X206586793Y-95340736D01*
X206586792Y-95340733D01*
X206586792Y-95340731D01*
X206528667Y-95149120D01*
X206434278Y-94972531D01*
X206307252Y-94817748D01*
X206152469Y-94690722D01*
X206152467Y-94690721D01*
X206152466Y-94690720D01*
X205975883Y-94596334D01*
X205975877Y-94596332D01*
X205784262Y-94538206D01*
X205622978Y-94522322D01*
X205585072Y-94507016D01*
X205559497Y-94520459D01*
X205547021Y-94522322D01*
X205385738Y-94538206D01*
X205385736Y-94538206D01*
X205194122Y-94596332D01*
X205194116Y-94596334D01*
X205017533Y-94690720D01*
X204862748Y-94817748D01*
X204735720Y-94972533D01*
X204641334Y-95149116D01*
X204641332Y-95149122D01*
X204583206Y-95340736D01*
X204583206Y-95340738D01*
X204563582Y-95539996D01*
X185776986Y-95539996D01*
X185831237Y-95384954D01*
X185850274Y-95216000D01*
X185831237Y-95047046D01*
X185775082Y-94886563D01*
X185684624Y-94742600D01*
X185684622Y-94742597D01*
X185612120Y-94670095D01*
X185578094Y-94607783D01*
X185583159Y-94536968D01*
X185612120Y-94491905D01*
X185684622Y-94419402D01*
X185684624Y-94419400D01*
X185775082Y-94275437D01*
X185831237Y-94114954D01*
X185850274Y-93946000D01*
X185831237Y-93777046D01*
X185775082Y-93616563D01*
X185731843Y-93547748D01*
X185726318Y-93538955D01*
X185707012Y-93470634D01*
X185727707Y-93402721D01*
X185763001Y-93367156D01*
X185774484Y-93359484D01*
X185830734Y-93275301D01*
X185845500Y-93201067D01*
X185845500Y-93000000D01*
X204310149Y-93000000D01*
X204329517Y-93221374D01*
X204387031Y-93436023D01*
X204387033Y-93436027D01*
X204480946Y-93637424D01*
X204480947Y-93637426D01*
X204599151Y-93806240D01*
X204599154Y-93806240D01*
X205240348Y-93165046D01*
X205280124Y-93233940D01*
X205351060Y-93304876D01*
X205419952Y-93344651D01*
X204778758Y-93985845D01*
X204947575Y-94104053D01*
X204947574Y-94104053D01*
X205148972Y-94197966D01*
X205148976Y-94197968D01*
X205363625Y-94255482D01*
X205545653Y-94271408D01*
X205585085Y-94286833D01*
X205611850Y-94273136D01*
X205624346Y-94271408D01*
X205640485Y-94269996D01*
X207103582Y-94269996D01*
X207103582Y-94270003D01*
X207123206Y-94469261D01*
X207123206Y-94469263D01*
X207181332Y-94660877D01*
X207181334Y-94660883D01*
X207275720Y-94837466D01*
X207275722Y-94837469D01*
X207402748Y-94992252D01*
X207557531Y-95119278D01*
X207734120Y-95213667D01*
X207925731Y-95271792D01*
X207925735Y-95271792D01*
X207925737Y-95271793D01*
X208124997Y-95291418D01*
X208125000Y-95291418D01*
X208125003Y-95291418D01*
X208324261Y-95271793D01*
X208324263Y-95271793D01*
X208324264Y-95271792D01*
X208324269Y-95271792D01*
X208515880Y-95213667D01*
X208692469Y-95119278D01*
X208847252Y-94992252D01*
X208974278Y-94837469D01*
X209068667Y-94660880D01*
X209126792Y-94469269D01*
X209126793Y-94469261D01*
X209146418Y-94270003D01*
X209146418Y-94269996D01*
X209126793Y-94070738D01*
X209126793Y-94070736D01*
X209126792Y-94070733D01*
X209126792Y-94070731D01*
X209068667Y-93879120D01*
X208974278Y-93702531D01*
X208847252Y-93547748D01*
X208692469Y-93420722D01*
X208692467Y-93420721D01*
X208692466Y-93420720D01*
X208515883Y-93326334D01*
X208515877Y-93326332D01*
X208435105Y-93301830D01*
X208324269Y-93268208D01*
X208324268Y-93268207D01*
X208324262Y-93268206D01*
X208125003Y-93248582D01*
X208124997Y-93248582D01*
X207925738Y-93268206D01*
X207925736Y-93268206D01*
X207734122Y-93326332D01*
X207734116Y-93326334D01*
X207557533Y-93420720D01*
X207402748Y-93547748D01*
X207275720Y-93702533D01*
X207181334Y-93879116D01*
X207181332Y-93879122D01*
X207123206Y-94070736D01*
X207123206Y-94070738D01*
X207103582Y-94269996D01*
X205640485Y-94269996D01*
X205806374Y-94255482D01*
X206021023Y-94197968D01*
X206021027Y-94197966D01*
X206222425Y-94104053D01*
X206391240Y-93985846D01*
X206391240Y-93985844D01*
X205750047Y-93344651D01*
X205818940Y-93304876D01*
X205889876Y-93233940D01*
X205929651Y-93165047D01*
X206570844Y-93806240D01*
X206570846Y-93806240D01*
X206689053Y-93637425D01*
X206782966Y-93436027D01*
X206782968Y-93436023D01*
X206840482Y-93221374D01*
X206859850Y-93000000D01*
X206840482Y-92778625D01*
X206782968Y-92563976D01*
X206782966Y-92563972D01*
X206689052Y-92362574D01*
X206570846Y-92193758D01*
X206570845Y-92193758D01*
X205929651Y-92834952D01*
X205889876Y-92766060D01*
X205818940Y-92695124D01*
X205750046Y-92655348D01*
X206391240Y-92014154D01*
X206391240Y-92014151D01*
X206222426Y-91895947D01*
X206222424Y-91895946D01*
X206021027Y-91802033D01*
X206021023Y-91802031D01*
X205806374Y-91744517D01*
X205585000Y-91725149D01*
X205363625Y-91744517D01*
X205148976Y-91802031D01*
X205148972Y-91802033D01*
X204947571Y-91895948D01*
X204778758Y-92014151D01*
X204778758Y-92014153D01*
X205419953Y-92655347D01*
X205351060Y-92695124D01*
X205280124Y-92766060D01*
X205240348Y-92834953D01*
X204599153Y-92193758D01*
X204599151Y-92193758D01*
X204480948Y-92362571D01*
X204387033Y-92563972D01*
X204387031Y-92563976D01*
X204329517Y-92778625D01*
X204310149Y-93000000D01*
X185845500Y-93000000D01*
X185845499Y-92150934D01*
X185845498Y-92150930D01*
X185845498Y-92150926D01*
X185830734Y-92076699D01*
X185788942Y-92014154D01*
X185774484Y-91992516D01*
X185774483Y-91992515D01*
X185690302Y-91936266D01*
X185616067Y-91921500D01*
X184565936Y-91921500D01*
X184565926Y-91921501D01*
X184491699Y-91936265D01*
X184407515Y-91992516D01*
X184351266Y-92076697D01*
X184336500Y-92150930D01*
X184336500Y-93201063D01*
X184336501Y-93201073D01*
X184351265Y-93275300D01*
X184407516Y-93359484D01*
X184418997Y-93367156D01*
X184464524Y-93421633D01*
X184473371Y-93492076D01*
X184455681Y-93538956D01*
X184406919Y-93616559D01*
X184406918Y-93616562D01*
X184376837Y-93702531D01*
X184350763Y-93777046D01*
X184331726Y-93946000D01*
X184350763Y-94114954D01*
X184405014Y-94269996D01*
X184406918Y-94275437D01*
X184406919Y-94275439D01*
X184497375Y-94419399D01*
X184497377Y-94419402D01*
X184569880Y-94491905D01*
X184603906Y-94554217D01*
X184598841Y-94625032D01*
X184569880Y-94670095D01*
X184497379Y-94742595D01*
X184497378Y-94742596D01*
X184495166Y-94746116D01*
X184492640Y-94750136D01*
X184439464Y-94797173D01*
X184385954Y-94809100D01*
X181778518Y-94809100D01*
X181743019Y-94803996D01*
X181705914Y-94793100D01*
X181705911Y-94793100D01*
X181559689Y-94793100D01*
X181559685Y-94793100D01*
X181419389Y-94834296D01*
X181419387Y-94834297D01*
X181296379Y-94913349D01*
X181200624Y-95023856D01*
X181139881Y-95156865D01*
X181139879Y-95156872D01*
X181119071Y-95301596D01*
X171066034Y-95301596D01*
X171067059Y-95292500D01*
X171046887Y-95113469D01*
X170987383Y-94943415D01*
X170987381Y-94943412D01*
X170987381Y-94943411D01*
X170891531Y-94790867D01*
X170891530Y-94790865D01*
X170764134Y-94663469D01*
X170764132Y-94663468D01*
X170611588Y-94567618D01*
X170611585Y-94567617D01*
X170441534Y-94508114D01*
X170441533Y-94508113D01*
X170441531Y-94508113D01*
X170262500Y-94487941D01*
X170083469Y-94508113D01*
X170083466Y-94508113D01*
X170083465Y-94508114D01*
X169913414Y-94567617D01*
X169913411Y-94567618D01*
X169760867Y-94663468D01*
X169760865Y-94663469D01*
X169716595Y-94707740D01*
X169654283Y-94741766D01*
X169583468Y-94736701D01*
X169538405Y-94707740D01*
X169494134Y-94663469D01*
X169494132Y-94663468D01*
X169341588Y-94567618D01*
X169341585Y-94567617D01*
X169171534Y-94508114D01*
X169171533Y-94508113D01*
X169171531Y-94508113D01*
X168992500Y-94487941D01*
X168813469Y-94508113D01*
X168813466Y-94508113D01*
X168813465Y-94508114D01*
X168643414Y-94567617D01*
X168643411Y-94567618D01*
X168490867Y-94663468D01*
X168490865Y-94663469D01*
X168363469Y-94790865D01*
X168363468Y-94790867D01*
X168267618Y-94943411D01*
X168267617Y-94943414D01*
X168239470Y-95023856D01*
X168208113Y-95113469D01*
X168187941Y-95292500D01*
X168208113Y-95471531D01*
X168208113Y-95471533D01*
X168208114Y-95471534D01*
X168267616Y-95641583D01*
X168315347Y-95717547D01*
X168334652Y-95785869D01*
X168313956Y-95853782D01*
X168259829Y-95899725D01*
X168214842Y-95910431D01*
X168163357Y-95912960D01*
X168112724Y-95974656D01*
X168014947Y-96157585D01*
X168014945Y-96157589D01*
X167954736Y-96356072D01*
X167954734Y-96356083D01*
X167934405Y-96562496D01*
X164000500Y-96562496D01*
X164000500Y-91089996D01*
X212215663Y-91089996D01*
X212215663Y-91090003D01*
X212234991Y-91384898D01*
X212234993Y-91384913D01*
X212292648Y-91674757D01*
X212292650Y-91674767D01*
X212387642Y-91954603D01*
X212387648Y-91954617D01*
X212518355Y-92219666D01*
X212682546Y-92465396D01*
X212682549Y-92465400D01*
X212877406Y-92687593D01*
X213099599Y-92882450D01*
X213099603Y-92882453D01*
X213345331Y-93046643D01*
X213610389Y-93177355D01*
X213890241Y-93272352D01*
X214140789Y-93322189D01*
X214180086Y-93330006D01*
X214180088Y-93330006D01*
X214180097Y-93330008D01*
X214348613Y-93341053D01*
X214474997Y-93349337D01*
X214475000Y-93349337D01*
X214475003Y-93349337D01*
X214585588Y-93342088D01*
X214769903Y-93330008D01*
X215059759Y-93272352D01*
X215339611Y-93177355D01*
X215604669Y-93046643D01*
X215850397Y-92882453D01*
X216072593Y-92687593D01*
X216267453Y-92465397D01*
X216431643Y-92219669D01*
X216562355Y-91954611D01*
X216657352Y-91674759D01*
X216715008Y-91384903D01*
X216734337Y-91090000D01*
X216715008Y-90795097D01*
X216657352Y-90505241D01*
X216562355Y-90225389D01*
X216431643Y-89960332D01*
X216267453Y-89714603D01*
X216267450Y-89714599D01*
X216072593Y-89492406D01*
X215850400Y-89297549D01*
X215850396Y-89297546D01*
X215604666Y-89133355D01*
X215339617Y-89002648D01*
X215339611Y-89002645D01*
X215339606Y-89002643D01*
X215339603Y-89002642D01*
X215059767Y-88907650D01*
X215059761Y-88907648D01*
X215059759Y-88907648D01*
X214976619Y-88891110D01*
X214769913Y-88849993D01*
X214769898Y-88849991D01*
X214475003Y-88830663D01*
X214474997Y-88830663D01*
X214180101Y-88849991D01*
X214180086Y-88849993D01*
X213931810Y-88899379D01*
X213890241Y-88907648D01*
X213890239Y-88907648D01*
X213890232Y-88907650D01*
X213610396Y-89002642D01*
X213610382Y-89002648D01*
X213345334Y-89133355D01*
X213099603Y-89297546D01*
X213099599Y-89297549D01*
X212877406Y-89492406D01*
X212682549Y-89714599D01*
X212682546Y-89714603D01*
X212518355Y-89960334D01*
X212387648Y-90225382D01*
X212387642Y-90225396D01*
X212292650Y-90505232D01*
X212292648Y-90505242D01*
X212234993Y-90795086D01*
X212234991Y-90795101D01*
X212215663Y-91089996D01*
X164000500Y-91089996D01*
X164000500Y-86540000D01*
X177635149Y-86540000D01*
X177654517Y-86761374D01*
X177712031Y-86976023D01*
X177712033Y-86976027D01*
X177805946Y-87177424D01*
X177805947Y-87177426D01*
X177924151Y-87346240D01*
X177924154Y-87346240D01*
X178565348Y-86705046D01*
X178605124Y-86773940D01*
X178676060Y-86844876D01*
X178744952Y-86884651D01*
X178103758Y-87525845D01*
X178272575Y-87644053D01*
X178272574Y-87644053D01*
X178473972Y-87737966D01*
X178473976Y-87737968D01*
X178688625Y-87795482D01*
X178910000Y-87814850D01*
X179131374Y-87795482D01*
X179346023Y-87737968D01*
X179346027Y-87737966D01*
X179547425Y-87644053D01*
X179716240Y-87525846D01*
X179716240Y-87525844D01*
X179075047Y-86884651D01*
X179143940Y-86844876D01*
X179214876Y-86773940D01*
X179254651Y-86705047D01*
X179895844Y-87346240D01*
X179895846Y-87346240D01*
X180014053Y-87177425D01*
X180107966Y-86976027D01*
X180107968Y-86976023D01*
X180165482Y-86761374D01*
X180181408Y-86579346D01*
X180196828Y-86539926D01*
X180417016Y-86539926D01*
X180430459Y-86565502D01*
X180432322Y-86577978D01*
X180448206Y-86739261D01*
X180448206Y-86739263D01*
X180506332Y-86930877D01*
X180506334Y-86930883D01*
X180600720Y-87107466D01*
X180600722Y-87107469D01*
X180727748Y-87262252D01*
X180882531Y-87389278D01*
X181059120Y-87483667D01*
X181250731Y-87541792D01*
X181250735Y-87541792D01*
X181250737Y-87541793D01*
X181449997Y-87561418D01*
X181450000Y-87561418D01*
X181450003Y-87561418D01*
X181649261Y-87541793D01*
X181649263Y-87541793D01*
X181649264Y-87541792D01*
X181649269Y-87541792D01*
X181840880Y-87483667D01*
X182017469Y-87389278D01*
X182172252Y-87262252D01*
X182299278Y-87107469D01*
X182393667Y-86930880D01*
X182451792Y-86739269D01*
X182467678Y-86577978D01*
X182471418Y-86540003D01*
X182471418Y-86540000D01*
X195822649Y-86540000D01*
X195842017Y-86761374D01*
X195899531Y-86976023D01*
X195899533Y-86976027D01*
X195993446Y-87177424D01*
X195993447Y-87177426D01*
X196111651Y-87346240D01*
X196111654Y-87346240D01*
X196752848Y-86705046D01*
X196792624Y-86773940D01*
X196863560Y-86844876D01*
X196932452Y-86884651D01*
X196291258Y-87525845D01*
X196460075Y-87644053D01*
X196460074Y-87644053D01*
X196661472Y-87737966D01*
X196661476Y-87737968D01*
X196876125Y-87795482D01*
X197097500Y-87814850D01*
X197318874Y-87795482D01*
X197533523Y-87737968D01*
X197533527Y-87737966D01*
X197734925Y-87644053D01*
X197903740Y-87525846D01*
X197903740Y-87525844D01*
X197262547Y-86884651D01*
X197331440Y-86844876D01*
X197402376Y-86773940D01*
X197442151Y-86705047D01*
X198083344Y-87346240D01*
X198083346Y-87346240D01*
X198201553Y-87177425D01*
X198295466Y-86976027D01*
X198295468Y-86976023D01*
X198352982Y-86761374D01*
X198368908Y-86579346D01*
X198384328Y-86539926D01*
X198604516Y-86539926D01*
X198617959Y-86565502D01*
X198619822Y-86577978D01*
X198635706Y-86739261D01*
X198635706Y-86739263D01*
X198693832Y-86930877D01*
X198693834Y-86930883D01*
X198788220Y-87107466D01*
X198788222Y-87107469D01*
X198915248Y-87262252D01*
X199070031Y-87389278D01*
X199246620Y-87483667D01*
X199438231Y-87541792D01*
X199438235Y-87541792D01*
X199438237Y-87541793D01*
X199637497Y-87561418D01*
X199637500Y-87561418D01*
X199637503Y-87561418D01*
X199836761Y-87541793D01*
X199836763Y-87541793D01*
X199836764Y-87541792D01*
X199836769Y-87541792D01*
X200028380Y-87483667D01*
X200204969Y-87389278D01*
X200359752Y-87262252D01*
X200486778Y-87107469D01*
X200581167Y-86930880D01*
X200639292Y-86739269D01*
X200655178Y-86577978D01*
X200658918Y-86540003D01*
X200658918Y-86539996D01*
X200639293Y-86340738D01*
X200639293Y-86340736D01*
X200639292Y-86340733D01*
X200639292Y-86340731D01*
X200581167Y-86149120D01*
X200486778Y-85972531D01*
X200359752Y-85817748D01*
X200204969Y-85690722D01*
X200204967Y-85690721D01*
X200204966Y-85690720D01*
X200028383Y-85596334D01*
X200028377Y-85596332D01*
X199947605Y-85571830D01*
X199836769Y-85538208D01*
X199836768Y-85538207D01*
X199836762Y-85538206D01*
X199637503Y-85518582D01*
X199637497Y-85518582D01*
X199438238Y-85538206D01*
X199438236Y-85538206D01*
X199246622Y-85596332D01*
X199246616Y-85596334D01*
X199070033Y-85690720D01*
X198915248Y-85817748D01*
X198788220Y-85972533D01*
X198693834Y-86149116D01*
X198693832Y-86149122D01*
X198635706Y-86340736D01*
X198635706Y-86340738D01*
X198619822Y-86502021D01*
X198604516Y-86539926D01*
X198384328Y-86539926D01*
X198384333Y-86539913D01*
X198370636Y-86513149D01*
X198368908Y-86500653D01*
X198352982Y-86318625D01*
X198295468Y-86103976D01*
X198295466Y-86103972D01*
X198201552Y-85902574D01*
X198083346Y-85733758D01*
X198083345Y-85733758D01*
X197442151Y-86374952D01*
X197402376Y-86306060D01*
X197331440Y-86235124D01*
X197262546Y-86195348D01*
X197903740Y-85554154D01*
X197903740Y-85554151D01*
X197734926Y-85435947D01*
X197734924Y-85435946D01*
X197533527Y-85342033D01*
X197533523Y-85342031D01*
X197318874Y-85284517D01*
X197097500Y-85265149D01*
X196876125Y-85284517D01*
X196661476Y-85342031D01*
X196661472Y-85342033D01*
X196460071Y-85435948D01*
X196291258Y-85554151D01*
X196291258Y-85554153D01*
X196932453Y-86195347D01*
X196863560Y-86235124D01*
X196792624Y-86306060D01*
X196752848Y-86374953D01*
X196111653Y-85733758D01*
X196111651Y-85733758D01*
X195993448Y-85902571D01*
X195899533Y-86103972D01*
X195899531Y-86103976D01*
X195842017Y-86318625D01*
X195822649Y-86540000D01*
X182471418Y-86540000D01*
X182471418Y-86539996D01*
X182451793Y-86340738D01*
X182451793Y-86340736D01*
X182451792Y-86340733D01*
X182451792Y-86340731D01*
X182393667Y-86149120D01*
X182299278Y-85972531D01*
X182172252Y-85817748D01*
X182017469Y-85690722D01*
X182017467Y-85690721D01*
X182017466Y-85690720D01*
X181840883Y-85596334D01*
X181840877Y-85596332D01*
X181760105Y-85571830D01*
X181649269Y-85538208D01*
X181649268Y-85538207D01*
X181649262Y-85538206D01*
X181450003Y-85518582D01*
X181449997Y-85518582D01*
X181250738Y-85538206D01*
X181250736Y-85538206D01*
X181059122Y-85596332D01*
X181059116Y-85596334D01*
X180882533Y-85690720D01*
X180727748Y-85817748D01*
X180600720Y-85972533D01*
X180506334Y-86149116D01*
X180506332Y-86149122D01*
X180448206Y-86340736D01*
X180448206Y-86340738D01*
X180432322Y-86502021D01*
X180417016Y-86539926D01*
X180196828Y-86539926D01*
X180196833Y-86539913D01*
X180183136Y-86513149D01*
X180181408Y-86500653D01*
X180165482Y-86318625D01*
X180107968Y-86103976D01*
X180107966Y-86103972D01*
X180014052Y-85902574D01*
X179895846Y-85733758D01*
X179895845Y-85733758D01*
X179254651Y-86374952D01*
X179214876Y-86306060D01*
X179143940Y-86235124D01*
X179075046Y-86195348D01*
X179716240Y-85554154D01*
X179716240Y-85554151D01*
X179547426Y-85435947D01*
X179547424Y-85435946D01*
X179346027Y-85342033D01*
X179346023Y-85342031D01*
X179131374Y-85284517D01*
X178910000Y-85265149D01*
X178688625Y-85284517D01*
X178473976Y-85342031D01*
X178473972Y-85342033D01*
X178272571Y-85435948D01*
X178103758Y-85554151D01*
X178103758Y-85554153D01*
X178744953Y-86195347D01*
X178676060Y-86235124D01*
X178605124Y-86306060D01*
X178565348Y-86374953D01*
X177924153Y-85733758D01*
X177924151Y-85733758D01*
X177805948Y-85902571D01*
X177712033Y-86103972D01*
X177712031Y-86103976D01*
X177654517Y-86318625D01*
X177635149Y-86540000D01*
X164000500Y-86540000D01*
X164000500Y-83999996D01*
X179158582Y-83999996D01*
X179158582Y-84000003D01*
X179178206Y-84199261D01*
X179178206Y-84199263D01*
X179236332Y-84390877D01*
X179236334Y-84390883D01*
X179330720Y-84567466D01*
X179330722Y-84567469D01*
X179457748Y-84722252D01*
X179612531Y-84849278D01*
X179789120Y-84943667D01*
X179980731Y-85001792D01*
X179980735Y-85001792D01*
X179980737Y-85001793D01*
X180179997Y-85021418D01*
X180180000Y-85021418D01*
X180180003Y-85021418D01*
X180379261Y-85001793D01*
X180379263Y-85001793D01*
X180379264Y-85001792D01*
X180379269Y-85001792D01*
X180570880Y-84943667D01*
X180747469Y-84849278D01*
X180902252Y-84722252D01*
X181029278Y-84567469D01*
X181123667Y-84390880D01*
X181181792Y-84199269D01*
X181201418Y-84000000D01*
X181201418Y-83999996D01*
X181698582Y-83999996D01*
X181698582Y-84000003D01*
X181718206Y-84199261D01*
X181718206Y-84199263D01*
X181776332Y-84390877D01*
X181776334Y-84390883D01*
X181870720Y-84567466D01*
X181870722Y-84567469D01*
X181997748Y-84722252D01*
X182152531Y-84849278D01*
X182329120Y-84943667D01*
X182520731Y-85001792D01*
X182520735Y-85001792D01*
X182520737Y-85001793D01*
X182719997Y-85021418D01*
X182720000Y-85021418D01*
X182720003Y-85021418D01*
X182919261Y-85001793D01*
X182919263Y-85001793D01*
X182919264Y-85001792D01*
X182919269Y-85001792D01*
X183110880Y-84943667D01*
X183287469Y-84849278D01*
X183442252Y-84722252D01*
X183569278Y-84567469D01*
X183663667Y-84390880D01*
X183721792Y-84199269D01*
X183741418Y-84000000D01*
X183741418Y-83999996D01*
X197346082Y-83999996D01*
X197346082Y-84000003D01*
X197365706Y-84199261D01*
X197365706Y-84199263D01*
X197423832Y-84390877D01*
X197423834Y-84390883D01*
X197518220Y-84567466D01*
X197518222Y-84567469D01*
X197645248Y-84722252D01*
X197800031Y-84849278D01*
X197976620Y-84943667D01*
X198168231Y-85001792D01*
X198168235Y-85001792D01*
X198168237Y-85001793D01*
X198367497Y-85021418D01*
X198367500Y-85021418D01*
X198367503Y-85021418D01*
X198566761Y-85001793D01*
X198566763Y-85001793D01*
X198566764Y-85001792D01*
X198566769Y-85001792D01*
X198758380Y-84943667D01*
X198934969Y-84849278D01*
X199089752Y-84722252D01*
X199216778Y-84567469D01*
X199311167Y-84390880D01*
X199369292Y-84199269D01*
X199388918Y-84000000D01*
X199388918Y-83999996D01*
X199886082Y-83999996D01*
X199886082Y-84000003D01*
X199905706Y-84199261D01*
X199905706Y-84199263D01*
X199963832Y-84390877D01*
X199963834Y-84390883D01*
X200058220Y-84567466D01*
X200058222Y-84567469D01*
X200185248Y-84722252D01*
X200340031Y-84849278D01*
X200516620Y-84943667D01*
X200708231Y-85001792D01*
X200708235Y-85001792D01*
X200708237Y-85001793D01*
X200907497Y-85021418D01*
X200907500Y-85021418D01*
X200907503Y-85021418D01*
X201106761Y-85001793D01*
X201106763Y-85001793D01*
X201106764Y-85001792D01*
X201106769Y-85001792D01*
X201298380Y-84943667D01*
X201474969Y-84849278D01*
X201629752Y-84722252D01*
X201756778Y-84567469D01*
X201851167Y-84390880D01*
X201909292Y-84199269D01*
X201928918Y-84000000D01*
X201909293Y-83800738D01*
X201909293Y-83800736D01*
X201909292Y-83800733D01*
X201909292Y-83800731D01*
X201851167Y-83609120D01*
X201756778Y-83432531D01*
X201629752Y-83277748D01*
X201474969Y-83150722D01*
X201474967Y-83150721D01*
X201474966Y-83150720D01*
X201298383Y-83056334D01*
X201298377Y-83056332D01*
X201106762Y-82998206D01*
X200907503Y-82978582D01*
X200907497Y-82978582D01*
X200708238Y-82998206D01*
X200708236Y-82998206D01*
X200516622Y-83056332D01*
X200516616Y-83056334D01*
X200340033Y-83150720D01*
X200185248Y-83277748D01*
X200058220Y-83432533D01*
X199963834Y-83609116D01*
X199963832Y-83609122D01*
X199905706Y-83800736D01*
X199905706Y-83800738D01*
X199886082Y-83999996D01*
X199388918Y-83999996D01*
X199369293Y-83800738D01*
X199369293Y-83800736D01*
X199369292Y-83800733D01*
X199369292Y-83800731D01*
X199311167Y-83609120D01*
X199216778Y-83432531D01*
X199089752Y-83277748D01*
X198934969Y-83150722D01*
X198934967Y-83150721D01*
X198934966Y-83150720D01*
X198758383Y-83056334D01*
X198758377Y-83056332D01*
X198566762Y-82998206D01*
X198367503Y-82978582D01*
X198367497Y-82978582D01*
X198168238Y-82998206D01*
X198168236Y-82998206D01*
X197976622Y-83056332D01*
X197976616Y-83056334D01*
X197800033Y-83150720D01*
X197645248Y-83277748D01*
X197518220Y-83432533D01*
X197423834Y-83609116D01*
X197423832Y-83609122D01*
X197365706Y-83800736D01*
X197365706Y-83800738D01*
X197346082Y-83999996D01*
X183741418Y-83999996D01*
X183721793Y-83800738D01*
X183721793Y-83800736D01*
X183721792Y-83800733D01*
X183721792Y-83800731D01*
X183663667Y-83609120D01*
X183569278Y-83432531D01*
X183442252Y-83277748D01*
X183287469Y-83150722D01*
X183287467Y-83150721D01*
X183287466Y-83150720D01*
X183110883Y-83056334D01*
X183110877Y-83056332D01*
X182919262Y-82998206D01*
X182720003Y-82978582D01*
X182719997Y-82978582D01*
X182520738Y-82998206D01*
X182520736Y-82998206D01*
X182329122Y-83056332D01*
X182329116Y-83056334D01*
X182152533Y-83150720D01*
X181997748Y-83277748D01*
X181870720Y-83432533D01*
X181776334Y-83609116D01*
X181776332Y-83609122D01*
X181718206Y-83800736D01*
X181718206Y-83800738D01*
X181698582Y-83999996D01*
X181201418Y-83999996D01*
X181181793Y-83800738D01*
X181181793Y-83800736D01*
X181181792Y-83800733D01*
X181181792Y-83800731D01*
X181123667Y-83609120D01*
X181029278Y-83432531D01*
X180902252Y-83277748D01*
X180747469Y-83150722D01*
X180747467Y-83150721D01*
X180747466Y-83150720D01*
X180570883Y-83056334D01*
X180570877Y-83056332D01*
X180379262Y-82998206D01*
X180180003Y-82978582D01*
X180179997Y-82978582D01*
X179980738Y-82998206D01*
X179980736Y-82998206D01*
X179789122Y-83056332D01*
X179789116Y-83056334D01*
X179612533Y-83150720D01*
X179457748Y-83277748D01*
X179330720Y-83432533D01*
X179236334Y-83609116D01*
X179236332Y-83609122D01*
X179178206Y-83800736D01*
X179178206Y-83800738D01*
X179158582Y-83999996D01*
X164000500Y-83999996D01*
X164000500Y-79419730D01*
X166814087Y-79419730D01*
X166832699Y-79644348D01*
X166834623Y-79667558D01*
X166895665Y-79908607D01*
X166895668Y-79908614D01*
X166995556Y-80136336D01*
X167131565Y-80344515D01*
X167299979Y-80527462D01*
X167299984Y-80527466D01*
X167299986Y-80527468D01*
X167374083Y-80585140D01*
X167496220Y-80680203D01*
X167496221Y-80680204D01*
X167714920Y-80798558D01*
X167714922Y-80798559D01*
X167838407Y-80840951D01*
X167950116Y-80879301D01*
X168195395Y-80920230D01*
X168195399Y-80920230D01*
X168444061Y-80920230D01*
X168444065Y-80920230D01*
X168689344Y-80879301D01*
X168924540Y-80798558D01*
X169143239Y-80680204D01*
X169339474Y-80527468D01*
X169385697Y-80477257D01*
X169507894Y-80344515D01*
X169544477Y-80288520D01*
X169643903Y-80136337D01*
X169743793Y-79908611D01*
X169804838Y-79667551D01*
X169825373Y-79419730D01*
X169804838Y-79171909D01*
X169743793Y-78930849D01*
X169643903Y-78703123D01*
X169538839Y-78542310D01*
X169507894Y-78494944D01*
X169339480Y-78311997D01*
X169240242Y-78234757D01*
X169143239Y-78159256D01*
X169143238Y-78159255D01*
X168924539Y-78040901D01*
X168924537Y-78040900D01*
X168689348Y-77960160D01*
X168689339Y-77960158D01*
X168640566Y-77952019D01*
X168444065Y-77919230D01*
X168195395Y-77919230D01*
X168041572Y-77944898D01*
X167950120Y-77960158D01*
X167950111Y-77960160D01*
X167714922Y-78040900D01*
X167714920Y-78040901D01*
X167496221Y-78159255D01*
X167496220Y-78159256D01*
X167299979Y-78311997D01*
X167131565Y-78494944D01*
X166995556Y-78703123D01*
X166895668Y-78930845D01*
X166895665Y-78930852D01*
X166834623Y-79171901D01*
X166834622Y-79171907D01*
X166834622Y-79171909D01*
X166814087Y-79419730D01*
X164000500Y-79419730D01*
X164000500Y-77649996D01*
X174740663Y-77649996D01*
X174740663Y-77650003D01*
X174759991Y-77944898D01*
X174759993Y-77944913D01*
X174817648Y-78234757D01*
X174817650Y-78234767D01*
X174912642Y-78514603D01*
X174912648Y-78514617D01*
X175043355Y-78779666D01*
X175207546Y-79025396D01*
X175207549Y-79025400D01*
X175402406Y-79247593D01*
X175624599Y-79442450D01*
X175624603Y-79442453D01*
X175870331Y-79606643D01*
X176135389Y-79737355D01*
X176415241Y-79832352D01*
X176665789Y-79882189D01*
X176705086Y-79890006D01*
X176705088Y-79890006D01*
X176705097Y-79890008D01*
X176873613Y-79901053D01*
X176999997Y-79909337D01*
X177000000Y-79909337D01*
X177000003Y-79909337D01*
X177110588Y-79902088D01*
X177294903Y-79890008D01*
X177584759Y-79832352D01*
X177864611Y-79737355D01*
X178129669Y-79606643D01*
X178375397Y-79442453D01*
X178597593Y-79247593D01*
X178792453Y-79025397D01*
X178956643Y-78779669D01*
X179087355Y-78514611D01*
X179182352Y-78234759D01*
X179240008Y-77944903D01*
X179259337Y-77650000D01*
X179259337Y-77649996D01*
X182365663Y-77649996D01*
X182365663Y-77650003D01*
X182384991Y-77944898D01*
X182384993Y-77944913D01*
X182442648Y-78234757D01*
X182442650Y-78234767D01*
X182537642Y-78514603D01*
X182537648Y-78514617D01*
X182668355Y-78779666D01*
X182832546Y-79025396D01*
X182832549Y-79025400D01*
X183027406Y-79247593D01*
X183249599Y-79442450D01*
X183249603Y-79442453D01*
X183495331Y-79606643D01*
X183760389Y-79737355D01*
X184040241Y-79832352D01*
X184290789Y-79882189D01*
X184330086Y-79890006D01*
X184330088Y-79890006D01*
X184330097Y-79890008D01*
X184498613Y-79901053D01*
X184624997Y-79909337D01*
X184625000Y-79909337D01*
X184625003Y-79909337D01*
X184735588Y-79902088D01*
X184919903Y-79890008D01*
X185209759Y-79832352D01*
X185489611Y-79737355D01*
X185754669Y-79606643D01*
X186000397Y-79442453D01*
X186222593Y-79247593D01*
X186417453Y-79025397D01*
X186581643Y-78779669D01*
X186712355Y-78514611D01*
X186807352Y-78234759D01*
X186865008Y-77944903D01*
X186884337Y-77650000D01*
X186884337Y-77649996D01*
X192928163Y-77649996D01*
X192928163Y-77650003D01*
X192947491Y-77944898D01*
X192947493Y-77944913D01*
X193005148Y-78234757D01*
X193005150Y-78234767D01*
X193100142Y-78514603D01*
X193100148Y-78514617D01*
X193230855Y-78779666D01*
X193395046Y-79025396D01*
X193395049Y-79025400D01*
X193589906Y-79247593D01*
X193812099Y-79442450D01*
X193812103Y-79442453D01*
X194057831Y-79606643D01*
X194322889Y-79737355D01*
X194602741Y-79832352D01*
X194853289Y-79882189D01*
X194892586Y-79890006D01*
X194892588Y-79890006D01*
X194892597Y-79890008D01*
X195061113Y-79901053D01*
X195187497Y-79909337D01*
X195187500Y-79909337D01*
X195187503Y-79909337D01*
X195298088Y-79902088D01*
X195482403Y-79890008D01*
X195772259Y-79832352D01*
X196052111Y-79737355D01*
X196317169Y-79606643D01*
X196562897Y-79442453D01*
X196785093Y-79247593D01*
X196979953Y-79025397D01*
X197144143Y-78779669D01*
X197274855Y-78514611D01*
X197369852Y-78234759D01*
X197427508Y-77944903D01*
X197446837Y-77650000D01*
X197446837Y-77649996D01*
X200553163Y-77649996D01*
X200553163Y-77650003D01*
X200572491Y-77944898D01*
X200572493Y-77944913D01*
X200630148Y-78234757D01*
X200630150Y-78234767D01*
X200725142Y-78514603D01*
X200725148Y-78514617D01*
X200855855Y-78779666D01*
X201020046Y-79025396D01*
X201020049Y-79025400D01*
X201214906Y-79247593D01*
X201437099Y-79442450D01*
X201437103Y-79442453D01*
X201682831Y-79606643D01*
X201947889Y-79737355D01*
X202227741Y-79832352D01*
X202478289Y-79882189D01*
X202517586Y-79890006D01*
X202517588Y-79890006D01*
X202517597Y-79890008D01*
X202686113Y-79901053D01*
X202812497Y-79909337D01*
X202812500Y-79909337D01*
X202812503Y-79909337D01*
X202923088Y-79902088D01*
X203107403Y-79890008D01*
X203397259Y-79832352D01*
X203677111Y-79737355D01*
X203942169Y-79606643D01*
X204187897Y-79442453D01*
X204410093Y-79247593D01*
X204604953Y-79025397D01*
X204769143Y-78779669D01*
X204899855Y-78514611D01*
X204994852Y-78234759D01*
X205052508Y-77944903D01*
X205071837Y-77650000D01*
X205052508Y-77355097D01*
X204994852Y-77065241D01*
X204899855Y-76785389D01*
X204769143Y-76520332D01*
X204604953Y-76274603D01*
X204604950Y-76274599D01*
X204410093Y-76052406D01*
X204187900Y-75857549D01*
X204187896Y-75857546D01*
X203942166Y-75693355D01*
X203677117Y-75562648D01*
X203677111Y-75562645D01*
X203677106Y-75562643D01*
X203677103Y-75562642D01*
X203397267Y-75467650D01*
X203397261Y-75467648D01*
X203397259Y-75467648D01*
X203314119Y-75451110D01*
X203107413Y-75409993D01*
X203107398Y-75409991D01*
X202812503Y-75390663D01*
X202812497Y-75390663D01*
X202517601Y-75409991D01*
X202517586Y-75409993D01*
X202269310Y-75459379D01*
X202227741Y-75467648D01*
X202227739Y-75467648D01*
X202227732Y-75467650D01*
X201947896Y-75562642D01*
X201947882Y-75562648D01*
X201682834Y-75693355D01*
X201437103Y-75857546D01*
X201437099Y-75857549D01*
X201214906Y-76052406D01*
X201020049Y-76274599D01*
X201020046Y-76274603D01*
X200855855Y-76520334D01*
X200725148Y-76785382D01*
X200725142Y-76785396D01*
X200630150Y-77065232D01*
X200630148Y-77065242D01*
X200572493Y-77355086D01*
X200572491Y-77355101D01*
X200553163Y-77649996D01*
X197446837Y-77649996D01*
X197427508Y-77355097D01*
X197369852Y-77065241D01*
X197274855Y-76785389D01*
X197144143Y-76520332D01*
X196979953Y-76274603D01*
X196979950Y-76274599D01*
X196785093Y-76052406D01*
X196562900Y-75857549D01*
X196562896Y-75857546D01*
X196317166Y-75693355D01*
X196052117Y-75562648D01*
X196052111Y-75562645D01*
X196052106Y-75562643D01*
X196052103Y-75562642D01*
X195772267Y-75467650D01*
X195772261Y-75467648D01*
X195772259Y-75467648D01*
X195689119Y-75451110D01*
X195482413Y-75409993D01*
X195482398Y-75409991D01*
X195187503Y-75390663D01*
X195187497Y-75390663D01*
X194892601Y-75409991D01*
X194892586Y-75409993D01*
X194644310Y-75459379D01*
X194602741Y-75467648D01*
X194602739Y-75467648D01*
X194602732Y-75467650D01*
X194322896Y-75562642D01*
X194322882Y-75562648D01*
X194057834Y-75693355D01*
X193812103Y-75857546D01*
X193812099Y-75857549D01*
X193589906Y-76052406D01*
X193395049Y-76274599D01*
X193395046Y-76274603D01*
X193230855Y-76520334D01*
X193100148Y-76785382D01*
X193100142Y-76785396D01*
X193005150Y-77065232D01*
X193005148Y-77065242D01*
X192947493Y-77355086D01*
X192947491Y-77355101D01*
X192928163Y-77649996D01*
X186884337Y-77649996D01*
X186865008Y-77355097D01*
X186807352Y-77065241D01*
X186712355Y-76785389D01*
X186581643Y-76520332D01*
X186417453Y-76274603D01*
X186417450Y-76274599D01*
X186222593Y-76052406D01*
X186000400Y-75857549D01*
X186000396Y-75857546D01*
X185754666Y-75693355D01*
X185489617Y-75562648D01*
X185489611Y-75562645D01*
X185489606Y-75562643D01*
X185489603Y-75562642D01*
X185209767Y-75467650D01*
X185209761Y-75467648D01*
X185209759Y-75467648D01*
X185126619Y-75451110D01*
X184919913Y-75409993D01*
X184919898Y-75409991D01*
X184625003Y-75390663D01*
X184624997Y-75390663D01*
X184330101Y-75409991D01*
X184330086Y-75409993D01*
X184081810Y-75459379D01*
X184040241Y-75467648D01*
X184040239Y-75467648D01*
X184040232Y-75467650D01*
X183760396Y-75562642D01*
X183760382Y-75562648D01*
X183495334Y-75693355D01*
X183249603Y-75857546D01*
X183249599Y-75857549D01*
X183027406Y-76052406D01*
X182832549Y-76274599D01*
X182832546Y-76274603D01*
X182668355Y-76520334D01*
X182537648Y-76785382D01*
X182537642Y-76785396D01*
X182442650Y-77065232D01*
X182442648Y-77065242D01*
X182384993Y-77355086D01*
X182384991Y-77355101D01*
X182365663Y-77649996D01*
X179259337Y-77649996D01*
X179240008Y-77355097D01*
X179182352Y-77065241D01*
X179087355Y-76785389D01*
X178956643Y-76520332D01*
X178792453Y-76274603D01*
X178792450Y-76274599D01*
X178597593Y-76052406D01*
X178375400Y-75857549D01*
X178375396Y-75857546D01*
X178129666Y-75693355D01*
X177864617Y-75562648D01*
X177864611Y-75562645D01*
X177864606Y-75562643D01*
X177864603Y-75562642D01*
X177584767Y-75467650D01*
X177584761Y-75467648D01*
X177584759Y-75467648D01*
X177501619Y-75451110D01*
X177294913Y-75409993D01*
X177294898Y-75409991D01*
X177000003Y-75390663D01*
X176999997Y-75390663D01*
X176705101Y-75409991D01*
X176705086Y-75409993D01*
X176456810Y-75459379D01*
X176415241Y-75467648D01*
X176415239Y-75467648D01*
X176415232Y-75467650D01*
X176135396Y-75562642D01*
X176135382Y-75562648D01*
X175870334Y-75693355D01*
X175624603Y-75857546D01*
X175624599Y-75857549D01*
X175402406Y-76052406D01*
X175207549Y-76274599D01*
X175207546Y-76274603D01*
X175043355Y-76520334D01*
X174912648Y-76785382D01*
X174912642Y-76785396D01*
X174817650Y-77065232D01*
X174817648Y-77065242D01*
X174759993Y-77355086D01*
X174759991Y-77355101D01*
X174740663Y-77649996D01*
X164000500Y-77649996D01*
X164000500Y-75452472D01*
X164000510Y-75452363D01*
X164000502Y-75409881D01*
X164002050Y-75390163D01*
X164012023Y-75327130D01*
X164024202Y-75289631D01*
X164048615Y-75241707D01*
X164071786Y-75209813D01*
X164109813Y-75171786D01*
X164141707Y-75148615D01*
X164189631Y-75124202D01*
X164227127Y-75112023D01*
X164290164Y-75102049D01*
X164309881Y-75100502D01*
X164310689Y-75100502D01*
X164339842Y-75100508D01*
X164339842Y-75100507D01*
X164352363Y-75100510D01*
X164352472Y-75100500D01*
X209837644Y-75100500D01*
X209837676Y-75100502D01*
G37*
%TD.AperFunction*%
%TD*%
D21*
%TO.C,J6*%
X182720000Y-84000000D03*
X181450000Y-86540000D03*
X180180000Y-84000000D03*
X178910000Y-86540000D03*
D22*
X184625000Y-77650000D03*
X177000000Y-77650000D03*
%TD*%
D23*
%TO.C,C1*%
X184757000Y-104449500D03*
X184757000Y-106524500D03*
%TD*%
D24*
%TO.C,J8*%
X185091000Y-92676000D03*
D25*
X185091000Y-93946000D03*
X185091000Y-95216000D03*
X185091000Y-96486000D03*
%TD*%
D23*
%TO.C,C2*%
X196000000Y-104637500D03*
X196000000Y-106712500D03*
%TD*%
D26*
%TO.C,J7*%
X170262500Y-110532500D03*
D27*
X168992500Y-110532500D03*
X170262500Y-109262500D03*
X168992500Y-109262500D03*
X170262500Y-107992500D03*
X168992500Y-107992500D03*
X170262500Y-106722500D03*
X168992500Y-106722500D03*
X170262500Y-105452500D03*
X168992500Y-105452500D03*
X170262500Y-104182500D03*
X168992500Y-104182500D03*
X170262500Y-102912500D03*
X168992500Y-102912500D03*
X170262500Y-101642500D03*
X168992500Y-101642500D03*
X170262500Y-100372500D03*
X168992500Y-100372500D03*
X170262500Y-99102500D03*
X168992500Y-99102500D03*
X170262500Y-97832500D03*
X168992500Y-97832500D03*
X170262500Y-96562500D03*
X168992500Y-96562500D03*
X170262500Y-95292500D03*
X168992500Y-95292500D03*
%TD*%
D21*
%TO.C,J1*%
X179190000Y-119540000D03*
X180460000Y-117000000D03*
X181730000Y-119540000D03*
X183000000Y-117000000D03*
D22*
X177285000Y-125890000D03*
X184910000Y-125890000D03*
%TD*%
D21*
%TO.C,J2*%
X196905000Y-119650000D03*
X198175000Y-117110000D03*
X199445000Y-119650000D03*
X200715000Y-117110000D03*
D22*
X195000000Y-126000000D03*
X202625000Y-126000000D03*
%TD*%
D28*
%TO.C,D2*%
X196305000Y-109551000D03*
X198355000Y-109551000D03*
%TD*%
D29*
%TO.C,J9*%
X178407000Y-111075000D03*
D30*
X178407000Y-108535000D03*
X178407000Y-105995000D03*
X178407000Y-103455000D03*
X178407000Y-100915000D03*
%TD*%
D31*
%TO.C,U1*%
X192300000Y-104850000D03*
X190000000Y-104850000D03*
D32*
X190000000Y-111150000D03*
D31*
X187700000Y-104850000D03*
%TD*%
D33*
%TO.C,D1*%
X184385000Y-109551000D03*
X182335000Y-109551000D03*
%TD*%
D34*
%TO.C,R1*%
X182217000Y-104487000D03*
X182217000Y-106487000D03*
%TD*%
D23*
%TO.C,R2*%
X198727000Y-104598000D03*
X198727000Y-106673000D03*
%TD*%
D21*
%TO.C,J4*%
X208125000Y-96810000D03*
X205585000Y-95540000D03*
X208125000Y-94270000D03*
X205585000Y-93000000D03*
D22*
X214475000Y-98715000D03*
X214475000Y-91090000D03*
%TD*%
D21*
%TO.C,J3*%
X208125000Y-110440000D03*
X205585000Y-109170000D03*
X208125000Y-107900000D03*
X205585000Y-106630000D03*
D22*
X214475000Y-112345000D03*
X214475000Y-104720000D03*
%TD*%
D21*
%TO.C,J5*%
X200907500Y-84000000D03*
X199637500Y-86540000D03*
X198367500Y-84000000D03*
X197097500Y-86540000D03*
D22*
X202812500Y-77650000D03*
X195187500Y-77650000D03*
%TD*%
D35*
X196091000Y-98486000D02*
X184091000Y-98486000D01*
X196091000Y-90486000D02*
X196091000Y-98486000D01*
X184091000Y-90486000D02*
X196091000Y-90486000D01*
D36*
X172843826Y-104146924D02*
X173714684Y-104146924D01*
X173279255Y-105670924D02*
X173279255Y-104146924D01*
X174077541Y-104146924D02*
X175093541Y-105670924D01*
X175093541Y-104146924D02*
X174077541Y-105670924D01*
X175964398Y-104146924D02*
X176109541Y-104146924D01*
X176109541Y-104146924D02*
X176254684Y-104219495D01*
X176254684Y-104219495D02*
X176327256Y-104292067D01*
X176327256Y-104292067D02*
X176399827Y-104437210D01*
X176399827Y-104437210D02*
X176472398Y-104727495D01*
X176472398Y-104727495D02*
X176472398Y-105090353D01*
X176472398Y-105090353D02*
X176399827Y-105380638D01*
X176399827Y-105380638D02*
X176327256Y-105525781D01*
X176327256Y-105525781D02*
X176254684Y-105598353D01*
X176254684Y-105598353D02*
X176109541Y-105670924D01*
X176109541Y-105670924D02*
X175964398Y-105670924D01*
X175964398Y-105670924D02*
X175819256Y-105598353D01*
X175819256Y-105598353D02*
X175746684Y-105525781D01*
X175746684Y-105525781D02*
X175674113Y-105380638D01*
X175674113Y-105380638D02*
X175601541Y-105090353D01*
X175601541Y-105090353D02*
X175601541Y-104727495D01*
X175601541Y-104727495D02*
X175674113Y-104437210D01*
X175674113Y-104437210D02*
X175746684Y-104292067D01*
X175746684Y-104292067D02*
X175819256Y-104219495D01*
X175819256Y-104219495D02*
X175964398Y-104146924D01*
X173170398Y-106813924D02*
X174113826Y-106813924D01*
X174113826Y-106813924D02*
X173605826Y-107394495D01*
X173605826Y-107394495D02*
X173823541Y-107394495D01*
X173823541Y-107394495D02*
X173968684Y-107467067D01*
X173968684Y-107467067D02*
X174041255Y-107539638D01*
X174041255Y-107539638D02*
X174113826Y-107684781D01*
X174113826Y-107684781D02*
X174113826Y-108047638D01*
X174113826Y-108047638D02*
X174041255Y-108192781D01*
X174041255Y-108192781D02*
X173968684Y-108265353D01*
X173968684Y-108265353D02*
X173823541Y-108337924D01*
X173823541Y-108337924D02*
X173388112Y-108337924D01*
X173388112Y-108337924D02*
X173242969Y-108265353D01*
X173242969Y-108265353D02*
X173170398Y-108192781D01*
X174766970Y-108192781D02*
X174839541Y-108265353D01*
X174839541Y-108265353D02*
X174766970Y-108337924D01*
X174766970Y-108337924D02*
X174694398Y-108265353D01*
X174694398Y-108265353D02*
X174766970Y-108192781D01*
X174766970Y-108192781D02*
X174766970Y-108337924D01*
X175347541Y-106813924D02*
X176290969Y-106813924D01*
X176290969Y-106813924D02*
X175782969Y-107394495D01*
X175782969Y-107394495D02*
X176000684Y-107394495D01*
X176000684Y-107394495D02*
X176145827Y-107467067D01*
X176145827Y-107467067D02*
X176218398Y-107539638D01*
X176218398Y-107539638D02*
X176290969Y-107684781D01*
X176290969Y-107684781D02*
X176290969Y-108047638D01*
X176290969Y-108047638D02*
X176218398Y-108192781D01*
X176218398Y-108192781D02*
X176145827Y-108265353D01*
X176145827Y-108265353D02*
X176000684Y-108337924D01*
X176000684Y-108337924D02*
X175565255Y-108337924D01*
X175565255Y-108337924D02*
X175420112Y-108265353D01*
X175420112Y-108265353D02*
X175347541Y-108192781D01*
X173478826Y-99139495D02*
X173333684Y-99066924D01*
X173333684Y-99066924D02*
X173115969Y-99066924D01*
X173115969Y-99066924D02*
X172898255Y-99139495D01*
X172898255Y-99139495D02*
X172753112Y-99284638D01*
X172753112Y-99284638D02*
X172680541Y-99429781D01*
X172680541Y-99429781D02*
X172607969Y-99720067D01*
X172607969Y-99720067D02*
X172607969Y-99937781D01*
X172607969Y-99937781D02*
X172680541Y-100228067D01*
X172680541Y-100228067D02*
X172753112Y-100373210D01*
X172753112Y-100373210D02*
X172898255Y-100518353D01*
X172898255Y-100518353D02*
X173115969Y-100590924D01*
X173115969Y-100590924D02*
X173261112Y-100590924D01*
X173261112Y-100590924D02*
X173478826Y-100518353D01*
X173478826Y-100518353D02*
X173551398Y-100445781D01*
X173551398Y-100445781D02*
X173551398Y-99937781D01*
X173551398Y-99937781D02*
X173261112Y-99937781D01*
X174204541Y-100590924D02*
X174204541Y-99066924D01*
X174204541Y-99066924D02*
X175075398Y-100590924D01*
X175075398Y-100590924D02*
X175075398Y-99066924D01*
X175801112Y-100590924D02*
X175801112Y-99066924D01*
X175801112Y-99066924D02*
X176163969Y-99066924D01*
X176163969Y-99066924D02*
X176381683Y-99139495D01*
X176381683Y-99139495D02*
X176526826Y-99284638D01*
X176526826Y-99284638D02*
X176599397Y-99429781D01*
X176599397Y-99429781D02*
X176671969Y-99720067D01*
X176671969Y-99720067D02*
X176671969Y-99937781D01*
X176671969Y-99937781D02*
X176599397Y-100228067D01*
X176599397Y-100228067D02*
X176526826Y-100373210D01*
X176526826Y-100373210D02*
X176381683Y-100518353D01*
X176381683Y-100518353D02*
X176163969Y-100590924D01*
X176163969Y-100590924D02*
X175801112Y-100590924D01*
X173551398Y-103130924D02*
X173043398Y-102405210D01*
X172680541Y-103130924D02*
X172680541Y-101606924D01*
X172680541Y-101606924D02*
X173261112Y-101606924D01*
X173261112Y-101606924D02*
X173406255Y-101679495D01*
X173406255Y-101679495D02*
X173478826Y-101752067D01*
X173478826Y-101752067D02*
X173551398Y-101897210D01*
X173551398Y-101897210D02*
X173551398Y-102114924D01*
X173551398Y-102114924D02*
X173478826Y-102260067D01*
X173478826Y-102260067D02*
X173406255Y-102332638D01*
X173406255Y-102332638D02*
X173261112Y-102405210D01*
X173261112Y-102405210D02*
X172680541Y-102405210D01*
X174059398Y-101606924D02*
X175075398Y-103130924D01*
X175075398Y-101606924D02*
X174059398Y-103130924D01*
X175946255Y-101606924D02*
X176091398Y-101606924D01*
X176091398Y-101606924D02*
X176236541Y-101679495D01*
X176236541Y-101679495D02*
X176309113Y-101752067D01*
X176309113Y-101752067D02*
X176381684Y-101897210D01*
X176381684Y-101897210D02*
X176454255Y-102187495D01*
X176454255Y-102187495D02*
X176454255Y-102550353D01*
X176454255Y-102550353D02*
X176381684Y-102840638D01*
X176381684Y-102840638D02*
X176309113Y-102985781D01*
X176309113Y-102985781D02*
X176236541Y-103058353D01*
X176236541Y-103058353D02*
X176091398Y-103130924D01*
X176091398Y-103130924D02*
X175946255Y-103130924D01*
X175946255Y-103130924D02*
X175801113Y-103058353D01*
X175801113Y-103058353D02*
X175728541Y-102985781D01*
X175728541Y-102985781D02*
X175655970Y-102840638D01*
X175655970Y-102840638D02*
X175583398Y-102550353D01*
X175583398Y-102550353D02*
X175583398Y-102187495D01*
X175583398Y-102187495D02*
X175655970Y-101897210D01*
X175655970Y-101897210D02*
X175728541Y-101752067D01*
X175728541Y-101752067D02*
X175801113Y-101679495D01*
X175801113Y-101679495D02*
X175946255Y-101606924D01*
D35*
X180775779Y-110055819D02*
X180775779Y-109055819D01*
X181347207Y-110055819D02*
X180918636Y-109484390D01*
X181347207Y-109055819D02*
X180775779Y-109627247D01*
D36*
X193871398Y-111258924D02*
X194814826Y-111258924D01*
X194814826Y-111258924D02*
X194306826Y-111839495D01*
X194306826Y-111839495D02*
X194524541Y-111839495D01*
X194524541Y-111839495D02*
X194669684Y-111912067D01*
X194669684Y-111912067D02*
X194742255Y-111984638D01*
X194742255Y-111984638D02*
X194814826Y-112129781D01*
X194814826Y-112129781D02*
X194814826Y-112492638D01*
X194814826Y-112492638D02*
X194742255Y-112637781D01*
X194742255Y-112637781D02*
X194669684Y-112710353D01*
X194669684Y-112710353D02*
X194524541Y-112782924D01*
X194524541Y-112782924D02*
X194089112Y-112782924D01*
X194089112Y-112782924D02*
X193943969Y-112710353D01*
X193943969Y-112710353D02*
X193871398Y-112637781D01*
X195467970Y-112637781D02*
X195540541Y-112710353D01*
X195540541Y-112710353D02*
X195467970Y-112782924D01*
X195467970Y-112782924D02*
X195395398Y-112710353D01*
X195395398Y-112710353D02*
X195467970Y-112637781D01*
X195467970Y-112637781D02*
X195467970Y-112782924D01*
X196048541Y-111258924D02*
X196991969Y-111258924D01*
X196991969Y-111258924D02*
X196483969Y-111839495D01*
X196483969Y-111839495D02*
X196701684Y-111839495D01*
X196701684Y-111839495D02*
X196846827Y-111912067D01*
X196846827Y-111912067D02*
X196919398Y-111984638D01*
X196919398Y-111984638D02*
X196991969Y-112129781D01*
X196991969Y-112129781D02*
X196991969Y-112492638D01*
X196991969Y-112492638D02*
X196919398Y-112637781D01*
X196919398Y-112637781D02*
X196846827Y-112710353D01*
X196846827Y-112710353D02*
X196701684Y-112782924D01*
X196701684Y-112782924D02*
X196266255Y-112782924D01*
X196266255Y-112782924D02*
X196121112Y-112710353D01*
X196121112Y-112710353D02*
X196048541Y-112637781D01*
X171725017Y-90145840D02*
X171725017Y-88367840D01*
X171725017Y-88367840D02*
X172741017Y-90145840D01*
X172741017Y-90145840D02*
X172741017Y-88367840D01*
X173587684Y-90145840D02*
X173587684Y-88367840D01*
X173587684Y-88367840D02*
X174603684Y-90145840D01*
X174603684Y-90145840D02*
X174603684Y-88367840D01*
X175365684Y-88537174D02*
X175450351Y-88452507D01*
X175450351Y-88452507D02*
X175619684Y-88367840D01*
X175619684Y-88367840D02*
X176043018Y-88367840D01*
X176043018Y-88367840D02*
X176212351Y-88452507D01*
X176212351Y-88452507D02*
X176297018Y-88537174D01*
X176297018Y-88537174D02*
X176381684Y-88706507D01*
X176381684Y-88706507D02*
X176381684Y-88875840D01*
X176381684Y-88875840D02*
X176297018Y-89129840D01*
X176297018Y-89129840D02*
X175281018Y-90145840D01*
X175281018Y-90145840D02*
X176381684Y-90145840D01*
X177905684Y-88960507D02*
X177905684Y-90145840D01*
X177482351Y-88283174D02*
X177059017Y-89553174D01*
X177059017Y-89553174D02*
X178159684Y-89553174D01*
X180191684Y-90145840D02*
X180191684Y-88367840D01*
X181038351Y-90145840D02*
X181038351Y-88367840D01*
X181038351Y-88367840D02*
X181631018Y-89637840D01*
X181631018Y-89637840D02*
X182223684Y-88367840D01*
X182223684Y-88367840D02*
X182223684Y-90145840D01*
X183070351Y-88367840D02*
X183070351Y-89807174D01*
X183070351Y-89807174D02*
X183155018Y-89976507D01*
X183155018Y-89976507D02*
X183239684Y-90061174D01*
X183239684Y-90061174D02*
X183409018Y-90145840D01*
X183409018Y-90145840D02*
X183747684Y-90145840D01*
X183747684Y-90145840D02*
X183917018Y-90061174D01*
X183917018Y-90061174D02*
X184001684Y-89976507D01*
X184001684Y-89976507D02*
X184086351Y-89807174D01*
X184086351Y-89807174D02*
X184086351Y-88367840D01*
X186203018Y-90061174D02*
X186457018Y-90145840D01*
X186457018Y-90145840D02*
X186880352Y-90145840D01*
X186880352Y-90145840D02*
X187049685Y-90061174D01*
X187049685Y-90061174D02*
X187134352Y-89976507D01*
X187134352Y-89976507D02*
X187219018Y-89807174D01*
X187219018Y-89807174D02*
X187219018Y-89637840D01*
X187219018Y-89637840D02*
X187134352Y-89468507D01*
X187134352Y-89468507D02*
X187049685Y-89383840D01*
X187049685Y-89383840D02*
X186880352Y-89299174D01*
X186880352Y-89299174D02*
X186541685Y-89214507D01*
X186541685Y-89214507D02*
X186372352Y-89129840D01*
X186372352Y-89129840D02*
X186287685Y-89045174D01*
X186287685Y-89045174D02*
X186203018Y-88875840D01*
X186203018Y-88875840D02*
X186203018Y-88706507D01*
X186203018Y-88706507D02*
X186287685Y-88537174D01*
X186287685Y-88537174D02*
X186372352Y-88452507D01*
X186372352Y-88452507D02*
X186541685Y-88367840D01*
X186541685Y-88367840D02*
X186965018Y-88367840D01*
X186965018Y-88367840D02*
X187219018Y-88452507D01*
X187981018Y-88960507D02*
X187981018Y-90738507D01*
X187981018Y-89045174D02*
X188150351Y-88960507D01*
X188150351Y-88960507D02*
X188489018Y-88960507D01*
X188489018Y-88960507D02*
X188658351Y-89045174D01*
X188658351Y-89045174D02*
X188743018Y-89129840D01*
X188743018Y-89129840D02*
X188827685Y-89299174D01*
X188827685Y-89299174D02*
X188827685Y-89807174D01*
X188827685Y-89807174D02*
X188743018Y-89976507D01*
X188743018Y-89976507D02*
X188658351Y-90061174D01*
X188658351Y-90061174D02*
X188489018Y-90145840D01*
X188489018Y-90145840D02*
X188150351Y-90145840D01*
X188150351Y-90145840D02*
X187981018Y-90061174D01*
X189843685Y-90145840D02*
X189674352Y-90061174D01*
X189674352Y-90061174D02*
X189589685Y-89891840D01*
X189589685Y-89891840D02*
X189589685Y-88367840D01*
X190521018Y-90145840D02*
X190521018Y-88960507D01*
X190521018Y-88367840D02*
X190436351Y-88452507D01*
X190436351Y-88452507D02*
X190521018Y-88537174D01*
X190521018Y-88537174D02*
X190605685Y-88452507D01*
X190605685Y-88452507D02*
X190521018Y-88367840D01*
X190521018Y-88367840D02*
X190521018Y-88537174D01*
X191113685Y-88960507D02*
X191791018Y-88960507D01*
X191367685Y-88367840D02*
X191367685Y-89891840D01*
X191367685Y-89891840D02*
X191452352Y-90061174D01*
X191452352Y-90061174D02*
X191621685Y-90145840D01*
X191621685Y-90145840D02*
X191791018Y-90145840D01*
X192129685Y-88960507D02*
X192807018Y-88960507D01*
X192383685Y-88367840D02*
X192383685Y-89891840D01*
X192383685Y-89891840D02*
X192468352Y-90061174D01*
X192468352Y-90061174D02*
X192637685Y-90145840D01*
X192637685Y-90145840D02*
X192807018Y-90145840D01*
X194077018Y-90061174D02*
X193907685Y-90145840D01*
X193907685Y-90145840D02*
X193569018Y-90145840D01*
X193569018Y-90145840D02*
X193399685Y-90061174D01*
X193399685Y-90061174D02*
X193315018Y-89891840D01*
X193315018Y-89891840D02*
X193315018Y-89214507D01*
X193315018Y-89214507D02*
X193399685Y-89045174D01*
X193399685Y-89045174D02*
X193569018Y-88960507D01*
X193569018Y-88960507D02*
X193907685Y-88960507D01*
X193907685Y-88960507D02*
X194077018Y-89045174D01*
X194077018Y-89045174D02*
X194161685Y-89214507D01*
X194161685Y-89214507D02*
X194161685Y-89383840D01*
X194161685Y-89383840D02*
X193315018Y-89553174D01*
X194923685Y-90145840D02*
X194923685Y-88960507D01*
X194923685Y-89299174D02*
X195008352Y-89129840D01*
X195008352Y-89129840D02*
X195093018Y-89045174D01*
X195093018Y-89045174D02*
X195262352Y-88960507D01*
X195262352Y-88960507D02*
X195431685Y-88960507D01*
X197125019Y-88367840D02*
X197717686Y-90145840D01*
X197717686Y-90145840D02*
X198310352Y-88367840D01*
X198818352Y-88537174D02*
X198903019Y-88452507D01*
X198903019Y-88452507D02*
X199072352Y-88367840D01*
X199072352Y-88367840D02*
X199495686Y-88367840D01*
X199495686Y-88367840D02*
X199665019Y-88452507D01*
X199665019Y-88452507D02*
X199749686Y-88537174D01*
X199749686Y-88537174D02*
X199834352Y-88706507D01*
X199834352Y-88706507D02*
X199834352Y-88875840D01*
X199834352Y-88875840D02*
X199749686Y-89129840D01*
X199749686Y-89129840D02*
X198733686Y-90145840D01*
X198733686Y-90145840D02*
X199834352Y-90145840D01*
X200596352Y-89976507D02*
X200681019Y-90061174D01*
X200681019Y-90061174D02*
X200596352Y-90145840D01*
X200596352Y-90145840D02*
X200511685Y-90061174D01*
X200511685Y-90061174D02*
X200596352Y-89976507D01*
X200596352Y-89976507D02*
X200596352Y-90145840D01*
X201781686Y-88367840D02*
X201951019Y-88367840D01*
X201951019Y-88367840D02*
X202120352Y-88452507D01*
X202120352Y-88452507D02*
X202205019Y-88537174D01*
X202205019Y-88537174D02*
X202289686Y-88706507D01*
X202289686Y-88706507D02*
X202374352Y-89045174D01*
X202374352Y-89045174D02*
X202374352Y-89468507D01*
X202374352Y-89468507D02*
X202289686Y-89807174D01*
X202289686Y-89807174D02*
X202205019Y-89976507D01*
X202205019Y-89976507D02*
X202120352Y-90061174D01*
X202120352Y-90061174D02*
X201951019Y-90145840D01*
X201951019Y-90145840D02*
X201781686Y-90145840D01*
X201781686Y-90145840D02*
X201612352Y-90061174D01*
X201612352Y-90061174D02*
X201527686Y-89976507D01*
X201527686Y-89976507D02*
X201443019Y-89807174D01*
X201443019Y-89807174D02*
X201358352Y-89468507D01*
X201358352Y-89468507D02*
X201358352Y-89045174D01*
X201358352Y-89045174D02*
X201443019Y-88706507D01*
X201443019Y-88706507D02*
X201527686Y-88537174D01*
X201527686Y-88537174D02*
X201612352Y-88452507D01*
X201612352Y-88452507D02*
X201781686Y-88367840D01*
D35*
X194491779Y-110055819D02*
X194491779Y-109055819D01*
X195063207Y-110055819D02*
X194634636Y-109484390D01*
X195063207Y-109055819D02*
X194491779Y-109627247D01*
X189960819Y-97149220D02*
X188960819Y-97149220D01*
X189960819Y-96673030D02*
X188960819Y-96673030D01*
X188960819Y-96673030D02*
X189675104Y-96339697D01*
X189675104Y-96339697D02*
X188960819Y-96006364D01*
X188960819Y-96006364D02*
X189960819Y-96006364D01*
X188960819Y-95530173D02*
X189770342Y-95530173D01*
X189770342Y-95530173D02*
X189865580Y-95482554D01*
X189865580Y-95482554D02*
X189913200Y-95434935D01*
X189913200Y-95434935D02*
X189960819Y-95339697D01*
X189960819Y-95339697D02*
X189960819Y-95149221D01*
X189960819Y-95149221D02*
X189913200Y-95053983D01*
X189913200Y-95053983D02*
X189865580Y-95006364D01*
X189865580Y-95006364D02*
X189770342Y-94958745D01*
X189770342Y-94958745D02*
X188960819Y-94958745D01*
X189960819Y-93720649D02*
X188960819Y-93720649D01*
X188960819Y-93720649D02*
X188960819Y-93339697D01*
X188960819Y-93339697D02*
X189008438Y-93244459D01*
X189008438Y-93244459D02*
X189056057Y-93196840D01*
X189056057Y-93196840D02*
X189151295Y-93149221D01*
X189151295Y-93149221D02*
X189294152Y-93149221D01*
X189294152Y-93149221D02*
X189389390Y-93196840D01*
X189389390Y-93196840D02*
X189437009Y-93244459D01*
X189437009Y-93244459D02*
X189484628Y-93339697D01*
X189484628Y-93339697D02*
X189484628Y-93720649D01*
X189865580Y-92149221D02*
X189913200Y-92196840D01*
X189913200Y-92196840D02*
X189960819Y-92339697D01*
X189960819Y-92339697D02*
X189960819Y-92434935D01*
X189960819Y-92434935D02*
X189913200Y-92577792D01*
X189913200Y-92577792D02*
X189817961Y-92673030D01*
X189817961Y-92673030D02*
X189722723Y-92720649D01*
X189722723Y-92720649D02*
X189532247Y-92768268D01*
X189532247Y-92768268D02*
X189389390Y-92768268D01*
X189389390Y-92768268D02*
X189198914Y-92720649D01*
X189198914Y-92720649D02*
X189103676Y-92673030D01*
X189103676Y-92673030D02*
X189008438Y-92577792D01*
X189008438Y-92577792D02*
X188960819Y-92434935D01*
X188960819Y-92434935D02*
X188960819Y-92339697D01*
X188960819Y-92339697D02*
X189008438Y-92196840D01*
X189008438Y-92196840D02*
X189056057Y-92149221D01*
X189437009Y-91387316D02*
X189484628Y-91244459D01*
X189484628Y-91244459D02*
X189532247Y-91196840D01*
X189532247Y-91196840D02*
X189627485Y-91149221D01*
X189627485Y-91149221D02*
X189770342Y-91149221D01*
X189770342Y-91149221D02*
X189865580Y-91196840D01*
X189865580Y-91196840D02*
X189913200Y-91244459D01*
X189913200Y-91244459D02*
X189960819Y-91339697D01*
X189960819Y-91339697D02*
X189960819Y-91720649D01*
X189960819Y-91720649D02*
X188960819Y-91720649D01*
X188960819Y-91720649D02*
X188960819Y-91387316D01*
X188960819Y-91387316D02*
X189008438Y-91292078D01*
X189008438Y-91292078D02*
X189056057Y-91244459D01*
X189056057Y-91244459D02*
X189151295Y-91196840D01*
X189151295Y-91196840D02*
X189246533Y-91196840D01*
X189246533Y-91196840D02*
X189341771Y-91244459D01*
X189341771Y-91244459D02*
X189389390Y-91292078D01*
X189389390Y-91292078D02*
X189437009Y-91387316D01*
X189437009Y-91387316D02*
X189437009Y-91720649D01*
D37*
X206689167Y-117496974D02*
X206749643Y-117436498D01*
X206749643Y-117436498D02*
X206870596Y-117376022D01*
X206870596Y-117376022D02*
X207172977Y-117376022D01*
X207172977Y-117376022D02*
X207293929Y-117436498D01*
X207293929Y-117436498D02*
X207354405Y-117496974D01*
X207354405Y-117496974D02*
X207414882Y-117617926D01*
X207414882Y-117617926D02*
X207414882Y-117738879D01*
X207414882Y-117738879D02*
X207354405Y-117920307D01*
X207354405Y-117920307D02*
X206628691Y-118646022D01*
X206628691Y-118646022D02*
X207414882Y-118646022D01*
X208201072Y-117376022D02*
X208322025Y-117376022D01*
X208322025Y-117376022D02*
X208442977Y-117436498D01*
X208442977Y-117436498D02*
X208503453Y-117496974D01*
X208503453Y-117496974D02*
X208563929Y-117617926D01*
X208563929Y-117617926D02*
X208624406Y-117859831D01*
X208624406Y-117859831D02*
X208624406Y-118162212D01*
X208624406Y-118162212D02*
X208563929Y-118404117D01*
X208563929Y-118404117D02*
X208503453Y-118525069D01*
X208503453Y-118525069D02*
X208442977Y-118585546D01*
X208442977Y-118585546D02*
X208322025Y-118646022D01*
X208322025Y-118646022D02*
X208201072Y-118646022D01*
X208201072Y-118646022D02*
X208080120Y-118585546D01*
X208080120Y-118585546D02*
X208019644Y-118525069D01*
X208019644Y-118525069D02*
X207959167Y-118404117D01*
X207959167Y-118404117D02*
X207898691Y-118162212D01*
X207898691Y-118162212D02*
X207898691Y-117859831D01*
X207898691Y-117859831D02*
X207959167Y-117617926D01*
X207959167Y-117617926D02*
X208019644Y-117496974D01*
X208019644Y-117496974D02*
X208080120Y-117436498D01*
X208080120Y-117436498D02*
X208201072Y-117376022D01*
X209108215Y-117496974D02*
X209168691Y-117436498D01*
X209168691Y-117436498D02*
X209289644Y-117376022D01*
X209289644Y-117376022D02*
X209592025Y-117376022D01*
X209592025Y-117376022D02*
X209712977Y-117436498D01*
X209712977Y-117436498D02*
X209773453Y-117496974D01*
X209773453Y-117496974D02*
X209833930Y-117617926D01*
X209833930Y-117617926D02*
X209833930Y-117738879D01*
X209833930Y-117738879D02*
X209773453Y-117920307D01*
X209773453Y-117920307D02*
X209047739Y-118646022D01*
X209047739Y-118646022D02*
X209833930Y-118646022D01*
X210922501Y-117799355D02*
X210922501Y-118646022D01*
X210620120Y-117315546D02*
X210317739Y-118222688D01*
X210317739Y-118222688D02*
X211103930Y-118222688D01*
X211587739Y-118162212D02*
X212555359Y-118162212D01*
X213402025Y-117376022D02*
X213522978Y-117376022D01*
X213522978Y-117376022D02*
X213643930Y-117436498D01*
X213643930Y-117436498D02*
X213704406Y-117496974D01*
X213704406Y-117496974D02*
X213764882Y-117617926D01*
X213764882Y-117617926D02*
X213825359Y-117859831D01*
X213825359Y-117859831D02*
X213825359Y-118162212D01*
X213825359Y-118162212D02*
X213764882Y-118404117D01*
X213764882Y-118404117D02*
X213704406Y-118525069D01*
X213704406Y-118525069D02*
X213643930Y-118585546D01*
X213643930Y-118585546D02*
X213522978Y-118646022D01*
X213522978Y-118646022D02*
X213402025Y-118646022D01*
X213402025Y-118646022D02*
X213281073Y-118585546D01*
X213281073Y-118585546D02*
X213220597Y-118525069D01*
X213220597Y-118525069D02*
X213160120Y-118404117D01*
X213160120Y-118404117D02*
X213099644Y-118162212D01*
X213099644Y-118162212D02*
X213099644Y-117859831D01*
X213099644Y-117859831D02*
X213160120Y-117617926D01*
X213160120Y-117617926D02*
X213220597Y-117496974D01*
X213220597Y-117496974D02*
X213281073Y-117436498D01*
X213281073Y-117436498D02*
X213402025Y-117376022D01*
X214974406Y-117376022D02*
X214369644Y-117376022D01*
X214369644Y-117376022D02*
X214309168Y-117980784D01*
X214309168Y-117980784D02*
X214369644Y-117920307D01*
X214369644Y-117920307D02*
X214490597Y-117859831D01*
X214490597Y-117859831D02*
X214792978Y-117859831D01*
X214792978Y-117859831D02*
X214913930Y-117920307D01*
X214913930Y-117920307D02*
X214974406Y-117980784D01*
X214974406Y-117980784D02*
X215034883Y-118101736D01*
X215034883Y-118101736D02*
X215034883Y-118404117D01*
X215034883Y-118404117D02*
X214974406Y-118525069D01*
X214974406Y-118525069D02*
X214913930Y-118585546D01*
X214913930Y-118585546D02*
X214792978Y-118646022D01*
X214792978Y-118646022D02*
X214490597Y-118646022D01*
X214490597Y-118646022D02*
X214369644Y-118585546D01*
X214369644Y-118585546D02*
X214309168Y-118525069D01*
X206749643Y-120025413D02*
X207172977Y-120025413D01*
X207354405Y-120690651D02*
X206749643Y-120690651D01*
X206749643Y-120690651D02*
X206749643Y-119420651D01*
X206749643Y-119420651D02*
X207354405Y-119420651D01*
X207898691Y-120569698D02*
X207959168Y-120630175D01*
X207959168Y-120630175D02*
X207898691Y-120690651D01*
X207898691Y-120690651D02*
X207838215Y-120630175D01*
X207838215Y-120630175D02*
X207898691Y-120569698D01*
X207898691Y-120569698D02*
X207898691Y-120690651D01*
X209471072Y-120690651D02*
X209471072Y-119420651D01*
X209471072Y-120025413D02*
X210196787Y-120025413D01*
X210196787Y-120690651D02*
X210196787Y-119420651D01*
X211345834Y-120690651D02*
X211345834Y-120025413D01*
X211345834Y-120025413D02*
X211285358Y-119904460D01*
X211285358Y-119904460D02*
X211164406Y-119843984D01*
X211164406Y-119843984D02*
X210922501Y-119843984D01*
X210922501Y-119843984D02*
X210801548Y-119904460D01*
X211345834Y-120630175D02*
X211224882Y-120690651D01*
X211224882Y-120690651D02*
X210922501Y-120690651D01*
X210922501Y-120690651D02*
X210801548Y-120630175D01*
X210801548Y-120630175D02*
X210741072Y-120509222D01*
X210741072Y-120509222D02*
X210741072Y-120388270D01*
X210741072Y-120388270D02*
X210801548Y-120267317D01*
X210801548Y-120267317D02*
X210922501Y-120206841D01*
X210922501Y-120206841D02*
X211224882Y-120206841D01*
X211224882Y-120206841D02*
X211345834Y-120146365D01*
X211829644Y-119843984D02*
X212494882Y-119843984D01*
X212494882Y-119843984D02*
X211829644Y-120690651D01*
X211829644Y-120690651D02*
X212494882Y-120690651D01*
X213462501Y-120630175D02*
X213341549Y-120690651D01*
X213341549Y-120690651D02*
X213099644Y-120690651D01*
X213099644Y-120690651D02*
X212978691Y-120630175D01*
X212978691Y-120630175D02*
X212918215Y-120509222D01*
X212918215Y-120509222D02*
X212918215Y-120025413D01*
X212918215Y-120025413D02*
X212978691Y-119904460D01*
X212978691Y-119904460D02*
X213099644Y-119843984D01*
X213099644Y-119843984D02*
X213341549Y-119843984D01*
X213341549Y-119843984D02*
X213462501Y-119904460D01*
X213462501Y-119904460D02*
X213522977Y-120025413D01*
X213522977Y-120025413D02*
X213522977Y-120146365D01*
X213522977Y-120146365D02*
X212918215Y-120267317D01*
X214067262Y-119843984D02*
X214067262Y-120690651D01*
X214067262Y-119964936D02*
X214127739Y-119904460D01*
X214127739Y-119904460D02*
X214248691Y-119843984D01*
X214248691Y-119843984D02*
X214430120Y-119843984D01*
X214430120Y-119843984D02*
X214551072Y-119904460D01*
X214551072Y-119904460D02*
X214611548Y-120025413D01*
X214611548Y-120025413D02*
X214611548Y-120690651D01*
D36*
X174168255Y-109226924D02*
X173442541Y-109226924D01*
X173442541Y-109226924D02*
X173369969Y-109952638D01*
X173369969Y-109952638D02*
X173442541Y-109880067D01*
X173442541Y-109880067D02*
X173587684Y-109807495D01*
X173587684Y-109807495D02*
X173950541Y-109807495D01*
X173950541Y-109807495D02*
X174095684Y-109880067D01*
X174095684Y-109880067D02*
X174168255Y-109952638D01*
X174168255Y-109952638D02*
X174240826Y-110097781D01*
X174240826Y-110097781D02*
X174240826Y-110460638D01*
X174240826Y-110460638D02*
X174168255Y-110605781D01*
X174168255Y-110605781D02*
X174095684Y-110678353D01*
X174095684Y-110678353D02*
X173950541Y-110750924D01*
X173950541Y-110750924D02*
X173587684Y-110750924D01*
X173587684Y-110750924D02*
X173442541Y-110678353D01*
X173442541Y-110678353D02*
X173369969Y-110605781D01*
X174893970Y-110605781D02*
X174966541Y-110678353D01*
X174966541Y-110678353D02*
X174893970Y-110750924D01*
X174893970Y-110750924D02*
X174821398Y-110678353D01*
X174821398Y-110678353D02*
X174893970Y-110605781D01*
X174893970Y-110605781D02*
X174893970Y-110750924D01*
X175909969Y-109226924D02*
X176055112Y-109226924D01*
X176055112Y-109226924D02*
X176200255Y-109299495D01*
X176200255Y-109299495D02*
X176272827Y-109372067D01*
X176272827Y-109372067D02*
X176345398Y-109517210D01*
X176345398Y-109517210D02*
X176417969Y-109807495D01*
X176417969Y-109807495D02*
X176417969Y-110170353D01*
X176417969Y-110170353D02*
X176345398Y-110460638D01*
X176345398Y-110460638D02*
X176272827Y-110605781D01*
X176272827Y-110605781D02*
X176200255Y-110678353D01*
X176200255Y-110678353D02*
X176055112Y-110750924D01*
X176055112Y-110750924D02*
X175909969Y-110750924D01*
X175909969Y-110750924D02*
X175764827Y-110678353D01*
X175764827Y-110678353D02*
X175692255Y-110605781D01*
X175692255Y-110605781D02*
X175619684Y-110460638D01*
X175619684Y-110460638D02*
X175547112Y-110170353D01*
X175547112Y-110170353D02*
X175547112Y-109807495D01*
X175547112Y-109807495D02*
X175619684Y-109517210D01*
X175619684Y-109517210D02*
X175692255Y-109372067D01*
X175692255Y-109372067D02*
X175764827Y-109299495D01*
X175764827Y-109299495D02*
X175909969Y-109226924D01*
X181153255Y-111004924D02*
X180427541Y-111004924D01*
X180427541Y-111004924D02*
X180354969Y-111730638D01*
X180354969Y-111730638D02*
X180427541Y-111658067D01*
X180427541Y-111658067D02*
X180572684Y-111585495D01*
X180572684Y-111585495D02*
X180935541Y-111585495D01*
X180935541Y-111585495D02*
X181080684Y-111658067D01*
X181080684Y-111658067D02*
X181153255Y-111730638D01*
X181153255Y-111730638D02*
X181225826Y-111875781D01*
X181225826Y-111875781D02*
X181225826Y-112238638D01*
X181225826Y-112238638D02*
X181153255Y-112383781D01*
X181153255Y-112383781D02*
X181080684Y-112456353D01*
X181080684Y-112456353D02*
X180935541Y-112528924D01*
X180935541Y-112528924D02*
X180572684Y-112528924D01*
X180572684Y-112528924D02*
X180427541Y-112456353D01*
X180427541Y-112456353D02*
X180354969Y-112383781D01*
X181878970Y-112383781D02*
X181951541Y-112456353D01*
X181951541Y-112456353D02*
X181878970Y-112528924D01*
X181878970Y-112528924D02*
X181806398Y-112456353D01*
X181806398Y-112456353D02*
X181878970Y-112383781D01*
X181878970Y-112383781D02*
X181878970Y-112528924D01*
X182894969Y-111004924D02*
X183040112Y-111004924D01*
X183040112Y-111004924D02*
X183185255Y-111077495D01*
X183185255Y-111077495D02*
X183257827Y-111150067D01*
X183257827Y-111150067D02*
X183330398Y-111295210D01*
X183330398Y-111295210D02*
X183402969Y-111585495D01*
X183402969Y-111585495D02*
X183402969Y-111948353D01*
X183402969Y-111948353D02*
X183330398Y-112238638D01*
X183330398Y-112238638D02*
X183257827Y-112383781D01*
X183257827Y-112383781D02*
X183185255Y-112456353D01*
X183185255Y-112456353D02*
X183040112Y-112528924D01*
X183040112Y-112528924D02*
X182894969Y-112528924D01*
X182894969Y-112528924D02*
X182749827Y-112456353D01*
X182749827Y-112456353D02*
X182677255Y-112383781D01*
X182677255Y-112383781D02*
X182604684Y-112238638D01*
X182604684Y-112238638D02*
X182532112Y-111948353D01*
X182532112Y-111948353D02*
X182532112Y-111585495D01*
X182532112Y-111585495D02*
X182604684Y-111295210D01*
X182604684Y-111295210D02*
X182677255Y-111150067D01*
X182677255Y-111150067D02*
X182749827Y-111077495D01*
X182749827Y-111077495D02*
X182894969Y-111004924D01*
X172691999Y-85480464D02*
X172691999Y-86569035D01*
X172691999Y-86569035D02*
X172619428Y-86786750D01*
X172619428Y-86786750D02*
X172474285Y-86931893D01*
X172474285Y-86931893D02*
X172256571Y-87004464D01*
X172256571Y-87004464D02*
X172111428Y-87004464D01*
X174070857Y-85480464D02*
X173780571Y-85480464D01*
X173780571Y-85480464D02*
X173635428Y-85553035D01*
X173635428Y-85553035D02*
X173562857Y-85625607D01*
X173562857Y-85625607D02*
X173417714Y-85843321D01*
X173417714Y-85843321D02*
X173345142Y-86133607D01*
X173345142Y-86133607D02*
X173345142Y-86714178D01*
X173345142Y-86714178D02*
X173417714Y-86859321D01*
X173417714Y-86859321D02*
X173490285Y-86931893D01*
X173490285Y-86931893D02*
X173635428Y-87004464D01*
X173635428Y-87004464D02*
X173925714Y-87004464D01*
X173925714Y-87004464D02*
X174070857Y-86931893D01*
X174070857Y-86931893D02*
X174143428Y-86859321D01*
X174143428Y-86859321D02*
X174215999Y-86714178D01*
X174215999Y-86714178D02*
X174215999Y-86351321D01*
X174215999Y-86351321D02*
X174143428Y-86206178D01*
X174143428Y-86206178D02*
X174070857Y-86133607D01*
X174070857Y-86133607D02*
X173925714Y-86061035D01*
X173925714Y-86061035D02*
X173635428Y-86061035D01*
X173635428Y-86061035D02*
X173490285Y-86133607D01*
X173490285Y-86133607D02*
X173417714Y-86206178D01*
X173417714Y-86206178D02*
X173345142Y-86351321D01*
X185265000Y-102988321D02*
X185192428Y-103060893D01*
X185192428Y-103060893D02*
X184974714Y-103133464D01*
X184974714Y-103133464D02*
X184829571Y-103133464D01*
X184829571Y-103133464D02*
X184611857Y-103060893D01*
X184611857Y-103060893D02*
X184466714Y-102915750D01*
X184466714Y-102915750D02*
X184394143Y-102770607D01*
X184394143Y-102770607D02*
X184321571Y-102480321D01*
X184321571Y-102480321D02*
X184321571Y-102262607D01*
X184321571Y-102262607D02*
X184394143Y-101972321D01*
X184394143Y-101972321D02*
X184466714Y-101827178D01*
X184466714Y-101827178D02*
X184611857Y-101682035D01*
X184611857Y-101682035D02*
X184829571Y-101609464D01*
X184829571Y-101609464D02*
X184974714Y-101609464D01*
X184974714Y-101609464D02*
X185192428Y-101682035D01*
X185192428Y-101682035D02*
X185265000Y-101754607D01*
X186716428Y-103133464D02*
X185845571Y-103133464D01*
X186281000Y-103133464D02*
X186281000Y-101609464D01*
X186281000Y-101609464D02*
X186135857Y-101827178D01*
X186135857Y-101827178D02*
X185990714Y-101972321D01*
X185990714Y-101972321D02*
X185845571Y-102044893D01*
X181291999Y-93237464D02*
X181291999Y-94326035D01*
X181291999Y-94326035D02*
X181219428Y-94543750D01*
X181219428Y-94543750D02*
X181074285Y-94688893D01*
X181074285Y-94688893D02*
X180856571Y-94761464D01*
X180856571Y-94761464D02*
X180711428Y-94761464D01*
X182235428Y-93890607D02*
X182090285Y-93818035D01*
X182090285Y-93818035D02*
X182017714Y-93745464D01*
X182017714Y-93745464D02*
X181945142Y-93600321D01*
X181945142Y-93600321D02*
X181945142Y-93527750D01*
X181945142Y-93527750D02*
X182017714Y-93382607D01*
X182017714Y-93382607D02*
X182090285Y-93310035D01*
X182090285Y-93310035D02*
X182235428Y-93237464D01*
X182235428Y-93237464D02*
X182525714Y-93237464D01*
X182525714Y-93237464D02*
X182670857Y-93310035D01*
X182670857Y-93310035D02*
X182743428Y-93382607D01*
X182743428Y-93382607D02*
X182815999Y-93527750D01*
X182815999Y-93527750D02*
X182815999Y-93600321D01*
X182815999Y-93600321D02*
X182743428Y-93745464D01*
X182743428Y-93745464D02*
X182670857Y-93818035D01*
X182670857Y-93818035D02*
X182525714Y-93890607D01*
X182525714Y-93890607D02*
X182235428Y-93890607D01*
X182235428Y-93890607D02*
X182090285Y-93963178D01*
X182090285Y-93963178D02*
X182017714Y-94035750D01*
X182017714Y-94035750D02*
X181945142Y-94180893D01*
X181945142Y-94180893D02*
X181945142Y-94471178D01*
X181945142Y-94471178D02*
X182017714Y-94616321D01*
X182017714Y-94616321D02*
X182090285Y-94688893D01*
X182090285Y-94688893D02*
X182235428Y-94761464D01*
X182235428Y-94761464D02*
X182525714Y-94761464D01*
X182525714Y-94761464D02*
X182670857Y-94688893D01*
X182670857Y-94688893D02*
X182743428Y-94616321D01*
X182743428Y-94616321D02*
X182815999Y-94471178D01*
X182815999Y-94471178D02*
X182815999Y-94180893D01*
X182815999Y-94180893D02*
X182743428Y-94035750D01*
X182743428Y-94035750D02*
X182670857Y-93963178D01*
X182670857Y-93963178D02*
X182525714Y-93890607D01*
X195679000Y-102988321D02*
X195606428Y-103060893D01*
X195606428Y-103060893D02*
X195388714Y-103133464D01*
X195388714Y-103133464D02*
X195243571Y-103133464D01*
X195243571Y-103133464D02*
X195025857Y-103060893D01*
X195025857Y-103060893D02*
X194880714Y-102915750D01*
X194880714Y-102915750D02*
X194808143Y-102770607D01*
X194808143Y-102770607D02*
X194735571Y-102480321D01*
X194735571Y-102480321D02*
X194735571Y-102262607D01*
X194735571Y-102262607D02*
X194808143Y-101972321D01*
X194808143Y-101972321D02*
X194880714Y-101827178D01*
X194880714Y-101827178D02*
X195025857Y-101682035D01*
X195025857Y-101682035D02*
X195243571Y-101609464D01*
X195243571Y-101609464D02*
X195388714Y-101609464D01*
X195388714Y-101609464D02*
X195606428Y-101682035D01*
X195606428Y-101682035D02*
X195679000Y-101754607D01*
X196259571Y-101754607D02*
X196332143Y-101682035D01*
X196332143Y-101682035D02*
X196477286Y-101609464D01*
X196477286Y-101609464D02*
X196840143Y-101609464D01*
X196840143Y-101609464D02*
X196985286Y-101682035D01*
X196985286Y-101682035D02*
X197057857Y-101754607D01*
X197057857Y-101754607D02*
X197130428Y-101899750D01*
X197130428Y-101899750D02*
X197130428Y-102044893D01*
X197130428Y-102044893D02*
X197057857Y-102262607D01*
X197057857Y-102262607D02*
X196187000Y-103133464D01*
X196187000Y-103133464D02*
X197130428Y-103133464D01*
X159677964Y-112675500D02*
X160766535Y-112675500D01*
X160766535Y-112675500D02*
X160984250Y-112748071D01*
X160984250Y-112748071D02*
X161129393Y-112893214D01*
X161129393Y-112893214D02*
X161201964Y-113110928D01*
X161201964Y-113110928D02*
X161201964Y-113256071D01*
X159677964Y-112094928D02*
X159677964Y-111078928D01*
X159677964Y-111078928D02*
X161201964Y-111732071D01*
X180184999Y-113420464D02*
X180184999Y-114509035D01*
X180184999Y-114509035D02*
X180112428Y-114726750D01*
X180112428Y-114726750D02*
X179967285Y-114871893D01*
X179967285Y-114871893D02*
X179749571Y-114944464D01*
X179749571Y-114944464D02*
X179604428Y-114944464D01*
X181708999Y-114944464D02*
X180838142Y-114944464D01*
X181273571Y-114944464D02*
X181273571Y-113420464D01*
X181273571Y-113420464D02*
X181128428Y-113638178D01*
X181128428Y-113638178D02*
X180983285Y-113783321D01*
X180983285Y-113783321D02*
X180838142Y-113855893D01*
X197964999Y-113547464D02*
X197964999Y-114636035D01*
X197964999Y-114636035D02*
X197892428Y-114853750D01*
X197892428Y-114853750D02*
X197747285Y-114998893D01*
X197747285Y-114998893D02*
X197529571Y-115071464D01*
X197529571Y-115071464D02*
X197384428Y-115071464D01*
X198618142Y-113692607D02*
X198690714Y-113620035D01*
X198690714Y-113620035D02*
X198835857Y-113547464D01*
X198835857Y-113547464D02*
X199198714Y-113547464D01*
X199198714Y-113547464D02*
X199343857Y-113620035D01*
X199343857Y-113620035D02*
X199416428Y-113692607D01*
X199416428Y-113692607D02*
X199488999Y-113837750D01*
X199488999Y-113837750D02*
X199488999Y-113982893D01*
X199488999Y-113982893D02*
X199416428Y-114200607D01*
X199416428Y-114200607D02*
X198545571Y-115071464D01*
X198545571Y-115071464D02*
X199488999Y-115071464D01*
X198491143Y-112785464D02*
X198491143Y-111261464D01*
X198491143Y-111261464D02*
X198854000Y-111261464D01*
X198854000Y-111261464D02*
X199071714Y-111334035D01*
X199071714Y-111334035D02*
X199216857Y-111479178D01*
X199216857Y-111479178D02*
X199289428Y-111624321D01*
X199289428Y-111624321D02*
X199362000Y-111914607D01*
X199362000Y-111914607D02*
X199362000Y-112132321D01*
X199362000Y-112132321D02*
X199289428Y-112422607D01*
X199289428Y-112422607D02*
X199216857Y-112567750D01*
X199216857Y-112567750D02*
X199071714Y-112712893D01*
X199071714Y-112712893D02*
X198854000Y-112785464D01*
X198854000Y-112785464D02*
X198491143Y-112785464D01*
X199942571Y-111406607D02*
X200015143Y-111334035D01*
X200015143Y-111334035D02*
X200160286Y-111261464D01*
X200160286Y-111261464D02*
X200523143Y-111261464D01*
X200523143Y-111261464D02*
X200668286Y-111334035D01*
X200668286Y-111334035D02*
X200740857Y-111406607D01*
X200740857Y-111406607D02*
X200813428Y-111551750D01*
X200813428Y-111551750D02*
X200813428Y-111696893D01*
X200813428Y-111696893D02*
X200740857Y-111914607D01*
X200740857Y-111914607D02*
X199870000Y-112785464D01*
X199870000Y-112785464D02*
X200813428Y-112785464D01*
X177517999Y-97418464D02*
X177517999Y-98507035D01*
X177517999Y-98507035D02*
X177445428Y-98724750D01*
X177445428Y-98724750D02*
X177300285Y-98869893D01*
X177300285Y-98869893D02*
X177082571Y-98942464D01*
X177082571Y-98942464D02*
X176937428Y-98942464D01*
X178316285Y-98942464D02*
X178606571Y-98942464D01*
X178606571Y-98942464D02*
X178751714Y-98869893D01*
X178751714Y-98869893D02*
X178824285Y-98797321D01*
X178824285Y-98797321D02*
X178969428Y-98579607D01*
X178969428Y-98579607D02*
X179041999Y-98289321D01*
X179041999Y-98289321D02*
X179041999Y-97708750D01*
X179041999Y-97708750D02*
X178969428Y-97563607D01*
X178969428Y-97563607D02*
X178896857Y-97491035D01*
X178896857Y-97491035D02*
X178751714Y-97418464D01*
X178751714Y-97418464D02*
X178461428Y-97418464D01*
X178461428Y-97418464D02*
X178316285Y-97491035D01*
X178316285Y-97491035D02*
X178243714Y-97563607D01*
X178243714Y-97563607D02*
X178171142Y-97708750D01*
X178171142Y-97708750D02*
X178171142Y-98071607D01*
X178171142Y-98071607D02*
X178243714Y-98216750D01*
X178243714Y-98216750D02*
X178316285Y-98289321D01*
X178316285Y-98289321D02*
X178461428Y-98361893D01*
X178461428Y-98361893D02*
X178751714Y-98361893D01*
X178751714Y-98361893D02*
X178896857Y-98289321D01*
X178896857Y-98289321D02*
X178969428Y-98216750D01*
X178969428Y-98216750D02*
X179041999Y-98071607D01*
X188929857Y-112912464D02*
X188929857Y-114146178D01*
X188929857Y-114146178D02*
X189002428Y-114291321D01*
X189002428Y-114291321D02*
X189075000Y-114363893D01*
X189075000Y-114363893D02*
X189220142Y-114436464D01*
X189220142Y-114436464D02*
X189510428Y-114436464D01*
X189510428Y-114436464D02*
X189655571Y-114363893D01*
X189655571Y-114363893D02*
X189728142Y-114291321D01*
X189728142Y-114291321D02*
X189800714Y-114146178D01*
X189800714Y-114146178D02*
X189800714Y-112912464D01*
X191324713Y-114436464D02*
X190453856Y-114436464D01*
X190889285Y-114436464D02*
X190889285Y-112912464D01*
X190889285Y-112912464D02*
X190744142Y-113130178D01*
X190744142Y-113130178D02*
X190598999Y-113275321D01*
X190598999Y-113275321D02*
X190453856Y-113347893D01*
X184775143Y-112531464D02*
X184775143Y-111007464D01*
X184775143Y-111007464D02*
X185138000Y-111007464D01*
X185138000Y-111007464D02*
X185355714Y-111080035D01*
X185355714Y-111080035D02*
X185500857Y-111225178D01*
X185500857Y-111225178D02*
X185573428Y-111370321D01*
X185573428Y-111370321D02*
X185646000Y-111660607D01*
X185646000Y-111660607D02*
X185646000Y-111878321D01*
X185646000Y-111878321D02*
X185573428Y-112168607D01*
X185573428Y-112168607D02*
X185500857Y-112313750D01*
X185500857Y-112313750D02*
X185355714Y-112458893D01*
X185355714Y-112458893D02*
X185138000Y-112531464D01*
X185138000Y-112531464D02*
X184775143Y-112531464D01*
X187097428Y-112531464D02*
X186226571Y-112531464D01*
X186662000Y-112531464D02*
X186662000Y-111007464D01*
X186662000Y-111007464D02*
X186516857Y-111225178D01*
X186516857Y-111225178D02*
X186371714Y-111370321D01*
X186371714Y-111370321D02*
X186226571Y-111442893D01*
X181836000Y-103133464D02*
X181328000Y-102407750D01*
X180965143Y-103133464D02*
X180965143Y-101609464D01*
X180965143Y-101609464D02*
X181545714Y-101609464D01*
X181545714Y-101609464D02*
X181690857Y-101682035D01*
X181690857Y-101682035D02*
X181763428Y-101754607D01*
X181763428Y-101754607D02*
X181836000Y-101899750D01*
X181836000Y-101899750D02*
X181836000Y-102117464D01*
X181836000Y-102117464D02*
X181763428Y-102262607D01*
X181763428Y-102262607D02*
X181690857Y-102335178D01*
X181690857Y-102335178D02*
X181545714Y-102407750D01*
X181545714Y-102407750D02*
X180965143Y-102407750D01*
X183287428Y-103133464D02*
X182416571Y-103133464D01*
X182852000Y-103133464D02*
X182852000Y-101609464D01*
X182852000Y-101609464D02*
X182706857Y-101827178D01*
X182706857Y-101827178D02*
X182561714Y-101972321D01*
X182561714Y-101972321D02*
X182416571Y-102044893D01*
X199362000Y-103133464D02*
X198854000Y-102407750D01*
X198491143Y-103133464D02*
X198491143Y-101609464D01*
X198491143Y-101609464D02*
X199071714Y-101609464D01*
X199071714Y-101609464D02*
X199216857Y-101682035D01*
X199216857Y-101682035D02*
X199289428Y-101754607D01*
X199289428Y-101754607D02*
X199362000Y-101899750D01*
X199362000Y-101899750D02*
X199362000Y-102117464D01*
X199362000Y-102117464D02*
X199289428Y-102262607D01*
X199289428Y-102262607D02*
X199216857Y-102335178D01*
X199216857Y-102335178D02*
X199071714Y-102407750D01*
X199071714Y-102407750D02*
X198491143Y-102407750D01*
X199942571Y-101754607D02*
X200015143Y-101682035D01*
X200015143Y-101682035D02*
X200160286Y-101609464D01*
X200160286Y-101609464D02*
X200523143Y-101609464D01*
X200523143Y-101609464D02*
X200668286Y-101682035D01*
X200668286Y-101682035D02*
X200740857Y-101754607D01*
X200740857Y-101754607D02*
X200813428Y-101899750D01*
X200813428Y-101899750D02*
X200813428Y-102044893D01*
X200813428Y-102044893D02*
X200740857Y-102262607D01*
X200740857Y-102262607D02*
X199870000Y-103133464D01*
X199870000Y-103133464D02*
X200813428Y-103133464D01*
X202028999Y-91703464D02*
X202028999Y-92792035D01*
X202028999Y-92792035D02*
X201956428Y-93009750D01*
X201956428Y-93009750D02*
X201811285Y-93154893D01*
X201811285Y-93154893D02*
X201593571Y-93227464D01*
X201593571Y-93227464D02*
X201448428Y-93227464D01*
X203407857Y-92211464D02*
X203407857Y-93227464D01*
X203044999Y-91630893D02*
X202682142Y-92719464D01*
X202682142Y-92719464D02*
X203625571Y-92719464D01*
X201774999Y-107959464D02*
X201774999Y-109048035D01*
X201774999Y-109048035D02*
X201702428Y-109265750D01*
X201702428Y-109265750D02*
X201557285Y-109410893D01*
X201557285Y-109410893D02*
X201339571Y-109483464D01*
X201339571Y-109483464D02*
X201194428Y-109483464D01*
X202355571Y-107959464D02*
X203298999Y-107959464D01*
X203298999Y-107959464D02*
X202790999Y-108540035D01*
X202790999Y-108540035D02*
X203008714Y-108540035D01*
X203008714Y-108540035D02*
X203153857Y-108612607D01*
X203153857Y-108612607D02*
X203226428Y-108685178D01*
X203226428Y-108685178D02*
X203298999Y-108830321D01*
X203298999Y-108830321D02*
X203298999Y-109193178D01*
X203298999Y-109193178D02*
X203226428Y-109338321D01*
X203226428Y-109338321D02*
X203153857Y-109410893D01*
X203153857Y-109410893D02*
X203008714Y-109483464D01*
X203008714Y-109483464D02*
X202573285Y-109483464D01*
X202573285Y-109483464D02*
X202428142Y-109410893D01*
X202428142Y-109410893D02*
X202355571Y-109338321D01*
X205965999Y-84972464D02*
X205965999Y-86061035D01*
X205965999Y-86061035D02*
X205893428Y-86278750D01*
X205893428Y-86278750D02*
X205748285Y-86423893D01*
X205748285Y-86423893D02*
X205530571Y-86496464D01*
X205530571Y-86496464D02*
X205385428Y-86496464D01*
X207417428Y-84972464D02*
X206691714Y-84972464D01*
X206691714Y-84972464D02*
X206619142Y-85698178D01*
X206619142Y-85698178D02*
X206691714Y-85625607D01*
X206691714Y-85625607D02*
X206836857Y-85553035D01*
X206836857Y-85553035D02*
X207199714Y-85553035D01*
X207199714Y-85553035D02*
X207344857Y-85625607D01*
X207344857Y-85625607D02*
X207417428Y-85698178D01*
X207417428Y-85698178D02*
X207489999Y-85843321D01*
X207489999Y-85843321D02*
X207489999Y-86206178D01*
X207489999Y-86206178D02*
X207417428Y-86351321D01*
X207417428Y-86351321D02*
X207344857Y-86423893D01*
X207344857Y-86423893D02*
X207199714Y-86496464D01*
X207199714Y-86496464D02*
X206836857Y-86496464D01*
X206836857Y-86496464D02*
X206691714Y-86423893D01*
X206691714Y-86423893D02*
X206619142Y-86351321D01*
D38*
%TO.C,J6*%
X175220000Y-69900000D02*
X186420000Y-69900000D01*
X175220000Y-87900000D02*
X175220000Y-69900000D01*
X186420000Y-69900000D02*
X186420000Y-87900000D01*
X186420000Y-87900000D02*
X175220000Y-87900000D01*
D39*
%TO.C,C1*%
X184022000Y-105225748D02*
X184022000Y-105748252D01*
X185492000Y-105225748D02*
X185492000Y-105748252D01*
%TO.C,J8*%
X183981000Y-91916000D02*
X185091000Y-91916000D01*
X183981000Y-92676000D02*
X183981000Y-91916000D01*
X183981000Y-93436000D02*
X183981000Y-97181000D01*
X183981000Y-93436000D02*
X184527529Y-93436000D01*
X183981000Y-97181000D02*
X184783470Y-97181000D01*
X185398530Y-97181000D02*
X186201000Y-97181000D01*
X185654471Y-93436000D02*
X186201000Y-93436000D01*
X186201000Y-93436000D02*
X186201000Y-97181000D01*
%TO.C,C2*%
X195265000Y-105413748D02*
X195265000Y-105936252D01*
X196735000Y-105413748D02*
X196735000Y-105936252D01*
D40*
%TO.C,J7*%
X162392500Y-91482500D02*
X162392500Y-114342500D01*
X162392500Y-91482500D02*
X167722500Y-91482500D01*
X167722500Y-91482500D02*
X167722500Y-114342500D01*
X167722500Y-114342500D02*
X162392500Y-114342500D01*
X170362500Y-114992500D02*
G75*
G02*
X170162500Y-114992500I-100000J0D01*
G01*
X170162500Y-114992500D02*
G75*
G02*
X170362500Y-114992500I100000J0D01*
G01*
D38*
%TO.C,J1*%
X175490000Y-115640000D02*
X186690000Y-115640000D01*
X175490000Y-133640000D02*
X175490000Y-115640000D01*
X186690000Y-115640000D02*
X186690000Y-133640000D01*
X186690000Y-133640000D02*
X175490000Y-133640000D01*
%TO.C,J2*%
X193205000Y-115750000D02*
X204405000Y-115750000D01*
X193205000Y-133750000D02*
X193205000Y-115750000D01*
X204405000Y-115750000D02*
X204405000Y-133750000D01*
X204405000Y-133750000D02*
X193205000Y-133750000D01*
D39*
%TO.C,D2*%
X195470000Y-108591000D02*
X195470000Y-110511000D01*
X195470000Y-110511000D02*
X198330000Y-110511000D01*
X198330000Y-108591000D02*
X195470000Y-108591000D01*
%TO.C,J9*%
X177077000Y-109805000D02*
X177077000Y-99585000D01*
X179737000Y-99585000D02*
X177077000Y-99585000D01*
X179737000Y-109805000D02*
X177077000Y-109805000D01*
X179737000Y-109805000D02*
X179737000Y-99585000D01*
X179737000Y-111075000D02*
X179737000Y-112405000D01*
X179737000Y-112405000D02*
X178407000Y-112405000D01*
%TO.C,U1*%
X186590000Y-106150000D02*
X186590000Y-109910000D01*
X186590000Y-109910000D02*
X187850000Y-109910000D01*
X193410000Y-106150000D02*
X193410000Y-109910000D01*
X193410000Y-109910000D02*
X192150000Y-109910000D01*
X193640000Y-105110000D02*
X193310000Y-104870000D01*
X193640000Y-104630000D01*
X193640000Y-105110000D01*
G36*
X193640000Y-105110000D02*
G01*
X193310000Y-104870000D01*
X193640000Y-104630000D01*
X193640000Y-105110000D01*
G37*
%TO.C,D1*%
X182360000Y-110511000D02*
X185220000Y-110511000D01*
X185220000Y-108591000D02*
X182360000Y-108591000D01*
X185220000Y-110511000D02*
X185220000Y-108591000D01*
%TO.C,R1*%
X181482000Y-105259936D02*
X181482000Y-105714064D01*
X182952000Y-105259936D02*
X182952000Y-105714064D01*
%TO.C,R2*%
X197992000Y-105374248D02*
X197992000Y-105896752D01*
X199462000Y-105374248D02*
X199462000Y-105896752D01*
D38*
%TO.C,J4*%
X204225000Y-89310000D02*
X222225000Y-89310000D01*
X204225000Y-100510000D02*
X204225000Y-89310000D01*
X222225000Y-89310000D02*
X222225000Y-100510000D01*
X222225000Y-100510000D02*
X204225000Y-100510000D01*
%TO.C,J3*%
X204225000Y-102940000D02*
X222225000Y-102940000D01*
X204225000Y-114140000D02*
X204225000Y-102940000D01*
X222225000Y-102940000D02*
X222225000Y-114140000D01*
X222225000Y-114140000D02*
X204225000Y-114140000D01*
%TO.C,J5*%
X193407500Y-69900000D02*
X204607500Y-69900000D01*
X193407500Y-87900000D02*
X193407500Y-69900000D01*
X204607500Y-69900000D02*
X204607500Y-87900000D01*
X204607500Y-87900000D02*
X193407500Y-87900000D01*
%TD*%
D35*
X178986667Y-70289219D02*
X179081905Y-70289219D01*
X179081905Y-70289219D02*
X179177143Y-70336838D01*
X179177143Y-70336838D02*
X179224762Y-70384457D01*
X179224762Y-70384457D02*
X179272381Y-70479695D01*
X179272381Y-70479695D02*
X179320000Y-70670171D01*
X179320000Y-70670171D02*
X179320000Y-70908266D01*
X179320000Y-70908266D02*
X179272381Y-71098742D01*
X179272381Y-71098742D02*
X179224762Y-71193980D01*
X179224762Y-71193980D02*
X179177143Y-71241600D01*
X179177143Y-71241600D02*
X179081905Y-71289219D01*
X179081905Y-71289219D02*
X178986667Y-71289219D01*
X178986667Y-71289219D02*
X178891429Y-71241600D01*
X178891429Y-71241600D02*
X178843810Y-71193980D01*
X178843810Y-71193980D02*
X178796191Y-71098742D01*
X178796191Y-71098742D02*
X178748572Y-70908266D01*
X178748572Y-70908266D02*
X178748572Y-70670171D01*
X178748572Y-70670171D02*
X178796191Y-70479695D01*
X178796191Y-70479695D02*
X178843810Y-70384457D01*
X178843810Y-70384457D02*
X178891429Y-70336838D01*
X178891429Y-70336838D02*
X178986667Y-70289219D01*
X179748572Y-71193980D02*
X179796191Y-71241600D01*
X179796191Y-71241600D02*
X179748572Y-71289219D01*
X179748572Y-71289219D02*
X179700953Y-71241600D01*
X179700953Y-71241600D02*
X179748572Y-71193980D01*
X179748572Y-71193980D02*
X179748572Y-71289219D01*
X180653333Y-70622552D02*
X180653333Y-71289219D01*
X180415238Y-70241600D02*
X180177143Y-70955885D01*
X180177143Y-70955885D02*
X180796190Y-70955885D01*
X181939048Y-71289219D02*
X181939048Y-70622552D01*
X181939048Y-70289219D02*
X181891429Y-70336838D01*
X181891429Y-70336838D02*
X181939048Y-70384457D01*
X181939048Y-70384457D02*
X181986667Y-70336838D01*
X181986667Y-70336838D02*
X181939048Y-70289219D01*
X181939048Y-70289219D02*
X181939048Y-70384457D01*
X182415238Y-70622552D02*
X182415238Y-71289219D01*
X182415238Y-70717790D02*
X182462857Y-70670171D01*
X182462857Y-70670171D02*
X182558095Y-70622552D01*
X182558095Y-70622552D02*
X182700952Y-70622552D01*
X182700952Y-70622552D02*
X182796190Y-70670171D01*
X182796190Y-70670171D02*
X182843809Y-70765409D01*
X182843809Y-70765409D02*
X182843809Y-71289219D01*
X175220000Y-70400000D02*
X175220000Y-72570820D01*
X186420000Y-72570820D02*
X186420000Y-70400000D01*
X175220000Y-71984400D02*
X186420000Y-71984400D01*
X175220000Y-71984400D02*
X186420000Y-71984400D01*
X175220000Y-71984400D02*
X176346504Y-71397979D01*
X175220000Y-71984400D02*
X176346504Y-72570821D01*
X186420000Y-71984400D02*
X185293496Y-72570821D01*
X186420000Y-71984400D02*
X185293496Y-71397979D01*
X171950817Y-66412419D02*
X171379389Y-66412419D01*
X171665103Y-66412419D02*
X171665103Y-65412419D01*
X171665103Y-65412419D02*
X171569865Y-65555276D01*
X171569865Y-65555276D02*
X171474627Y-65650514D01*
X171474627Y-65650514D02*
X171379389Y-65698133D01*
X172331770Y-65507657D02*
X172379389Y-65460038D01*
X172379389Y-65460038D02*
X172474627Y-65412419D01*
X172474627Y-65412419D02*
X172712722Y-65412419D01*
X172712722Y-65412419D02*
X172807960Y-65460038D01*
X172807960Y-65460038D02*
X172855579Y-65507657D01*
X172855579Y-65507657D02*
X172903198Y-65602895D01*
X172903198Y-65602895D02*
X172903198Y-65698133D01*
X172903198Y-65698133D02*
X172855579Y-65840990D01*
X172855579Y-65840990D02*
X172284151Y-66412419D01*
X172284151Y-66412419D02*
X172903198Y-66412419D01*
X173331770Y-66317180D02*
X173379389Y-66364800D01*
X173379389Y-66364800D02*
X173331770Y-66412419D01*
X173331770Y-66412419D02*
X173284151Y-66364800D01*
X173284151Y-66364800D02*
X173331770Y-66317180D01*
X173331770Y-66317180D02*
X173331770Y-66412419D01*
X174284150Y-65412419D02*
X173807960Y-65412419D01*
X173807960Y-65412419D02*
X173760341Y-65888609D01*
X173760341Y-65888609D02*
X173807960Y-65840990D01*
X173807960Y-65840990D02*
X173903198Y-65793371D01*
X173903198Y-65793371D02*
X174141293Y-65793371D01*
X174141293Y-65793371D02*
X174236531Y-65840990D01*
X174236531Y-65840990D02*
X174284150Y-65888609D01*
X174284150Y-65888609D02*
X174331769Y-65983847D01*
X174331769Y-65983847D02*
X174331769Y-66221942D01*
X174331769Y-66221942D02*
X174284150Y-66317180D01*
X174284150Y-66317180D02*
X174236531Y-66364800D01*
X174236531Y-66364800D02*
X174141293Y-66412419D01*
X174141293Y-66412419D02*
X173903198Y-66412419D01*
X173903198Y-66412419D02*
X173807960Y-66364800D01*
X173807960Y-66364800D02*
X173760341Y-66317180D01*
X175522246Y-66412419D02*
X175522246Y-65745752D01*
X175522246Y-65840990D02*
X175569865Y-65793371D01*
X175569865Y-65793371D02*
X175665103Y-65745752D01*
X175665103Y-65745752D02*
X175807960Y-65745752D01*
X175807960Y-65745752D02*
X175903198Y-65793371D01*
X175903198Y-65793371D02*
X175950817Y-65888609D01*
X175950817Y-65888609D02*
X175950817Y-66412419D01*
X175950817Y-65888609D02*
X175998436Y-65793371D01*
X175998436Y-65793371D02*
X176093674Y-65745752D01*
X176093674Y-65745752D02*
X176236531Y-65745752D01*
X176236531Y-65745752D02*
X176331770Y-65793371D01*
X176331770Y-65793371D02*
X176379389Y-65888609D01*
X176379389Y-65888609D02*
X176379389Y-66412419D01*
X176855579Y-66412419D02*
X176855579Y-65745752D01*
X176855579Y-65840990D02*
X176903198Y-65793371D01*
X176903198Y-65793371D02*
X176998436Y-65745752D01*
X176998436Y-65745752D02*
X177141293Y-65745752D01*
X177141293Y-65745752D02*
X177236531Y-65793371D01*
X177236531Y-65793371D02*
X177284150Y-65888609D01*
X177284150Y-65888609D02*
X177284150Y-66412419D01*
X177284150Y-65888609D02*
X177331769Y-65793371D01*
X177331769Y-65793371D02*
X177427007Y-65745752D01*
X177427007Y-65745752D02*
X177569864Y-65745752D01*
X177569864Y-65745752D02*
X177665103Y-65793371D01*
X177665103Y-65793371D02*
X177712722Y-65888609D01*
X177712722Y-65888609D02*
X177712722Y-66412419D01*
X168319730Y-78919730D02*
X168319730Y-66521180D01*
X180820000Y-66521180D02*
X180820000Y-69400000D01*
X168319730Y-67107600D02*
X180820000Y-67107600D01*
X168319730Y-67107600D02*
X180820000Y-67107600D01*
X168319730Y-67107600D02*
X169446234Y-66521179D01*
X168319730Y-67107600D02*
X169446234Y-67694021D01*
X180820000Y-67107600D02*
X179693496Y-67694021D01*
X180820000Y-67107600D02*
X179693496Y-66521179D01*
X225378219Y-103558332D02*
X225378219Y-103463094D01*
X225378219Y-103463094D02*
X225425838Y-103367856D01*
X225425838Y-103367856D02*
X225473457Y-103320237D01*
X225473457Y-103320237D02*
X225568695Y-103272618D01*
X225568695Y-103272618D02*
X225759171Y-103224999D01*
X225759171Y-103224999D02*
X225997266Y-103224999D01*
X225997266Y-103224999D02*
X226187742Y-103272618D01*
X226187742Y-103272618D02*
X226282980Y-103320237D01*
X226282980Y-103320237D02*
X226330600Y-103367856D01*
X226330600Y-103367856D02*
X226378219Y-103463094D01*
X226378219Y-103463094D02*
X226378219Y-103558332D01*
X226378219Y-103558332D02*
X226330600Y-103653570D01*
X226330600Y-103653570D02*
X226282980Y-103701189D01*
X226282980Y-103701189D02*
X226187742Y-103748808D01*
X226187742Y-103748808D02*
X225997266Y-103796427D01*
X225997266Y-103796427D02*
X225759171Y-103796427D01*
X225759171Y-103796427D02*
X225568695Y-103748808D01*
X225568695Y-103748808D02*
X225473457Y-103701189D01*
X225473457Y-103701189D02*
X225425838Y-103653570D01*
X225425838Y-103653570D02*
X225378219Y-103558332D01*
X226282980Y-102796427D02*
X226330600Y-102748808D01*
X226330600Y-102748808D02*
X226378219Y-102796427D01*
X226378219Y-102796427D02*
X226330600Y-102844046D01*
X226330600Y-102844046D02*
X226282980Y-102796427D01*
X226282980Y-102796427D02*
X226378219Y-102796427D01*
X225378219Y-101844047D02*
X225378219Y-102320237D01*
X225378219Y-102320237D02*
X225854409Y-102367856D01*
X225854409Y-102367856D02*
X225806790Y-102320237D01*
X225806790Y-102320237D02*
X225759171Y-102224999D01*
X225759171Y-102224999D02*
X225759171Y-101986904D01*
X225759171Y-101986904D02*
X225806790Y-101891666D01*
X225806790Y-101891666D02*
X225854409Y-101844047D01*
X225854409Y-101844047D02*
X225949647Y-101796428D01*
X225949647Y-101796428D02*
X226187742Y-101796428D01*
X226187742Y-101796428D02*
X226282980Y-101844047D01*
X226282980Y-101844047D02*
X226330600Y-101891666D01*
X226330600Y-101891666D02*
X226378219Y-101986904D01*
X226378219Y-101986904D02*
X226378219Y-102224999D01*
X226378219Y-102224999D02*
X226330600Y-102320237D01*
X226330600Y-102320237D02*
X226282980Y-102367856D01*
X226378219Y-100605951D02*
X225711552Y-100605951D01*
X225378219Y-100605951D02*
X225425838Y-100653570D01*
X225425838Y-100653570D02*
X225473457Y-100605951D01*
X225473457Y-100605951D02*
X225425838Y-100558332D01*
X225425838Y-100558332D02*
X225378219Y-100605951D01*
X225378219Y-100605951D02*
X225473457Y-100605951D01*
X225711552Y-100129761D02*
X226378219Y-100129761D01*
X225806790Y-100129761D02*
X225759171Y-100082142D01*
X225759171Y-100082142D02*
X225711552Y-99986904D01*
X225711552Y-99986904D02*
X225711552Y-99844047D01*
X225711552Y-99844047D02*
X225759171Y-99748809D01*
X225759171Y-99748809D02*
X225854409Y-99701190D01*
X225854409Y-99701190D02*
X226378219Y-99701190D01*
X222725000Y-94910000D02*
X227659820Y-94910000D01*
X227659820Y-108540000D02*
X222725000Y-108540000D01*
X227073400Y-94910000D02*
X227073400Y-108540000D01*
X227073400Y-94910000D02*
X227073400Y-108540000D01*
X227073400Y-94910000D02*
X227659821Y-96036504D01*
X227073400Y-94910000D02*
X226486979Y-96036504D01*
X227073400Y-108540000D02*
X226486979Y-107413496D01*
X227073400Y-108540000D02*
X227659821Y-107413496D01*
X182062365Y-142206019D02*
X181490937Y-142206019D01*
X181776651Y-142206019D02*
X181776651Y-141206019D01*
X181776651Y-141206019D02*
X181681413Y-141348876D01*
X181681413Y-141348876D02*
X181586175Y-141444114D01*
X181586175Y-141444114D02*
X181490937Y-141491733D01*
X182490937Y-142110780D02*
X182538556Y-142158400D01*
X182538556Y-142158400D02*
X182490937Y-142206019D01*
X182490937Y-142206019D02*
X182443318Y-142158400D01*
X182443318Y-142158400D02*
X182490937Y-142110780D01*
X182490937Y-142110780D02*
X182490937Y-142206019D01*
X182919508Y-141301257D02*
X182967127Y-141253638D01*
X182967127Y-141253638D02*
X183062365Y-141206019D01*
X183062365Y-141206019D02*
X183300460Y-141206019D01*
X183300460Y-141206019D02*
X183395698Y-141253638D01*
X183395698Y-141253638D02*
X183443317Y-141301257D01*
X183443317Y-141301257D02*
X183490936Y-141396495D01*
X183490936Y-141396495D02*
X183490936Y-141491733D01*
X183490936Y-141491733D02*
X183443317Y-141634590D01*
X183443317Y-141634590D02*
X182871889Y-142206019D01*
X182871889Y-142206019D02*
X183490936Y-142206019D01*
X184681413Y-142206019D02*
X184681413Y-141539352D01*
X184681413Y-141206019D02*
X184633794Y-141253638D01*
X184633794Y-141253638D02*
X184681413Y-141301257D01*
X184681413Y-141301257D02*
X184729032Y-141253638D01*
X184729032Y-141253638D02*
X184681413Y-141206019D01*
X184681413Y-141206019D02*
X184681413Y-141301257D01*
X185157603Y-141539352D02*
X185157603Y-142206019D01*
X185157603Y-141634590D02*
X185205222Y-141586971D01*
X185205222Y-141586971D02*
X185300460Y-141539352D01*
X185300460Y-141539352D02*
X185443317Y-141539352D01*
X185443317Y-141539352D02*
X185538555Y-141586971D01*
X185538555Y-141586971D02*
X185586174Y-141682209D01*
X185586174Y-141682209D02*
X185586174Y-142206019D01*
X168319730Y-79919730D02*
X168319730Y-143487620D01*
X198805000Y-143487620D02*
X198805000Y-134250000D01*
X168319730Y-142901200D02*
X198805000Y-142901200D01*
X168319730Y-142901200D02*
X198805000Y-142901200D01*
X168319730Y-142901200D02*
X169446234Y-142314779D01*
X168319730Y-142901200D02*
X169446234Y-143487621D01*
X198805000Y-142901200D02*
X197678496Y-143487621D01*
X198805000Y-142901200D02*
X197678496Y-142314779D01*
X154309019Y-92999447D02*
X154309019Y-92904209D01*
X154309019Y-92904209D02*
X154356638Y-92808971D01*
X154356638Y-92808971D02*
X154404257Y-92761352D01*
X154404257Y-92761352D02*
X154499495Y-92713733D01*
X154499495Y-92713733D02*
X154689971Y-92666114D01*
X154689971Y-92666114D02*
X154928066Y-92666114D01*
X154928066Y-92666114D02*
X155118542Y-92713733D01*
X155118542Y-92713733D02*
X155213780Y-92761352D01*
X155213780Y-92761352D02*
X155261400Y-92808971D01*
X155261400Y-92808971D02*
X155309019Y-92904209D01*
X155309019Y-92904209D02*
X155309019Y-92999447D01*
X155309019Y-92999447D02*
X155261400Y-93094685D01*
X155261400Y-93094685D02*
X155213780Y-93142304D01*
X155213780Y-93142304D02*
X155118542Y-93189923D01*
X155118542Y-93189923D02*
X154928066Y-93237542D01*
X154928066Y-93237542D02*
X154689971Y-93237542D01*
X154689971Y-93237542D02*
X154499495Y-93189923D01*
X154499495Y-93189923D02*
X154404257Y-93142304D01*
X154404257Y-93142304D02*
X154356638Y-93094685D01*
X154356638Y-93094685D02*
X154309019Y-92999447D01*
X155213780Y-92237542D02*
X155261400Y-92189923D01*
X155261400Y-92189923D02*
X155309019Y-92237542D01*
X155309019Y-92237542D02*
X155261400Y-92285161D01*
X155261400Y-92285161D02*
X155213780Y-92237542D01*
X155213780Y-92237542D02*
X155309019Y-92237542D01*
X155309019Y-91713733D02*
X155309019Y-91523257D01*
X155309019Y-91523257D02*
X155261400Y-91428019D01*
X155261400Y-91428019D02*
X155213780Y-91380400D01*
X155213780Y-91380400D02*
X155070923Y-91285162D01*
X155070923Y-91285162D02*
X154880447Y-91237543D01*
X154880447Y-91237543D02*
X154499495Y-91237543D01*
X154499495Y-91237543D02*
X154404257Y-91285162D01*
X154404257Y-91285162D02*
X154356638Y-91332781D01*
X154356638Y-91332781D02*
X154309019Y-91428019D01*
X154309019Y-91428019D02*
X154309019Y-91618495D01*
X154309019Y-91618495D02*
X154356638Y-91713733D01*
X154356638Y-91713733D02*
X154404257Y-91761352D01*
X154404257Y-91761352D02*
X154499495Y-91808971D01*
X154499495Y-91808971D02*
X154737590Y-91808971D01*
X154737590Y-91808971D02*
X154832828Y-91761352D01*
X154832828Y-91761352D02*
X154880447Y-91713733D01*
X154880447Y-91713733D02*
X154928066Y-91618495D01*
X154928066Y-91618495D02*
X154928066Y-91428019D01*
X154928066Y-91428019D02*
X154880447Y-91332781D01*
X154880447Y-91332781D02*
X154832828Y-91285162D01*
X154832828Y-91285162D02*
X154737590Y-91237543D01*
X155309019Y-90047066D02*
X154642352Y-90047066D01*
X154309019Y-90047066D02*
X154356638Y-90094685D01*
X154356638Y-90094685D02*
X154404257Y-90047066D01*
X154404257Y-90047066D02*
X154356638Y-89999447D01*
X154356638Y-89999447D02*
X154309019Y-90047066D01*
X154309019Y-90047066D02*
X154404257Y-90047066D01*
X154642352Y-89570876D02*
X155309019Y-89570876D01*
X154737590Y-89570876D02*
X154689971Y-89523257D01*
X154689971Y-89523257D02*
X154642352Y-89428019D01*
X154642352Y-89428019D02*
X154642352Y-89285162D01*
X154642352Y-89285162D02*
X154689971Y-89189924D01*
X154689971Y-89189924D02*
X154785209Y-89142305D01*
X154785209Y-89142305D02*
X155309019Y-89142305D01*
X167819730Y-79419730D02*
X155417780Y-79419730D01*
X155417780Y-102912500D02*
X161642500Y-102912500D01*
X156004200Y-79419730D02*
X156004200Y-102912500D01*
X156004200Y-79419730D02*
X156004200Y-102912500D01*
X156004200Y-79419730D02*
X156590621Y-80546234D01*
X156004200Y-79419730D02*
X155417779Y-80546234D01*
X156004200Y-102912500D02*
X155417779Y-101785996D01*
X156004200Y-102912500D02*
X156590621Y-101785996D01*
X231204219Y-111164864D02*
X231204219Y-111736292D01*
X231204219Y-111450578D02*
X230204219Y-111450578D01*
X230204219Y-111450578D02*
X230347076Y-111545816D01*
X230347076Y-111545816D02*
X230442314Y-111641054D01*
X230442314Y-111641054D02*
X230489933Y-111736292D01*
X231108980Y-110736292D02*
X231156600Y-110688673D01*
X231156600Y-110688673D02*
X231204219Y-110736292D01*
X231204219Y-110736292D02*
X231156600Y-110783911D01*
X231156600Y-110783911D02*
X231108980Y-110736292D01*
X231108980Y-110736292D02*
X231204219Y-110736292D01*
X230299457Y-110307721D02*
X230251838Y-110260102D01*
X230251838Y-110260102D02*
X230204219Y-110164864D01*
X230204219Y-110164864D02*
X230204219Y-109926769D01*
X230204219Y-109926769D02*
X230251838Y-109831531D01*
X230251838Y-109831531D02*
X230299457Y-109783912D01*
X230299457Y-109783912D02*
X230394695Y-109736293D01*
X230394695Y-109736293D02*
X230489933Y-109736293D01*
X230489933Y-109736293D02*
X230632790Y-109783912D01*
X230632790Y-109783912D02*
X231204219Y-110355340D01*
X231204219Y-110355340D02*
X231204219Y-109736293D01*
X231204219Y-108545816D02*
X230537552Y-108545816D01*
X230204219Y-108545816D02*
X230251838Y-108593435D01*
X230251838Y-108593435D02*
X230299457Y-108545816D01*
X230299457Y-108545816D02*
X230251838Y-108498197D01*
X230251838Y-108498197D02*
X230204219Y-108545816D01*
X230204219Y-108545816D02*
X230299457Y-108545816D01*
X230537552Y-108069626D02*
X231204219Y-108069626D01*
X230632790Y-108069626D02*
X230585171Y-108022007D01*
X230585171Y-108022007D02*
X230537552Y-107926769D01*
X230537552Y-107926769D02*
X230537552Y-107783912D01*
X230537552Y-107783912D02*
X230585171Y-107688674D01*
X230585171Y-107688674D02*
X230680409Y-107641055D01*
X230680409Y-107641055D02*
X231204219Y-107641055D01*
X213819730Y-124419730D02*
X232485820Y-124419730D01*
X232485820Y-94910000D02*
X222725000Y-94910000D01*
X231899400Y-124419730D02*
X231899400Y-94910000D01*
X231899400Y-124419730D02*
X231899400Y-94910000D01*
X231899400Y-124419730D02*
X231312979Y-123293226D01*
X231899400Y-124419730D02*
X232485821Y-123293226D01*
X231899400Y-94910000D02*
X232485821Y-96036504D01*
X231899400Y-94910000D02*
X231312979Y-96036504D01*
X188080417Y-65666419D02*
X188175655Y-65666419D01*
X188175655Y-65666419D02*
X188270893Y-65714038D01*
X188270893Y-65714038D02*
X188318512Y-65761657D01*
X188318512Y-65761657D02*
X188366131Y-65856895D01*
X188366131Y-65856895D02*
X188413750Y-66047371D01*
X188413750Y-66047371D02*
X188413750Y-66285466D01*
X188413750Y-66285466D02*
X188366131Y-66475942D01*
X188366131Y-66475942D02*
X188318512Y-66571180D01*
X188318512Y-66571180D02*
X188270893Y-66618800D01*
X188270893Y-66618800D02*
X188175655Y-66666419D01*
X188175655Y-66666419D02*
X188080417Y-66666419D01*
X188080417Y-66666419D02*
X187985179Y-66618800D01*
X187985179Y-66618800D02*
X187937560Y-66571180D01*
X187937560Y-66571180D02*
X187889941Y-66475942D01*
X187889941Y-66475942D02*
X187842322Y-66285466D01*
X187842322Y-66285466D02*
X187842322Y-66047371D01*
X187842322Y-66047371D02*
X187889941Y-65856895D01*
X187889941Y-65856895D02*
X187937560Y-65761657D01*
X187937560Y-65761657D02*
X187985179Y-65714038D01*
X187985179Y-65714038D02*
X188080417Y-65666419D01*
X188842322Y-66571180D02*
X188889941Y-66618800D01*
X188889941Y-66618800D02*
X188842322Y-66666419D01*
X188842322Y-66666419D02*
X188794703Y-66618800D01*
X188794703Y-66618800D02*
X188842322Y-66571180D01*
X188842322Y-66571180D02*
X188842322Y-66666419D01*
X189223274Y-65666419D02*
X189889940Y-65666419D01*
X189889940Y-65666419D02*
X189461369Y-66666419D01*
X191032798Y-66666419D02*
X191032798Y-65999752D01*
X191032798Y-65666419D02*
X190985179Y-65714038D01*
X190985179Y-65714038D02*
X191032798Y-65761657D01*
X191032798Y-65761657D02*
X191080417Y-65714038D01*
X191080417Y-65714038D02*
X191032798Y-65666419D01*
X191032798Y-65666419D02*
X191032798Y-65761657D01*
X191508988Y-65999752D02*
X191508988Y-66666419D01*
X191508988Y-66094990D02*
X191556607Y-66047371D01*
X191556607Y-66047371D02*
X191651845Y-65999752D01*
X191651845Y-65999752D02*
X191794702Y-65999752D01*
X191794702Y-65999752D02*
X191889940Y-66047371D01*
X191889940Y-66047371D02*
X191937559Y-66142609D01*
X191937559Y-66142609D02*
X191937559Y-66666419D01*
X180820000Y-69400000D02*
X180820000Y-66775180D01*
X199007500Y-66775180D02*
X199007500Y-69400000D01*
X180820000Y-67361600D02*
X199007500Y-67361600D01*
X180820000Y-67361600D02*
X199007500Y-67361600D01*
X180820000Y-67361600D02*
X181946504Y-66775179D01*
X180820000Y-67361600D02*
X181946504Y-67948021D01*
X199007500Y-67361600D02*
X197880996Y-67948021D01*
X199007500Y-67361600D02*
X197880996Y-66775179D01*
X225454419Y-118313197D02*
X225454419Y-118217959D01*
X225454419Y-118217959D02*
X225502038Y-118122721D01*
X225502038Y-118122721D02*
X225549657Y-118075102D01*
X225549657Y-118075102D02*
X225644895Y-118027483D01*
X225644895Y-118027483D02*
X225835371Y-117979864D01*
X225835371Y-117979864D02*
X226073466Y-117979864D01*
X226073466Y-117979864D02*
X226263942Y-118027483D01*
X226263942Y-118027483D02*
X226359180Y-118075102D01*
X226359180Y-118075102D02*
X226406800Y-118122721D01*
X226406800Y-118122721D02*
X226454419Y-118217959D01*
X226454419Y-118217959D02*
X226454419Y-118313197D01*
X226454419Y-118313197D02*
X226406800Y-118408435D01*
X226406800Y-118408435D02*
X226359180Y-118456054D01*
X226359180Y-118456054D02*
X226263942Y-118503673D01*
X226263942Y-118503673D02*
X226073466Y-118551292D01*
X226073466Y-118551292D02*
X225835371Y-118551292D01*
X225835371Y-118551292D02*
X225644895Y-118503673D01*
X225644895Y-118503673D02*
X225549657Y-118456054D01*
X225549657Y-118456054D02*
X225502038Y-118408435D01*
X225502038Y-118408435D02*
X225454419Y-118313197D01*
X226359180Y-117551292D02*
X226406800Y-117503673D01*
X226406800Y-117503673D02*
X226454419Y-117551292D01*
X226454419Y-117551292D02*
X226406800Y-117598911D01*
X226406800Y-117598911D02*
X226359180Y-117551292D01*
X226359180Y-117551292D02*
X226454419Y-117551292D01*
X225454419Y-116646531D02*
X225454419Y-116837007D01*
X225454419Y-116837007D02*
X225502038Y-116932245D01*
X225502038Y-116932245D02*
X225549657Y-116979864D01*
X225549657Y-116979864D02*
X225692514Y-117075102D01*
X225692514Y-117075102D02*
X225882990Y-117122721D01*
X225882990Y-117122721D02*
X226263942Y-117122721D01*
X226263942Y-117122721D02*
X226359180Y-117075102D01*
X226359180Y-117075102D02*
X226406800Y-117027483D01*
X226406800Y-117027483D02*
X226454419Y-116932245D01*
X226454419Y-116932245D02*
X226454419Y-116741769D01*
X226454419Y-116741769D02*
X226406800Y-116646531D01*
X226406800Y-116646531D02*
X226359180Y-116598912D01*
X226359180Y-116598912D02*
X226263942Y-116551293D01*
X226263942Y-116551293D02*
X226025847Y-116551293D01*
X226025847Y-116551293D02*
X225930609Y-116598912D01*
X225930609Y-116598912D02*
X225882990Y-116646531D01*
X225882990Y-116646531D02*
X225835371Y-116741769D01*
X225835371Y-116741769D02*
X225835371Y-116932245D01*
X225835371Y-116932245D02*
X225882990Y-117027483D01*
X225882990Y-117027483D02*
X225930609Y-117075102D01*
X225930609Y-117075102D02*
X226025847Y-117122721D01*
X226454419Y-115360816D02*
X225787752Y-115360816D01*
X225454419Y-115360816D02*
X225502038Y-115408435D01*
X225502038Y-115408435D02*
X225549657Y-115360816D01*
X225549657Y-115360816D02*
X225502038Y-115313197D01*
X225502038Y-115313197D02*
X225454419Y-115360816D01*
X225454419Y-115360816D02*
X225549657Y-115360816D01*
X225787752Y-114884626D02*
X226454419Y-114884626D01*
X225882990Y-114884626D02*
X225835371Y-114837007D01*
X225835371Y-114837007D02*
X225787752Y-114741769D01*
X225787752Y-114741769D02*
X225787752Y-114598912D01*
X225787752Y-114598912D02*
X225835371Y-114503674D01*
X225835371Y-114503674D02*
X225930609Y-114456055D01*
X225930609Y-114456055D02*
X226454419Y-114456055D01*
X213819730Y-124419730D02*
X227736020Y-124419730D01*
X227736020Y-108540000D02*
X222725000Y-108540000D01*
X227149600Y-124419730D02*
X227149600Y-108540000D01*
X227149600Y-124419730D02*
X227149600Y-108540000D01*
X227149600Y-124419730D02*
X226563179Y-123293226D01*
X227149600Y-124419730D02*
X227736021Y-123293226D01*
X227149600Y-108540000D02*
X227736021Y-109666504D01*
X227149600Y-108540000D02*
X226563179Y-109666504D01*
X180425520Y-62745419D02*
X181044567Y-62745419D01*
X181044567Y-62745419D02*
X180711234Y-63126371D01*
X180711234Y-63126371D02*
X180854091Y-63126371D01*
X180854091Y-63126371D02*
X180949329Y-63173990D01*
X180949329Y-63173990D02*
X180996948Y-63221609D01*
X180996948Y-63221609D02*
X181044567Y-63316847D01*
X181044567Y-63316847D02*
X181044567Y-63554942D01*
X181044567Y-63554942D02*
X180996948Y-63650180D01*
X180996948Y-63650180D02*
X180949329Y-63697800D01*
X180949329Y-63697800D02*
X180854091Y-63745419D01*
X180854091Y-63745419D02*
X180568377Y-63745419D01*
X180568377Y-63745419D02*
X180473139Y-63697800D01*
X180473139Y-63697800D02*
X180425520Y-63650180D01*
X181663615Y-62745419D02*
X181758853Y-62745419D01*
X181758853Y-62745419D02*
X181854091Y-62793038D01*
X181854091Y-62793038D02*
X181901710Y-62840657D01*
X181901710Y-62840657D02*
X181949329Y-62935895D01*
X181949329Y-62935895D02*
X181996948Y-63126371D01*
X181996948Y-63126371D02*
X181996948Y-63364466D01*
X181996948Y-63364466D02*
X181949329Y-63554942D01*
X181949329Y-63554942D02*
X181901710Y-63650180D01*
X181901710Y-63650180D02*
X181854091Y-63697800D01*
X181854091Y-63697800D02*
X181758853Y-63745419D01*
X181758853Y-63745419D02*
X181663615Y-63745419D01*
X181663615Y-63745419D02*
X181568377Y-63697800D01*
X181568377Y-63697800D02*
X181520758Y-63650180D01*
X181520758Y-63650180D02*
X181473139Y-63554942D01*
X181473139Y-63554942D02*
X181425520Y-63364466D01*
X181425520Y-63364466D02*
X181425520Y-63126371D01*
X181425520Y-63126371D02*
X181473139Y-62935895D01*
X181473139Y-62935895D02*
X181520758Y-62840657D01*
X181520758Y-62840657D02*
X181568377Y-62793038D01*
X181568377Y-62793038D02*
X181663615Y-62745419D01*
X182425520Y-63650180D02*
X182473139Y-63697800D01*
X182473139Y-63697800D02*
X182425520Y-63745419D01*
X182425520Y-63745419D02*
X182377901Y-63697800D01*
X182377901Y-63697800D02*
X182425520Y-63650180D01*
X182425520Y-63650180D02*
X182425520Y-63745419D01*
X182806472Y-62745419D02*
X183473138Y-62745419D01*
X183473138Y-62745419D02*
X183044567Y-63745419D01*
X184615996Y-63745419D02*
X184615996Y-63078752D01*
X184615996Y-63173990D02*
X184663615Y-63126371D01*
X184663615Y-63126371D02*
X184758853Y-63078752D01*
X184758853Y-63078752D02*
X184901710Y-63078752D01*
X184901710Y-63078752D02*
X184996948Y-63126371D01*
X184996948Y-63126371D02*
X185044567Y-63221609D01*
X185044567Y-63221609D02*
X185044567Y-63745419D01*
X185044567Y-63221609D02*
X185092186Y-63126371D01*
X185092186Y-63126371D02*
X185187424Y-63078752D01*
X185187424Y-63078752D02*
X185330281Y-63078752D01*
X185330281Y-63078752D02*
X185425520Y-63126371D01*
X185425520Y-63126371D02*
X185473139Y-63221609D01*
X185473139Y-63221609D02*
X185473139Y-63745419D01*
X185949329Y-63745419D02*
X185949329Y-63078752D01*
X185949329Y-63173990D02*
X185996948Y-63126371D01*
X185996948Y-63126371D02*
X186092186Y-63078752D01*
X186092186Y-63078752D02*
X186235043Y-63078752D01*
X186235043Y-63078752D02*
X186330281Y-63126371D01*
X186330281Y-63126371D02*
X186377900Y-63221609D01*
X186377900Y-63221609D02*
X186377900Y-63745419D01*
X186377900Y-63221609D02*
X186425519Y-63126371D01*
X186425519Y-63126371D02*
X186520757Y-63078752D01*
X186520757Y-63078752D02*
X186663614Y-63078752D01*
X186663614Y-63078752D02*
X186758853Y-63126371D01*
X186758853Y-63126371D02*
X186806472Y-63221609D01*
X186806472Y-63221609D02*
X186806472Y-63745419D01*
X168319730Y-78919730D02*
X168319730Y-63854180D01*
X199007500Y-63854180D02*
X199007500Y-69400000D01*
X168319730Y-64440600D02*
X199007500Y-64440600D01*
X168319730Y-64440600D02*
X199007500Y-64440600D01*
X168319730Y-64440600D02*
X169446234Y-63854179D01*
X168319730Y-64440600D02*
X169446234Y-65027021D01*
X199007500Y-64440600D02*
X197880996Y-65027021D01*
X199007500Y-64440600D02*
X197880996Y-63854179D01*
X172871532Y-138183419D02*
X172966770Y-138183419D01*
X172966770Y-138183419D02*
X173062008Y-138231038D01*
X173062008Y-138231038D02*
X173109627Y-138278657D01*
X173109627Y-138278657D02*
X173157246Y-138373895D01*
X173157246Y-138373895D02*
X173204865Y-138564371D01*
X173204865Y-138564371D02*
X173204865Y-138802466D01*
X173204865Y-138802466D02*
X173157246Y-138992942D01*
X173157246Y-138992942D02*
X173109627Y-139088180D01*
X173109627Y-139088180D02*
X173062008Y-139135800D01*
X173062008Y-139135800D02*
X172966770Y-139183419D01*
X172966770Y-139183419D02*
X172871532Y-139183419D01*
X172871532Y-139183419D02*
X172776294Y-139135800D01*
X172776294Y-139135800D02*
X172728675Y-139088180D01*
X172728675Y-139088180D02*
X172681056Y-138992942D01*
X172681056Y-138992942D02*
X172633437Y-138802466D01*
X172633437Y-138802466D02*
X172633437Y-138564371D01*
X172633437Y-138564371D02*
X172681056Y-138373895D01*
X172681056Y-138373895D02*
X172728675Y-138278657D01*
X172728675Y-138278657D02*
X172776294Y-138231038D01*
X172776294Y-138231038D02*
X172871532Y-138183419D01*
X173633437Y-139088180D02*
X173681056Y-139135800D01*
X173681056Y-139135800D02*
X173633437Y-139183419D01*
X173633437Y-139183419D02*
X173585818Y-139135800D01*
X173585818Y-139135800D02*
X173633437Y-139088180D01*
X173633437Y-139088180D02*
X173633437Y-139183419D01*
X174585817Y-138183419D02*
X174109627Y-138183419D01*
X174109627Y-138183419D02*
X174062008Y-138659609D01*
X174062008Y-138659609D02*
X174109627Y-138611990D01*
X174109627Y-138611990D02*
X174204865Y-138564371D01*
X174204865Y-138564371D02*
X174442960Y-138564371D01*
X174442960Y-138564371D02*
X174538198Y-138611990D01*
X174538198Y-138611990D02*
X174585817Y-138659609D01*
X174585817Y-138659609D02*
X174633436Y-138754847D01*
X174633436Y-138754847D02*
X174633436Y-138992942D01*
X174633436Y-138992942D02*
X174585817Y-139088180D01*
X174585817Y-139088180D02*
X174538198Y-139135800D01*
X174538198Y-139135800D02*
X174442960Y-139183419D01*
X174442960Y-139183419D02*
X174204865Y-139183419D01*
X174204865Y-139183419D02*
X174109627Y-139135800D01*
X174109627Y-139135800D02*
X174062008Y-139088180D01*
X175823913Y-139183419D02*
X175823913Y-138516752D01*
X175823913Y-138183419D02*
X175776294Y-138231038D01*
X175776294Y-138231038D02*
X175823913Y-138278657D01*
X175823913Y-138278657D02*
X175871532Y-138231038D01*
X175871532Y-138231038D02*
X175823913Y-138183419D01*
X175823913Y-138183419D02*
X175823913Y-138278657D01*
X176300103Y-138516752D02*
X176300103Y-139183419D01*
X176300103Y-138611990D02*
X176347722Y-138564371D01*
X176347722Y-138564371D02*
X176442960Y-138516752D01*
X176442960Y-138516752D02*
X176585817Y-138516752D01*
X176585817Y-138516752D02*
X176681055Y-138564371D01*
X176681055Y-138564371D02*
X176728674Y-138659609D01*
X176728674Y-138659609D02*
X176728674Y-139183419D01*
X168319730Y-79919730D02*
X168319730Y-140465020D01*
X181090000Y-140465020D02*
X181090000Y-134140000D01*
X168319730Y-139878600D02*
X181090000Y-139878600D01*
X168319730Y-139878600D02*
X181090000Y-139878600D01*
X168319730Y-139878600D02*
X169446234Y-139292179D01*
X168319730Y-139878600D02*
X169446234Y-140465021D01*
X181090000Y-139878600D02*
X179963496Y-140465021D01*
X181090000Y-139878600D02*
X179963496Y-139292179D01*
X188114167Y-135516419D02*
X188209405Y-135516419D01*
X188209405Y-135516419D02*
X188304643Y-135564038D01*
X188304643Y-135564038D02*
X188352262Y-135611657D01*
X188352262Y-135611657D02*
X188399881Y-135706895D01*
X188399881Y-135706895D02*
X188447500Y-135897371D01*
X188447500Y-135897371D02*
X188447500Y-136135466D01*
X188447500Y-136135466D02*
X188399881Y-136325942D01*
X188399881Y-136325942D02*
X188352262Y-136421180D01*
X188352262Y-136421180D02*
X188304643Y-136468800D01*
X188304643Y-136468800D02*
X188209405Y-136516419D01*
X188209405Y-136516419D02*
X188114167Y-136516419D01*
X188114167Y-136516419D02*
X188018929Y-136468800D01*
X188018929Y-136468800D02*
X187971310Y-136421180D01*
X187971310Y-136421180D02*
X187923691Y-136325942D01*
X187923691Y-136325942D02*
X187876072Y-136135466D01*
X187876072Y-136135466D02*
X187876072Y-135897371D01*
X187876072Y-135897371D02*
X187923691Y-135706895D01*
X187923691Y-135706895D02*
X187971310Y-135611657D01*
X187971310Y-135611657D02*
X188018929Y-135564038D01*
X188018929Y-135564038D02*
X188114167Y-135516419D01*
X188876072Y-136421180D02*
X188923691Y-136468800D01*
X188923691Y-136468800D02*
X188876072Y-136516419D01*
X188876072Y-136516419D02*
X188828453Y-136468800D01*
X188828453Y-136468800D02*
X188876072Y-136421180D01*
X188876072Y-136421180D02*
X188876072Y-136516419D01*
X189257024Y-135516419D02*
X189923690Y-135516419D01*
X189923690Y-135516419D02*
X189495119Y-136516419D01*
X191066548Y-136516419D02*
X191066548Y-135849752D01*
X191066548Y-135516419D02*
X191018929Y-135564038D01*
X191018929Y-135564038D02*
X191066548Y-135611657D01*
X191066548Y-135611657D02*
X191114167Y-135564038D01*
X191114167Y-135564038D02*
X191066548Y-135516419D01*
X191066548Y-135516419D02*
X191066548Y-135611657D01*
X191542738Y-135849752D02*
X191542738Y-136516419D01*
X191542738Y-135944990D02*
X191590357Y-135897371D01*
X191590357Y-135897371D02*
X191685595Y-135849752D01*
X191685595Y-135849752D02*
X191828452Y-135849752D01*
X191828452Y-135849752D02*
X191923690Y-135897371D01*
X191923690Y-135897371D02*
X191971309Y-135992609D01*
X191971309Y-135992609D02*
X191971309Y-136516419D01*
X181090000Y-134140000D02*
X181090000Y-137798020D01*
X198805000Y-137798020D02*
X198805000Y-134250000D01*
X181090000Y-137211600D02*
X198805000Y-137211600D01*
X181090000Y-137211600D02*
X198805000Y-137211600D01*
X181090000Y-137211600D02*
X182216504Y-136625179D01*
X181090000Y-137211600D02*
X182216504Y-137798021D01*
X198805000Y-137211600D02*
X197678496Y-137798021D01*
X198805000Y-137211600D02*
X197678496Y-136625179D01*
X157433219Y-104745832D02*
X157433219Y-104650594D01*
X157433219Y-104650594D02*
X157480838Y-104555356D01*
X157480838Y-104555356D02*
X157528457Y-104507737D01*
X157528457Y-104507737D02*
X157623695Y-104460118D01*
X157623695Y-104460118D02*
X157814171Y-104412499D01*
X157814171Y-104412499D02*
X158052266Y-104412499D01*
X158052266Y-104412499D02*
X158242742Y-104460118D01*
X158242742Y-104460118D02*
X158337980Y-104507737D01*
X158337980Y-104507737D02*
X158385600Y-104555356D01*
X158385600Y-104555356D02*
X158433219Y-104650594D01*
X158433219Y-104650594D02*
X158433219Y-104745832D01*
X158433219Y-104745832D02*
X158385600Y-104841070D01*
X158385600Y-104841070D02*
X158337980Y-104888689D01*
X158337980Y-104888689D02*
X158242742Y-104936308D01*
X158242742Y-104936308D02*
X158052266Y-104983927D01*
X158052266Y-104983927D02*
X157814171Y-104983927D01*
X157814171Y-104983927D02*
X157623695Y-104936308D01*
X157623695Y-104936308D02*
X157528457Y-104888689D01*
X157528457Y-104888689D02*
X157480838Y-104841070D01*
X157480838Y-104841070D02*
X157433219Y-104745832D01*
X158337980Y-103983927D02*
X158385600Y-103936308D01*
X158385600Y-103936308D02*
X158433219Y-103983927D01*
X158433219Y-103983927D02*
X158385600Y-104031546D01*
X158385600Y-104031546D02*
X158337980Y-103983927D01*
X158337980Y-103983927D02*
X158433219Y-103983927D01*
X158433219Y-103460118D02*
X158433219Y-103269642D01*
X158433219Y-103269642D02*
X158385600Y-103174404D01*
X158385600Y-103174404D02*
X158337980Y-103126785D01*
X158337980Y-103126785D02*
X158195123Y-103031547D01*
X158195123Y-103031547D02*
X158004647Y-102983928D01*
X158004647Y-102983928D02*
X157623695Y-102983928D01*
X157623695Y-102983928D02*
X157528457Y-103031547D01*
X157528457Y-103031547D02*
X157480838Y-103079166D01*
X157480838Y-103079166D02*
X157433219Y-103174404D01*
X157433219Y-103174404D02*
X157433219Y-103364880D01*
X157433219Y-103364880D02*
X157480838Y-103460118D01*
X157480838Y-103460118D02*
X157528457Y-103507737D01*
X157528457Y-103507737D02*
X157623695Y-103555356D01*
X157623695Y-103555356D02*
X157861790Y-103555356D01*
X157861790Y-103555356D02*
X157957028Y-103507737D01*
X157957028Y-103507737D02*
X158004647Y-103460118D01*
X158004647Y-103460118D02*
X158052266Y-103364880D01*
X158052266Y-103364880D02*
X158052266Y-103174404D01*
X158052266Y-103174404D02*
X158004647Y-103079166D01*
X158004647Y-103079166D02*
X157957028Y-103031547D01*
X157957028Y-103031547D02*
X157861790Y-102983928D01*
X158433219Y-101793451D02*
X157766552Y-101793451D01*
X157433219Y-101793451D02*
X157480838Y-101841070D01*
X157480838Y-101841070D02*
X157528457Y-101793451D01*
X157528457Y-101793451D02*
X157480838Y-101745832D01*
X157480838Y-101745832D02*
X157433219Y-101793451D01*
X157433219Y-101793451D02*
X157528457Y-101793451D01*
X157766552Y-101317261D02*
X158433219Y-101317261D01*
X157861790Y-101317261D02*
X157814171Y-101269642D01*
X157814171Y-101269642D02*
X157766552Y-101174404D01*
X157766552Y-101174404D02*
X157766552Y-101031547D01*
X157766552Y-101031547D02*
X157814171Y-100936309D01*
X157814171Y-100936309D02*
X157909409Y-100888690D01*
X157909409Y-100888690D02*
X158433219Y-100888690D01*
X161892500Y-91482500D02*
X158541980Y-91482500D01*
X158541980Y-114342500D02*
X161892500Y-114342500D01*
X159128400Y-91482500D02*
X159128400Y-114342500D01*
X159128400Y-91482500D02*
X159128400Y-114342500D01*
X159128400Y-91482500D02*
X159714821Y-92609004D01*
X159128400Y-91482500D02*
X158541979Y-92609004D01*
X159128400Y-114342500D02*
X158541979Y-113215996D01*
X159128400Y-114342500D02*
X159714821Y-113215996D01*
M02*
