%TF.GenerationSoftware,KiCad,Pcbnew,7.0.10-7.0.10~ubuntu22.04.1*%
%TF.CreationDate,2024-01-24T10:38:26-05:00*%
%TF.ProjectId,imu-splitter,696d752d-7370-46c6-9974-7465722e6b69,rev?*%
%TF.SameCoordinates,Original*%
%TF.FileFunction,Legend,Top*%
%TF.FilePolarity,Positive*%
%FSLAX46Y46*%
G04 Gerber Fmt 4.6, Leading zero omitted, Abs format (unit mm)*
G04 Created by KiCad (PCBNEW 7.0.10-7.0.10~ubuntu22.04.1) date 2024-01-24 10:38:26*
%MOMM*%
%LPD*%
G01*
G04 APERTURE LIST*
%ADD10C,0.152400*%
%ADD11C,0.203200*%
%ADD12C,0.150000*%
%ADD13C,0.100000*%
%ADD14C,0.120000*%
%ADD15C,0.200000*%
G04 APERTURE END LIST*
D10*
X206689167Y-117496903D02*
X206749643Y-117436427D01*
X206749643Y-117436427D02*
X206870596Y-117375951D01*
X206870596Y-117375951D02*
X207172977Y-117375951D01*
X207172977Y-117375951D02*
X207293929Y-117436427D01*
X207293929Y-117436427D02*
X207354405Y-117496903D01*
X207354405Y-117496903D02*
X207414882Y-117617855D01*
X207414882Y-117617855D02*
X207414882Y-117738808D01*
X207414882Y-117738808D02*
X207354405Y-117920236D01*
X207354405Y-117920236D02*
X206628691Y-118645951D01*
X206628691Y-118645951D02*
X207414882Y-118645951D01*
X208201072Y-117375951D02*
X208322025Y-117375951D01*
X208322025Y-117375951D02*
X208442977Y-117436427D01*
X208442977Y-117436427D02*
X208503453Y-117496903D01*
X208503453Y-117496903D02*
X208563929Y-117617855D01*
X208563929Y-117617855D02*
X208624406Y-117859760D01*
X208624406Y-117859760D02*
X208624406Y-118162141D01*
X208624406Y-118162141D02*
X208563929Y-118404046D01*
X208563929Y-118404046D02*
X208503453Y-118524998D01*
X208503453Y-118524998D02*
X208442977Y-118585475D01*
X208442977Y-118585475D02*
X208322025Y-118645951D01*
X208322025Y-118645951D02*
X208201072Y-118645951D01*
X208201072Y-118645951D02*
X208080120Y-118585475D01*
X208080120Y-118585475D02*
X208019644Y-118524998D01*
X208019644Y-118524998D02*
X207959167Y-118404046D01*
X207959167Y-118404046D02*
X207898691Y-118162141D01*
X207898691Y-118162141D02*
X207898691Y-117859760D01*
X207898691Y-117859760D02*
X207959167Y-117617855D01*
X207959167Y-117617855D02*
X208019644Y-117496903D01*
X208019644Y-117496903D02*
X208080120Y-117436427D01*
X208080120Y-117436427D02*
X208201072Y-117375951D01*
X209108215Y-117496903D02*
X209168691Y-117436427D01*
X209168691Y-117436427D02*
X209289644Y-117375951D01*
X209289644Y-117375951D02*
X209592025Y-117375951D01*
X209592025Y-117375951D02*
X209712977Y-117436427D01*
X209712977Y-117436427D02*
X209773453Y-117496903D01*
X209773453Y-117496903D02*
X209833930Y-117617855D01*
X209833930Y-117617855D02*
X209833930Y-117738808D01*
X209833930Y-117738808D02*
X209773453Y-117920236D01*
X209773453Y-117920236D02*
X209047739Y-118645951D01*
X209047739Y-118645951D02*
X209833930Y-118645951D01*
X210922501Y-117799284D02*
X210922501Y-118645951D01*
X210620120Y-117315475D02*
X210317739Y-118222617D01*
X210317739Y-118222617D02*
X211103930Y-118222617D01*
X211587739Y-118162141D02*
X212555359Y-118162141D01*
X213402025Y-117375951D02*
X213522978Y-117375951D01*
X213522978Y-117375951D02*
X213643930Y-117436427D01*
X213643930Y-117436427D02*
X213704406Y-117496903D01*
X213704406Y-117496903D02*
X213764882Y-117617855D01*
X213764882Y-117617855D02*
X213825359Y-117859760D01*
X213825359Y-117859760D02*
X213825359Y-118162141D01*
X213825359Y-118162141D02*
X213764882Y-118404046D01*
X213764882Y-118404046D02*
X213704406Y-118524998D01*
X213704406Y-118524998D02*
X213643930Y-118585475D01*
X213643930Y-118585475D02*
X213522978Y-118645951D01*
X213522978Y-118645951D02*
X213402025Y-118645951D01*
X213402025Y-118645951D02*
X213281073Y-118585475D01*
X213281073Y-118585475D02*
X213220597Y-118524998D01*
X213220597Y-118524998D02*
X213160120Y-118404046D01*
X213160120Y-118404046D02*
X213099644Y-118162141D01*
X213099644Y-118162141D02*
X213099644Y-117859760D01*
X213099644Y-117859760D02*
X213160120Y-117617855D01*
X213160120Y-117617855D02*
X213220597Y-117496903D01*
X213220597Y-117496903D02*
X213281073Y-117436427D01*
X213281073Y-117436427D02*
X213402025Y-117375951D01*
X215034883Y-118645951D02*
X214309168Y-118645951D01*
X214672025Y-118645951D02*
X214672025Y-117375951D01*
X214672025Y-117375951D02*
X214551073Y-117557379D01*
X214551073Y-117557379D02*
X214430121Y-117678332D01*
X214430121Y-117678332D02*
X214309168Y-117738808D01*
X206749643Y-120025413D02*
X207172977Y-120025413D01*
X207354405Y-120690651D02*
X206749643Y-120690651D01*
X206749643Y-120690651D02*
X206749643Y-119420651D01*
X206749643Y-119420651D02*
X207354405Y-119420651D01*
X207898691Y-120569698D02*
X207959168Y-120630175D01*
X207959168Y-120630175D02*
X207898691Y-120690651D01*
X207898691Y-120690651D02*
X207838215Y-120630175D01*
X207838215Y-120630175D02*
X207898691Y-120569698D01*
X207898691Y-120569698D02*
X207898691Y-120690651D01*
X209471072Y-120690651D02*
X209471072Y-119420651D01*
X209471072Y-120025413D02*
X210196787Y-120025413D01*
X210196787Y-120690651D02*
X210196787Y-119420651D01*
X211345834Y-120690651D02*
X211345834Y-120025413D01*
X211345834Y-120025413D02*
X211285358Y-119904460D01*
X211285358Y-119904460D02*
X211164406Y-119843984D01*
X211164406Y-119843984D02*
X210922501Y-119843984D01*
X210922501Y-119843984D02*
X210801548Y-119904460D01*
X211345834Y-120630175D02*
X211224882Y-120690651D01*
X211224882Y-120690651D02*
X210922501Y-120690651D01*
X210922501Y-120690651D02*
X210801548Y-120630175D01*
X210801548Y-120630175D02*
X210741072Y-120509222D01*
X210741072Y-120509222D02*
X210741072Y-120388270D01*
X210741072Y-120388270D02*
X210801548Y-120267317D01*
X210801548Y-120267317D02*
X210922501Y-120206841D01*
X210922501Y-120206841D02*
X211224882Y-120206841D01*
X211224882Y-120206841D02*
X211345834Y-120146365D01*
X211829644Y-119843984D02*
X212494882Y-119843984D01*
X212494882Y-119843984D02*
X211829644Y-120690651D01*
X211829644Y-120690651D02*
X212494882Y-120690651D01*
X213462501Y-120630175D02*
X213341549Y-120690651D01*
X213341549Y-120690651D02*
X213099644Y-120690651D01*
X213099644Y-120690651D02*
X212978691Y-120630175D01*
X212978691Y-120630175D02*
X212918215Y-120509222D01*
X212918215Y-120509222D02*
X212918215Y-120025413D01*
X212918215Y-120025413D02*
X212978691Y-119904460D01*
X212978691Y-119904460D02*
X213099644Y-119843984D01*
X213099644Y-119843984D02*
X213341549Y-119843984D01*
X213341549Y-119843984D02*
X213462501Y-119904460D01*
X213462501Y-119904460D02*
X213522977Y-120025413D01*
X213522977Y-120025413D02*
X213522977Y-120146365D01*
X213522977Y-120146365D02*
X212918215Y-120267317D01*
X214067262Y-119843984D02*
X214067262Y-120690651D01*
X214067262Y-119964936D02*
X214127739Y-119904460D01*
X214127739Y-119904460D02*
X214248691Y-119843984D01*
X214248691Y-119843984D02*
X214430120Y-119843984D01*
X214430120Y-119843984D02*
X214551072Y-119904460D01*
X214551072Y-119904460D02*
X214611548Y-120025413D01*
X214611548Y-120025413D02*
X214611548Y-120690651D01*
D11*
X170104255Y-90765297D02*
X170104255Y-88860297D01*
X170104255Y-88860297D02*
X170557826Y-88860297D01*
X170557826Y-88860297D02*
X170829969Y-88951011D01*
X170829969Y-88951011D02*
X171011398Y-89132440D01*
X171011398Y-89132440D02*
X171102112Y-89313868D01*
X171102112Y-89313868D02*
X171192826Y-89676725D01*
X171192826Y-89676725D02*
X171192826Y-89948868D01*
X171192826Y-89948868D02*
X171102112Y-90311725D01*
X171102112Y-90311725D02*
X171011398Y-90493154D01*
X171011398Y-90493154D02*
X170829969Y-90674583D01*
X170829969Y-90674583D02*
X170557826Y-90765297D01*
X170557826Y-90765297D02*
X170104255Y-90765297D01*
X172372112Y-88860297D02*
X172734969Y-88860297D01*
X172734969Y-88860297D02*
X172916398Y-88951011D01*
X172916398Y-88951011D02*
X173097826Y-89132440D01*
X173097826Y-89132440D02*
X173188541Y-89495297D01*
X173188541Y-89495297D02*
X173188541Y-90130297D01*
X173188541Y-90130297D02*
X173097826Y-90493154D01*
X173097826Y-90493154D02*
X172916398Y-90674583D01*
X172916398Y-90674583D02*
X172734969Y-90765297D01*
X172734969Y-90765297D02*
X172372112Y-90765297D01*
X172372112Y-90765297D02*
X172190684Y-90674583D01*
X172190684Y-90674583D02*
X172009255Y-90493154D01*
X172009255Y-90493154D02*
X171918541Y-90130297D01*
X171918541Y-90130297D02*
X171918541Y-89495297D01*
X171918541Y-89495297D02*
X172009255Y-89132440D01*
X172009255Y-89132440D02*
X172190684Y-88951011D01*
X172190684Y-88951011D02*
X172372112Y-88860297D01*
X173914255Y-90674583D02*
X174186398Y-90765297D01*
X174186398Y-90765297D02*
X174639969Y-90765297D01*
X174639969Y-90765297D02*
X174821398Y-90674583D01*
X174821398Y-90674583D02*
X174912112Y-90583868D01*
X174912112Y-90583868D02*
X175002826Y-90402440D01*
X175002826Y-90402440D02*
X175002826Y-90221011D01*
X175002826Y-90221011D02*
X174912112Y-90039583D01*
X174912112Y-90039583D02*
X174821398Y-89948868D01*
X174821398Y-89948868D02*
X174639969Y-89858154D01*
X174639969Y-89858154D02*
X174277112Y-89767440D01*
X174277112Y-89767440D02*
X174095683Y-89676725D01*
X174095683Y-89676725D02*
X174004969Y-89586011D01*
X174004969Y-89586011D02*
X173914255Y-89404583D01*
X173914255Y-89404583D02*
X173914255Y-89223154D01*
X173914255Y-89223154D02*
X174004969Y-89041725D01*
X174004969Y-89041725D02*
X174095683Y-88951011D01*
X174095683Y-88951011D02*
X174277112Y-88860297D01*
X174277112Y-88860297D02*
X174730683Y-88860297D01*
X174730683Y-88860297D02*
X175002826Y-88951011D01*
X175819255Y-90765297D02*
X175819255Y-88860297D01*
X178177827Y-90765297D02*
X178177827Y-88860297D01*
X179084970Y-90765297D02*
X179084970Y-88860297D01*
X179084970Y-88860297D02*
X179719970Y-90221011D01*
X179719970Y-90221011D02*
X180354970Y-88860297D01*
X180354970Y-88860297D02*
X180354970Y-90765297D01*
X181262113Y-88860297D02*
X181262113Y-90402440D01*
X181262113Y-90402440D02*
X181352827Y-90583868D01*
X181352827Y-90583868D02*
X181443542Y-90674583D01*
X181443542Y-90674583D02*
X181624970Y-90765297D01*
X181624970Y-90765297D02*
X181987827Y-90765297D01*
X181987827Y-90765297D02*
X182169256Y-90674583D01*
X182169256Y-90674583D02*
X182259970Y-90583868D01*
X182259970Y-90583868D02*
X182350684Y-90402440D01*
X182350684Y-90402440D02*
X182350684Y-88860297D01*
X184618542Y-90674583D02*
X184890685Y-90765297D01*
X184890685Y-90765297D02*
X185344256Y-90765297D01*
X185344256Y-90765297D02*
X185525685Y-90674583D01*
X185525685Y-90674583D02*
X185616399Y-90583868D01*
X185616399Y-90583868D02*
X185707113Y-90402440D01*
X185707113Y-90402440D02*
X185707113Y-90221011D01*
X185707113Y-90221011D02*
X185616399Y-90039583D01*
X185616399Y-90039583D02*
X185525685Y-89948868D01*
X185525685Y-89948868D02*
X185344256Y-89858154D01*
X185344256Y-89858154D02*
X184981399Y-89767440D01*
X184981399Y-89767440D02*
X184799970Y-89676725D01*
X184799970Y-89676725D02*
X184709256Y-89586011D01*
X184709256Y-89586011D02*
X184618542Y-89404583D01*
X184618542Y-89404583D02*
X184618542Y-89223154D01*
X184618542Y-89223154D02*
X184709256Y-89041725D01*
X184709256Y-89041725D02*
X184799970Y-88951011D01*
X184799970Y-88951011D02*
X184981399Y-88860297D01*
X184981399Y-88860297D02*
X185434970Y-88860297D01*
X185434970Y-88860297D02*
X185707113Y-88951011D01*
X186523542Y-89495297D02*
X186523542Y-91400297D01*
X186523542Y-89586011D02*
X186704971Y-89495297D01*
X186704971Y-89495297D02*
X187067828Y-89495297D01*
X187067828Y-89495297D02*
X187249256Y-89586011D01*
X187249256Y-89586011D02*
X187339971Y-89676725D01*
X187339971Y-89676725D02*
X187430685Y-89858154D01*
X187430685Y-89858154D02*
X187430685Y-90402440D01*
X187430685Y-90402440D02*
X187339971Y-90583868D01*
X187339971Y-90583868D02*
X187249256Y-90674583D01*
X187249256Y-90674583D02*
X187067828Y-90765297D01*
X187067828Y-90765297D02*
X186704971Y-90765297D01*
X186704971Y-90765297D02*
X186523542Y-90674583D01*
X188519256Y-90765297D02*
X188337827Y-90674583D01*
X188337827Y-90674583D02*
X188247113Y-90493154D01*
X188247113Y-90493154D02*
X188247113Y-88860297D01*
X189244970Y-90765297D02*
X189244970Y-89495297D01*
X189244970Y-88860297D02*
X189154256Y-88951011D01*
X189154256Y-88951011D02*
X189244970Y-89041725D01*
X189244970Y-89041725D02*
X189335684Y-88951011D01*
X189335684Y-88951011D02*
X189244970Y-88860297D01*
X189244970Y-88860297D02*
X189244970Y-89041725D01*
X189879970Y-89495297D02*
X190605684Y-89495297D01*
X190152113Y-88860297D02*
X190152113Y-90493154D01*
X190152113Y-90493154D02*
X190242827Y-90674583D01*
X190242827Y-90674583D02*
X190424256Y-90765297D01*
X190424256Y-90765297D02*
X190605684Y-90765297D01*
X190968541Y-89495297D02*
X191694255Y-89495297D01*
X191240684Y-88860297D02*
X191240684Y-90493154D01*
X191240684Y-90493154D02*
X191331398Y-90674583D01*
X191331398Y-90674583D02*
X191512827Y-90765297D01*
X191512827Y-90765297D02*
X191694255Y-90765297D01*
X193054969Y-90674583D02*
X192873541Y-90765297D01*
X192873541Y-90765297D02*
X192510684Y-90765297D01*
X192510684Y-90765297D02*
X192329255Y-90674583D01*
X192329255Y-90674583D02*
X192238541Y-90493154D01*
X192238541Y-90493154D02*
X192238541Y-89767440D01*
X192238541Y-89767440D02*
X192329255Y-89586011D01*
X192329255Y-89586011D02*
X192510684Y-89495297D01*
X192510684Y-89495297D02*
X192873541Y-89495297D01*
X192873541Y-89495297D02*
X193054969Y-89586011D01*
X193054969Y-89586011D02*
X193145684Y-89767440D01*
X193145684Y-89767440D02*
X193145684Y-89948868D01*
X193145684Y-89948868D02*
X192238541Y-90130297D01*
X193962112Y-90765297D02*
X193962112Y-89495297D01*
X193962112Y-89858154D02*
X194052826Y-89676725D01*
X194052826Y-89676725D02*
X194143541Y-89586011D01*
X194143541Y-89586011D02*
X194324969Y-89495297D01*
X194324969Y-89495297D02*
X194506398Y-89495297D01*
X196320684Y-88860297D02*
X196955684Y-90765297D01*
X196955684Y-90765297D02*
X197590684Y-88860297D01*
X199223541Y-90765297D02*
X198134970Y-90765297D01*
X198679255Y-90765297D02*
X198679255Y-88860297D01*
X198679255Y-88860297D02*
X198497827Y-89132440D01*
X198497827Y-89132440D02*
X198316398Y-89313868D01*
X198316398Y-89313868D02*
X198134970Y-89404583D01*
X200039970Y-90583868D02*
X200130684Y-90674583D01*
X200130684Y-90674583D02*
X200039970Y-90765297D01*
X200039970Y-90765297D02*
X199949256Y-90674583D01*
X199949256Y-90674583D02*
X200039970Y-90583868D01*
X200039970Y-90583868D02*
X200039970Y-90765297D01*
X201309970Y-88860297D02*
X201491399Y-88860297D01*
X201491399Y-88860297D02*
X201672827Y-88951011D01*
X201672827Y-88951011D02*
X201763542Y-89041725D01*
X201763542Y-89041725D02*
X201854256Y-89223154D01*
X201854256Y-89223154D02*
X201944970Y-89586011D01*
X201944970Y-89586011D02*
X201944970Y-90039583D01*
X201944970Y-90039583D02*
X201854256Y-90402440D01*
X201854256Y-90402440D02*
X201763542Y-90583868D01*
X201763542Y-90583868D02*
X201672827Y-90674583D01*
X201672827Y-90674583D02*
X201491399Y-90765297D01*
X201491399Y-90765297D02*
X201309970Y-90765297D01*
X201309970Y-90765297D02*
X201128542Y-90674583D01*
X201128542Y-90674583D02*
X201037827Y-90583868D01*
X201037827Y-90583868D02*
X200947113Y-90402440D01*
X200947113Y-90402440D02*
X200856399Y-90039583D01*
X200856399Y-90039583D02*
X200856399Y-89586011D01*
X200856399Y-89586011D02*
X200947113Y-89223154D01*
X200947113Y-89223154D02*
X201037827Y-89041725D01*
X201037827Y-89041725D02*
X201128542Y-88951011D01*
X201128542Y-88951011D02*
X201309970Y-88860297D01*
X181153255Y-111004924D02*
X180427541Y-111004924D01*
X180427541Y-111004924D02*
X180354969Y-111730638D01*
X180354969Y-111730638D02*
X180427541Y-111658067D01*
X180427541Y-111658067D02*
X180572684Y-111585495D01*
X180572684Y-111585495D02*
X180935541Y-111585495D01*
X180935541Y-111585495D02*
X181080684Y-111658067D01*
X181080684Y-111658067D02*
X181153255Y-111730638D01*
X181153255Y-111730638D02*
X181225826Y-111875781D01*
X181225826Y-111875781D02*
X181225826Y-112238638D01*
X181225826Y-112238638D02*
X181153255Y-112383781D01*
X181153255Y-112383781D02*
X181080684Y-112456353D01*
X181080684Y-112456353D02*
X180935541Y-112528924D01*
X180935541Y-112528924D02*
X180572684Y-112528924D01*
X180572684Y-112528924D02*
X180427541Y-112456353D01*
X180427541Y-112456353D02*
X180354969Y-112383781D01*
X181878970Y-112383781D02*
X181951541Y-112456353D01*
X181951541Y-112456353D02*
X181878970Y-112528924D01*
X181878970Y-112528924D02*
X181806398Y-112456353D01*
X181806398Y-112456353D02*
X181878970Y-112383781D01*
X181878970Y-112383781D02*
X181878970Y-112528924D01*
X182894969Y-111004924D02*
X183040112Y-111004924D01*
X183040112Y-111004924D02*
X183185255Y-111077495D01*
X183185255Y-111077495D02*
X183257827Y-111150067D01*
X183257827Y-111150067D02*
X183330398Y-111295210D01*
X183330398Y-111295210D02*
X183402969Y-111585495D01*
X183402969Y-111585495D02*
X183402969Y-111948353D01*
X183402969Y-111948353D02*
X183330398Y-112238638D01*
X183330398Y-112238638D02*
X183257827Y-112383781D01*
X183257827Y-112383781D02*
X183185255Y-112456353D01*
X183185255Y-112456353D02*
X183040112Y-112528924D01*
X183040112Y-112528924D02*
X182894969Y-112528924D01*
X182894969Y-112528924D02*
X182749827Y-112456353D01*
X182749827Y-112456353D02*
X182677255Y-112383781D01*
X182677255Y-112383781D02*
X182604684Y-112238638D01*
X182604684Y-112238638D02*
X182532112Y-111948353D01*
X182532112Y-111948353D02*
X182532112Y-111585495D01*
X182532112Y-111585495D02*
X182604684Y-111295210D01*
X182604684Y-111295210D02*
X182677255Y-111150067D01*
X182677255Y-111150067D02*
X182749827Y-111077495D01*
X182749827Y-111077495D02*
X182894969Y-111004924D01*
X193871398Y-111258924D02*
X194814826Y-111258924D01*
X194814826Y-111258924D02*
X194306826Y-111839495D01*
X194306826Y-111839495D02*
X194524541Y-111839495D01*
X194524541Y-111839495D02*
X194669684Y-111912067D01*
X194669684Y-111912067D02*
X194742255Y-111984638D01*
X194742255Y-111984638D02*
X194814826Y-112129781D01*
X194814826Y-112129781D02*
X194814826Y-112492638D01*
X194814826Y-112492638D02*
X194742255Y-112637781D01*
X194742255Y-112637781D02*
X194669684Y-112710353D01*
X194669684Y-112710353D02*
X194524541Y-112782924D01*
X194524541Y-112782924D02*
X194089112Y-112782924D01*
X194089112Y-112782924D02*
X193943969Y-112710353D01*
X193943969Y-112710353D02*
X193871398Y-112637781D01*
X195467970Y-112637781D02*
X195540541Y-112710353D01*
X195540541Y-112710353D02*
X195467970Y-112782924D01*
X195467970Y-112782924D02*
X195395398Y-112710353D01*
X195395398Y-112710353D02*
X195467970Y-112637781D01*
X195467970Y-112637781D02*
X195467970Y-112782924D01*
X196048541Y-111258924D02*
X196991969Y-111258924D01*
X196991969Y-111258924D02*
X196483969Y-111839495D01*
X196483969Y-111839495D02*
X196701684Y-111839495D01*
X196701684Y-111839495D02*
X196846827Y-111912067D01*
X196846827Y-111912067D02*
X196919398Y-111984638D01*
X196919398Y-111984638D02*
X196991969Y-112129781D01*
X196991969Y-112129781D02*
X196991969Y-112492638D01*
X196991969Y-112492638D02*
X196919398Y-112637781D01*
X196919398Y-112637781D02*
X196846827Y-112710353D01*
X196846827Y-112710353D02*
X196701684Y-112782924D01*
X196701684Y-112782924D02*
X196266255Y-112782924D01*
X196266255Y-112782924D02*
X196121112Y-112710353D01*
X196121112Y-112710353D02*
X196048541Y-112637781D01*
D12*
X196000000Y-100000000D02*
X184000000Y-100000000D01*
X196000000Y-92000000D02*
X196000000Y-100000000D01*
X184000000Y-92000000D02*
X196000000Y-92000000D01*
D11*
X172843826Y-104146924D02*
X173714684Y-104146924D01*
X173279255Y-105670924D02*
X173279255Y-104146924D01*
X174077541Y-104146924D02*
X175093541Y-105670924D01*
X175093541Y-104146924D02*
X174077541Y-105670924D01*
X175964398Y-104146924D02*
X176109541Y-104146924D01*
X176109541Y-104146924D02*
X176254684Y-104219495D01*
X176254684Y-104219495D02*
X176327256Y-104292067D01*
X176327256Y-104292067D02*
X176399827Y-104437210D01*
X176399827Y-104437210D02*
X176472398Y-104727495D01*
X176472398Y-104727495D02*
X176472398Y-105090353D01*
X176472398Y-105090353D02*
X176399827Y-105380638D01*
X176399827Y-105380638D02*
X176327256Y-105525781D01*
X176327256Y-105525781D02*
X176254684Y-105598353D01*
X176254684Y-105598353D02*
X176109541Y-105670924D01*
X176109541Y-105670924D02*
X175964398Y-105670924D01*
X175964398Y-105670924D02*
X175819256Y-105598353D01*
X175819256Y-105598353D02*
X175746684Y-105525781D01*
X175746684Y-105525781D02*
X175674113Y-105380638D01*
X175674113Y-105380638D02*
X175601541Y-105090353D01*
X175601541Y-105090353D02*
X175601541Y-104727495D01*
X175601541Y-104727495D02*
X175674113Y-104437210D01*
X175674113Y-104437210D02*
X175746684Y-104292067D01*
X175746684Y-104292067D02*
X175819256Y-104219495D01*
X175819256Y-104219495D02*
X175964398Y-104146924D01*
X173170398Y-106813924D02*
X174113826Y-106813924D01*
X174113826Y-106813924D02*
X173605826Y-107394495D01*
X173605826Y-107394495D02*
X173823541Y-107394495D01*
X173823541Y-107394495D02*
X173968684Y-107467067D01*
X173968684Y-107467067D02*
X174041255Y-107539638D01*
X174041255Y-107539638D02*
X174113826Y-107684781D01*
X174113826Y-107684781D02*
X174113826Y-108047638D01*
X174113826Y-108047638D02*
X174041255Y-108192781D01*
X174041255Y-108192781D02*
X173968684Y-108265353D01*
X173968684Y-108265353D02*
X173823541Y-108337924D01*
X173823541Y-108337924D02*
X173388112Y-108337924D01*
X173388112Y-108337924D02*
X173242969Y-108265353D01*
X173242969Y-108265353D02*
X173170398Y-108192781D01*
X174766970Y-108192781D02*
X174839541Y-108265353D01*
X174839541Y-108265353D02*
X174766970Y-108337924D01*
X174766970Y-108337924D02*
X174694398Y-108265353D01*
X174694398Y-108265353D02*
X174766970Y-108192781D01*
X174766970Y-108192781D02*
X174766970Y-108337924D01*
X175347541Y-106813924D02*
X176290969Y-106813924D01*
X176290969Y-106813924D02*
X175782969Y-107394495D01*
X175782969Y-107394495D02*
X176000684Y-107394495D01*
X176000684Y-107394495D02*
X176145827Y-107467067D01*
X176145827Y-107467067D02*
X176218398Y-107539638D01*
X176218398Y-107539638D02*
X176290969Y-107684781D01*
X176290969Y-107684781D02*
X176290969Y-108047638D01*
X176290969Y-108047638D02*
X176218398Y-108192781D01*
X176218398Y-108192781D02*
X176145827Y-108265353D01*
X176145827Y-108265353D02*
X176000684Y-108337924D01*
X176000684Y-108337924D02*
X175565255Y-108337924D01*
X175565255Y-108337924D02*
X175420112Y-108265353D01*
X175420112Y-108265353D02*
X175347541Y-108192781D01*
X173478826Y-99139495D02*
X173333684Y-99066924D01*
X173333684Y-99066924D02*
X173115969Y-99066924D01*
X173115969Y-99066924D02*
X172898255Y-99139495D01*
X172898255Y-99139495D02*
X172753112Y-99284638D01*
X172753112Y-99284638D02*
X172680541Y-99429781D01*
X172680541Y-99429781D02*
X172607969Y-99720067D01*
X172607969Y-99720067D02*
X172607969Y-99937781D01*
X172607969Y-99937781D02*
X172680541Y-100228067D01*
X172680541Y-100228067D02*
X172753112Y-100373210D01*
X172753112Y-100373210D02*
X172898255Y-100518353D01*
X172898255Y-100518353D02*
X173115969Y-100590924D01*
X173115969Y-100590924D02*
X173261112Y-100590924D01*
X173261112Y-100590924D02*
X173478826Y-100518353D01*
X173478826Y-100518353D02*
X173551398Y-100445781D01*
X173551398Y-100445781D02*
X173551398Y-99937781D01*
X173551398Y-99937781D02*
X173261112Y-99937781D01*
X174204541Y-100590924D02*
X174204541Y-99066924D01*
X174204541Y-99066924D02*
X175075398Y-100590924D01*
X175075398Y-100590924D02*
X175075398Y-99066924D01*
X175801112Y-100590924D02*
X175801112Y-99066924D01*
X175801112Y-99066924D02*
X176163969Y-99066924D01*
X176163969Y-99066924D02*
X176381683Y-99139495D01*
X176381683Y-99139495D02*
X176526826Y-99284638D01*
X176526826Y-99284638D02*
X176599397Y-99429781D01*
X176599397Y-99429781D02*
X176671969Y-99720067D01*
X176671969Y-99720067D02*
X176671969Y-99937781D01*
X176671969Y-99937781D02*
X176599397Y-100228067D01*
X176599397Y-100228067D02*
X176526826Y-100373210D01*
X176526826Y-100373210D02*
X176381683Y-100518353D01*
X176381683Y-100518353D02*
X176163969Y-100590924D01*
X176163969Y-100590924D02*
X175801112Y-100590924D01*
X173551398Y-103130924D02*
X173043398Y-102405210D01*
X172680541Y-103130924D02*
X172680541Y-101606924D01*
X172680541Y-101606924D02*
X173261112Y-101606924D01*
X173261112Y-101606924D02*
X173406255Y-101679495D01*
X173406255Y-101679495D02*
X173478826Y-101752067D01*
X173478826Y-101752067D02*
X173551398Y-101897210D01*
X173551398Y-101897210D02*
X173551398Y-102114924D01*
X173551398Y-102114924D02*
X173478826Y-102260067D01*
X173478826Y-102260067D02*
X173406255Y-102332638D01*
X173406255Y-102332638D02*
X173261112Y-102405210D01*
X173261112Y-102405210D02*
X172680541Y-102405210D01*
X174059398Y-101606924D02*
X175075398Y-103130924D01*
X175075398Y-101606924D02*
X174059398Y-103130924D01*
X175946255Y-101606924D02*
X176091398Y-101606924D01*
X176091398Y-101606924D02*
X176236541Y-101679495D01*
X176236541Y-101679495D02*
X176309113Y-101752067D01*
X176309113Y-101752067D02*
X176381684Y-101897210D01*
X176381684Y-101897210D02*
X176454255Y-102187495D01*
X176454255Y-102187495D02*
X176454255Y-102550353D01*
X176454255Y-102550353D02*
X176381684Y-102840638D01*
X176381684Y-102840638D02*
X176309113Y-102985781D01*
X176309113Y-102985781D02*
X176236541Y-103058353D01*
X176236541Y-103058353D02*
X176091398Y-103130924D01*
X176091398Y-103130924D02*
X175946255Y-103130924D01*
X175946255Y-103130924D02*
X175801113Y-103058353D01*
X175801113Y-103058353D02*
X175728541Y-102985781D01*
X175728541Y-102985781D02*
X175655970Y-102840638D01*
X175655970Y-102840638D02*
X175583398Y-102550353D01*
X175583398Y-102550353D02*
X175583398Y-102187495D01*
X175583398Y-102187495D02*
X175655970Y-101897210D01*
X175655970Y-101897210D02*
X175728541Y-101752067D01*
X175728541Y-101752067D02*
X175801113Y-101679495D01*
X175801113Y-101679495D02*
X175946255Y-101606924D01*
D12*
X180775779Y-110055819D02*
X180775779Y-109055819D01*
X181347207Y-110055819D02*
X180918636Y-109484390D01*
X181347207Y-109055819D02*
X180775779Y-109627247D01*
X194491779Y-110055819D02*
X194491779Y-109055819D01*
X195063207Y-110055819D02*
X194634636Y-109484390D01*
X195063207Y-109055819D02*
X194491779Y-109627247D01*
X189869819Y-98663220D02*
X188869819Y-98663220D01*
X189869819Y-98187030D02*
X188869819Y-98187030D01*
X188869819Y-98187030D02*
X189584104Y-97853697D01*
X189584104Y-97853697D02*
X188869819Y-97520364D01*
X188869819Y-97520364D02*
X189869819Y-97520364D01*
X188869819Y-97044173D02*
X189679342Y-97044173D01*
X189679342Y-97044173D02*
X189774580Y-96996554D01*
X189774580Y-96996554D02*
X189822200Y-96948935D01*
X189822200Y-96948935D02*
X189869819Y-96853697D01*
X189869819Y-96853697D02*
X189869819Y-96663221D01*
X189869819Y-96663221D02*
X189822200Y-96567983D01*
X189822200Y-96567983D02*
X189774580Y-96520364D01*
X189774580Y-96520364D02*
X189679342Y-96472745D01*
X189679342Y-96472745D02*
X188869819Y-96472745D01*
X189869819Y-95234649D02*
X188869819Y-95234649D01*
X188869819Y-95234649D02*
X188869819Y-94853697D01*
X188869819Y-94853697D02*
X188917438Y-94758459D01*
X188917438Y-94758459D02*
X188965057Y-94710840D01*
X188965057Y-94710840D02*
X189060295Y-94663221D01*
X189060295Y-94663221D02*
X189203152Y-94663221D01*
X189203152Y-94663221D02*
X189298390Y-94710840D01*
X189298390Y-94710840D02*
X189346009Y-94758459D01*
X189346009Y-94758459D02*
X189393628Y-94853697D01*
X189393628Y-94853697D02*
X189393628Y-95234649D01*
X189774580Y-93663221D02*
X189822200Y-93710840D01*
X189822200Y-93710840D02*
X189869819Y-93853697D01*
X189869819Y-93853697D02*
X189869819Y-93948935D01*
X189869819Y-93948935D02*
X189822200Y-94091792D01*
X189822200Y-94091792D02*
X189726961Y-94187030D01*
X189726961Y-94187030D02*
X189631723Y-94234649D01*
X189631723Y-94234649D02*
X189441247Y-94282268D01*
X189441247Y-94282268D02*
X189298390Y-94282268D01*
X189298390Y-94282268D02*
X189107914Y-94234649D01*
X189107914Y-94234649D02*
X189012676Y-94187030D01*
X189012676Y-94187030D02*
X188917438Y-94091792D01*
X188917438Y-94091792D02*
X188869819Y-93948935D01*
X188869819Y-93948935D02*
X188869819Y-93853697D01*
X188869819Y-93853697D02*
X188917438Y-93710840D01*
X188917438Y-93710840D02*
X188965057Y-93663221D01*
X189346009Y-92901316D02*
X189393628Y-92758459D01*
X189393628Y-92758459D02*
X189441247Y-92710840D01*
X189441247Y-92710840D02*
X189536485Y-92663221D01*
X189536485Y-92663221D02*
X189679342Y-92663221D01*
X189679342Y-92663221D02*
X189774580Y-92710840D01*
X189774580Y-92710840D02*
X189822200Y-92758459D01*
X189822200Y-92758459D02*
X189869819Y-92853697D01*
X189869819Y-92853697D02*
X189869819Y-93234649D01*
X189869819Y-93234649D02*
X188869819Y-93234649D01*
X188869819Y-93234649D02*
X188869819Y-92901316D01*
X188869819Y-92901316D02*
X188917438Y-92806078D01*
X188917438Y-92806078D02*
X188965057Y-92758459D01*
X188965057Y-92758459D02*
X189060295Y-92710840D01*
X189060295Y-92710840D02*
X189155533Y-92710840D01*
X189155533Y-92710840D02*
X189250771Y-92758459D01*
X189250771Y-92758459D02*
X189298390Y-92806078D01*
X189298390Y-92806078D02*
X189346009Y-92901316D01*
X189346009Y-92901316D02*
X189346009Y-93234649D01*
D11*
X174168255Y-109226924D02*
X173442541Y-109226924D01*
X173442541Y-109226924D02*
X173369969Y-109952638D01*
X173369969Y-109952638D02*
X173442541Y-109880067D01*
X173442541Y-109880067D02*
X173587684Y-109807495D01*
X173587684Y-109807495D02*
X173950541Y-109807495D01*
X173950541Y-109807495D02*
X174095684Y-109880067D01*
X174095684Y-109880067D02*
X174168255Y-109952638D01*
X174168255Y-109952638D02*
X174240826Y-110097781D01*
X174240826Y-110097781D02*
X174240826Y-110460638D01*
X174240826Y-110460638D02*
X174168255Y-110605781D01*
X174168255Y-110605781D02*
X174095684Y-110678353D01*
X174095684Y-110678353D02*
X173950541Y-110750924D01*
X173950541Y-110750924D02*
X173587684Y-110750924D01*
X173587684Y-110750924D02*
X173442541Y-110678353D01*
X173442541Y-110678353D02*
X173369969Y-110605781D01*
X174893970Y-110605781D02*
X174966541Y-110678353D01*
X174966541Y-110678353D02*
X174893970Y-110750924D01*
X174893970Y-110750924D02*
X174821398Y-110678353D01*
X174821398Y-110678353D02*
X174893970Y-110605781D01*
X174893970Y-110605781D02*
X174893970Y-110750924D01*
X175909969Y-109226924D02*
X176055112Y-109226924D01*
X176055112Y-109226924D02*
X176200255Y-109299495D01*
X176200255Y-109299495D02*
X176272827Y-109372067D01*
X176272827Y-109372067D02*
X176345398Y-109517210D01*
X176345398Y-109517210D02*
X176417969Y-109807495D01*
X176417969Y-109807495D02*
X176417969Y-110170353D01*
X176417969Y-110170353D02*
X176345398Y-110460638D01*
X176345398Y-110460638D02*
X176272827Y-110605781D01*
X176272827Y-110605781D02*
X176200255Y-110678353D01*
X176200255Y-110678353D02*
X176055112Y-110750924D01*
X176055112Y-110750924D02*
X175909969Y-110750924D01*
X175909969Y-110750924D02*
X175764827Y-110678353D01*
X175764827Y-110678353D02*
X175692255Y-110605781D01*
X175692255Y-110605781D02*
X175619684Y-110460638D01*
X175619684Y-110460638D02*
X175547112Y-110170353D01*
X175547112Y-110170353D02*
X175547112Y-109807495D01*
X175547112Y-109807495D02*
X175619684Y-109517210D01*
X175619684Y-109517210D02*
X175692255Y-109372067D01*
X175692255Y-109372067D02*
X175764827Y-109299495D01*
X175764827Y-109299495D02*
X175909969Y-109226924D01*
X172691999Y-85480464D02*
X172691999Y-86569035D01*
X172691999Y-86569035D02*
X172619428Y-86786750D01*
X172619428Y-86786750D02*
X172474285Y-86931893D01*
X172474285Y-86931893D02*
X172256571Y-87004464D01*
X172256571Y-87004464D02*
X172111428Y-87004464D01*
X174070857Y-85480464D02*
X173780571Y-85480464D01*
X173780571Y-85480464D02*
X173635428Y-85553035D01*
X173635428Y-85553035D02*
X173562857Y-85625607D01*
X173562857Y-85625607D02*
X173417714Y-85843321D01*
X173417714Y-85843321D02*
X173345142Y-86133607D01*
X173345142Y-86133607D02*
X173345142Y-86714178D01*
X173345142Y-86714178D02*
X173417714Y-86859321D01*
X173417714Y-86859321D02*
X173490285Y-86931893D01*
X173490285Y-86931893D02*
X173635428Y-87004464D01*
X173635428Y-87004464D02*
X173925714Y-87004464D01*
X173925714Y-87004464D02*
X174070857Y-86931893D01*
X174070857Y-86931893D02*
X174143428Y-86859321D01*
X174143428Y-86859321D02*
X174215999Y-86714178D01*
X174215999Y-86714178D02*
X174215999Y-86351321D01*
X174215999Y-86351321D02*
X174143428Y-86206178D01*
X174143428Y-86206178D02*
X174070857Y-86133607D01*
X174070857Y-86133607D02*
X173925714Y-86061035D01*
X173925714Y-86061035D02*
X173635428Y-86061035D01*
X173635428Y-86061035D02*
X173490285Y-86133607D01*
X173490285Y-86133607D02*
X173417714Y-86206178D01*
X173417714Y-86206178D02*
X173345142Y-86351321D01*
X185265000Y-102988321D02*
X185192428Y-103060893D01*
X185192428Y-103060893D02*
X184974714Y-103133464D01*
X184974714Y-103133464D02*
X184829571Y-103133464D01*
X184829571Y-103133464D02*
X184611857Y-103060893D01*
X184611857Y-103060893D02*
X184466714Y-102915750D01*
X184466714Y-102915750D02*
X184394143Y-102770607D01*
X184394143Y-102770607D02*
X184321571Y-102480321D01*
X184321571Y-102480321D02*
X184321571Y-102262607D01*
X184321571Y-102262607D02*
X184394143Y-101972321D01*
X184394143Y-101972321D02*
X184466714Y-101827178D01*
X184466714Y-101827178D02*
X184611857Y-101682035D01*
X184611857Y-101682035D02*
X184829571Y-101609464D01*
X184829571Y-101609464D02*
X184974714Y-101609464D01*
X184974714Y-101609464D02*
X185192428Y-101682035D01*
X185192428Y-101682035D02*
X185265000Y-101754607D01*
X186716428Y-103133464D02*
X185845571Y-103133464D01*
X186281000Y-103133464D02*
X186281000Y-101609464D01*
X186281000Y-101609464D02*
X186135857Y-101827178D01*
X186135857Y-101827178D02*
X185990714Y-101972321D01*
X185990714Y-101972321D02*
X185845571Y-102044893D01*
X181200999Y-94751464D02*
X181200999Y-95840035D01*
X181200999Y-95840035D02*
X181128428Y-96057750D01*
X181128428Y-96057750D02*
X180983285Y-96202893D01*
X180983285Y-96202893D02*
X180765571Y-96275464D01*
X180765571Y-96275464D02*
X180620428Y-96275464D01*
X182144428Y-95404607D02*
X181999285Y-95332035D01*
X181999285Y-95332035D02*
X181926714Y-95259464D01*
X181926714Y-95259464D02*
X181854142Y-95114321D01*
X181854142Y-95114321D02*
X181854142Y-95041750D01*
X181854142Y-95041750D02*
X181926714Y-94896607D01*
X181926714Y-94896607D02*
X181999285Y-94824035D01*
X181999285Y-94824035D02*
X182144428Y-94751464D01*
X182144428Y-94751464D02*
X182434714Y-94751464D01*
X182434714Y-94751464D02*
X182579857Y-94824035D01*
X182579857Y-94824035D02*
X182652428Y-94896607D01*
X182652428Y-94896607D02*
X182724999Y-95041750D01*
X182724999Y-95041750D02*
X182724999Y-95114321D01*
X182724999Y-95114321D02*
X182652428Y-95259464D01*
X182652428Y-95259464D02*
X182579857Y-95332035D01*
X182579857Y-95332035D02*
X182434714Y-95404607D01*
X182434714Y-95404607D02*
X182144428Y-95404607D01*
X182144428Y-95404607D02*
X181999285Y-95477178D01*
X181999285Y-95477178D02*
X181926714Y-95549750D01*
X181926714Y-95549750D02*
X181854142Y-95694893D01*
X181854142Y-95694893D02*
X181854142Y-95985178D01*
X181854142Y-95985178D02*
X181926714Y-96130321D01*
X181926714Y-96130321D02*
X181999285Y-96202893D01*
X181999285Y-96202893D02*
X182144428Y-96275464D01*
X182144428Y-96275464D02*
X182434714Y-96275464D01*
X182434714Y-96275464D02*
X182579857Y-96202893D01*
X182579857Y-96202893D02*
X182652428Y-96130321D01*
X182652428Y-96130321D02*
X182724999Y-95985178D01*
X182724999Y-95985178D02*
X182724999Y-95694893D01*
X182724999Y-95694893D02*
X182652428Y-95549750D01*
X182652428Y-95549750D02*
X182579857Y-95477178D01*
X182579857Y-95477178D02*
X182434714Y-95404607D01*
X195679000Y-102988321D02*
X195606428Y-103060893D01*
X195606428Y-103060893D02*
X195388714Y-103133464D01*
X195388714Y-103133464D02*
X195243571Y-103133464D01*
X195243571Y-103133464D02*
X195025857Y-103060893D01*
X195025857Y-103060893D02*
X194880714Y-102915750D01*
X194880714Y-102915750D02*
X194808143Y-102770607D01*
X194808143Y-102770607D02*
X194735571Y-102480321D01*
X194735571Y-102480321D02*
X194735571Y-102262607D01*
X194735571Y-102262607D02*
X194808143Y-101972321D01*
X194808143Y-101972321D02*
X194880714Y-101827178D01*
X194880714Y-101827178D02*
X195025857Y-101682035D01*
X195025857Y-101682035D02*
X195243571Y-101609464D01*
X195243571Y-101609464D02*
X195388714Y-101609464D01*
X195388714Y-101609464D02*
X195606428Y-101682035D01*
X195606428Y-101682035D02*
X195679000Y-101754607D01*
X196259571Y-101754607D02*
X196332143Y-101682035D01*
X196332143Y-101682035D02*
X196477286Y-101609464D01*
X196477286Y-101609464D02*
X196840143Y-101609464D01*
X196840143Y-101609464D02*
X196985286Y-101682035D01*
X196985286Y-101682035D02*
X197057857Y-101754607D01*
X197057857Y-101754607D02*
X197130428Y-101899750D01*
X197130428Y-101899750D02*
X197130428Y-102044893D01*
X197130428Y-102044893D02*
X197057857Y-102262607D01*
X197057857Y-102262607D02*
X196187000Y-103133464D01*
X196187000Y-103133464D02*
X197130428Y-103133464D01*
X159677964Y-112675500D02*
X160766535Y-112675500D01*
X160766535Y-112675500D02*
X160984250Y-112748071D01*
X160984250Y-112748071D02*
X161129393Y-112893214D01*
X161129393Y-112893214D02*
X161201964Y-113110928D01*
X161201964Y-113110928D02*
X161201964Y-113256071D01*
X159677964Y-112094928D02*
X159677964Y-111078928D01*
X159677964Y-111078928D02*
X161201964Y-111732071D01*
X180184999Y-113420464D02*
X180184999Y-114509035D01*
X180184999Y-114509035D02*
X180112428Y-114726750D01*
X180112428Y-114726750D02*
X179967285Y-114871893D01*
X179967285Y-114871893D02*
X179749571Y-114944464D01*
X179749571Y-114944464D02*
X179604428Y-114944464D01*
X181708999Y-114944464D02*
X180838142Y-114944464D01*
X181273571Y-114944464D02*
X181273571Y-113420464D01*
X181273571Y-113420464D02*
X181128428Y-113638178D01*
X181128428Y-113638178D02*
X180983285Y-113783321D01*
X180983285Y-113783321D02*
X180838142Y-113855893D01*
X197964999Y-113547464D02*
X197964999Y-114636035D01*
X197964999Y-114636035D02*
X197892428Y-114853750D01*
X197892428Y-114853750D02*
X197747285Y-114998893D01*
X197747285Y-114998893D02*
X197529571Y-115071464D01*
X197529571Y-115071464D02*
X197384428Y-115071464D01*
X198618142Y-113692607D02*
X198690714Y-113620035D01*
X198690714Y-113620035D02*
X198835857Y-113547464D01*
X198835857Y-113547464D02*
X199198714Y-113547464D01*
X199198714Y-113547464D02*
X199343857Y-113620035D01*
X199343857Y-113620035D02*
X199416428Y-113692607D01*
X199416428Y-113692607D02*
X199488999Y-113837750D01*
X199488999Y-113837750D02*
X199488999Y-113982893D01*
X199488999Y-113982893D02*
X199416428Y-114200607D01*
X199416428Y-114200607D02*
X198545571Y-115071464D01*
X198545571Y-115071464D02*
X199488999Y-115071464D01*
X198491143Y-112785464D02*
X198491143Y-111261464D01*
X198491143Y-111261464D02*
X198854000Y-111261464D01*
X198854000Y-111261464D02*
X199071714Y-111334035D01*
X199071714Y-111334035D02*
X199216857Y-111479178D01*
X199216857Y-111479178D02*
X199289428Y-111624321D01*
X199289428Y-111624321D02*
X199362000Y-111914607D01*
X199362000Y-111914607D02*
X199362000Y-112132321D01*
X199362000Y-112132321D02*
X199289428Y-112422607D01*
X199289428Y-112422607D02*
X199216857Y-112567750D01*
X199216857Y-112567750D02*
X199071714Y-112712893D01*
X199071714Y-112712893D02*
X198854000Y-112785464D01*
X198854000Y-112785464D02*
X198491143Y-112785464D01*
X199942571Y-111406607D02*
X200015143Y-111334035D01*
X200015143Y-111334035D02*
X200160286Y-111261464D01*
X200160286Y-111261464D02*
X200523143Y-111261464D01*
X200523143Y-111261464D02*
X200668286Y-111334035D01*
X200668286Y-111334035D02*
X200740857Y-111406607D01*
X200740857Y-111406607D02*
X200813428Y-111551750D01*
X200813428Y-111551750D02*
X200813428Y-111696893D01*
X200813428Y-111696893D02*
X200740857Y-111914607D01*
X200740857Y-111914607D02*
X199870000Y-112785464D01*
X199870000Y-112785464D02*
X200813428Y-112785464D01*
X177517999Y-96402464D02*
X177517999Y-97491035D01*
X177517999Y-97491035D02*
X177445428Y-97708750D01*
X177445428Y-97708750D02*
X177300285Y-97853893D01*
X177300285Y-97853893D02*
X177082571Y-97926464D01*
X177082571Y-97926464D02*
X176937428Y-97926464D01*
X178316285Y-97926464D02*
X178606571Y-97926464D01*
X178606571Y-97926464D02*
X178751714Y-97853893D01*
X178751714Y-97853893D02*
X178824285Y-97781321D01*
X178824285Y-97781321D02*
X178969428Y-97563607D01*
X178969428Y-97563607D02*
X179041999Y-97273321D01*
X179041999Y-97273321D02*
X179041999Y-96692750D01*
X179041999Y-96692750D02*
X178969428Y-96547607D01*
X178969428Y-96547607D02*
X178896857Y-96475035D01*
X178896857Y-96475035D02*
X178751714Y-96402464D01*
X178751714Y-96402464D02*
X178461428Y-96402464D01*
X178461428Y-96402464D02*
X178316285Y-96475035D01*
X178316285Y-96475035D02*
X178243714Y-96547607D01*
X178243714Y-96547607D02*
X178171142Y-96692750D01*
X178171142Y-96692750D02*
X178171142Y-97055607D01*
X178171142Y-97055607D02*
X178243714Y-97200750D01*
X178243714Y-97200750D02*
X178316285Y-97273321D01*
X178316285Y-97273321D02*
X178461428Y-97345893D01*
X178461428Y-97345893D02*
X178751714Y-97345893D01*
X178751714Y-97345893D02*
X178896857Y-97273321D01*
X178896857Y-97273321D02*
X178969428Y-97200750D01*
X178969428Y-97200750D02*
X179041999Y-97055607D01*
X188929857Y-112912464D02*
X188929857Y-114146178D01*
X188929857Y-114146178D02*
X189002428Y-114291321D01*
X189002428Y-114291321D02*
X189075000Y-114363893D01*
X189075000Y-114363893D02*
X189220142Y-114436464D01*
X189220142Y-114436464D02*
X189510428Y-114436464D01*
X189510428Y-114436464D02*
X189655571Y-114363893D01*
X189655571Y-114363893D02*
X189728142Y-114291321D01*
X189728142Y-114291321D02*
X189800714Y-114146178D01*
X189800714Y-114146178D02*
X189800714Y-112912464D01*
X191324713Y-114436464D02*
X190453856Y-114436464D01*
X190889285Y-114436464D02*
X190889285Y-112912464D01*
X190889285Y-112912464D02*
X190744142Y-113130178D01*
X190744142Y-113130178D02*
X190598999Y-113275321D01*
X190598999Y-113275321D02*
X190453856Y-113347893D01*
X184775143Y-112531464D02*
X184775143Y-111007464D01*
X184775143Y-111007464D02*
X185138000Y-111007464D01*
X185138000Y-111007464D02*
X185355714Y-111080035D01*
X185355714Y-111080035D02*
X185500857Y-111225178D01*
X185500857Y-111225178D02*
X185573428Y-111370321D01*
X185573428Y-111370321D02*
X185646000Y-111660607D01*
X185646000Y-111660607D02*
X185646000Y-111878321D01*
X185646000Y-111878321D02*
X185573428Y-112168607D01*
X185573428Y-112168607D02*
X185500857Y-112313750D01*
X185500857Y-112313750D02*
X185355714Y-112458893D01*
X185355714Y-112458893D02*
X185138000Y-112531464D01*
X185138000Y-112531464D02*
X184775143Y-112531464D01*
X187097428Y-112531464D02*
X186226571Y-112531464D01*
X186662000Y-112531464D02*
X186662000Y-111007464D01*
X186662000Y-111007464D02*
X186516857Y-111225178D01*
X186516857Y-111225178D02*
X186371714Y-111370321D01*
X186371714Y-111370321D02*
X186226571Y-111442893D01*
X181836000Y-103133464D02*
X181328000Y-102407750D01*
X180965143Y-103133464D02*
X180965143Y-101609464D01*
X180965143Y-101609464D02*
X181545714Y-101609464D01*
X181545714Y-101609464D02*
X181690857Y-101682035D01*
X181690857Y-101682035D02*
X181763428Y-101754607D01*
X181763428Y-101754607D02*
X181836000Y-101899750D01*
X181836000Y-101899750D02*
X181836000Y-102117464D01*
X181836000Y-102117464D02*
X181763428Y-102262607D01*
X181763428Y-102262607D02*
X181690857Y-102335178D01*
X181690857Y-102335178D02*
X181545714Y-102407750D01*
X181545714Y-102407750D02*
X180965143Y-102407750D01*
X183287428Y-103133464D02*
X182416571Y-103133464D01*
X182852000Y-103133464D02*
X182852000Y-101609464D01*
X182852000Y-101609464D02*
X182706857Y-101827178D01*
X182706857Y-101827178D02*
X182561714Y-101972321D01*
X182561714Y-101972321D02*
X182416571Y-102044893D01*
X199362000Y-103133464D02*
X198854000Y-102407750D01*
X198491143Y-103133464D02*
X198491143Y-101609464D01*
X198491143Y-101609464D02*
X199071714Y-101609464D01*
X199071714Y-101609464D02*
X199216857Y-101682035D01*
X199216857Y-101682035D02*
X199289428Y-101754607D01*
X199289428Y-101754607D02*
X199362000Y-101899750D01*
X199362000Y-101899750D02*
X199362000Y-102117464D01*
X199362000Y-102117464D02*
X199289428Y-102262607D01*
X199289428Y-102262607D02*
X199216857Y-102335178D01*
X199216857Y-102335178D02*
X199071714Y-102407750D01*
X199071714Y-102407750D02*
X198491143Y-102407750D01*
X199942571Y-101754607D02*
X200015143Y-101682035D01*
X200015143Y-101682035D02*
X200160286Y-101609464D01*
X200160286Y-101609464D02*
X200523143Y-101609464D01*
X200523143Y-101609464D02*
X200668286Y-101682035D01*
X200668286Y-101682035D02*
X200740857Y-101754607D01*
X200740857Y-101754607D02*
X200813428Y-101899750D01*
X200813428Y-101899750D02*
X200813428Y-102044893D01*
X200813428Y-102044893D02*
X200740857Y-102262607D01*
X200740857Y-102262607D02*
X199870000Y-103133464D01*
X199870000Y-103133464D02*
X200813428Y-103133464D01*
X202028999Y-91703464D02*
X202028999Y-92792035D01*
X202028999Y-92792035D02*
X201956428Y-93009750D01*
X201956428Y-93009750D02*
X201811285Y-93154893D01*
X201811285Y-93154893D02*
X201593571Y-93227464D01*
X201593571Y-93227464D02*
X201448428Y-93227464D01*
X203407857Y-92211464D02*
X203407857Y-93227464D01*
X203044999Y-91630893D02*
X202682142Y-92719464D01*
X202682142Y-92719464D02*
X203625571Y-92719464D01*
X201774999Y-107959464D02*
X201774999Y-109048035D01*
X201774999Y-109048035D02*
X201702428Y-109265750D01*
X201702428Y-109265750D02*
X201557285Y-109410893D01*
X201557285Y-109410893D02*
X201339571Y-109483464D01*
X201339571Y-109483464D02*
X201194428Y-109483464D01*
X202355571Y-107959464D02*
X203298999Y-107959464D01*
X203298999Y-107959464D02*
X202790999Y-108540035D01*
X202790999Y-108540035D02*
X203008714Y-108540035D01*
X203008714Y-108540035D02*
X203153857Y-108612607D01*
X203153857Y-108612607D02*
X203226428Y-108685178D01*
X203226428Y-108685178D02*
X203298999Y-108830321D01*
X203298999Y-108830321D02*
X203298999Y-109193178D01*
X203298999Y-109193178D02*
X203226428Y-109338321D01*
X203226428Y-109338321D02*
X203153857Y-109410893D01*
X203153857Y-109410893D02*
X203008714Y-109483464D01*
X203008714Y-109483464D02*
X202573285Y-109483464D01*
X202573285Y-109483464D02*
X202428142Y-109410893D01*
X202428142Y-109410893D02*
X202355571Y-109338321D01*
X205965999Y-84972464D02*
X205965999Y-86061035D01*
X205965999Y-86061035D02*
X205893428Y-86278750D01*
X205893428Y-86278750D02*
X205748285Y-86423893D01*
X205748285Y-86423893D02*
X205530571Y-86496464D01*
X205530571Y-86496464D02*
X205385428Y-86496464D01*
X207417428Y-84972464D02*
X206691714Y-84972464D01*
X206691714Y-84972464D02*
X206619142Y-85698178D01*
X206619142Y-85698178D02*
X206691714Y-85625607D01*
X206691714Y-85625607D02*
X206836857Y-85553035D01*
X206836857Y-85553035D02*
X207199714Y-85553035D01*
X207199714Y-85553035D02*
X207344857Y-85625607D01*
X207344857Y-85625607D02*
X207417428Y-85698178D01*
X207417428Y-85698178D02*
X207489999Y-85843321D01*
X207489999Y-85843321D02*
X207489999Y-86206178D01*
X207489999Y-86206178D02*
X207417428Y-86351321D01*
X207417428Y-86351321D02*
X207344857Y-86423893D01*
X207344857Y-86423893D02*
X207199714Y-86496464D01*
X207199714Y-86496464D02*
X206836857Y-86496464D01*
X206836857Y-86496464D02*
X206691714Y-86423893D01*
X206691714Y-86423893D02*
X206619142Y-86351321D01*
D13*
%TO.C,J6*%
X186420000Y-87900000D02*
X175220000Y-87900000D01*
X186420000Y-69900000D02*
X186420000Y-87900000D01*
X175220000Y-87900000D02*
X175220000Y-69900000D01*
X175220000Y-69900000D02*
X186420000Y-69900000D01*
D14*
%TO.C,C1*%
X185492000Y-105225748D02*
X185492000Y-105748252D01*
X184022000Y-105225748D02*
X184022000Y-105748252D01*
%TO.C,J8*%
X183890000Y-93430000D02*
X185000000Y-93430000D01*
X183890000Y-94190000D02*
X183890000Y-93430000D01*
X183890000Y-94950000D02*
X183890000Y-98695000D01*
X183890000Y-94950000D02*
X184436529Y-94950000D01*
X183890000Y-98695000D02*
X184692470Y-98695000D01*
X185307530Y-98695000D02*
X186110000Y-98695000D01*
X185563471Y-94950000D02*
X186110000Y-94950000D01*
X186110000Y-94950000D02*
X186110000Y-98695000D01*
%TO.C,C2*%
X196735000Y-105413748D02*
X196735000Y-105936252D01*
X195265000Y-105413748D02*
X195265000Y-105936252D01*
D15*
%TO.C,J7*%
X167722500Y-114342500D02*
X162392500Y-114342500D01*
X162392500Y-91482500D02*
X162392500Y-114342500D01*
X162392500Y-91482500D02*
X167722500Y-91482500D01*
X167722500Y-91482500D02*
X167722500Y-114342500D01*
X170362500Y-114992500D02*
G75*
G03*
X170162500Y-114992500I-100000J0D01*
G01*
X170162500Y-114992500D02*
G75*
G03*
X170362500Y-114992500I100000J0D01*
G01*
D13*
%TO.C,J1*%
X175490000Y-115640000D02*
X186690000Y-115640000D01*
X175490000Y-133640000D02*
X175490000Y-115640000D01*
X186690000Y-115640000D02*
X186690000Y-133640000D01*
X186690000Y-133640000D02*
X175490000Y-133640000D01*
%TO.C,J2*%
X193205000Y-115750000D02*
X204405000Y-115750000D01*
X193205000Y-133750000D02*
X193205000Y-115750000D01*
X204405000Y-115750000D02*
X204405000Y-133750000D01*
X204405000Y-133750000D02*
X193205000Y-133750000D01*
D14*
%TO.C,D2*%
X195470000Y-108591000D02*
X195470000Y-110511000D01*
X195470000Y-110511000D02*
X198330000Y-110511000D01*
X198330000Y-108591000D02*
X195470000Y-108591000D01*
%TO.C,J9*%
X179737000Y-111389000D02*
X178407000Y-111389000D01*
X179737000Y-110059000D02*
X179737000Y-111389000D01*
X179737000Y-108789000D02*
X179737000Y-98569000D01*
X179737000Y-108789000D02*
X177077000Y-108789000D01*
X179737000Y-98569000D02*
X177077000Y-98569000D01*
X177077000Y-108789000D02*
X177077000Y-98569000D01*
%TO.C,U1*%
X193410000Y-103900000D02*
X193410000Y-109910000D01*
X186590000Y-106150000D02*
X186590000Y-109910000D01*
X193410000Y-109910000D02*
X192150000Y-109910000D01*
X186590000Y-109910000D02*
X187850000Y-109910000D01*
%TO.C,D1*%
X185220000Y-110511000D02*
X185220000Y-108591000D01*
X185220000Y-108591000D02*
X182360000Y-108591000D01*
X182360000Y-110511000D02*
X185220000Y-110511000D01*
%TO.C,R1*%
X182952000Y-105259936D02*
X182952000Y-105714064D01*
X181482000Y-105259936D02*
X181482000Y-105714064D01*
%TO.C,R2*%
X199462000Y-105374248D02*
X199462000Y-105896752D01*
X197992000Y-105374248D02*
X197992000Y-105896752D01*
D13*
%TO.C,J4*%
X204225000Y-100510000D02*
X204225000Y-89310000D01*
X222225000Y-100510000D02*
X204225000Y-100510000D01*
X204225000Y-89310000D02*
X222225000Y-89310000D01*
X222225000Y-89310000D02*
X222225000Y-100510000D01*
%TO.C,J3*%
X204225000Y-114140000D02*
X204225000Y-102940000D01*
X222225000Y-114140000D02*
X204225000Y-114140000D01*
X204225000Y-102940000D02*
X222225000Y-102940000D01*
X222225000Y-102940000D02*
X222225000Y-114140000D01*
%TO.C,J5*%
X204607500Y-87900000D02*
X193407500Y-87900000D01*
X204607500Y-69900000D02*
X204607500Y-87900000D01*
X193407500Y-87900000D02*
X193407500Y-69900000D01*
X193407500Y-69900000D02*
X204607500Y-69900000D01*
%TD*%
M02*
