999
dxfrw 0.6.3
  0
SECTION
  2
HEADER
  9
$ACADVER
  1
AC1009
  9
$DWGCODEPAGE
  3
ANSI_1252
  9
$INSBASE
 10
0
 20
0
 30
0
  9
$EXTMIN
 10
55.51086979687032
 20
30.94080216978557
 30
0
  9
$EXTMAX
 10
111.5108697968703
 20
86.94080216978557
 30
0
  9
$LIMMIN
 10
0
 20
0
  9
$LIMMAX
 10
420
 20
297
  9
$ORTHOMODE
 70
    0
  9
$REGENMODE
 70
    1
  9
$FILLMODE
 70
    1
  9
$QTEXTMODE
 70
    0
  9
$MIRRTEXT
 70
    0
  9
$DRAGMODE
 70
    2
  9
$LTSCALE
 40
1
  9
$OSMODE
 70
    0
  9
$ATTMODE
 70
    0
  9
$TEXTSIZE
 40
2.5
  9
$TRACEWID
 40
15.68
  9
$TEXTSTYLE
  7
STANDARD
  9
$CLAYER
  8
VISIBLE (ANSI)
  9
$CELTYPE
  6
BYLAYER
  9
$CECOLOR
 62
  256
  9
$DIMSCALE
 40
2.5
  9
$DIMASZ
 40
2.5
  9
$DIMEXO
 40
0.625
  9
$DIMDLI
 40
3.75
  9
$DIMRND
 40
0
  9
$DIMDLE
 40
0
  9
$DIMEXE
 40
1.25
  9
$DIMTP
 40
0
  9
$DIMTM
 40
0
  9
$DIMTXT
 40
2.5
  9
$DIMCEN
 40
2.5
  9
$DIMTSZ
 40
0
  9
$DIMTOL
 70
    0
  9
$DIMLIM
 70
    0
  9
$DIMTIH
 70
    0
  9
$DIMTOH
 70
    0
  9
$DIMSE1
 70
    0
  9
$DIMSE2
 70
    0
  9
$DIMTAD
 70
    1
  9
$DIMZIN
 70
    8
  9
$DIMBLK
  1

  9
$DIMASO
 70
    1
  9
$DIMSHO
 70
    1
  9
$DIMPOST
  1

  9
$DIMAPOST
  1

  9
$DIMALT
 70
    0
  9
$DIMALTD
 70
    3
  9
$DIMALTF
 40
0.03937
  9
$DIMLFAC
 40
1
  9
$DIMTOFL
 70
    1
  9
$DIMTVP
 40
0
  9
$DIMTIX
 70
    0
  9
$DIMSOXD
 70
    0
  9
$DIMSAH
 70
    0
  9
$DIMBLK1
  1

  9
$DIMBLK2
  1

  9
$DIMSTYLE
  2
STANDARD
  9
$DIMCLRD
 70
    0
  9
$DIMCLRE
 70
    0
  9
$DIMCLRT
 70
    0
  9
$DIMTFAC
 40
1
  9
$DIMGAP
 40
0.625
  9
$LUNITS
 70
    2
  9
$LUPREC
 70
    4
  9
$SKETCHINC
 40
1
  9
$FILLETRAD
 40
0
  9
$AUNITS
 70
    0
  9
$AUPREC
 70
    2
  9
$MENU
  1
.
  9
$ELEVATION
 40
0
  9
$PELEVATION
 40
0
  9
$THICKNESS
 40
0
  9
$LIMCHECK
 70
    0
  9
$BLIPMODE
 70
    0
  9
$CHAMFERA
 40
0
  9
$CHAMFERB
 40
0
  9
$SKPOLY
 70
    0
  9
$USRTIMER
 70
    1
  9
$ANGBASE
 50
0
  9
$ANGDIR
 70
    0
  9
$PDMODE
 70
   96
  9
$PDSIZE
 40
-2
  9
$PLINEWID
 40
0
  9
$COORDS
 70
    2
  9
$SPLFRAME
 70
    0
  9
$SPLINETYPE
 70
    2
  9
$SPLINESEGS
 70
    8
  9
$ATTDIA
 70
    1
  9
$ATTREQ
 70
    1
  9
$HANDLING
 70
    1
  9
$HANDSEED
  5
20000
  9
$SURFTAB1
 70
    6
  9
$SURFTAB2
 70
    6
  9
$SURFTYPE
 70
    6
  9
$SURFU
 70
    6
  9
$SURFV
 70
    6
  9
$UCSNAME
  2

  9
$UCSORG
 10
0
 20
0
 30
0
  9
$UCSXDIR
 10
1
 20
0
 30
0
  9
$UCSYDIR
 10
0
 20
1
 30
0
  9
$PUCSNAME
  2

  9
$PUCSORG
 10
0
 20
0
 30
0
  9
$PUCSXDIR
 10
1
 20
0
 30
0
  9
$PUCSYDIR
 10
0
 20
1
 30
0
  9
$USERI1
 70
    0
  9
$USERI2
 70
    0
  9
$USERI3
 70
    0
  9
$USERI4
 70
    0
  9
$USERI5
 70
    0
  9
$USERR1
 40
0
  9
$USERR2
 40
0
  9
$USERR3
 40
0
  9
$USERR4
 40
0
  9
$USERR5
 40
0
  9
$WORLDVIEW
 70
    1
  9
$SHADEDGE
 70
    3
  9
$SHADEDIF
 70
   70
  9
$TILEMODE
 70
    1
  9
$MAXACTVP
 70
   64
  9
$PLIMCHECK
 70
    0
  9
$PEXTMIN
 10
0
 20
0
 30
0
  9
$PEXTMAX
 10
0
 20
0
 30
0
  9
$GRIDMODE
 70
    1
  9
$SNAPSTYLE
 70
    0
  9
$PLIMMIN
 10
0
 20
0
  9
$PLIMMAX
 10
279.4
 20
215.9
  9
$UNITMODE
 70
    0
  9
$VISRETAIN
 70
    1
  9
$PLINEGEN
 70
    0
  9
$PSLTSCALE
 70
    1
  0
ENDSEC
  0
SECTION
  2
TABLES
  0
TABLE
  2
VPORT
 70
    1
  0
VPORT
  2
*ACTIVE
 70
    0
 10
0
 20
0
 11
1
 21
1
 12
80.01463067374902
 22
48.59890800140938
 13
0
 23
0
 14
10
 24
10
 15
10
 25
10
 16
0
 26
0
 36
1
 17
0
 27
0
 37
0
 40
73.93976717357285
 41
1.856025039123631
 42
50
 43
0
 44
0
 50
0
 51
0
 71
    0
 72
  100
 73
    1
 74
    3
 75
    0
 76
    1
 77
    0
 78
    0
  0
ENDTAB
  0
TABLE
  2
LTYPE
 70
    4
  0
LTYPE
  2
BYBLOCK
 70
    0
  3

 72
   65
 73
    0
 40
0
  0
LTYPE
  2
BYLAYER
 70
    0
  3

 72
   65
 73
    0
 40
0
  0
LTYPE
  2
CONTINUOUS
 70
    0
  3
Solid line
 72
   65
 73
    0
 40
0
  0
LTYPE
  2
DOT
 70
    0
  3
Dot . . . . . . . . . . . . . . . . . . . . . .
 72
   65
 73
    2
 40
6.35
 49
0
 49
-6.35
  0
LTYPE
  2
DOTTINY
 70
    0
  3
Dot (.15x) .....................................
 72
   65
 73
    2
 40
0.9525
 49
0
 49
-0.9525
  0
LTYPE
  2
DOT2
 70
    0
  3
Dot (.5x) .....................................
 72
   65
 73
    2
 40
3.175
 49
0
 49
-3.175
  0
LTYPE
  2
DOTX2
 70
    0
  3
Dot (2x) .  .  .  .  .  .  .  .  .  .  .  .  .
 72
   65
 73
    2
 40
12.7
 49
0
 49
-12.7
  0
LTYPE
  2
DASHED
 70
    0
  3
Dashed _ _ _ _ _ _ _ _ _ _ _ _ _ _ _ _ _
 72
   65
 73
    2
 40
19.05
 49
12.7
 49
-6.35
  0
LTYPE
  2
DASHEDTINY
 70
    0
  3
Dashed (.15x) _ _ _ _ _ _ _ _ _ _ _ _ _ _ _ _ _
 72
   65
 73
    2
 40
2.8575
 49
1.905
 49
-0.9525
  0
LTYPE
  2
DASHED2
 70
    0
  3
Dashed (.5x) _ _ _ _ _ _ _ _ _ _ _ _ _ _ _ _ _
 72
   65
 73
    2
 40
9.524999999999999
 49
6.35
 49
-3.175
  0
LTYPE
  2
DASHEDX2
 70
    0
  3
Dashed (2x) ____  ____  ____  ____  ____  ___
 72
   65
 73
    2
 40
38.09999999999999
 49
25.4
 49
-12.7
  0
LTYPE
  2
DASHDOT
 70
    0
  3
Dash dot __ . __ . __ . __ . __ . __ . __ . __
 72
   65
 73
    4
 40
25.4
 49
12.7
 49
-6.35
 49
0
 49
-6.35
  0
LTYPE
  2
DASHDOTTINY
 70
    0
  3
Dash dot (.15x) _._._._._._._._._._._._._._._.
 72
   65
 73
    4
 40
3.81
 49
1.905
 49
-0.9525
 49
0
 49
-0.9525
  0
LTYPE
  2
DASHDOT2
 70
    0
  3
Dash dot (.5x) _._._._._._._._._._._._._._._.
 72
   65
 73
    4
 40
12.7
 49
6.35
 49
-3.175
 49
0
 49
-3.175
  0
LTYPE
  2
DASHDOTX2
 70
    0
  3
Dash dot (2x) ____  .  ____  .  ____  .  ___
 72
   65
 73
    4
 40
50.8
 49
25.4
 49
-12.7
 49
0
 49
-12.7
  0
LTYPE
  2
DIVIDE
 70
    0
  3
Divide ____ . . ____ . . ____ . . ____ . . ____
 72
   65
 73
    6
 40
31.75
 49
12.7
 49
-6.35
 49
0
 49
-6.35
 49
0
 49
-6.35
  0
LTYPE
  2
DIVIDETINY
 70
    0
  3
Divide (.15x) __..__..__..__..__..__..__..__.._
 72
   65
 73
    6
 40
4.7625
 49
1.905
 49
-0.9525
 49
0
 49
-0.9525
 49
0
 49
-0.9525
  0
LTYPE
  2
DIVIDE2
 70
    0
  3
Divide (.5x) __..__..__..__..__..__..__..__.._
 72
   65
 73
    6
 40
15.875
 49
6.35
 49
-3.175
 49
0
 49
-3.175
 49
0
 49
-3.175
  0
LTYPE
  2
DIVIDEX2
 70
    0
  3
Divide (2x) ________  .  .  ________  .  .  _
 72
   65
 73
    6
 40
63.5
 49
25.4
 49
-12.7
 49
0
 49
-12.7
 49
0
 49
-12.7
  0
LTYPE
  2
BORDER
 70
    0
  3
Border __ __ . __ __ . __ __ . __ __ . __ __ .
 72
   65
 73
    6
 40
44.45
 49
12.7
 49
-6.35
 49
12.7
 49
-6.35
 49
0
 49
-6.35
  0
LTYPE
  2
BORDERTINY
 70
    0
  3
Border (.15x) __.__.__.__.__.__.__.__.__.__.__.
 72
   65
 73
    6
 40
6.6675
 49
1.905
 49
-0.9525
 49
1.905
 49
-0.9525
 49
0
 49
-0.9525
  0
LTYPE
  2
BORDER2
 70
    0
  3
Border (.5x) __.__.__.__.__.__.__.__.__.__.__.
 72
   65
 73
    6
 40
22.225
 49
6.35
 49
-3.175
 49
6.35
 49
-3.175
 49
0
 49
-3.175
  0
LTYPE
  2
BORDERX2
 70
    0
  3
Border (2x) ____  ____  .  ____  ____  .  ___
 72
   65
 73
    6
 40
88.89999999999999
 49
25.4
 49
-12.7
 49
25.4
 49
-12.7
 49
0
 49
-12.7
  0
LTYPE
  2
CENTER
 70
    0
  3
Center ____ _ ____ _ ____ _ ____ _ ____ _ ____
 72
   65
 73
    4
 40
50.8
 49
31.75
 49
-6.35
 49
6.35
 49
-6.35
  0
LTYPE
  2
CENTERTINY
 70
    0
  3
Center (.15x) ___ _ ___ _ ___ _ ___ _ ___ _ ___
 72
   65
 73
    4
 40
7.619999999999999
 49
4.7625
 49
-0.9525
 49
0.9525
 49
-0.9525
  0
LTYPE
  2
CENTER2
 70
    0
  3
Center (.5x) ___ _ ___ _ ___ _ ___ _ ___ _ ___
 72
   65
 73
    4
 40
28.575
 49
19.05
 49
-3.175
 49
3.175
 49
-3.175
  0
LTYPE
  2
CENTERX2
 70
    0
  3
Center (2x) ________  __  ________  __  _____
 72
   65
 73
    4
 40
101.6
 49
63.5
 49
-12.7
 49
12.7
 49
-12.7
  0
ENDTAB
  0
TABLE
  2
LAYER
 70
    1
  0
LAYER
  2
0
 70
    0
 62
    7
  6
CONTINUOUS
  0
LAYER
  2
VISIBLE (ANSI)
 70
    0
 62
    7
  6
CONTINUOUS
  0
ENDTAB
  0
TABLE
  2
STYLE
 70
    3
  0
STYLE
  2
STANDARD
 70
    0
 40
0
 41
1
 50
0
 71
    0
 42
1
  3
TXT
  4

  0
ENDTAB
  0
TABLE
  2
VIEW
 70
    0
  0
ENDTAB
  0
TABLE
  2
UCS
 70
    0
  0
ENDTAB
  0
TABLE
  2
APPID
 70
    1
  0
APPID
  2
ACAD
 70
    0
  0
APPID
  2
LIBRECAD
 70
    0
  0
ENDTAB
  0
TABLE
  2
DIMSTYLE
 70
    1
  0
DIMSTYLE
  2
STANDARD
 70
    0
  3

  4

  5

  6

  7

 40
2.5
 41
2.5
 42
0.625
 43
0.38
 44
1.25
 45
0
 46
0
 47
0
 48
0
 49
1
140
2.5
141
0.09
142
0
143
25.4
144
1
145
0
146
1
147
0.625
 71
    0
 72
    0
 73
    0
 74
    1
 75
    0
 76
    0
 77
    0
 78
    8
170
    0
171
    2
172
    0
173
    0
174
    0
175
    0
176
    0
177
    0
178
    0
  0
ENDTAB
  0
ENDSEC
  0
SECTION
  2
BLOCKS
  0
BLOCK
  8
0
  2
$MODEL_SPACE
 70
    0
 10
0
 20
0
 30
0
  3
$MODEL_SPACE
  1

  0
ENDBLK
  8
0
  0
BLOCK
  8
0
  2
$PAPER_SPACE
 70
    0
 10
0
 20
0
 30
0
  3
$PAPER_SPACE
  1

  0
ENDBLK
  8
0
  0
ENDSEC
  0
SECTION
  2
ENTITIES
  0
LINE
  5
31
  8
VISIBLE (ANSI)
  6
BYLAYER
 62
  256
 10
57.00753857240683
 20
86.94080216978557
 11
110.0142010213338
 21
86.94080216978557
  0
POLYLINE
  5
32
  8
VISIBLE (ANSI)
  6
BYLAYER
 62
  256
 66
    1
 10
0
 20
0
 30
0
 70
    0
  0
VERTEX
  5
33
  8
VISIBLE (ANSI)
  6
BYLAYER
 62
  256
 10
110.0142010213338
 20
86.94080216978557
 30
0
  0
VERTEX
  5
34
  8
VISIBLE (ANSI)
  6
BYLAYER
 62
  256
 10
110.0746353352222
 20
86.93952727997423
 30
0
  0
VERTEX
  5
35
  8
VISIBLE (ANSI)
  6
BYLAYER
 62
  256
 10
110.1349271405734
 20
86.93573466459431
 30
0
  0
VERTEX
  5
36
  8
VISIBLE (ANSI)
  6
BYLAYER
 62
  256
 10
110.1949870462048
 20
86.92946332257272
 30
0
  0
VERTEX
  5
37
  8
VISIBLE (ANSI)
  6
BYLAYER
 62
  256
 10
110.2547256609333
 20
86.92075225283651
 30
0
  0
VERTEX
  5
38
  8
VISIBLE (ANSI)
  6
BYLAYER
 62
  256
 10
110.3140535935764
 20
86.90964045431269
 30
0
  0
VERTEX
  5
39
  8
VISIBLE (ANSI)
  6
BYLAYER
 62
  256
 10
110.3728814529511
 20
86.89616692592818
 30
0
  0
VERTEX
  5
3A
  8
VISIBLE (ANSI)
  6
BYLAYER
 62
  256
 10
110.4311198478746
 20
86.88037066661009
 30
0
  0
VERTEX
  5
3B
  8
VISIBLE (ANSI)
  6
BYLAYER
 62
  256
 10
110.4886793871641
 20
86.86229067528528
 30
0
  0
VERTEX
  5
3C
  8
VISIBLE (ANSI)
  6
BYLAYER
 62
  256
 10
110.5454706796367
 20
86.84196595088086
 30
0
  0
VERTEX
  5
3D
  8
VISIBLE (ANSI)
  6
BYLAYER
 62
  256
 10
110.6014043341098
 20
86.81943549232376
 30
0
  0
VERTEX
  5
3E
  8
VISIBLE (ANSI)
  6
BYLAYER
 62
  256
 10
110.6563909594004
 20
86.79473829854099
 30
0
  0
VERTEX
  5
3F
  8
VISIBLE (ANSI)
  6
BYLAYER
 62
  256
 10
110.7103411643257
 20
86.76791336845955
 30
0
  0
VERTEX
  5
40
  8
VISIBLE (ANSI)
  6
BYLAYER
 62
  256
 10
110.7631655577029
 20
86.73899970100642
 30
0
  0
VERTEX
  5
41
  8
VISIBLE (ANSI)
  6
BYLAYER
 62
  256
 10
110.8147747483492
 20
86.70803629510863
 30
0
  0
VERTEX
  5
42
  8
VISIBLE (ANSI)
  6
BYLAYER
 62
  256
 10
110.8650793450818
 20
86.67506214969312
 30
0
  0
VERTEX
  5
43
  8
VISIBLE (ANSI)
  6
BYLAYER
 62
  256
 10
110.9139899567178
 20
86.64011626368693
 30
0
  0
VERTEX
  5
44
  8
VISIBLE (ANSI)
  6
BYLAYER
 62
  256
 10
110.9614171920745
 20
86.60323763601704
 30
0
  0
VERTEX
  5
45
  8
VISIBLE (ANSI)
  6
BYLAYER
 62
  256
 10
111.007271659969
 20
86.56446526561044
 30
0
  0
VERTEX
  5
46
  8
VISIBLE (ANSI)
  6
BYLAYER
 62
  256
 10
111.0514639692185
 20
86.52383815139413
 30
0
  0
VERTEX
  5
47
  8
VISIBLE (ANSI)
  6
BYLAYER
 62
  256
 10
111.0939057784789
 20
86.48139634213378
 30
0
  0
VERTEX
  5
48
  8
VISIBLE (ANSI)
  6
BYLAYER
 62
  256
 10
111.1345328926952
 20
86.43720403288425
 30
0
  0
VERTEX
  5
49
  8
VISIBLE (ANSI)
  6
BYLAYER
 62
  256
 10
111.1733052631018
 20
86.39134956498975
 30
0
  0
VERTEX
  5
4A
  8
VISIBLE (ANSI)
  6
BYLAYER
 62
  256
 10
111.2101838907717
 20
86.34392232963309
 30
0
  0
VERTEX
  5
4B
  8
VISIBLE (ANSI)
  6
BYLAYER
 62
  256
 10
111.2451297767779
 20
86.29501171799703
 30
0
  0
VERTEX
  5
4C
  8
VISIBLE (ANSI)
  6
BYLAYER
 62
  256
 10
111.2781039221934
 20
86.24470712126444
 30
0
  0
VERTEX
  5
4D
  8
VISIBLE (ANSI)
  6
BYLAYER
 62
  256
 10
111.3090673280912
 20
86.19309793061814
 30
0
  0
VERTEX
  5
4E
  8
VISIBLE (ANSI)
  6
BYLAYER
 62
  256
 10
111.3379809955443
 20
86.14027353724093
 30
0
  0
VERTEX
  5
4F
  8
VISIBLE (ANSI)
  6
BYLAYER
 62
  256
 10
111.3648059256257
 20
86.08632333231562
 30
0
  0
VERTEX
  5
50
  8
VISIBLE (ANSI)
  6
BYLAYER
 62
  256
 10
111.3895031194085
 20
86.03133670702505
 30
0
  0
VERTEX
  5
51
  8
VISIBLE (ANSI)
  6
BYLAYER
 62
  256
 10
111.4120335779656
 20
85.97540305255202
 30
0
  0
VERTEX
  5
52
  8
VISIBLE (ANSI)
  6
BYLAYER
 62
  256
 10
111.4323583023701
 20
85.91861176007936
 30
0
  0
VERTEX
  5
53
  8
VISIBLE (ANSI)
  6
BYLAYER
 62
  256
 10
111.4504382936948
 20
85.86105222078986
 30
0
  0
VERTEX
  5
54
  8
VISIBLE (ANSI)
  6
BYLAYER
 62
  256
 10
111.466234553013
 20
85.80281382586637
 30
0
  0
VERTEX
  5
55
  8
VISIBLE (ANSI)
  6
BYLAYER
 62
  256
 10
111.4797080813974
 20
85.74398596649169
 30
0
  0
VERTEX
  5
56
  8
VISIBLE (ANSI)
  6
BYLAYER
 62
  256
 10
111.4908198799213
 20
85.68465803384862
 30
0
  0
VERTEX
  5
57
  8
VISIBLE (ANSI)
  6
BYLAYER
 62
  256
 10
111.4995309496575
 20
85.62491941912003
 30
0
  0
VERTEX
  5
58
  8
VISIBLE (ANSI)
  6
BYLAYER
 62
  256
 10
111.505802291679
 20
85.5648595134887
 30
0
  0
VERTEX
  5
59
  8
VISIBLE (ANSI)
  6
BYLAYER
 62
  256
 10
111.509594907059
 20
85.50456770813744
 30
0
  0
VERTEX
  5
5A
  8
VISIBLE (ANSI)
  6
BYLAYER
 62
  256
 10
111.5108697968703
 20
85.44413339424906
 30
0
  0
SEQEND
  5
5B
  8
VISIBLE (ANSI)
  6
BYLAYER
 62
  256
  0
LINE
  5
5C
  8
VISIBLE (ANSI)
  6
BYLAYER
 62
  256
 10
111.5108697968703
 20
85.44413339424906
 11
111.5108697968703
 21
32.43747094532208
  0
LINE
  5
5D
  8
VISIBLE (ANSI)
  6
BYLAYER
 62
  256
 10
110.0142010213338
 20
30.94080216978557
 11
57.00753857240682
 21
30.94080216978557
  0
POLYLINE
  5
5E
  8
VISIBLE (ANSI)
  6
BYLAYER
 62
  256
 66
    1
 10
0
 20
0
 30
0
 70
    0
  0
VERTEX
  5
5F
  8
VISIBLE (ANSI)
  6
BYLAYER
 62
  256
 10
57.00753857240682
 20
30.94080216978557
 30
0
  0
VERTEX
  5
60
  8
VISIBLE (ANSI)
  6
BYLAYER
 62
  256
 10
56.94710425851685
 20
30.94207705959529
 30
0
  0
VERTEX
  5
61
  8
VISIBLE (ANSI)
  6
BYLAYER
 62
  256
 10
56.88681245316435
 20
30.94586967497397
 30
0
  0
VERTEX
  5
62
  8
VISIBLE (ANSI)
  6
BYLAYER
 62
  256
 10
56.82675254753204
 20
30.95214101699458
 30
0
  0
VERTEX
  5
63
  8
VISIBLE (ANSI)
  6
BYLAYER
 62
  256
 10
56.76701393280275
 20
30.9608520867301
 30
0
  0
VERTEX
  5
64
  8
VISIBLE (ANSI)
  6
BYLAYER
 62
  256
 10
56.70768600015929
 20
30.97196388525352
 30
0
  0
VERTEX
  5
65
  8
VISIBLE (ANSI)
  6
BYLAYER
 62
  256
 10
56.64885814078441
 20
30.98543741363779
 30
0
  0
VERTEX
  5
66
  8
VISIBLE (ANSI)
  6
BYLAYER
 62
  256
 10
56.59061974586092
 20
31.00123367295592
 30
0
  0
VERTEX
  5
67
  8
VISIBLE (ANSI)
  6
BYLAYER
 62
  256
 10
56.53306020657159
 20
31.01931366428087
 30
0
  0
VERTEX
  5
68
  8
VISIBLE (ANSI)
  6
BYLAYER
 62
  256
 10
56.47626891409923
 20
31.03963838868561
 30
0
  0
VERTEX
  5
69
  8
VISIBLE (ANSI)
  6
BYLAYER
 62
  256
 10
56.42033525962662
 20
31.06216884724313
 30
0
  0
VERTEX
  5
6A
  8
VISIBLE (ANSI)
  6
BYLAYER
 62
  256
 10
56.36534863433656
 20
31.08686604102641
 30
0
  0
VERTEX
  5
6B
  8
VISIBLE (ANSI)
  6
BYLAYER
 62
  256
 10
56.3113984294118
 20
31.11369097110841
 30
0
  0
VERTEX
  5
6C
  8
VISIBLE (ANSI)
  6
BYLAYER
 62
  256
 10
56.25857403603518
 20
31.14260463856212
 30
0
  0
VERTEX
  5
6D
  8
VISIBLE (ANSI)
  6
BYLAYER
 62
  256
 10
56.20696484538948
 20
31.17356804446052
 30
0
  0
VERTEX
  5
6E
  8
VISIBLE (ANSI)
  6
BYLAYER
 62
  256
 10
56.15666024865745
 20
31.20654218987657
 30
0
  0
VERTEX
  5
6F
  8
VISIBLE (ANSI)
  6
BYLAYER
 62
  256
 10
56.10774963702192
 20
31.24148807588327
 30
0
  0
VERTEX
  5
70
  8
VISIBLE (ANSI)
  6
BYLAYER
 62
  256
 10
56.06032240166566
 20
31.27836670355358
 30
0
  0
VERTEX
  5
71
  8
VISIBLE (ANSI)
  6
BYLAYER
 62
  256
 10
56.01446793377146
 20
31.31713907396049
 30
0
  0
VERTEX
  5
72
  8
VISIBLE (ANSI)
  6
BYLAYER
 62
  256
 10
55.97027562452212
 20
31.35776618817697
 30
0
  0
VERTEX
  5
73
  8
VISIBLE (ANSI)
  6
BYLAYER
 62
  256
 10
55.92783381526174
 20
31.40020799743733
 30
0
  0
VERTEX
  5
74
  8
VISIBLE (ANSI)
  6
BYLAYER
 62
  256
 10
55.88720670104527
 20
31.44440030668667
 30
0
  0
VERTEX
  5
75
  8
VISIBLE (ANSI)
  6
BYLAYER
 62
  256
 10
55.84843433063837
 20
31.49025477458087
 30
0
  0
VERTEX
  5
76
  8
VISIBLE (ANSI)
  6
BYLAYER
 62
  256
 10
55.81155570296805
 20
31.53768200993713
 30
0
  0
VERTEX
  5
77
  8
VISIBLE (ANSI)
  6
BYLAYER
 62
  256
 10
55.77660981696135
 20
31.58659262157266
 30
0
  0
VERTEX
  5
78
  8
VISIBLE (ANSI)
  6
BYLAYER
 62
  256
 10
55.74363567154529
 20
31.63689721830469
 30
0
  0
VERTEX
  5
79
  8
VISIBLE (ANSI)
  6
BYLAYER
 62
  256
 10
55.71267226564689
 20
31.6885064089504
 30
0
  0
VERTEX
  5
7A
  8
VISIBLE (ANSI)
  6
BYLAYER
 62
  256
 10
55.68375859819318
 20
31.74133080232702
 30
0
  0
VERTEX
  5
7B
  8
VISIBLE (ANSI)
  6
BYLAYER
 62
  256
 10
55.65693366811117
 20
31.79528100725177
 30
0
  0
VERTEX
  5
7C
  8
VISIBLE (ANSI)
  6
BYLAYER
 62
  256
 10
55.63223647432791
 20
31.85026763254184
 30
0
  0
VERTEX
  5
7D
  8
VISIBLE (ANSI)
  6
BYLAYER
 62
  256
 10
55.60970601577039
 20
31.90620128701445
 30
0
  0
VERTEX
  5
7E
  8
VISIBLE (ANSI)
  6
BYLAYER
 62
  256
 10
55.58938129136564
 20
31.96299257948682
 30
0
  0
VERTEX
  5
7F
  8
VISIBLE (ANSI)
  6
BYLAYER
 62
  256
 10
55.57130130004069
 20
32.02055211877614
 30
0
  0
VERTEX
  5
80
  8
VISIBLE (ANSI)
  6
BYLAYER
 62
  256
 10
55.55550504072256
 20
32.07879051369964
 30
0
  0
VERTEX
  5
81
  8
VISIBLE (ANSI)
  6
BYLAYER
 62
  256
 10
55.54203151233828
 20
32.13761837307452
 30
0
  0
VERTEX
  5
82
  8
VISIBLE (ANSI)
  6
BYLAYER
 62
  256
 10
55.53091971381485
 20
32.19694630571799
 30
0
  0
VERTEX
  5
83
  8
VISIBLE (ANSI)
  6
BYLAYER
 62
  256
 10
55.52220864407933
 20
32.25668492044727
 30
0
  0
VERTEX
  5
84
  8
VISIBLE (ANSI)
  6
BYLAYER
 62
  256
 10
55.51593730205872
 20
32.31674482607957
 30
0
  0
VERTEX
  5
85
  8
VISIBLE (ANSI)
  6
BYLAYER
 62
  256
 10
55.51214468668005
 20
32.3770366314321
 30
0
  0
VERTEX
  5
86
  8
VISIBLE (ANSI)
  6
BYLAYER
 62
  256
 10
55.51086979687032
 20
32.43747094532208
 30
0
  0
SEQEND
  5
87
  8
VISIBLE (ANSI)
  6
BYLAYER
 62
  256
  0
LINE
  5
88
  8
VISIBLE (ANSI)
  6
BYLAYER
 62
  256
 10
55.51086979687032
 20
32.43747094532208
 11
55.51086979687032
 21
85.44413339424908
  0
POLYLINE
  5
89
  8
VISIBLE (ANSI)
  6
BYLAYER
 62
  256
 66
    1
 10
0
 20
0
 30
0
 70
    0
  0
VERTEX
  5
8A
  8
VISIBLE (ANSI)
  6
BYLAYER
 62
  256
 10
55.51086979687032
 20
85.44413339424908
 30
0
  0
VERTEX
  5
8B
  8
VISIBLE (ANSI)
  6
BYLAYER
 62
  256
 10
55.51214468668
 20
85.50456770813743
 30
0
  0
VERTEX
  5
8C
  8
VISIBLE (ANSI)
  6
BYLAYER
 62
  256
 10
55.51593730205855
 20
85.56485951348867
 30
0
  0
VERTEX
  5
8D
  8
VISIBLE (ANSI)
  6
BYLAYER
 62
  256
 10
55.52220864407897
 20
85.62491941912
 30
0
  0
VERTEX
  5
8E
  8
VISIBLE (ANSI)
  6
BYLAYER
 62
  256
 10
55.53091971381427
 20
85.68465803384861
 30
0
  0
VERTEX
  5
8F
  8
VISIBLE (ANSI)
  6
BYLAYER
 62
  256
 10
55.54203151233742
 20
85.74398596649165
 30
0
  0
VERTEX
  5
90
  8
VISIBLE (ANSI)
  6
BYLAYER
 62
  256
 10
55.55550504072141
 20
85.80281382586632
 30
0
  0
VERTEX
  5
91
  8
VISIBLE (ANSI)
  6
BYLAYER
 62
  256
 10
55.57130130003925
 20
85.86105222078984
 30
0
  0
VERTEX
  5
92
  8
VISIBLE (ANSI)
  6
BYLAYER
 62
  256
 10
55.58938129136391
 20
85.91861176007932
 30
0
  0
VERTEX
  5
93
  8
VISIBLE (ANSI)
  6
BYLAYER
 62
  256
 10
55.60970601576838
 20
85.975403052552
 30
0
  0
VERTEX
  5
94
  8
VISIBLE (ANSI)
  6
BYLAYER
 62
  256
 10
55.63223647432568
 20
86.03133670702503
 30
0
  0
VERTEX
  5
95
  8
VISIBLE (ANSI)
  6
BYLAYER
 62
  256
 10
55.65693366810877
 20
86.0863233323156
 30
0
  0
VERTEX
  5
96
  8
VISIBLE (ANSI)
  6
BYLAYER
 62
  256
 10
55.68375859819065
 20
86.1402735372409
 30
0
  0
VERTEX
  5
97
  8
VISIBLE (ANSI)
  6
BYLAYER
 62
  256
 10
55.71267226564432
 20
86.19309793061811
 30
0
  0
VERTEX
  5
98
  8
VISIBLE (ANSI)
  6
BYLAYER
 62
  256
 10
55.74363567154278
 20
86.24470712126444
 30
0
  0
VERTEX
  5
99
  8
VISIBLE (ANSI)
  6
BYLAYER
 62
  256
 10
55.77660981695898
 20
86.295011717997
 30
0
  0
VERTEX
  5
9A
  8
VISIBLE (ANSI)
  6
BYLAYER
 62
  256
 10
55.81155570296596
 20
86.34392232963305
 30
0
  0
VERTEX
  5
9B
  8
VISIBLE (ANSI)
  6
BYLAYER
 62
  256
 10
55.84843433063668
 20
86.39134956498974
 30
0
  0
VERTEX
  5
9C
  8
VISIBLE (ANSI)
  6
BYLAYER
 62
  256
 10
55.88720670104415
 20
86.43720403288424
 30
0
  0
VERTEX
  5
9D
  8
VISIBLE (ANSI)
  6
BYLAYER
 62
  256
 10
55.92783381526134
 20
86.48139634213376
 30
0
  0
VERTEX
  5
9E
  8
VISIBLE (ANSI)
  6
BYLAYER
 62
  256
 10
55.97027562452259
 20
86.52383815139412
 30
0
  0
VERTEX
  5
9F
  8
VISIBLE (ANSI)
  6
BYLAYER
 62
  256
 10
56.014467933773
 20
86.56446526561042
 30
0
  0
VERTEX
  5
A0
  8
VISIBLE (ANSI)
  6
BYLAYER
 62
  256
 10
56.06032240166837
 20
86.60323763601703
 30
0
  0
VERTEX
  5
A1
  8
VISIBLE (ANSI)
  6
BYLAYER
 62
  256
 10
56.10774963702588
 20
86.64011626368693
 30
0
  0
VERTEX
  5
A2
  8
VISIBLE (ANSI)
  6
BYLAYER
 62
  256
 10
56.1566602486627
 20
86.67506214969312
 30
0
  0
VERTEX
  5
A3
  8
VISIBLE (ANSI)
  6
BYLAYER
 62
  256
 10
56.20696484539599
 20
86.70803629510861
 30
0
  0
VERTEX
  5
A4
  8
VISIBLE (ANSI)
  6
BYLAYER
 62
  256
 10
56.25857403604293
 20
86.73899970100641
 30
0
  0
VERTEX
  5
A5
  8
VISIBLE (ANSI)
  6
BYLAYER
 62
  256
 10
56.31139842942069
 20
86.76791336845953
 30
0
  0
VERTEX
  5
A6
  8
VISIBLE (ANSI)
  6
BYLAYER
 62
  256
 10
56.36534863434643
 20
86.79473829854096
 30
0
  0
VERTEX
  5
A7
  8
VISIBLE (ANSI)
  6
BYLAYER
 62
  256
 10
56.42033525963733
 20
86.81943549232375
 30
0
  0
VERTEX
  5
A8
  8
VISIBLE (ANSI)
  6
BYLAYER
 62
  256
 10
56.47626891411056
 20
86.84196595088086
 30
0
  0
VERTEX
  5
A9
  8
VISIBLE (ANSI)
  6
BYLAYER
 62
  256
 10
56.53306020658327
 20
86.86229067528529
 30
0
  0
VERTEX
  5
AA
  8
VISIBLE (ANSI)
  6
BYLAYER
 62
  256
 10
56.59061974587264
 20
86.88037066661008
 30
0
  0
VERTEX
  5
AB
  8
VISIBLE (ANSI)
  6
BYLAYER
 62
  256
 10
56.64885814079582
 20
86.8961669259282
 30
0
  0
VERTEX
  5
AC
  8
VISIBLE (ANSI)
  6
BYLAYER
 62
  256
 10
56.70768600017001
 20
86.90964045431269
 30
0
  0
VERTEX
  5
AD
  8
VISIBLE (ANSI)
  6
BYLAYER
 62
  256
 10
56.76701393281237
 20
86.92075225283652
 30
0
  0
VERTEX
  5
AE
  8
VISIBLE (ANSI)
  6
BYLAYER
 62
  256
 10
56.82675254754005
 20
86.92946332257273
 30
0
  0
VERTEX
  5
AF
  8
VISIBLE (ANSI)
  6
BYLAYER
 62
  256
 10
56.88681245317024
 20
86.93573466459429
 30
0
  0
VERTEX
  5
B0
  8
VISIBLE (ANSI)
  6
BYLAYER
 62
  256
 10
56.94710425852011
 20
86.93952727997426
 30
0
  0
VERTEX
  5
B1
  8
VISIBLE (ANSI)
  6
BYLAYER
 62
  256
 10
57.00753857240683
 20
86.94080216978557
 30
0
  0
SEQEND
  5
B2
  8
VISIBLE (ANSI)
  6
BYLAYER
 62
  256
  0
POLYLINE
  5
B3
  8
VISIBLE (ANSI)
  6
BYLAYER
 62
  256
 66
    1
 10
0
 20
0
 30
0
 70
    0
  0
VERTEX
  5
B4
  8
VISIBLE (ANSI)
  6
BYLAYER
 62
  256
 10
111.5108697968703
 20
32.43747094532208
 30
0
  0
VERTEX
  5
B5
  8
VISIBLE (ANSI)
  6
BYLAYER
 62
  256
 10
111.509594907059
 20
32.37703663143212
 30
0
  0
VERTEX
  5
B6
  8
VISIBLE (ANSI)
  6
BYLAYER
 62
  256
 10
111.505802291679
 20
32.31674482607961
 30
0
  0
VERTEX
  5
B7
  8
VISIBLE (ANSI)
  6
BYLAYER
 62
  256
 10
111.4995309496575
 20
32.2566849204473
 30
0
  0
VERTEX
  5
B8
  8
VISIBLE (ANSI)
  6
BYLAYER
 62
  256
 10
111.4908198799213
 20
32.19694630571802
 30
0
  0
VERTEX
  5
B9
  8
VISIBLE (ANSI)
  6
BYLAYER
 62
  256
 10
111.4797080813974
 20
32.13761837307455
 30
0
  0
VERTEX
  5
BA
  8
VISIBLE (ANSI)
  6
BYLAYER
 62
  256
 10
111.466234553013
 20
32.07879051369967
 30
0
  0
VERTEX
  5
BB
  8
VISIBLE (ANSI)
  6
BYLAYER
 62
  256
 10
111.4504382936948
 20
32.02055211877617
 30
0
  0
VERTEX
  5
BC
  8
VISIBLE (ANSI)
  6
BYLAYER
 62
  256
 10
111.43235830237
 20
31.96299257948685
 30
0
  0
VERTEX
  5
BD
  8
VISIBLE (ANSI)
  6
BYLAYER
 62
  256
 10
111.4120335779656
 20
31.90620128701449
 30
0
  0
VERTEX
  5
BE
  8
VISIBLE (ANSI)
  6
BYLAYER
 62
  256
 10
111.3895031194085
 20
31.85026763254188
 30
0
  0
VERTEX
  5
BF
  8
VISIBLE (ANSI)
  6
BYLAYER
 62
  256
 10
111.3648059256257
 20
31.79528100725181
 30
0
  0
VERTEX
  5
C0
  8
VISIBLE (ANSI)
  6
BYLAYER
 62
  256
 10
111.3379809955443
 20
31.74133080232707
 30
0
  0
VERTEX
  5
C1
  8
VISIBLE (ANSI)
  6
BYLAYER
 62
  256
 10
111.3090673280912
 20
31.68850640895045
 30
0
  0
VERTEX
  5
C2
  8
VISIBLE (ANSI)
  6
BYLAYER
 62
  256
 10
111.2781039221934
 20
31.63689721830474
 30
0
  0
VERTEX
  5
C3
  8
VISIBLE (ANSI)
  6
BYLAYER
 62
  256
 10
111.2451297767779
 20
31.58659262157271
 30
0
  0
VERTEX
  5
C4
  8
VISIBLE (ANSI)
  6
BYLAYER
 62
  256
 10
111.2101838907717
 20
31.53768200993718
 30
0
  0
VERTEX
  5
C5
  8
VISIBLE (ANSI)
  6
BYLAYER
 62
  256
 10
111.1733052631018
 20
31.49025477458092
 30
0
  0
VERTEX
  5
C6
  8
VISIBLE (ANSI)
  6
BYLAYER
 62
  256
 10
111.1345328926952
 20
31.44440030668672
 30
0
  0
VERTEX
  5
C7
  8
VISIBLE (ANSI)
  6
BYLAYER
 62
  256
 10
111.0939057784789
 20
31.40020799743738
 30
0
  0
VERTEX
  5
C8
  8
VISIBLE (ANSI)
  6
BYLAYER
 62
  256
 10
111.0514639692185
 20
31.35776618817701
 30
0
  0
VERTEX
  5
C9
  8
VISIBLE (ANSI)
  6
BYLAYER
 62
  256
 10
111.007271659969
 20
31.31713907396054
 30
0
  0
VERTEX
  5
CA
  8
VISIBLE (ANSI)
  6
BYLAYER
 62
  256
 10
110.9614171920745
 20
31.27836670355363
 30
0
  0
VERTEX
  5
CB
  8
VISIBLE (ANSI)
  6
BYLAYER
 62
  256
 10
110.9139899567178
 20
31.24148807588331
 30
0
  0
VERTEX
  5
CC
  8
VISIBLE (ANSI)
  6
BYLAYER
 62
  256
 10
110.8650793450818
 20
31.20654218987661
 30
0
  0
VERTEX
  5
CD
  8
VISIBLE (ANSI)
  6
BYLAYER
 62
  256
 10
110.8147747483492
 20
31.17356804446055
 30
0
  0
VERTEX
  5
CE
  8
VISIBLE (ANSI)
  6
BYLAYER
 62
  256
 10
110.7631655577029
 20
31.14260463856215
 30
0
  0
VERTEX
  5
CF
  8
VISIBLE (ANSI)
  6
BYLAYER
 62
  256
 10
110.7103411643257
 20
31.11369097110844
 30
0
  0
VERTEX
  5
D0
  8
VISIBLE (ANSI)
  6
BYLAYER
 62
  256
 10
110.6563909594004
 20
31.08686604102643
 30
0
  0
VERTEX
  5
D1
  8
VISIBLE (ANSI)
  6
BYLAYER
 62
  256
 10
110.6014043341098
 20
31.06216884724316
 30
0
  0
VERTEX
  5
D2
  8
VISIBLE (ANSI)
  6
BYLAYER
 62
  256
 10
110.5454706796368
 20
31.03963838868563
 30
0
  0
VERTEX
  5
D3
  8
VISIBLE (ANSI)
  6
BYLAYER
 62
  256
 10
110.4886793871641
 20
31.01931366428089
 30
0
  0
VERTEX
  5
D4
  8
VISIBLE (ANSI)
  6
BYLAYER
 62
  256
 10
110.4311198478746
 20
31.00123367295594
 30
0
  0
VERTEX
  5
D5
  8
VISIBLE (ANSI)
  6
BYLAYER
 62
  256
 10
110.3728814529511
 20
30.98543741363781
 30
0
  0
VERTEX
  5
D6
  8
VISIBLE (ANSI)
  6
BYLAYER
 62
  256
 10
110.3140535935764
 20
30.97196388525353
 30
0
  0
VERTEX
  5
D7
  8
VISIBLE (ANSI)
  6
BYLAYER
 62
  256
 10
110.2547256609334
 20
30.96085208673011
 30
0
  0
VERTEX
  5
D8
  8
VISIBLE (ANSI)
  6
BYLAYER
 62
  256
 10
110.1949870462048
 20
30.95214101699458
 30
0
  0
VERTEX
  5
D9
  8
VISIBLE (ANSI)
  6
BYLAYER
 62
  256
 10
110.1349271405735
 20
30.94586967497397
 30
0
  0
VERTEX
  5
DA
  8
VISIBLE (ANSI)
  6
BYLAYER
 62
  256
 10
110.0746353352222
 20
30.94207705959529
 30
0
  0
VERTEX
  5
DB
  8
VISIBLE (ANSI)
  6
BYLAYER
 62
  256
 10
110.0142010213338
 20
30.94080216978557
 30
0
  0
SEQEND
  5
DC
  8
VISIBLE (ANSI)
  6
BYLAYER
 62
  256
  0
ENDSEC
  0
EOF
