G75*
%MOIN*%
%OFA0B0*%
%FSLAX25Y25*%
%IPPOS*%
%LPD*%
%AMOC8*
5,1,8,0,0,1.08239X$1,22.5*
%
%ADD10C,0.00600*%
%ADD11C,0.00500*%
%ADD12C,0.03000*%
%ADD13R,0.01600X0.00800*%
%ADD14C,0.01200*%
%ADD15C,0.01200*%
%ADD16C,0.01575*%
%ADD17C,0.01600*%
%ADD18C,0.00800*%
%ADD19R,0.00800X0.01600*%
%ADD20C,0.01969*%
%ADD21R,0.01800X0.03000*%
%ADD22C,0.00787*%
D10*
X0076000Y0018050D02*
X0096000Y0018050D01*
X0096000Y0019050D01*
X0089928Y0016019D02*
X0089494Y0016452D01*
X0088193Y0016452D01*
X0088193Y0013850D01*
X0089494Y0013850D01*
X0089928Y0014284D01*
X0089928Y0016019D01*
X0086981Y0016452D02*
X0086981Y0013850D01*
X0085247Y0016452D01*
X0085247Y0013850D01*
X0084035Y0014284D02*
X0084035Y0015151D01*
X0083167Y0015151D01*
X0082300Y0016019D02*
X0082300Y0014284D01*
X0082734Y0013850D01*
X0083601Y0013850D01*
X0084035Y0014284D01*
X0084035Y0016019D02*
X0083601Y0016452D01*
X0082734Y0016452D01*
X0082300Y0016019D01*
X0076000Y0018050D02*
X0076000Y0019050D01*
X0075500Y0024050D02*
X0075500Y0038050D01*
X0096500Y0038050D02*
X0096500Y0024050D01*
X0126000Y0042050D02*
X0126002Y0042159D01*
X0126008Y0042268D01*
X0126018Y0042376D01*
X0126032Y0042484D01*
X0126049Y0042592D01*
X0126071Y0042699D01*
X0126096Y0042805D01*
X0126126Y0042909D01*
X0126159Y0043013D01*
X0126196Y0043116D01*
X0126236Y0043217D01*
X0126280Y0043316D01*
X0126328Y0043414D01*
X0126380Y0043511D01*
X0126434Y0043605D01*
X0126492Y0043697D01*
X0126554Y0043787D01*
X0126619Y0043874D01*
X0126686Y0043960D01*
X0126757Y0044043D01*
X0126831Y0044123D01*
X0126908Y0044200D01*
X0126987Y0044275D01*
X0127069Y0044346D01*
X0127154Y0044415D01*
X0127241Y0044480D01*
X0127330Y0044543D01*
X0127422Y0044601D01*
X0127516Y0044657D01*
X0127611Y0044709D01*
X0127709Y0044758D01*
X0127808Y0044803D01*
X0127909Y0044845D01*
X0128011Y0044882D01*
X0128114Y0044916D01*
X0128219Y0044947D01*
X0128325Y0044973D01*
X0128431Y0044996D01*
X0128539Y0045014D01*
X0128647Y0045029D01*
X0128755Y0045040D01*
X0128864Y0045047D01*
X0128973Y0045050D01*
X0129082Y0045049D01*
X0129191Y0045044D01*
X0129299Y0045035D01*
X0129407Y0045022D01*
X0129515Y0045005D01*
X0129622Y0044985D01*
X0129728Y0044960D01*
X0129833Y0044932D01*
X0129937Y0044900D01*
X0130040Y0044864D01*
X0130142Y0044824D01*
X0130242Y0044781D01*
X0130340Y0044734D01*
X0130437Y0044684D01*
X0130531Y0044630D01*
X0130624Y0044572D01*
X0130715Y0044512D01*
X0130803Y0044448D01*
X0130889Y0044381D01*
X0130972Y0044311D01*
X0131053Y0044238D01*
X0131131Y0044162D01*
X0131206Y0044083D01*
X0131279Y0044001D01*
X0131348Y0043917D01*
X0131414Y0043831D01*
X0131477Y0043742D01*
X0131537Y0043651D01*
X0131594Y0043558D01*
X0131647Y0043463D01*
X0131696Y0043366D01*
X0131742Y0043267D01*
X0131784Y0043167D01*
X0131823Y0043065D01*
X0131858Y0042961D01*
X0131889Y0042857D01*
X0131917Y0042752D01*
X0131940Y0042645D01*
X0131960Y0042538D01*
X0131976Y0042430D01*
X0131988Y0042322D01*
X0131996Y0042213D01*
X0132000Y0042104D01*
X0132000Y0041996D01*
X0131996Y0041887D01*
X0131988Y0041778D01*
X0131976Y0041670D01*
X0131960Y0041562D01*
X0131940Y0041455D01*
X0131917Y0041348D01*
X0131889Y0041243D01*
X0131858Y0041139D01*
X0131823Y0041035D01*
X0131784Y0040933D01*
X0131742Y0040833D01*
X0131696Y0040734D01*
X0131647Y0040637D01*
X0131594Y0040542D01*
X0131537Y0040449D01*
X0131477Y0040358D01*
X0131414Y0040269D01*
X0131348Y0040183D01*
X0131279Y0040099D01*
X0131206Y0040017D01*
X0131131Y0039938D01*
X0131053Y0039862D01*
X0130972Y0039789D01*
X0130889Y0039719D01*
X0130803Y0039652D01*
X0130715Y0039588D01*
X0130624Y0039528D01*
X0130531Y0039470D01*
X0130437Y0039416D01*
X0130340Y0039366D01*
X0130242Y0039319D01*
X0130142Y0039276D01*
X0130040Y0039236D01*
X0129937Y0039200D01*
X0129833Y0039168D01*
X0129728Y0039140D01*
X0129622Y0039115D01*
X0129515Y0039095D01*
X0129407Y0039078D01*
X0129299Y0039065D01*
X0129191Y0039056D01*
X0129082Y0039051D01*
X0128973Y0039050D01*
X0128864Y0039053D01*
X0128755Y0039060D01*
X0128647Y0039071D01*
X0128539Y0039086D01*
X0128431Y0039104D01*
X0128325Y0039127D01*
X0128219Y0039153D01*
X0128114Y0039184D01*
X0128011Y0039218D01*
X0127909Y0039255D01*
X0127808Y0039297D01*
X0127709Y0039342D01*
X0127611Y0039391D01*
X0127516Y0039443D01*
X0127422Y0039499D01*
X0127330Y0039557D01*
X0127241Y0039620D01*
X0127154Y0039685D01*
X0127069Y0039754D01*
X0126987Y0039825D01*
X0126908Y0039900D01*
X0126831Y0039977D01*
X0126757Y0040057D01*
X0126686Y0040140D01*
X0126619Y0040226D01*
X0126554Y0040313D01*
X0126492Y0040403D01*
X0126434Y0040495D01*
X0126380Y0040589D01*
X0126328Y0040686D01*
X0126280Y0040784D01*
X0126236Y0040883D01*
X0126196Y0040984D01*
X0126159Y0041087D01*
X0126126Y0041191D01*
X0126096Y0041295D01*
X0126071Y0041401D01*
X0126049Y0041508D01*
X0126032Y0041616D01*
X0126018Y0041724D01*
X0126008Y0041832D01*
X0126002Y0041941D01*
X0126000Y0042050D01*
X0133800Y0041019D02*
X0134234Y0041452D01*
X0135101Y0041452D01*
X0135535Y0041019D01*
X0135535Y0040585D01*
X0135101Y0040151D01*
X0135535Y0039717D01*
X0135535Y0039284D01*
X0135101Y0038850D01*
X0134234Y0038850D01*
X0133800Y0039284D01*
X0134667Y0040151D02*
X0135101Y0040151D01*
X0136747Y0039284D02*
X0137180Y0039284D01*
X0137180Y0038850D01*
X0136747Y0038850D01*
X0136747Y0039284D01*
X0138220Y0039284D02*
X0138653Y0038850D01*
X0139521Y0038850D01*
X0139955Y0039284D01*
X0139955Y0039717D01*
X0139521Y0040151D01*
X0139087Y0040151D01*
X0139521Y0040151D02*
X0139955Y0040585D01*
X0139955Y0041019D01*
X0139521Y0041452D01*
X0138653Y0041452D01*
X0138220Y0041019D01*
X0141166Y0041452D02*
X0141166Y0039717D01*
X0142034Y0038850D01*
X0142901Y0039717D01*
X0142901Y0041452D01*
X0152598Y0041243D02*
X0152598Y0042544D01*
X0153031Y0042978D01*
X0154766Y0042978D01*
X0155200Y0042544D01*
X0155200Y0041243D01*
X0152598Y0041243D01*
X0152598Y0040031D02*
X0155200Y0040031D01*
X0152598Y0038297D01*
X0155200Y0038297D01*
X0154766Y0037085D02*
X0153899Y0037085D01*
X0153899Y0036217D01*
X0154766Y0035350D02*
X0155200Y0035784D01*
X0155200Y0036651D01*
X0154766Y0037085D01*
X0153031Y0037085D02*
X0152598Y0036651D01*
X0152598Y0035784D01*
X0153031Y0035350D01*
X0154766Y0035350D01*
X0147000Y0029050D02*
X0147002Y0029191D01*
X0147008Y0029332D01*
X0147018Y0029472D01*
X0147032Y0029612D01*
X0147050Y0029752D01*
X0147071Y0029891D01*
X0147097Y0030030D01*
X0147126Y0030168D01*
X0147160Y0030304D01*
X0147197Y0030440D01*
X0147238Y0030575D01*
X0147283Y0030709D01*
X0147332Y0030841D01*
X0147384Y0030972D01*
X0147440Y0031101D01*
X0147500Y0031228D01*
X0147563Y0031354D01*
X0147629Y0031478D01*
X0147700Y0031601D01*
X0147773Y0031721D01*
X0147850Y0031839D01*
X0147930Y0031955D01*
X0148014Y0032068D01*
X0148100Y0032179D01*
X0148190Y0032288D01*
X0148283Y0032394D01*
X0148378Y0032497D01*
X0148477Y0032598D01*
X0148578Y0032696D01*
X0148682Y0032791D01*
X0148789Y0032883D01*
X0148898Y0032972D01*
X0149010Y0033057D01*
X0149124Y0033140D01*
X0149240Y0033220D01*
X0149359Y0033296D01*
X0149480Y0033368D01*
X0149602Y0033438D01*
X0149727Y0033503D01*
X0149853Y0033566D01*
X0149981Y0033624D01*
X0150111Y0033679D01*
X0150242Y0033731D01*
X0150375Y0033778D01*
X0150509Y0033822D01*
X0150644Y0033863D01*
X0150780Y0033899D01*
X0150917Y0033931D01*
X0151055Y0033960D01*
X0151193Y0033985D01*
X0151333Y0034005D01*
X0151473Y0034022D01*
X0151613Y0034035D01*
X0151754Y0034044D01*
X0151894Y0034049D01*
X0152035Y0034050D01*
X0152176Y0034047D01*
X0152317Y0034040D01*
X0152457Y0034029D01*
X0152597Y0034014D01*
X0152737Y0033995D01*
X0152876Y0033973D01*
X0153014Y0033946D01*
X0153152Y0033916D01*
X0153288Y0033881D01*
X0153424Y0033843D01*
X0153558Y0033801D01*
X0153692Y0033755D01*
X0153824Y0033706D01*
X0153954Y0033652D01*
X0154083Y0033595D01*
X0154210Y0033535D01*
X0154336Y0033471D01*
X0154459Y0033403D01*
X0154581Y0033332D01*
X0154701Y0033258D01*
X0154818Y0033180D01*
X0154933Y0033099D01*
X0155046Y0033015D01*
X0155157Y0032928D01*
X0155265Y0032837D01*
X0155370Y0032744D01*
X0155473Y0032647D01*
X0155573Y0032548D01*
X0155670Y0032446D01*
X0155764Y0032341D01*
X0155855Y0032234D01*
X0155943Y0032124D01*
X0156028Y0032012D01*
X0156110Y0031897D01*
X0156189Y0031780D01*
X0156264Y0031661D01*
X0156336Y0031540D01*
X0156404Y0031417D01*
X0156469Y0031292D01*
X0156531Y0031165D01*
X0156588Y0031036D01*
X0156643Y0030906D01*
X0156693Y0030775D01*
X0156740Y0030642D01*
X0156783Y0030508D01*
X0156822Y0030372D01*
X0156857Y0030236D01*
X0156889Y0030099D01*
X0156916Y0029961D01*
X0156940Y0029822D01*
X0156960Y0029682D01*
X0156976Y0029542D01*
X0156988Y0029402D01*
X0156996Y0029261D01*
X0157000Y0029120D01*
X0157000Y0028980D01*
X0156996Y0028839D01*
X0156988Y0028698D01*
X0156976Y0028558D01*
X0156960Y0028418D01*
X0156940Y0028278D01*
X0156916Y0028139D01*
X0156889Y0028001D01*
X0156857Y0027864D01*
X0156822Y0027728D01*
X0156783Y0027592D01*
X0156740Y0027458D01*
X0156693Y0027325D01*
X0156643Y0027194D01*
X0156588Y0027064D01*
X0156531Y0026935D01*
X0156469Y0026808D01*
X0156404Y0026683D01*
X0156336Y0026560D01*
X0156264Y0026439D01*
X0156189Y0026320D01*
X0156110Y0026203D01*
X0156028Y0026088D01*
X0155943Y0025976D01*
X0155855Y0025866D01*
X0155764Y0025759D01*
X0155670Y0025654D01*
X0155573Y0025552D01*
X0155473Y0025453D01*
X0155370Y0025356D01*
X0155265Y0025263D01*
X0155157Y0025172D01*
X0155046Y0025085D01*
X0154933Y0025001D01*
X0154818Y0024920D01*
X0154701Y0024842D01*
X0154581Y0024768D01*
X0154459Y0024697D01*
X0154336Y0024629D01*
X0154210Y0024565D01*
X0154083Y0024505D01*
X0153954Y0024448D01*
X0153824Y0024394D01*
X0153692Y0024345D01*
X0153558Y0024299D01*
X0153424Y0024257D01*
X0153288Y0024219D01*
X0153152Y0024184D01*
X0153014Y0024154D01*
X0152876Y0024127D01*
X0152737Y0024105D01*
X0152597Y0024086D01*
X0152457Y0024071D01*
X0152317Y0024060D01*
X0152176Y0024053D01*
X0152035Y0024050D01*
X0151894Y0024051D01*
X0151754Y0024056D01*
X0151613Y0024065D01*
X0151473Y0024078D01*
X0151333Y0024095D01*
X0151193Y0024115D01*
X0151055Y0024140D01*
X0150917Y0024169D01*
X0150780Y0024201D01*
X0150644Y0024237D01*
X0150509Y0024278D01*
X0150375Y0024322D01*
X0150242Y0024369D01*
X0150111Y0024421D01*
X0149981Y0024476D01*
X0149853Y0024534D01*
X0149727Y0024597D01*
X0149602Y0024662D01*
X0149480Y0024732D01*
X0149359Y0024804D01*
X0149240Y0024880D01*
X0149124Y0024960D01*
X0149010Y0025043D01*
X0148898Y0025128D01*
X0148789Y0025217D01*
X0148682Y0025309D01*
X0148578Y0025404D01*
X0148477Y0025502D01*
X0148378Y0025603D01*
X0148283Y0025706D01*
X0148190Y0025812D01*
X0148100Y0025921D01*
X0148014Y0026032D01*
X0147930Y0026145D01*
X0147850Y0026261D01*
X0147773Y0026379D01*
X0147700Y0026499D01*
X0147629Y0026622D01*
X0147563Y0026746D01*
X0147500Y0026872D01*
X0147440Y0026999D01*
X0147384Y0027128D01*
X0147332Y0027259D01*
X0147283Y0027391D01*
X0147238Y0027525D01*
X0147197Y0027660D01*
X0147160Y0027796D01*
X0147126Y0027932D01*
X0147097Y0028070D01*
X0147071Y0028209D01*
X0147050Y0028348D01*
X0147032Y0028488D01*
X0147018Y0028628D01*
X0147008Y0028768D01*
X0147002Y0028909D01*
X0147000Y0029050D01*
X0165252Y0033798D02*
X0165252Y0022302D01*
X0165252Y0013798D02*
X0165252Y0012144D01*
X0196748Y0012144D01*
X0196748Y0014050D01*
X0196748Y0012144D02*
X0196748Y0010176D01*
X0198717Y0008207D01*
X0163283Y0008207D01*
X0165252Y0010176D01*
X0165252Y0012144D01*
X0196748Y0022050D02*
X0196748Y0033798D01*
X0165252Y0033798D01*
X0204291Y0028144D02*
X0204291Y0019956D01*
X0206850Y0024050D02*
X0206852Y0024162D01*
X0206858Y0024273D01*
X0206868Y0024385D01*
X0206882Y0024496D01*
X0206899Y0024606D01*
X0206921Y0024716D01*
X0206947Y0024825D01*
X0206976Y0024933D01*
X0207009Y0025039D01*
X0207046Y0025145D01*
X0207087Y0025249D01*
X0207132Y0025352D01*
X0207180Y0025453D01*
X0207231Y0025552D01*
X0207286Y0025649D01*
X0207345Y0025744D01*
X0207406Y0025838D01*
X0207471Y0025929D01*
X0207540Y0026017D01*
X0207611Y0026103D01*
X0207685Y0026187D01*
X0207763Y0026267D01*
X0207843Y0026345D01*
X0207926Y0026421D01*
X0208011Y0026493D01*
X0208099Y0026562D01*
X0208189Y0026628D01*
X0208282Y0026690D01*
X0208377Y0026750D01*
X0208474Y0026806D01*
X0208572Y0026858D01*
X0208673Y0026907D01*
X0208775Y0026952D01*
X0208879Y0026994D01*
X0208984Y0027032D01*
X0209091Y0027066D01*
X0209198Y0027096D01*
X0209307Y0027123D01*
X0209416Y0027145D01*
X0209527Y0027164D01*
X0209637Y0027179D01*
X0209749Y0027190D01*
X0209860Y0027197D01*
X0209972Y0027200D01*
X0210084Y0027199D01*
X0210196Y0027194D01*
X0210307Y0027185D01*
X0210418Y0027172D01*
X0210529Y0027155D01*
X0210639Y0027135D01*
X0210748Y0027110D01*
X0210856Y0027082D01*
X0210963Y0027049D01*
X0211069Y0027013D01*
X0211173Y0026973D01*
X0211276Y0026930D01*
X0211378Y0026883D01*
X0211477Y0026832D01*
X0211575Y0026778D01*
X0211671Y0026720D01*
X0211765Y0026659D01*
X0211856Y0026595D01*
X0211945Y0026528D01*
X0212032Y0026457D01*
X0212116Y0026383D01*
X0212198Y0026307D01*
X0212276Y0026227D01*
X0212352Y0026145D01*
X0212425Y0026060D01*
X0212495Y0025973D01*
X0212561Y0025883D01*
X0212625Y0025791D01*
X0212685Y0025697D01*
X0212742Y0025601D01*
X0212795Y0025502D01*
X0212845Y0025402D01*
X0212891Y0025301D01*
X0212934Y0025197D01*
X0212973Y0025092D01*
X0213008Y0024986D01*
X0213039Y0024879D01*
X0213067Y0024770D01*
X0213090Y0024661D01*
X0213110Y0024551D01*
X0213126Y0024440D01*
X0213138Y0024329D01*
X0213146Y0024218D01*
X0213150Y0024106D01*
X0213150Y0023994D01*
X0213146Y0023882D01*
X0213138Y0023771D01*
X0213126Y0023660D01*
X0213110Y0023549D01*
X0213090Y0023439D01*
X0213067Y0023330D01*
X0213039Y0023221D01*
X0213008Y0023114D01*
X0212973Y0023008D01*
X0212934Y0022903D01*
X0212891Y0022799D01*
X0212845Y0022698D01*
X0212795Y0022598D01*
X0212742Y0022499D01*
X0212685Y0022403D01*
X0212625Y0022309D01*
X0212561Y0022217D01*
X0212495Y0022127D01*
X0212425Y0022040D01*
X0212352Y0021955D01*
X0212276Y0021873D01*
X0212198Y0021793D01*
X0212116Y0021717D01*
X0212032Y0021643D01*
X0211945Y0021572D01*
X0211856Y0021505D01*
X0211765Y0021441D01*
X0211671Y0021380D01*
X0211575Y0021322D01*
X0211477Y0021268D01*
X0211378Y0021217D01*
X0211276Y0021170D01*
X0211173Y0021127D01*
X0211069Y0021087D01*
X0210963Y0021051D01*
X0210856Y0021018D01*
X0210748Y0020990D01*
X0210639Y0020965D01*
X0210529Y0020945D01*
X0210418Y0020928D01*
X0210307Y0020915D01*
X0210196Y0020906D01*
X0210084Y0020901D01*
X0209972Y0020900D01*
X0209860Y0020903D01*
X0209749Y0020910D01*
X0209637Y0020921D01*
X0209527Y0020936D01*
X0209416Y0020955D01*
X0209307Y0020977D01*
X0209198Y0021004D01*
X0209091Y0021034D01*
X0208984Y0021068D01*
X0208879Y0021106D01*
X0208775Y0021148D01*
X0208673Y0021193D01*
X0208572Y0021242D01*
X0208474Y0021294D01*
X0208377Y0021350D01*
X0208282Y0021410D01*
X0208189Y0021472D01*
X0208099Y0021538D01*
X0208011Y0021607D01*
X0207926Y0021679D01*
X0207843Y0021755D01*
X0207763Y0021833D01*
X0207685Y0021913D01*
X0207611Y0021997D01*
X0207540Y0022083D01*
X0207471Y0022171D01*
X0207406Y0022262D01*
X0207345Y0022356D01*
X0207286Y0022451D01*
X0207231Y0022548D01*
X0207180Y0022647D01*
X0207132Y0022748D01*
X0207087Y0022851D01*
X0207046Y0022955D01*
X0207009Y0023061D01*
X0206976Y0023167D01*
X0206947Y0023275D01*
X0206921Y0023384D01*
X0206899Y0023494D01*
X0206882Y0023604D01*
X0206868Y0023715D01*
X0206858Y0023827D01*
X0206852Y0023938D01*
X0206850Y0024050D01*
X0215709Y0019956D02*
X0215709Y0028144D01*
X0167843Y0101349D02*
X0164890Y0101349D01*
X0167843Y0101349D02*
X0167843Y0111192D01*
X0162921Y0118081D02*
X0153079Y0118081D01*
X0154734Y0121350D02*
X0154300Y0121784D01*
X0154734Y0121350D02*
X0155601Y0121350D01*
X0156035Y0121784D01*
X0156035Y0122217D01*
X0155601Y0122651D01*
X0154734Y0122651D01*
X0154300Y0123085D01*
X0154300Y0123519D01*
X0154734Y0123952D01*
X0155601Y0123952D01*
X0156035Y0123519D01*
X0157247Y0123952D02*
X0157247Y0121350D01*
X0158114Y0122217D01*
X0158981Y0121350D01*
X0158981Y0123952D01*
X0160193Y0123952D02*
X0161494Y0123952D01*
X0161928Y0123519D01*
X0161928Y0121784D01*
X0161494Y0121350D01*
X0160193Y0121350D01*
X0160193Y0123952D01*
X0177000Y0120050D02*
X0177002Y0120159D01*
X0177008Y0120268D01*
X0177018Y0120376D01*
X0177032Y0120484D01*
X0177049Y0120592D01*
X0177071Y0120699D01*
X0177096Y0120805D01*
X0177126Y0120909D01*
X0177159Y0121013D01*
X0177196Y0121116D01*
X0177236Y0121217D01*
X0177280Y0121316D01*
X0177328Y0121414D01*
X0177380Y0121511D01*
X0177434Y0121605D01*
X0177492Y0121697D01*
X0177554Y0121787D01*
X0177619Y0121874D01*
X0177686Y0121960D01*
X0177757Y0122043D01*
X0177831Y0122123D01*
X0177908Y0122200D01*
X0177987Y0122275D01*
X0178069Y0122346D01*
X0178154Y0122415D01*
X0178241Y0122480D01*
X0178330Y0122543D01*
X0178422Y0122601D01*
X0178516Y0122657D01*
X0178611Y0122709D01*
X0178709Y0122758D01*
X0178808Y0122803D01*
X0178909Y0122845D01*
X0179011Y0122882D01*
X0179114Y0122916D01*
X0179219Y0122947D01*
X0179325Y0122973D01*
X0179431Y0122996D01*
X0179539Y0123014D01*
X0179647Y0123029D01*
X0179755Y0123040D01*
X0179864Y0123047D01*
X0179973Y0123050D01*
X0180082Y0123049D01*
X0180191Y0123044D01*
X0180299Y0123035D01*
X0180407Y0123022D01*
X0180515Y0123005D01*
X0180622Y0122985D01*
X0180728Y0122960D01*
X0180833Y0122932D01*
X0180937Y0122900D01*
X0181040Y0122864D01*
X0181142Y0122824D01*
X0181242Y0122781D01*
X0181340Y0122734D01*
X0181437Y0122684D01*
X0181531Y0122630D01*
X0181624Y0122572D01*
X0181715Y0122512D01*
X0181803Y0122448D01*
X0181889Y0122381D01*
X0181972Y0122311D01*
X0182053Y0122238D01*
X0182131Y0122162D01*
X0182206Y0122083D01*
X0182279Y0122001D01*
X0182348Y0121917D01*
X0182414Y0121831D01*
X0182477Y0121742D01*
X0182537Y0121651D01*
X0182594Y0121558D01*
X0182647Y0121463D01*
X0182696Y0121366D01*
X0182742Y0121267D01*
X0182784Y0121167D01*
X0182823Y0121065D01*
X0182858Y0120961D01*
X0182889Y0120857D01*
X0182917Y0120752D01*
X0182940Y0120645D01*
X0182960Y0120538D01*
X0182976Y0120430D01*
X0182988Y0120322D01*
X0182996Y0120213D01*
X0183000Y0120104D01*
X0183000Y0119996D01*
X0182996Y0119887D01*
X0182988Y0119778D01*
X0182976Y0119670D01*
X0182960Y0119562D01*
X0182940Y0119455D01*
X0182917Y0119348D01*
X0182889Y0119243D01*
X0182858Y0119139D01*
X0182823Y0119035D01*
X0182784Y0118933D01*
X0182742Y0118833D01*
X0182696Y0118734D01*
X0182647Y0118637D01*
X0182594Y0118542D01*
X0182537Y0118449D01*
X0182477Y0118358D01*
X0182414Y0118269D01*
X0182348Y0118183D01*
X0182279Y0118099D01*
X0182206Y0118017D01*
X0182131Y0117938D01*
X0182053Y0117862D01*
X0181972Y0117789D01*
X0181889Y0117719D01*
X0181803Y0117652D01*
X0181715Y0117588D01*
X0181624Y0117528D01*
X0181531Y0117470D01*
X0181437Y0117416D01*
X0181340Y0117366D01*
X0181242Y0117319D01*
X0181142Y0117276D01*
X0181040Y0117236D01*
X0180937Y0117200D01*
X0180833Y0117168D01*
X0180728Y0117140D01*
X0180622Y0117115D01*
X0180515Y0117095D01*
X0180407Y0117078D01*
X0180299Y0117065D01*
X0180191Y0117056D01*
X0180082Y0117051D01*
X0179973Y0117050D01*
X0179864Y0117053D01*
X0179755Y0117060D01*
X0179647Y0117071D01*
X0179539Y0117086D01*
X0179431Y0117104D01*
X0179325Y0117127D01*
X0179219Y0117153D01*
X0179114Y0117184D01*
X0179011Y0117218D01*
X0178909Y0117255D01*
X0178808Y0117297D01*
X0178709Y0117342D01*
X0178611Y0117391D01*
X0178516Y0117443D01*
X0178422Y0117499D01*
X0178330Y0117557D01*
X0178241Y0117620D01*
X0178154Y0117685D01*
X0178069Y0117754D01*
X0177987Y0117825D01*
X0177908Y0117900D01*
X0177831Y0117977D01*
X0177757Y0118057D01*
X0177686Y0118140D01*
X0177619Y0118226D01*
X0177554Y0118313D01*
X0177492Y0118403D01*
X0177434Y0118495D01*
X0177380Y0118589D01*
X0177328Y0118686D01*
X0177280Y0118784D01*
X0177236Y0118883D01*
X0177196Y0118984D01*
X0177159Y0119087D01*
X0177126Y0119191D01*
X0177096Y0119295D01*
X0177071Y0119401D01*
X0177049Y0119508D01*
X0177032Y0119616D01*
X0177018Y0119724D01*
X0177008Y0119832D01*
X0177002Y0119941D01*
X0177000Y0120050D01*
X0184800Y0119452D02*
X0184800Y0117717D01*
X0185667Y0116850D01*
X0186535Y0117717D01*
X0186535Y0119452D01*
X0187747Y0118585D02*
X0188180Y0118585D01*
X0188180Y0116850D01*
X0187747Y0116850D02*
X0188614Y0116850D01*
X0189711Y0116850D02*
X0189711Y0118585D01*
X0191012Y0118585D01*
X0191446Y0118151D01*
X0191446Y0116850D01*
X0188180Y0119452D02*
X0188180Y0119886D01*
X0151110Y0101349D02*
X0148157Y0101349D01*
X0148157Y0111192D01*
X0065892Y0117784D02*
X0065458Y0117350D01*
X0064591Y0117350D01*
X0064157Y0117784D01*
X0064157Y0119952D01*
X0062946Y0119952D02*
X0062946Y0117350D01*
X0061211Y0117350D02*
X0061211Y0119952D01*
X0062078Y0119085D01*
X0062946Y0119952D01*
X0060114Y0119952D02*
X0059247Y0119952D01*
X0059680Y0119952D02*
X0059680Y0117350D01*
X0059247Y0117350D02*
X0060114Y0117350D01*
X0058035Y0118217D02*
X0058035Y0119952D01*
X0058035Y0118217D02*
X0057167Y0117350D01*
X0056300Y0118217D01*
X0056300Y0119952D01*
X0048000Y0120050D02*
X0048002Y0120159D01*
X0048008Y0120268D01*
X0048018Y0120376D01*
X0048032Y0120484D01*
X0048049Y0120592D01*
X0048071Y0120699D01*
X0048096Y0120805D01*
X0048126Y0120909D01*
X0048159Y0121013D01*
X0048196Y0121116D01*
X0048236Y0121217D01*
X0048280Y0121316D01*
X0048328Y0121414D01*
X0048380Y0121511D01*
X0048434Y0121605D01*
X0048492Y0121697D01*
X0048554Y0121787D01*
X0048619Y0121874D01*
X0048686Y0121960D01*
X0048757Y0122043D01*
X0048831Y0122123D01*
X0048908Y0122200D01*
X0048987Y0122275D01*
X0049069Y0122346D01*
X0049154Y0122415D01*
X0049241Y0122480D01*
X0049330Y0122543D01*
X0049422Y0122601D01*
X0049516Y0122657D01*
X0049611Y0122709D01*
X0049709Y0122758D01*
X0049808Y0122803D01*
X0049909Y0122845D01*
X0050011Y0122882D01*
X0050114Y0122916D01*
X0050219Y0122947D01*
X0050325Y0122973D01*
X0050431Y0122996D01*
X0050539Y0123014D01*
X0050647Y0123029D01*
X0050755Y0123040D01*
X0050864Y0123047D01*
X0050973Y0123050D01*
X0051082Y0123049D01*
X0051191Y0123044D01*
X0051299Y0123035D01*
X0051407Y0123022D01*
X0051515Y0123005D01*
X0051622Y0122985D01*
X0051728Y0122960D01*
X0051833Y0122932D01*
X0051937Y0122900D01*
X0052040Y0122864D01*
X0052142Y0122824D01*
X0052242Y0122781D01*
X0052340Y0122734D01*
X0052437Y0122684D01*
X0052531Y0122630D01*
X0052624Y0122572D01*
X0052715Y0122512D01*
X0052803Y0122448D01*
X0052889Y0122381D01*
X0052972Y0122311D01*
X0053053Y0122238D01*
X0053131Y0122162D01*
X0053206Y0122083D01*
X0053279Y0122001D01*
X0053348Y0121917D01*
X0053414Y0121831D01*
X0053477Y0121742D01*
X0053537Y0121651D01*
X0053594Y0121558D01*
X0053647Y0121463D01*
X0053696Y0121366D01*
X0053742Y0121267D01*
X0053784Y0121167D01*
X0053823Y0121065D01*
X0053858Y0120961D01*
X0053889Y0120857D01*
X0053917Y0120752D01*
X0053940Y0120645D01*
X0053960Y0120538D01*
X0053976Y0120430D01*
X0053988Y0120322D01*
X0053996Y0120213D01*
X0054000Y0120104D01*
X0054000Y0119996D01*
X0053996Y0119887D01*
X0053988Y0119778D01*
X0053976Y0119670D01*
X0053960Y0119562D01*
X0053940Y0119455D01*
X0053917Y0119348D01*
X0053889Y0119243D01*
X0053858Y0119139D01*
X0053823Y0119035D01*
X0053784Y0118933D01*
X0053742Y0118833D01*
X0053696Y0118734D01*
X0053647Y0118637D01*
X0053594Y0118542D01*
X0053537Y0118449D01*
X0053477Y0118358D01*
X0053414Y0118269D01*
X0053348Y0118183D01*
X0053279Y0118099D01*
X0053206Y0118017D01*
X0053131Y0117938D01*
X0053053Y0117862D01*
X0052972Y0117789D01*
X0052889Y0117719D01*
X0052803Y0117652D01*
X0052715Y0117588D01*
X0052624Y0117528D01*
X0052531Y0117470D01*
X0052437Y0117416D01*
X0052340Y0117366D01*
X0052242Y0117319D01*
X0052142Y0117276D01*
X0052040Y0117236D01*
X0051937Y0117200D01*
X0051833Y0117168D01*
X0051728Y0117140D01*
X0051622Y0117115D01*
X0051515Y0117095D01*
X0051407Y0117078D01*
X0051299Y0117065D01*
X0051191Y0117056D01*
X0051082Y0117051D01*
X0050973Y0117050D01*
X0050864Y0117053D01*
X0050755Y0117060D01*
X0050647Y0117071D01*
X0050539Y0117086D01*
X0050431Y0117104D01*
X0050325Y0117127D01*
X0050219Y0117153D01*
X0050114Y0117184D01*
X0050011Y0117218D01*
X0049909Y0117255D01*
X0049808Y0117297D01*
X0049709Y0117342D01*
X0049611Y0117391D01*
X0049516Y0117443D01*
X0049422Y0117499D01*
X0049330Y0117557D01*
X0049241Y0117620D01*
X0049154Y0117685D01*
X0049069Y0117754D01*
X0048987Y0117825D01*
X0048908Y0117900D01*
X0048831Y0117977D01*
X0048757Y0118057D01*
X0048686Y0118140D01*
X0048619Y0118226D01*
X0048554Y0118313D01*
X0048492Y0118403D01*
X0048434Y0118495D01*
X0048380Y0118589D01*
X0048328Y0118686D01*
X0048280Y0118784D01*
X0048236Y0118883D01*
X0048196Y0118984D01*
X0048159Y0119087D01*
X0048126Y0119191D01*
X0048096Y0119295D01*
X0048071Y0119401D01*
X0048049Y0119508D01*
X0048032Y0119616D01*
X0048018Y0119724D01*
X0048008Y0119832D01*
X0048002Y0119941D01*
X0048000Y0120050D01*
X0065892Y0119952D02*
X0065892Y0117784D01*
D11*
X0061855Y0121800D02*
X0061188Y0121800D01*
X0060854Y0122134D01*
X0061521Y0122801D02*
X0061855Y0122801D01*
X0062188Y0122467D01*
X0062188Y0122134D01*
X0061855Y0121800D01*
X0061855Y0122801D02*
X0062188Y0123134D01*
X0062188Y0123468D01*
X0061855Y0123802D01*
X0061188Y0123802D01*
X0060854Y0123468D01*
X0059886Y0123468D02*
X0059886Y0122801D01*
X0059553Y0122467D01*
X0058552Y0122467D01*
X0058552Y0121800D02*
X0058552Y0123802D01*
X0059553Y0123802D01*
X0059886Y0123468D01*
X0057584Y0123802D02*
X0056250Y0123802D01*
X0056917Y0123802D02*
X0056917Y0121800D01*
X0074248Y0109499D02*
X0074582Y0109832D01*
X0075916Y0108498D01*
X0076250Y0108832D01*
X0076250Y0109499D01*
X0075916Y0109832D01*
X0074582Y0109832D01*
X0074248Y0109499D02*
X0074248Y0108832D01*
X0074582Y0108498D01*
X0075916Y0108498D01*
X0076250Y0107531D02*
X0076250Y0106196D01*
X0076250Y0106863D02*
X0074248Y0106863D01*
X0074916Y0106196D01*
X0074582Y0105229D02*
X0074248Y0104895D01*
X0074248Y0104228D01*
X0074582Y0103894D01*
X0075916Y0103894D01*
X0076250Y0104228D01*
X0076250Y0104895D01*
X0075916Y0105229D01*
X0081514Y0100983D02*
X0081848Y0101317D01*
X0082181Y0101317D01*
X0083516Y0099982D01*
X0083516Y0101317D01*
X0081514Y0100983D02*
X0081514Y0100316D01*
X0081848Y0099982D01*
X0081514Y0098348D02*
X0083516Y0098348D01*
X0083516Y0099015D02*
X0083516Y0097680D01*
X0083516Y0096713D02*
X0082849Y0096046D01*
X0082849Y0096379D02*
X0082849Y0095378D01*
X0083516Y0095378D02*
X0081514Y0095378D01*
X0081514Y0096379D01*
X0081848Y0096713D01*
X0082515Y0096713D01*
X0082849Y0096379D01*
X0082181Y0097680D02*
X0081514Y0098348D01*
X0086014Y0098681D02*
X0086014Y0098014D01*
X0086348Y0097680D01*
X0086348Y0096713D02*
X0087015Y0096713D01*
X0087349Y0096379D01*
X0087349Y0095378D01*
X0088016Y0095378D02*
X0086014Y0095378D01*
X0086014Y0096379D01*
X0086348Y0096713D01*
X0087349Y0096046D02*
X0088016Y0096713D01*
X0088016Y0097680D02*
X0086681Y0099015D01*
X0086348Y0099015D01*
X0086014Y0098681D01*
X0086348Y0099982D02*
X0086014Y0100316D01*
X0086014Y0100983D01*
X0086348Y0101317D01*
X0087682Y0099982D01*
X0088016Y0100316D01*
X0088016Y0100983D01*
X0087682Y0101317D01*
X0086348Y0101317D01*
X0086348Y0099982D02*
X0087682Y0099982D01*
X0088016Y0099015D02*
X0088016Y0097680D01*
X0090514Y0098348D02*
X0092516Y0098348D01*
X0092516Y0099015D02*
X0092516Y0097680D01*
X0092516Y0096713D02*
X0091849Y0096046D01*
X0091849Y0096379D02*
X0091849Y0095378D01*
X0092516Y0095378D02*
X0090514Y0095378D01*
X0090514Y0096379D01*
X0090848Y0096713D01*
X0091515Y0096713D01*
X0091849Y0096379D01*
X0091181Y0097680D02*
X0090514Y0098348D01*
X0090848Y0099982D02*
X0091181Y0099982D01*
X0091515Y0100316D01*
X0091515Y0101317D01*
X0092182Y0101317D02*
X0090848Y0101317D01*
X0090514Y0100983D01*
X0090514Y0100316D01*
X0090848Y0099982D01*
X0092182Y0099982D02*
X0092516Y0100316D01*
X0092516Y0100983D01*
X0092182Y0101317D01*
X0100248Y0106530D02*
X0100582Y0106196D01*
X0101916Y0106196D01*
X0102250Y0106530D01*
X0102250Y0107197D01*
X0101916Y0107531D01*
X0101916Y0108498D02*
X0102250Y0108498D01*
X0101916Y0108498D02*
X0100582Y0109833D01*
X0100248Y0109833D01*
X0100248Y0108498D01*
X0100582Y0107531D02*
X0100248Y0107197D01*
X0100248Y0106530D01*
X0091191Y0112144D02*
X0084809Y0112144D01*
X0084809Y0123956D02*
X0091191Y0123956D01*
X0089803Y0125300D02*
X0089803Y0127302D01*
X0088802Y0126301D01*
X0090136Y0126301D01*
X0087834Y0125634D02*
X0087834Y0127302D01*
X0086500Y0127302D02*
X0086500Y0125634D01*
X0086834Y0125300D01*
X0087501Y0125300D01*
X0087834Y0125634D01*
X0117882Y0114152D02*
X0117882Y0111593D01*
X0117882Y0114152D02*
X0118472Y0114152D01*
X0127528Y0114152D02*
X0128118Y0114152D01*
X0128118Y0111593D01*
X0133014Y0108317D02*
X0133348Y0107650D01*
X0134015Y0106982D01*
X0134015Y0107983D01*
X0134349Y0108317D01*
X0134682Y0108317D01*
X0135016Y0107983D01*
X0135016Y0107316D01*
X0134682Y0106982D01*
X0134015Y0106982D01*
X0133681Y0106015D02*
X0133348Y0106015D01*
X0133014Y0105681D01*
X0133014Y0105014D01*
X0133348Y0104680D01*
X0133348Y0103713D02*
X0134015Y0103713D01*
X0134349Y0103379D01*
X0134349Y0102378D01*
X0135016Y0102378D02*
X0133014Y0102378D01*
X0133014Y0103379D01*
X0133348Y0103713D01*
X0134349Y0103046D02*
X0135016Y0103713D01*
X0135016Y0104680D02*
X0133681Y0106015D01*
X0135016Y0106015D02*
X0135016Y0104680D01*
X0138014Y0105014D02*
X0138014Y0105681D01*
X0138348Y0106015D01*
X0138681Y0106015D01*
X0140016Y0104680D01*
X0140016Y0106015D01*
X0139682Y0106982D02*
X0140016Y0107316D01*
X0140016Y0107983D01*
X0139682Y0108317D01*
X0139015Y0108317D01*
X0138681Y0107983D01*
X0138681Y0107650D01*
X0139015Y0106982D01*
X0138014Y0106982D01*
X0138014Y0108317D01*
X0138014Y0105014D02*
X0138348Y0104680D01*
X0138348Y0103713D02*
X0139015Y0103713D01*
X0139349Y0103379D01*
X0139349Y0102378D01*
X0140016Y0102378D02*
X0138014Y0102378D01*
X0138014Y0103379D01*
X0138348Y0103713D01*
X0139349Y0103046D02*
X0140016Y0103713D01*
X0144748Y0104102D02*
X0145749Y0104102D01*
X0145416Y0104769D01*
X0145416Y0105103D01*
X0145749Y0105436D01*
X0146416Y0105436D01*
X0146750Y0105103D01*
X0146750Y0104436D01*
X0146416Y0104102D01*
X0146416Y0102801D02*
X0144748Y0102801D01*
X0144748Y0103134D02*
X0144748Y0102467D01*
X0146416Y0102801D02*
X0146750Y0102467D01*
X0146750Y0102134D01*
X0146416Y0101800D01*
X0144748Y0104102D02*
X0144748Y0105436D01*
X0128118Y0104507D02*
X0128118Y0101948D01*
X0127528Y0101948D01*
X0122886Y0100802D02*
X0121552Y0100802D01*
X0121552Y0099801D01*
X0122219Y0100134D01*
X0122553Y0100134D01*
X0122886Y0099801D01*
X0122886Y0099134D01*
X0122553Y0098800D01*
X0121886Y0098800D01*
X0121552Y0099134D01*
X0120584Y0099134D02*
X0120584Y0100802D01*
X0119250Y0100802D02*
X0119250Y0099134D01*
X0119584Y0098800D01*
X0120251Y0098800D01*
X0120584Y0099134D01*
X0118472Y0101948D02*
X0117882Y0101948D01*
X0117882Y0104507D01*
X0114516Y0098983D02*
X0112514Y0098983D01*
X0113515Y0097982D01*
X0113515Y0099317D01*
X0113181Y0097015D02*
X0112848Y0097015D01*
X0112514Y0096681D01*
X0112514Y0096014D01*
X0112848Y0095680D01*
X0112848Y0094713D02*
X0112514Y0094379D01*
X0112514Y0093712D01*
X0112848Y0093378D01*
X0114182Y0093378D01*
X0114516Y0093712D01*
X0114516Y0094379D01*
X0114182Y0094713D01*
X0114516Y0095680D02*
X0113181Y0097015D01*
X0114516Y0097015D02*
X0114516Y0095680D01*
X0135630Y0091036D02*
X0135630Y0089034D01*
X0135630Y0089701D02*
X0136631Y0089701D01*
X0136965Y0090035D01*
X0136965Y0090702D01*
X0136631Y0091036D01*
X0135630Y0091036D01*
X0136298Y0089701D02*
X0136965Y0089034D01*
X0137932Y0089368D02*
X0138266Y0089034D01*
X0138933Y0089034D01*
X0139267Y0089368D01*
X0139267Y0089701D01*
X0138933Y0090035D01*
X0138600Y0090035D01*
X0138933Y0090035D02*
X0139267Y0090369D01*
X0139267Y0090702D01*
X0138933Y0091036D01*
X0138266Y0091036D01*
X0137932Y0090702D01*
X0137932Y0086036D02*
X0137932Y0085035D01*
X0138600Y0085369D01*
X0138933Y0085369D01*
X0139267Y0085035D01*
X0139267Y0084368D01*
X0138933Y0084034D01*
X0138266Y0084034D01*
X0137932Y0084368D01*
X0136965Y0084034D02*
X0136298Y0084701D01*
X0136631Y0084701D02*
X0135630Y0084701D01*
X0135630Y0084034D02*
X0135630Y0086036D01*
X0136631Y0086036D01*
X0136965Y0085702D01*
X0136965Y0085035D01*
X0136631Y0084701D01*
X0137932Y0086036D02*
X0139267Y0086036D01*
X0138933Y0081036D02*
X0137932Y0080035D01*
X0139267Y0080035D01*
X0138933Y0079034D02*
X0138933Y0081036D01*
X0136965Y0080702D02*
X0136965Y0080035D01*
X0136631Y0079701D01*
X0135630Y0079701D01*
X0135630Y0079034D02*
X0135630Y0081036D01*
X0136631Y0081036D01*
X0136965Y0080702D01*
X0136298Y0079701D02*
X0136965Y0079034D01*
X0136631Y0076036D02*
X0136965Y0075702D01*
X0136965Y0075035D01*
X0136631Y0074701D01*
X0135630Y0074701D01*
X0135630Y0074034D02*
X0135630Y0076036D01*
X0136631Y0076036D01*
X0136298Y0074701D02*
X0136965Y0074034D01*
X0137932Y0074368D02*
X0138266Y0074034D01*
X0138933Y0074034D01*
X0139267Y0074368D01*
X0139267Y0074701D01*
X0138933Y0075035D01*
X0137932Y0075035D01*
X0137932Y0074368D01*
X0137932Y0075035D02*
X0138600Y0075702D01*
X0139267Y0076036D01*
X0138933Y0071036D02*
X0139267Y0070702D01*
X0139267Y0070369D01*
X0138933Y0070035D01*
X0138266Y0070035D01*
X0137932Y0070369D01*
X0137932Y0070702D01*
X0138266Y0071036D01*
X0138933Y0071036D01*
X0138933Y0070035D02*
X0139267Y0069701D01*
X0139267Y0069368D01*
X0138933Y0069034D01*
X0138266Y0069034D01*
X0137932Y0069368D01*
X0137932Y0069701D01*
X0138266Y0070035D01*
X0136965Y0070035D02*
X0136631Y0069701D01*
X0135630Y0069701D01*
X0135630Y0069034D02*
X0135630Y0071036D01*
X0136631Y0071036D01*
X0136965Y0070702D01*
X0136965Y0070035D01*
X0136298Y0069701D02*
X0136965Y0069034D01*
X0136631Y0066036D02*
X0136965Y0065702D01*
X0136965Y0065035D01*
X0136631Y0064701D01*
X0135630Y0064701D01*
X0135630Y0064034D02*
X0135630Y0066036D01*
X0136631Y0066036D01*
X0137932Y0066036D02*
X0139267Y0066036D01*
X0139267Y0065702D01*
X0137932Y0064368D01*
X0137932Y0064034D01*
X0136965Y0064034D02*
X0136298Y0064701D01*
X0136631Y0061036D02*
X0136965Y0060702D01*
X0136965Y0060035D01*
X0136631Y0059701D01*
X0135630Y0059701D01*
X0135630Y0059034D02*
X0135630Y0061036D01*
X0136631Y0061036D01*
X0137932Y0060702D02*
X0137932Y0060369D01*
X0138266Y0060035D01*
X0139267Y0060035D01*
X0139267Y0059368D02*
X0139267Y0060702D01*
X0138933Y0061036D01*
X0138266Y0061036D01*
X0137932Y0060702D01*
X0137932Y0059368D02*
X0138266Y0059034D01*
X0138933Y0059034D01*
X0139267Y0059368D01*
X0136965Y0059034D02*
X0136298Y0059701D01*
X0136298Y0056036D02*
X0136298Y0054034D01*
X0136965Y0054034D02*
X0135630Y0054034D01*
X0134663Y0054034D02*
X0133996Y0054701D01*
X0134329Y0054701D02*
X0133328Y0054701D01*
X0133328Y0054034D02*
X0133328Y0056036D01*
X0134329Y0056036D01*
X0134663Y0055702D01*
X0134663Y0055035D01*
X0134329Y0054701D01*
X0135630Y0055369D02*
X0136298Y0056036D01*
X0137932Y0055702D02*
X0137932Y0054368D01*
X0139267Y0055702D01*
X0139267Y0054368D01*
X0138933Y0054034D01*
X0138266Y0054034D01*
X0137932Y0054368D01*
X0137932Y0055702D02*
X0138266Y0056036D01*
X0138933Y0056036D01*
X0139267Y0055702D01*
X0139355Y0045302D02*
X0138688Y0045302D01*
X0138354Y0044968D01*
X0137386Y0044968D02*
X0137386Y0044301D01*
X0137053Y0043967D01*
X0136052Y0043967D01*
X0136052Y0043300D02*
X0136052Y0045302D01*
X0137053Y0045302D01*
X0137386Y0044968D01*
X0138354Y0043300D02*
X0139688Y0044634D01*
X0139688Y0044968D01*
X0139355Y0045302D01*
X0139688Y0043300D02*
X0138354Y0043300D01*
X0135084Y0045302D02*
X0133750Y0045302D01*
X0134417Y0045302D02*
X0134417Y0043300D01*
X0148248Y0041238D02*
X0148248Y0039904D01*
X0149249Y0039904D01*
X0148916Y0040571D01*
X0148916Y0040905D01*
X0149249Y0041238D01*
X0149916Y0041238D01*
X0150250Y0040905D01*
X0150250Y0040238D01*
X0149916Y0039904D01*
X0149249Y0038936D02*
X0149583Y0038603D01*
X0149583Y0037602D01*
X0150250Y0037602D02*
X0148248Y0037602D01*
X0148248Y0038603D01*
X0148582Y0038936D01*
X0149249Y0038936D01*
X0148248Y0036634D02*
X0148248Y0035300D01*
X0148248Y0035967D02*
X0150250Y0035967D01*
X0159983Y0039816D02*
X0159983Y0040817D01*
X0160316Y0041150D01*
X0160983Y0041150D01*
X0161317Y0040817D01*
X0161317Y0039816D01*
X0161317Y0040483D02*
X0161984Y0041150D01*
X0161984Y0042118D02*
X0160650Y0043452D01*
X0160316Y0043452D01*
X0159983Y0043119D01*
X0159983Y0042451D01*
X0160316Y0042118D01*
X0161984Y0042118D02*
X0161984Y0043452D01*
X0161651Y0044420D02*
X0161984Y0044753D01*
X0161984Y0045421D01*
X0161651Y0045754D01*
X0161317Y0045754D01*
X0160983Y0045421D01*
X0160983Y0045087D01*
X0160983Y0045421D02*
X0160650Y0045754D01*
X0160316Y0045754D01*
X0159983Y0045421D01*
X0159983Y0044753D01*
X0160316Y0044420D01*
X0163483Y0044420D02*
X0163483Y0045754D01*
X0164150Y0045421D02*
X0164483Y0045754D01*
X0165151Y0045754D01*
X0165484Y0045421D01*
X0165484Y0044753D01*
X0165151Y0044420D01*
X0164483Y0044420D02*
X0164150Y0045087D01*
X0164150Y0045421D01*
X0164483Y0044420D02*
X0163483Y0044420D01*
X0163483Y0042785D02*
X0165484Y0042785D01*
X0165484Y0042118D02*
X0165484Y0043452D01*
X0164150Y0042118D02*
X0163483Y0042785D01*
X0163816Y0041150D02*
X0163483Y0040817D01*
X0163483Y0040149D01*
X0163816Y0039816D01*
X0165151Y0039816D01*
X0165484Y0040149D01*
X0165484Y0040817D01*
X0165151Y0041150D01*
X0161984Y0039816D02*
X0159983Y0039816D01*
X0166043Y0036987D02*
X0166710Y0036987D01*
X0166377Y0036987D02*
X0166377Y0035319D01*
X0166043Y0034985D01*
X0165710Y0034985D01*
X0165376Y0035319D01*
X0167678Y0035319D02*
X0167678Y0035986D01*
X0168679Y0035986D01*
X0169012Y0035652D01*
X0169012Y0035319D01*
X0168679Y0034985D01*
X0168012Y0034985D01*
X0167678Y0035319D01*
X0167678Y0035986D02*
X0168345Y0036653D01*
X0169012Y0036987D01*
X0176514Y0037430D02*
X0176848Y0037096D01*
X0176514Y0037430D02*
X0176514Y0038097D01*
X0176848Y0038431D01*
X0177181Y0038431D01*
X0178516Y0037096D01*
X0178516Y0038431D01*
X0178516Y0039398D02*
X0177181Y0040732D01*
X0176848Y0040732D01*
X0176514Y0040399D01*
X0176514Y0039732D01*
X0176848Y0039398D01*
X0178516Y0039398D02*
X0178516Y0040732D01*
X0180214Y0040065D02*
X0182216Y0040065D01*
X0182216Y0039398D02*
X0182216Y0040732D01*
X0180881Y0039398D02*
X0180214Y0040065D01*
X0180548Y0038431D02*
X0180214Y0038097D01*
X0180214Y0037430D01*
X0180548Y0037096D01*
X0180548Y0036129D02*
X0181215Y0036129D01*
X0181549Y0035795D01*
X0181549Y0034794D01*
X0182216Y0034794D02*
X0180214Y0034794D01*
X0180214Y0035795D01*
X0180548Y0036129D01*
X0181549Y0035461D02*
X0182216Y0036129D01*
X0182216Y0037096D02*
X0180881Y0038431D01*
X0180548Y0038431D01*
X0182216Y0038431D02*
X0182216Y0037096D01*
X0178516Y0036129D02*
X0177849Y0035461D01*
X0177849Y0035795D02*
X0177849Y0034794D01*
X0178516Y0034794D02*
X0176514Y0034794D01*
X0176514Y0035795D01*
X0176848Y0036129D01*
X0177515Y0036129D01*
X0177849Y0035795D01*
X0187094Y0036326D02*
X0198906Y0036326D01*
X0203250Y0029946D02*
X0203250Y0028612D01*
X0201248Y0028612D01*
X0201248Y0027644D02*
X0201248Y0026310D01*
X0203250Y0026310D01*
X0203250Y0027644D01*
X0202249Y0026977D02*
X0202249Y0026310D01*
X0202583Y0025342D02*
X0202916Y0025342D01*
X0203250Y0025009D01*
X0203250Y0024341D01*
X0202916Y0024008D01*
X0202249Y0024341D02*
X0202249Y0025009D01*
X0202583Y0025342D01*
X0201582Y0025342D02*
X0201248Y0025009D01*
X0201248Y0024341D01*
X0201582Y0024008D01*
X0201916Y0024008D01*
X0202249Y0024341D01*
X0201248Y0023040D02*
X0201248Y0021706D01*
X0201248Y0022373D02*
X0203250Y0022373D01*
X0202916Y0020738D02*
X0201582Y0020738D01*
X0201248Y0020405D01*
X0201248Y0019738D01*
X0201582Y0019404D01*
X0202916Y0019404D01*
X0203250Y0019738D01*
X0203250Y0020405D01*
X0202916Y0020738D01*
X0202916Y0018436D02*
X0201582Y0018436D01*
X0201248Y0018103D01*
X0201248Y0017436D01*
X0201582Y0017102D01*
X0202916Y0017102D01*
X0203250Y0017436D01*
X0203250Y0018103D01*
X0202916Y0018436D01*
X0202916Y0016134D02*
X0203250Y0015801D01*
X0203250Y0014800D01*
X0201248Y0014800D01*
X0201248Y0015801D01*
X0201582Y0016134D01*
X0201916Y0016134D01*
X0202249Y0015801D01*
X0202249Y0014800D01*
X0202249Y0015801D02*
X0202583Y0016134D01*
X0202916Y0016134D01*
X0216748Y0018134D02*
X0217082Y0017800D01*
X0217416Y0017800D01*
X0217749Y0018134D01*
X0217749Y0018801D01*
X0218083Y0019134D01*
X0218416Y0019134D01*
X0218750Y0018801D01*
X0218750Y0018134D01*
X0218416Y0017800D01*
X0216748Y0018134D02*
X0216748Y0018801D01*
X0217082Y0019134D01*
X0217416Y0020102D02*
X0216748Y0020769D01*
X0218750Y0020769D01*
X0218750Y0020102D02*
X0218750Y0021436D01*
X0220000Y0023550D02*
X0220000Y0025550D01*
X0221000Y0026550D02*
X0221000Y0024550D01*
X0222000Y0024550D01*
X0221000Y0024550D02*
X0221000Y0022550D01*
X0221000Y0027550D02*
X0221000Y0029550D01*
X0222000Y0029550D01*
X0221000Y0029550D02*
X0221000Y0031550D01*
X0220000Y0030550D02*
X0220000Y0028550D01*
X0219871Y0038066D02*
X0219203Y0038066D01*
X0218870Y0038399D01*
X0218870Y0039067D01*
X0219871Y0039067D01*
X0220204Y0038733D01*
X0220204Y0038399D01*
X0219871Y0038066D01*
X0218870Y0039067D02*
X0219537Y0039734D01*
X0220204Y0040067D01*
X0217235Y0040067D02*
X0217235Y0038066D01*
X0216568Y0038066D02*
X0217902Y0038066D01*
X0216568Y0039400D02*
X0217235Y0040067D01*
X0215600Y0039734D02*
X0215600Y0039067D01*
X0215267Y0038733D01*
X0214266Y0038733D01*
X0214933Y0038733D02*
X0215600Y0038066D01*
X0214266Y0038066D02*
X0214266Y0040067D01*
X0215267Y0040067D01*
X0215600Y0039734D01*
X0215600Y0042066D02*
X0214933Y0042733D01*
X0215267Y0042733D02*
X0214266Y0042733D01*
X0214266Y0042066D02*
X0214266Y0044067D01*
X0215267Y0044067D01*
X0215600Y0043734D01*
X0215600Y0043067D01*
X0215267Y0042733D01*
X0216568Y0043400D02*
X0217235Y0044067D01*
X0217235Y0042066D01*
X0216568Y0042066D02*
X0217902Y0042066D01*
X0218870Y0042066D02*
X0218870Y0042399D01*
X0220204Y0043734D01*
X0220204Y0044067D01*
X0218870Y0044067D01*
X0198906Y0045774D02*
X0187094Y0045774D01*
X0194376Y0047445D02*
X0194376Y0049113D01*
X0195710Y0049113D02*
X0195710Y0047445D01*
X0195377Y0047111D01*
X0194710Y0047111D01*
X0194376Y0047445D01*
X0196678Y0047445D02*
X0197012Y0047111D01*
X0197679Y0047111D01*
X0198012Y0047445D01*
X0198012Y0047778D01*
X0197679Y0048112D01*
X0197345Y0048112D01*
X0197679Y0048112D02*
X0198012Y0048445D01*
X0198012Y0048779D01*
X0197679Y0049113D01*
X0197012Y0049113D01*
X0196678Y0048779D01*
X0195811Y0052877D02*
X0198173Y0052877D01*
X0198173Y0055239D01*
X0215014Y0066378D02*
X0215014Y0067379D01*
X0215348Y0067713D01*
X0216015Y0067713D01*
X0216349Y0067379D01*
X0216349Y0066378D01*
X0217016Y0066378D02*
X0215014Y0066378D01*
X0216349Y0067046D02*
X0217016Y0067713D01*
X0217016Y0068680D02*
X0217016Y0070015D01*
X0217016Y0069348D02*
X0215014Y0069348D01*
X0215681Y0068680D01*
X0215681Y0070982D02*
X0215348Y0070982D01*
X0215014Y0071316D01*
X0215014Y0071983D01*
X0215348Y0072317D01*
X0215681Y0072317D01*
X0216015Y0071983D01*
X0216015Y0071316D01*
X0215681Y0070982D01*
X0216015Y0071316D02*
X0216349Y0070982D01*
X0216682Y0070982D01*
X0217016Y0071316D01*
X0217016Y0071983D01*
X0216682Y0072317D01*
X0216349Y0072317D01*
X0216015Y0071983D01*
X0213016Y0072317D02*
X0213016Y0070982D01*
X0211681Y0072317D01*
X0211348Y0072317D01*
X0211014Y0071983D01*
X0211014Y0071316D01*
X0211348Y0070982D01*
X0211348Y0070015D02*
X0212015Y0070015D01*
X0212349Y0069681D01*
X0212349Y0068680D01*
X0213016Y0068680D02*
X0211014Y0068680D01*
X0211014Y0069681D01*
X0211348Y0070015D01*
X0212349Y0069348D02*
X0213016Y0070015D01*
X0209016Y0070015D02*
X0208349Y0069348D01*
X0208349Y0069681D02*
X0208349Y0068680D01*
X0209016Y0068680D02*
X0207014Y0068680D01*
X0207014Y0069681D01*
X0207348Y0070015D01*
X0208015Y0070015D01*
X0208349Y0069681D01*
X0209016Y0070982D02*
X0209016Y0072317D01*
X0209016Y0071650D02*
X0207014Y0071650D01*
X0207681Y0070982D01*
X0220000Y0078550D02*
X0220000Y0080550D01*
X0221000Y0081550D02*
X0221000Y0079550D01*
X0222000Y0079550D01*
X0221000Y0079550D02*
X0221000Y0077550D01*
X0219500Y0084800D02*
X0219500Y0086134D01*
X0219500Y0087102D02*
X0219500Y0088436D01*
X0219500Y0089404D02*
X0219500Y0090405D01*
X0219166Y0090738D01*
X0217832Y0090738D01*
X0217498Y0090405D01*
X0217498Y0089404D01*
X0219500Y0089404D01*
X0218499Y0087769D02*
X0218499Y0087102D01*
X0217498Y0087102D02*
X0219500Y0087102D01*
X0217498Y0087102D02*
X0217498Y0088436D01*
X0217832Y0091706D02*
X0217498Y0092039D01*
X0217498Y0092707D01*
X0217832Y0093040D01*
X0218166Y0093040D01*
X0219500Y0091706D01*
X0219500Y0093040D01*
X0221000Y0097550D02*
X0221000Y0099550D01*
X0222000Y0099550D01*
X0221000Y0099550D02*
X0221000Y0101550D01*
X0220000Y0100550D02*
X0220000Y0098550D01*
X0217916Y0102196D02*
X0216582Y0102196D01*
X0216248Y0102530D01*
X0216248Y0103197D01*
X0216582Y0103531D01*
X0216582Y0104498D02*
X0216248Y0104832D01*
X0216248Y0105499D01*
X0216582Y0105833D01*
X0216916Y0105833D01*
X0218250Y0104498D01*
X0218250Y0105833D01*
X0220000Y0108550D02*
X0220000Y0110550D01*
X0221000Y0109550D02*
X0222000Y0109550D01*
X0221000Y0111550D02*
X0221000Y0107550D01*
X0217916Y0103531D02*
X0218250Y0103197D01*
X0218250Y0102530D01*
X0217916Y0102196D01*
X0206000Y0093040D02*
X0206000Y0091706D01*
X0206000Y0092373D02*
X0203998Y0092373D01*
X0204666Y0091706D01*
X0204332Y0090738D02*
X0203998Y0090405D01*
X0203998Y0089404D01*
X0206000Y0089404D01*
X0206000Y0090405D01*
X0205666Y0090738D01*
X0204332Y0090738D01*
X0203998Y0088436D02*
X0203998Y0087102D01*
X0206000Y0087102D01*
X0206000Y0088436D01*
X0204999Y0087769D02*
X0204999Y0087102D01*
X0206000Y0086134D02*
X0206000Y0084800D01*
X0203998Y0084800D01*
X0198173Y0081223D02*
X0195811Y0081223D01*
X0198173Y0081223D02*
X0198173Y0078861D01*
X0178782Y0084952D02*
X0177838Y0084009D01*
X0176895Y0084009D01*
X0176895Y0084952D01*
X0177838Y0085896D01*
X0176682Y0087052D02*
X0175267Y0085637D01*
X0174795Y0086108D02*
X0175739Y0085165D01*
X0175739Y0087052D02*
X0176682Y0087052D01*
X0174453Y0086922D02*
X0174217Y0086686D01*
X0173981Y0086922D01*
X0174217Y0087158D01*
X0174453Y0086922D01*
X0173297Y0087606D02*
X0172354Y0088550D01*
X0172825Y0088078D02*
X0174241Y0089494D01*
X0173297Y0089494D01*
X0173317Y0093816D02*
X0173317Y0094817D01*
X0172983Y0095150D01*
X0172316Y0095150D01*
X0171983Y0094817D01*
X0171983Y0093816D01*
X0173984Y0093816D01*
X0173317Y0094483D02*
X0173984Y0095150D01*
X0173984Y0096118D02*
X0172650Y0097452D01*
X0172316Y0097452D01*
X0171983Y0097119D01*
X0171983Y0096451D01*
X0172316Y0096118D01*
X0173984Y0096118D02*
X0173984Y0097452D01*
X0172983Y0098420D02*
X0172983Y0099754D01*
X0171983Y0099421D02*
X0172983Y0098420D01*
X0171983Y0099421D02*
X0173984Y0099421D01*
X0173651Y0102816D02*
X0173984Y0103149D01*
X0173984Y0103817D01*
X0173651Y0104150D01*
X0173984Y0105118D02*
X0173984Y0106452D01*
X0173984Y0105785D02*
X0171983Y0105785D01*
X0172650Y0105118D01*
X0172316Y0104150D02*
X0171983Y0103817D01*
X0171983Y0103149D01*
X0172316Y0102816D01*
X0173651Y0102816D01*
X0173984Y0107420D02*
X0173984Y0108754D01*
X0173984Y0108087D02*
X0171983Y0108087D01*
X0172650Y0107420D01*
X0180754Y0107599D02*
X0182088Y0109601D01*
X0183056Y0108934D02*
X0183723Y0109601D01*
X0183723Y0107599D01*
X0183056Y0107599D02*
X0184390Y0107599D01*
X0182088Y0107599D02*
X0180754Y0109601D01*
X0184000Y0105550D02*
X0186000Y0105550D01*
X0190000Y0100300D02*
X0190000Y0097800D01*
X0196014Y0097848D02*
X0198016Y0097848D01*
X0198016Y0098515D02*
X0198016Y0097180D01*
X0197682Y0096213D02*
X0198016Y0095879D01*
X0198016Y0095212D01*
X0197682Y0094878D01*
X0196348Y0094878D01*
X0196014Y0095212D01*
X0196014Y0095879D01*
X0196348Y0096213D01*
X0196681Y0097180D02*
X0196014Y0097848D01*
X0196348Y0099482D02*
X0196014Y0099816D01*
X0196014Y0100483D01*
X0196348Y0100817D01*
X0196681Y0100817D01*
X0198016Y0099482D01*
X0198016Y0100817D01*
X0186000Y0092550D02*
X0184000Y0092550D01*
X0180000Y0097800D02*
X0180000Y0100300D01*
X0161267Y0093036D02*
X0161267Y0092702D01*
X0159932Y0091368D01*
X0159932Y0091034D01*
X0158965Y0091034D02*
X0157630Y0091034D01*
X0158965Y0092369D01*
X0158965Y0092702D01*
X0158631Y0093036D01*
X0157964Y0093036D01*
X0157630Y0092702D01*
X0156663Y0092702D02*
X0156663Y0092035D01*
X0156329Y0091701D01*
X0155328Y0091701D01*
X0155328Y0091034D02*
X0155328Y0093036D01*
X0156329Y0093036D01*
X0156663Y0092702D01*
X0155996Y0091701D02*
X0156663Y0091034D01*
X0159932Y0093036D02*
X0161267Y0093036D01*
X0160933Y0089036D02*
X0161267Y0088702D01*
X0161267Y0088369D01*
X0160933Y0088035D01*
X0160266Y0088035D01*
X0159932Y0088369D01*
X0159932Y0088702D01*
X0160266Y0089036D01*
X0160933Y0089036D01*
X0160933Y0088035D02*
X0161267Y0087701D01*
X0161267Y0087368D01*
X0160933Y0087034D01*
X0160266Y0087034D01*
X0159932Y0087368D01*
X0159932Y0087701D01*
X0160266Y0088035D01*
X0158965Y0088369D02*
X0158965Y0088702D01*
X0158631Y0089036D01*
X0157964Y0089036D01*
X0157630Y0088702D01*
X0156663Y0088702D02*
X0156663Y0088035D01*
X0156329Y0087701D01*
X0155328Y0087701D01*
X0155328Y0087034D02*
X0155328Y0089036D01*
X0156329Y0089036D01*
X0156663Y0088702D01*
X0155996Y0087701D02*
X0156663Y0087034D01*
X0157630Y0087034D02*
X0158965Y0088369D01*
X0158965Y0087034D02*
X0157630Y0087034D01*
X0169827Y0081223D02*
X0169827Y0078861D01*
X0169827Y0081223D02*
X0172189Y0081223D01*
X0167215Y0078551D02*
X0167215Y0077216D01*
X0167215Y0077883D02*
X0165213Y0077883D01*
X0165880Y0077216D01*
X0165213Y0076249D02*
X0166881Y0076249D01*
X0167215Y0075915D01*
X0167215Y0075248D01*
X0166881Y0074914D01*
X0165213Y0074914D01*
X0159151Y0062254D02*
X0158483Y0062254D01*
X0158150Y0061921D01*
X0158150Y0061587D01*
X0158483Y0060920D01*
X0157483Y0060920D01*
X0157483Y0062254D01*
X0159151Y0062254D02*
X0159484Y0061921D01*
X0159484Y0061253D01*
X0159151Y0060920D01*
X0159484Y0059952D02*
X0159484Y0058618D01*
X0159484Y0059285D02*
X0157483Y0059285D01*
X0158150Y0058618D01*
X0158483Y0057650D02*
X0158817Y0057317D01*
X0158817Y0056316D01*
X0158817Y0056983D02*
X0159484Y0057650D01*
X0158483Y0057650D02*
X0157816Y0057650D01*
X0157483Y0057317D01*
X0157483Y0056316D01*
X0159484Y0056316D01*
X0160983Y0056649D02*
X0161316Y0056316D01*
X0162651Y0056316D01*
X0162984Y0056649D01*
X0162984Y0057317D01*
X0162651Y0057650D01*
X0162984Y0058618D02*
X0162984Y0059952D01*
X0162984Y0059285D02*
X0160983Y0059285D01*
X0161650Y0058618D01*
X0161316Y0057650D02*
X0160983Y0057317D01*
X0160983Y0056649D01*
X0169827Y0055239D02*
X0169827Y0052877D01*
X0172189Y0052877D01*
X0126949Y0025802D02*
X0125948Y0024801D01*
X0127282Y0024801D01*
X0126949Y0023800D02*
X0126949Y0025802D01*
X0124313Y0025802D02*
X0124313Y0023800D01*
X0123646Y0023800D02*
X0124981Y0023800D01*
X0123646Y0025134D02*
X0124313Y0025802D01*
X0122679Y0025468D02*
X0122679Y0024801D01*
X0122345Y0024467D01*
X0121344Y0024467D01*
X0121344Y0023800D02*
X0121344Y0025802D01*
X0122345Y0025802D01*
X0122679Y0025468D01*
X0122011Y0024467D02*
X0122679Y0023800D01*
X0122345Y0019302D02*
X0121344Y0019302D01*
X0121344Y0017300D01*
X0121344Y0017967D02*
X0122345Y0017967D01*
X0122679Y0018301D01*
X0122679Y0018968D01*
X0122345Y0019302D01*
X0122011Y0017967D02*
X0122679Y0017300D01*
X0123646Y0017300D02*
X0124981Y0017300D01*
X0124313Y0017300D02*
X0124313Y0019302D01*
X0123646Y0018634D01*
X0125948Y0018634D02*
X0126615Y0019302D01*
X0126615Y0017300D01*
X0125948Y0017300D02*
X0127282Y0017300D01*
X0126949Y0012802D02*
X0126282Y0012802D01*
X0125948Y0012468D01*
X0126615Y0011801D02*
X0126949Y0011801D01*
X0127282Y0011467D01*
X0127282Y0011134D01*
X0126949Y0010800D01*
X0126282Y0010800D01*
X0125948Y0011134D01*
X0124981Y0010800D02*
X0123646Y0010800D01*
X0124313Y0010800D02*
X0124313Y0012802D01*
X0123646Y0012134D01*
X0122679Y0011801D02*
X0122679Y0012468D01*
X0122345Y0012802D01*
X0121344Y0012802D01*
X0121344Y0010800D01*
X0121344Y0011467D02*
X0122345Y0011467D01*
X0122679Y0011801D01*
X0122011Y0011467D02*
X0122679Y0010800D01*
X0126949Y0011801D02*
X0127282Y0012134D01*
X0127282Y0012468D01*
X0126949Y0012802D01*
X0149000Y0023050D02*
X0155000Y0023050D01*
X0154000Y0022050D02*
X0150000Y0022050D01*
X0151000Y0021050D02*
X0153000Y0021050D01*
X0152000Y0023050D02*
X0152000Y0024050D01*
X0094750Y0044300D02*
X0092748Y0044300D01*
X0092748Y0045301D01*
X0093082Y0045634D01*
X0093749Y0045634D01*
X0094083Y0045301D01*
X0094083Y0044300D01*
X0094083Y0044967D02*
X0094750Y0045634D01*
X0094750Y0046602D02*
X0092748Y0047936D01*
X0092748Y0046602D02*
X0094750Y0047936D01*
X0093749Y0048904D02*
X0093749Y0050238D01*
X0092748Y0049905D02*
X0093749Y0048904D01*
X0094750Y0049905D02*
X0092748Y0049905D01*
X0089750Y0049905D02*
X0087748Y0049905D01*
X0088749Y0048904D01*
X0088749Y0050238D01*
X0087748Y0047936D02*
X0089750Y0046602D01*
X0089750Y0047936D02*
X0087748Y0046602D01*
X0087748Y0045634D02*
X0087748Y0044300D01*
X0087748Y0044967D02*
X0089750Y0044967D01*
X0084750Y0044300D02*
X0082748Y0044300D01*
X0082748Y0045301D01*
X0083082Y0045634D01*
X0083749Y0045634D01*
X0084083Y0045301D01*
X0084083Y0044300D01*
X0084083Y0044967D02*
X0084750Y0045634D01*
X0084750Y0046602D02*
X0082748Y0047936D01*
X0083082Y0048904D02*
X0082748Y0049238D01*
X0082748Y0049905D01*
X0083082Y0050238D01*
X0083416Y0050238D01*
X0083749Y0049905D01*
X0084083Y0050238D01*
X0084416Y0050238D01*
X0084750Y0049905D01*
X0084750Y0049238D01*
X0084416Y0048904D01*
X0083749Y0049571D02*
X0083749Y0049905D01*
X0084750Y0047936D02*
X0082748Y0046602D01*
X0079750Y0046602D02*
X0077748Y0047936D01*
X0078082Y0048904D02*
X0077748Y0049238D01*
X0077748Y0049905D01*
X0078082Y0050238D01*
X0078416Y0050238D01*
X0078749Y0049905D01*
X0079083Y0050238D01*
X0079416Y0050238D01*
X0079750Y0049905D01*
X0079750Y0049238D01*
X0079416Y0048904D01*
X0078749Y0049571D02*
X0078749Y0049905D01*
X0079750Y0047936D02*
X0077748Y0046602D01*
X0077748Y0045634D02*
X0077748Y0044300D01*
X0077748Y0044967D02*
X0079750Y0044967D01*
X0062906Y0046241D02*
X0062906Y0039859D01*
X0051094Y0039859D02*
X0051094Y0046241D01*
X0048916Y0044186D02*
X0049250Y0043853D01*
X0049250Y0043186D01*
X0048916Y0042852D01*
X0048583Y0042852D01*
X0048249Y0043186D01*
X0048249Y0043853D01*
X0048583Y0044186D01*
X0048916Y0044186D01*
X0048249Y0043853D02*
X0047916Y0044186D01*
X0047582Y0044186D01*
X0047248Y0043853D01*
X0047248Y0043186D01*
X0047582Y0042852D01*
X0047916Y0042852D01*
X0048249Y0043186D01*
X0047582Y0041884D02*
X0047248Y0041551D01*
X0047248Y0040550D01*
X0049250Y0040550D01*
X0049250Y0041551D01*
X0048916Y0041884D01*
X0047582Y0041884D01*
X0071748Y0027603D02*
X0072749Y0026602D01*
X0072749Y0027936D01*
X0073750Y0027603D02*
X0071748Y0027603D01*
X0071748Y0025634D02*
X0071748Y0024967D01*
X0071748Y0025301D02*
X0073416Y0025301D01*
X0073750Y0024967D01*
X0073750Y0024634D01*
X0073416Y0024300D01*
X0078500Y0018050D02*
X0080000Y0016550D01*
X0077000Y0016550D01*
X0078500Y0018050D01*
X0062906Y0058859D02*
X0062906Y0065241D01*
X0051094Y0065241D02*
X0051094Y0058859D01*
X0049250Y0059550D02*
X0049250Y0060551D01*
X0048916Y0060884D01*
X0047582Y0060884D01*
X0047248Y0060551D01*
X0047248Y0059550D01*
X0049250Y0059550D01*
X0049250Y0061852D02*
X0048916Y0061852D01*
X0047582Y0063186D01*
X0047248Y0063186D01*
X0047248Y0061852D01*
X0051094Y0077859D02*
X0051094Y0084241D01*
X0049250Y0081853D02*
X0047248Y0081853D01*
X0048249Y0080852D01*
X0048249Y0082186D01*
X0047582Y0079884D02*
X0047248Y0079551D01*
X0047248Y0078550D01*
X0049250Y0078550D01*
X0049250Y0079551D01*
X0048916Y0079884D01*
X0047582Y0079884D01*
X0062906Y0077859D02*
X0062906Y0084241D01*
X0062906Y0096859D02*
X0062906Y0103241D01*
X0051094Y0103241D02*
X0051094Y0096859D01*
X0049250Y0097550D02*
X0049250Y0098551D01*
X0048916Y0098884D01*
X0047582Y0098884D01*
X0047248Y0098551D01*
X0047248Y0097550D01*
X0049250Y0097550D01*
X0048916Y0099852D02*
X0049250Y0100186D01*
X0049250Y0100853D01*
X0048916Y0101186D01*
X0048583Y0101186D01*
X0048249Y0100853D01*
X0048249Y0100519D01*
X0048249Y0100853D02*
X0047916Y0101186D01*
X0047582Y0101186D01*
X0047248Y0100853D01*
X0047248Y0100186D01*
X0047582Y0099852D01*
X0015750Y0103134D02*
X0015750Y0103467D01*
X0015416Y0103801D01*
X0013748Y0103801D01*
X0013748Y0104134D02*
X0013748Y0103467D01*
X0014416Y0105102D02*
X0013748Y0105769D01*
X0015750Y0105769D01*
X0015750Y0105102D02*
X0015750Y0106436D01*
X0015750Y0103134D02*
X0015416Y0102800D01*
X0184750Y0123302D02*
X0186084Y0123302D01*
X0185417Y0123302D02*
X0185417Y0121300D01*
X0187052Y0121300D02*
X0187052Y0123302D01*
X0188053Y0123302D01*
X0188386Y0122968D01*
X0188386Y0122301D01*
X0188053Y0121967D01*
X0187052Y0121967D01*
X0189354Y0121300D02*
X0190688Y0121300D01*
X0190021Y0121300D02*
X0190021Y0123302D01*
X0189354Y0122634D01*
X0217498Y0084800D02*
X0219500Y0084800D01*
X0226313Y0006302D02*
X0226981Y0006302D01*
X0226647Y0006302D02*
X0226647Y0004634D01*
X0226313Y0004300D01*
X0225980Y0004300D01*
X0225646Y0004634D01*
X0227948Y0004300D02*
X0229283Y0005634D01*
X0229283Y0005968D01*
X0228949Y0006302D01*
X0228282Y0006302D01*
X0227948Y0005968D01*
X0227948Y0004300D02*
X0229283Y0004300D01*
D12*
X0214003Y0049550D02*
X0210000Y0049550D01*
X0212002Y0049550D02*
X0212002Y0061560D01*
X0214003Y0061560D02*
X0210000Y0061560D01*
D13*
X0208000Y0077050D03*
X0212000Y0077050D03*
X0216000Y0077050D03*
X0176000Y0097050D03*
X0139000Y0113050D03*
X0134000Y0113050D03*
X0091500Y0106050D03*
X0087000Y0106050D03*
X0082500Y0106050D03*
X0158500Y0052050D03*
X0168000Y0043050D03*
X0177500Y0044650D03*
X0181200Y0044650D03*
D14*
X0212380Y0103050D02*
X0213620Y0103050D01*
X0101620Y0117050D02*
X0100380Y0117050D01*
X0075620Y0117050D02*
X0074380Y0117050D01*
D15*
X0221000Y0114550D03*
D16*
X0201323Y0056814D03*
X0093487Y0111389D03*
X0050339Y0094563D03*
X0050339Y0075563D03*
X0050339Y0056563D03*
X0050339Y0037563D03*
D17*
X0201858Y0038097D03*
D18*
X0042500Y0019050D02*
X0018000Y0019050D01*
X0018000Y0032050D01*
X0040000Y0032050D02*
X0040000Y0024550D01*
X0042500Y0024550D01*
X0042500Y0019050D01*
X0161200Y0052050D02*
X0162800Y0052050D01*
X0171200Y0043050D02*
X0172800Y0043050D01*
X0208140Y0087499D02*
X0208900Y0088659D01*
X0209000Y0088719D02*
X0207189Y0088719D01*
X0209000Y0088719D02*
X0209920Y0087499D01*
X0210811Y0088719D02*
X0209000Y0088719D01*
X0212689Y0088719D02*
X0214500Y0088719D01*
X0215420Y0087499D01*
X0216311Y0088719D02*
X0214500Y0088719D01*
X0214400Y0088659D02*
X0213640Y0087499D01*
X0194800Y0098050D02*
X0193200Y0098050D01*
X0176800Y0106050D02*
X0175200Y0106050D01*
X0114300Y0104050D02*
X0112700Y0104050D01*
X0042500Y0109550D02*
X0040000Y0109550D01*
X0040000Y0102050D01*
X0042500Y0109550D02*
X0042500Y0115050D01*
X0018000Y0115050D01*
X0018000Y0102050D01*
X0013500Y0097050D02*
X0011000Y0099550D01*
X0011000Y0094550D01*
X0013500Y0097050D01*
D19*
X0144000Y0090050D03*
X0144000Y0085050D03*
X0144000Y0080050D03*
X0144000Y0075050D03*
X0144000Y0070050D03*
X0144000Y0065050D03*
X0144000Y0060050D03*
X0144000Y0055050D03*
X0166000Y0088050D03*
X0166000Y0092050D03*
X0210000Y0043050D03*
X0210000Y0039050D03*
D20*
X0161937Y0096428D03*
D21*
X0133000Y0025050D03*
X0133000Y0018550D03*
X0133000Y0012050D03*
D22*
X0125559Y0115727D02*
X0125561Y0115766D01*
X0125567Y0115805D01*
X0125577Y0115843D01*
X0125590Y0115880D01*
X0125607Y0115915D01*
X0125627Y0115949D01*
X0125651Y0115980D01*
X0125678Y0116009D01*
X0125707Y0116035D01*
X0125739Y0116058D01*
X0125773Y0116078D01*
X0125809Y0116094D01*
X0125846Y0116106D01*
X0125885Y0116115D01*
X0125924Y0116120D01*
X0125963Y0116121D01*
X0126002Y0116118D01*
X0126041Y0116111D01*
X0126078Y0116100D01*
X0126115Y0116086D01*
X0126150Y0116068D01*
X0126183Y0116047D01*
X0126214Y0116022D01*
X0126242Y0115995D01*
X0126267Y0115965D01*
X0126289Y0115932D01*
X0126308Y0115898D01*
X0126323Y0115862D01*
X0126335Y0115824D01*
X0126343Y0115786D01*
X0126347Y0115747D01*
X0126347Y0115707D01*
X0126343Y0115668D01*
X0126335Y0115630D01*
X0126323Y0115592D01*
X0126308Y0115556D01*
X0126289Y0115522D01*
X0126267Y0115489D01*
X0126242Y0115459D01*
X0126214Y0115432D01*
X0126183Y0115407D01*
X0126150Y0115386D01*
X0126115Y0115368D01*
X0126078Y0115354D01*
X0126041Y0115343D01*
X0126002Y0115336D01*
X0125963Y0115333D01*
X0125924Y0115334D01*
X0125885Y0115339D01*
X0125846Y0115348D01*
X0125809Y0115360D01*
X0125773Y0115376D01*
X0125739Y0115396D01*
X0125707Y0115419D01*
X0125678Y0115445D01*
X0125651Y0115474D01*
X0125627Y0115505D01*
X0125607Y0115539D01*
X0125590Y0115574D01*
X0125577Y0115611D01*
X0125567Y0115649D01*
X0125561Y0115688D01*
X0125559Y0115727D01*
M02*
