%TF.GenerationSoftware,KiCad,Pcbnew,7.0.10-7.0.10~ubuntu22.04.1*%
%TF.CreationDate,2024-01-24T10:38:26-05:00*%
%TF.ProjectId,imu-splitter,696d752d-7370-46c6-9974-7465722e6b69,rev?*%
%TF.SameCoordinates,Original*%
%TF.FileFunction,Profile,NP*%
%FSLAX46Y46*%
G04 Gerber Fmt 4.6, Leading zero omitted, Abs format (unit mm)*
G04 Created by KiCad (PCBNEW 7.0.10-7.0.10~ubuntu22.04.1) date 2024-01-24 10:38:26*
%MOMM*%
%LPD*%
G01*
G04 APERTURE LIST*
%TA.AperFunction,Profile*%
%ADD10C,0.090000*%
%TD*%
G04 APERTURE END LIST*
D10*
X210889591Y-78419730D02*
G75*
G03*
X214319730Y-81849909I3430109J-70D01*
G01*
X163800000Y-75400000D02*
X163800000Y-120989550D01*
X209889550Y-74900000D02*
X164300000Y-74900000D01*
X163799950Y-120989550D02*
G75*
G03*
X164800000Y-121989550I1000050J50D01*
G01*
X210889500Y-75900000D02*
G75*
G03*
X209889550Y-74900000I-999900J100D01*
G01*
X170749941Y-127939459D02*
G75*
G03*
X171749909Y-128939459I999959J-41D01*
G01*
X169619730Y-79419730D02*
G75*
G03*
X167019730Y-79419730I-1300000J0D01*
G01*
X167019730Y-79419730D02*
G75*
G03*
X169619730Y-79419730I1300000J0D01*
G01*
X217839459Y-128439459D02*
X217839459Y-82849909D01*
X214619730Y-124419730D02*
G75*
G03*
X212019730Y-124419730I-1300000J0D01*
G01*
X212019730Y-124419730D02*
G75*
G03*
X214619730Y-124419730I1300000J0D01*
G01*
X164300000Y-74900000D02*
G75*
G03*
X163800000Y-75400000I-100J-499900D01*
G01*
X216839459Y-81849909D02*
X214319730Y-81849909D01*
X217339459Y-128939459D02*
G75*
G03*
X217839459Y-128439459I-59J500059D01*
G01*
X170749950Y-125419730D02*
G75*
G03*
X167319730Y-121989550I-3430250J-70D01*
G01*
X210889550Y-78419730D02*
X210889550Y-75900000D01*
X217839491Y-82849909D02*
G75*
G03*
X216839459Y-81849909I-999891J109D01*
G01*
X170749909Y-125419730D02*
X170749909Y-127939459D01*
X164800000Y-121989550D02*
X167319730Y-121989550D01*
X171749909Y-128939459D02*
X217339459Y-128939459D01*
M02*
