M48
; DRILL file {KiCad 8.0.8-8.0.8-0~ubuntu22.04.1} date 2025-01-21T10:35:55-0500
; FORMAT={-:-/ absolute / inch / decimal}
; #@! TF.CreationDate,2025-01-21T10:35:55-05:00
; #@! TF.GenerationSoftware,Kicad,Pcbnew,8.0.8-8.0.8-0~ubuntu22.04.1
; #@! TF.FileFunction,Plated,1,4,PTH
FMAT,2
INCH
; #@! TA.AperFunction,Plated,PTH,ViaDrill
T1C0.0080
; #@! TA.AperFunction,Plated,PTH,ComponentDrill
T2C0.0197
; #@! TA.AperFunction,Plated,PTH,ComponentDrill
T3C0.0300
; #@! TA.AperFunction,Plated,PTH,ComponentDrill
T4C0.1260
%
G90
G05
T1
X2.0984Y-2.4606
X2.1417Y-2.4606
X2.1693Y-2.3031
X2.1693Y-2.4016
X2.189Y-2.2559
X2.26Y-2.275
X2.2756Y-2.4213
X2.2756Y-2.4488
X2.29Y-2.27
X2.3186Y-2.2677
X2.3346Y-2.189
X2.3543Y-2.3071
X2.3622Y-2.3425
X2.3858Y-2.315
X2.3976Y-2.4567
X2.4173Y-2.2717
X2.4231Y-2.378
T2
X2.0157Y-2.2126
X2.0551Y-2.2126
X2.0945Y-2.2126
X2.1339Y-2.2126
X2.1732Y-2.2126
X2.2126Y-2.2126
T3
X2.1298Y-2.8158
X2.1798Y-2.9158
X2.2298Y-2.8158
X2.2798Y-2.9158
T4
X2.0548Y-2.5658
X2.355Y-2.5658
M30
