%TF.GenerationSoftware,KiCad,Pcbnew,8.0.8-8.0.8-0~ubuntu22.04.1*%
%TF.CreationDate,2025-01-21T10:35:51-05:00*%
%TF.ProjectId,imu-board,696d752d-626f-4617-9264-2e6b69636164,rev?*%
%TF.SameCoordinates,Original*%
%TF.FileFunction,Copper,L4,Bot*%
%TF.FilePolarity,Positive*%
%FSLAX46Y46*%
G04 Gerber Fmt 4.6, Leading zero omitted, Abs format (unit mm)*
G04 Created by KiCad (PCBNEW 8.0.8-8.0.8-0~ubuntu22.04.1) date 2025-01-21 10:35:51*
%MOMM*%
%LPD*%
G01*
G04 APERTURE LIST*
%TA.AperFunction,ComponentPad*%
%ADD10R,0.850000X0.850000*%
%TD*%
%TA.AperFunction,ComponentPad*%
%ADD11O,0.850000X0.850000*%
%TD*%
%TA.AperFunction,ComponentPad*%
%ADD12C,1.524000*%
%TD*%
%TA.AperFunction,ComponentPad*%
%ADD13C,4.000000*%
%TD*%
%TA.AperFunction,ViaPad*%
%ADD14C,0.508000*%
%TD*%
%TA.AperFunction,Conductor*%
%ADD15C,0.152400*%
%TD*%
G04 APERTURE END LIST*
D10*
%TO.P,J3,1,MISO*%
%TO.N,/MISO*%
X51200000Y-56200000D03*
D11*
%TO.P,J3,2,VCC*%
%TO.N,VCC*%
X52200000Y-56200000D03*
%TO.P,J3,3,SCK*%
%TO.N,/SCK*%
X53200000Y-56200000D03*
%TO.P,J3,4,MOSI*%
%TO.N,/MOSI*%
X54200000Y-56200000D03*
%TO.P,J3,5,~{RST}*%
%TO.N,/nRESET*%
X55200000Y-56200000D03*
%TO.P,J3,6,GND*%
%TO.N,GND*%
X56200000Y-56200000D03*
%TD*%
D12*
%TO.P,J2,1*%
%TO.N,VCC*%
X54097000Y-71521000D03*
%TO.P,J2,2*%
%TO.N,/TXD*%
X55367000Y-74061000D03*
%TO.P,J2,3*%
%TO.N,/RXD*%
X56637000Y-71521000D03*
%TO.P,J2,4*%
%TO.N,GND*%
X57907000Y-74061000D03*
D13*
%TO.P,J2,5*%
%TO.N,N/C*%
X52192000Y-65171000D03*
%TO.P,J2,6*%
X59817000Y-65171000D03*
%TD*%
D14*
%TO.N,VCC*%
X54400000Y-62500000D03*
X57800000Y-61500000D03*
X55600000Y-57300000D03*
X61546000Y-60400000D03*
X61400000Y-57700000D03*
X59800000Y-58600000D03*
%TO.N,GND*%
X60600000Y-58800000D03*
X59300000Y-55600000D03*
X55100000Y-58500000D03*
X57800000Y-62200000D03*
X55100000Y-61000000D03*
X60900000Y-62400000D03*
X60000000Y-59500000D03*
%TO.N,/nRESET*%
X58893598Y-57600000D03*
%TO.N,/TXD*%
X57404000Y-57785000D03*
%TO.N,/RXD*%
X58166000Y-57658000D03*
%TO.N,/SCK*%
X53300000Y-62500000D03*
%TD*%
D15*
%TO.N,/nRESET*%
X55853600Y-55546400D02*
X55200000Y-56200000D01*
X56839998Y-55546400D02*
X55853600Y-55546400D01*
X58893598Y-57600000D02*
X56839998Y-55546400D01*
%TO.N,/TXD*%
X55499000Y-65532000D02*
X55367000Y-65664000D01*
X55499000Y-61283500D02*
X55499000Y-65532000D01*
X57404000Y-57785000D02*
X57404000Y-59378500D01*
X57404000Y-59378500D02*
X55499000Y-61283500D01*
X55367000Y-65664000D02*
X55367000Y-74061000D01*
%TO.N,/RXD*%
X58166000Y-59047552D02*
X56134000Y-61079552D01*
X56134000Y-69342000D02*
X56637000Y-69845000D01*
X56637000Y-69845000D02*
X56637000Y-71521000D01*
X58166000Y-57658000D02*
X58166000Y-59047552D01*
X56134000Y-61079552D02*
X56134000Y-69342000D01*
%TO.N,/SCK*%
X50898203Y-62628600D02*
X50400000Y-62130397D01*
X50400000Y-57432800D02*
X50932800Y-56900000D01*
X52500000Y-56900000D02*
X53200000Y-56200000D01*
X52500000Y-61800000D02*
X52600000Y-61800000D01*
X50932800Y-56900000D02*
X52500000Y-56900000D01*
X52500000Y-61800000D02*
X51671400Y-62628600D01*
X51671400Y-62628600D02*
X50898203Y-62628600D01*
X50400000Y-62130397D02*
X50400000Y-57432800D01*
X52600000Y-61800000D02*
X53300000Y-62500000D01*
%TD*%
M02*
