%TF.GenerationSoftware,KiCad,Pcbnew,8.0.8-8.0.8-0~ubuntu24.04.1*%
%TF.CreationDate,2025-02-27T11:00:21-05:00*%
%TF.ProjectId,imu-board,696d752d-626f-4617-9264-2e6b69636164,rev?*%
%TF.SameCoordinates,Original*%
%TF.FileFunction,Copper,L1,Top*%
%TF.FilePolarity,Positive*%
%FSLAX46Y46*%
G04 Gerber Fmt 4.6, Leading zero omitted, Abs format (unit mm)*
G04 Created by KiCad (PCBNEW 8.0.8-8.0.8-0~ubuntu24.04.1) date 2025-02-27 11:00:21*
%MOMM*%
%LPD*%
G01*
G04 APERTURE LIST*
G04 Aperture macros list*
%AMRoundRect*
0 Rectangle with rounded corners*
0 $1 Rounding radius*
0 $2 $3 $4 $5 $6 $7 $8 $9 X,Y pos of 4 corners*
0 Add a 4 corners polygon primitive as box body*
4,1,4,$2,$3,$4,$5,$6,$7,$8,$9,$2,$3,0*
0 Add four circle primitives for the rounded corners*
1,1,$1+$1,$2,$3*
1,1,$1+$1,$4,$5*
1,1,$1+$1,$6,$7*
1,1,$1+$1,$8,$9*
0 Add four rect primitives between the rounded corners*
20,1,$1+$1,$2,$3,$4,$5,0*
20,1,$1+$1,$4,$5,$6,$7,0*
20,1,$1+$1,$6,$7,$8,$9,0*
20,1,$1+$1,$8,$9,$2,$3,0*%
%AMFreePoly0*
4,1,14,0.318306,0.106694,0.381694,0.043306,0.400000,-0.000888,0.400000,-0.062500,0.381694,-0.106694,0.337500,-0.125000,-0.337500,-0.125000,-0.381694,-0.106694,-0.400000,-0.062500,-0.400000,0.062500,-0.381694,0.106694,-0.337500,0.125000,0.274112,0.125000,0.318306,0.106694,0.318306,0.106694,$1*%
%AMFreePoly1*
4,1,14,0.381694,0.106694,0.400000,0.062500,0.400000,0.000888,0.381694,-0.043306,0.318306,-0.106694,0.274112,-0.125000,-0.337500,-0.125000,-0.381694,-0.106694,-0.400000,-0.062500,-0.400000,0.062500,-0.381694,0.106694,-0.337500,0.125000,0.337500,0.125000,0.381694,0.106694,0.381694,0.106694,$1*%
%AMFreePoly2*
4,1,14,0.106694,0.381694,0.125000,0.337500,0.125000,-0.337500,0.106694,-0.381694,0.062500,-0.400000,-0.062500,-0.400000,-0.106694,-0.381694,-0.125000,-0.337500,-0.125000,0.274112,-0.106694,0.318306,-0.043306,0.381694,0.000888,0.400000,0.062500,0.400000,0.106694,0.381694,0.106694,0.381694,$1*%
%AMFreePoly3*
4,1,14,0.043306,0.381694,0.106694,0.318306,0.125000,0.274112,0.125000,-0.337500,0.106694,-0.381694,0.062500,-0.400000,-0.062500,-0.400000,-0.106694,-0.381694,-0.125000,-0.337500,-0.125000,0.337500,-0.106694,0.381694,-0.062500,0.400000,-0.000888,0.400000,0.043306,0.381694,0.043306,0.381694,$1*%
%AMFreePoly4*
4,1,14,0.381694,0.106694,0.400000,0.062500,0.400000,-0.062500,0.381694,-0.106694,0.337500,-0.125000,-0.274112,-0.125000,-0.318306,-0.106694,-0.381694,-0.043306,-0.400000,0.000888,-0.400000,0.062500,-0.381694,0.106694,-0.337500,0.125000,0.337500,0.125000,0.381694,0.106694,0.381694,0.106694,$1*%
%AMFreePoly5*
4,1,14,0.381694,0.106694,0.400000,0.062500,0.400000,-0.062500,0.381694,-0.106694,0.337500,-0.125000,-0.337500,-0.125000,-0.381694,-0.106694,-0.400000,-0.062500,-0.400000,-0.000888,-0.381694,0.043306,-0.318306,0.106694,-0.274112,0.125000,0.337500,0.125000,0.381694,0.106694,0.381694,0.106694,$1*%
%AMFreePoly6*
4,1,14,0.106694,0.381694,0.125000,0.337500,0.125000,-0.274112,0.106694,-0.318306,0.043306,-0.381694,-0.000888,-0.400000,-0.062500,-0.400000,-0.106694,-0.381694,-0.125000,-0.337500,-0.125000,0.337500,-0.106694,0.381694,-0.062500,0.400000,0.062500,0.400000,0.106694,0.381694,0.106694,0.381694,$1*%
%AMFreePoly7*
4,1,14,0.106694,0.381694,0.125000,0.337500,0.125000,-0.337500,0.106694,-0.381694,0.062500,-0.400000,0.000888,-0.400000,-0.043306,-0.381694,-0.106694,-0.318306,-0.125000,-0.274112,-0.125000,0.337500,-0.106694,0.381694,-0.062500,0.400000,0.062500,0.400000,0.106694,0.381694,0.106694,0.381694,$1*%
G04 Aperture macros list end*
%TA.AperFunction,SMDPad,CuDef*%
%ADD10RoundRect,0.140000X0.170000X-0.140000X0.170000X0.140000X-0.170000X0.140000X-0.170000X-0.140000X0*%
%TD*%
%TA.AperFunction,SMDPad,CuDef*%
%ADD11FreePoly0,270.000000*%
%TD*%
%TA.AperFunction,SMDPad,CuDef*%
%ADD12RoundRect,0.062500X-0.062500X0.337500X-0.062500X-0.337500X0.062500X-0.337500X0.062500X0.337500X0*%
%TD*%
%TA.AperFunction,SMDPad,CuDef*%
%ADD13FreePoly1,270.000000*%
%TD*%
%TA.AperFunction,SMDPad,CuDef*%
%ADD14FreePoly2,270.000000*%
%TD*%
%TA.AperFunction,SMDPad,CuDef*%
%ADD15RoundRect,0.062500X-0.337500X0.062500X-0.337500X-0.062500X0.337500X-0.062500X0.337500X0.062500X0*%
%TD*%
%TA.AperFunction,SMDPad,CuDef*%
%ADD16FreePoly3,270.000000*%
%TD*%
%TA.AperFunction,SMDPad,CuDef*%
%ADD17FreePoly4,270.000000*%
%TD*%
%TA.AperFunction,SMDPad,CuDef*%
%ADD18FreePoly5,270.000000*%
%TD*%
%TA.AperFunction,SMDPad,CuDef*%
%ADD19FreePoly6,270.000000*%
%TD*%
%TA.AperFunction,SMDPad,CuDef*%
%ADD20FreePoly7,270.000000*%
%TD*%
%TA.AperFunction,SMDPad,CuDef*%
%ADD21R,2.400000X2.400000*%
%TD*%
%TA.AperFunction,SMDPad,CuDef*%
%ADD22RoundRect,0.147500X-0.147500X-0.172500X0.147500X-0.172500X0.147500X0.172500X-0.147500X0.172500X0*%
%TD*%
%TA.AperFunction,SMDPad,CuDef*%
%ADD23R,0.300000X0.480000*%
%TD*%
%TA.AperFunction,SMDPad,CuDef*%
%ADD24R,0.480000X0.300000*%
%TD*%
%TA.AperFunction,SMDPad,CuDef*%
%ADD25RoundRect,0.135000X-0.135000X-0.185000X0.135000X-0.185000X0.135000X0.185000X-0.135000X0.185000X0*%
%TD*%
%TA.AperFunction,SMDPad,CuDef*%
%ADD26RoundRect,0.135000X0.135000X0.185000X-0.135000X0.185000X-0.135000X-0.185000X0.135000X-0.185000X0*%
%TD*%
%TA.AperFunction,ComponentPad*%
%ADD27R,0.850000X0.850000*%
%TD*%
%TA.AperFunction,ComponentPad*%
%ADD28O,0.850000X0.850000*%
%TD*%
%TA.AperFunction,SMDPad,CuDef*%
%ADD29RoundRect,0.140000X0.140000X0.170000X-0.140000X0.170000X-0.140000X-0.170000X0.140000X-0.170000X0*%
%TD*%
%TA.AperFunction,ComponentPad*%
%ADD30C,1.524000*%
%TD*%
%TA.AperFunction,ViaPad*%
%ADD31C,0.508000*%
%TD*%
%TA.AperFunction,Conductor*%
%ADD32C,0.152400*%
%TD*%
G04 APERTURE END LIST*
D10*
%TO.P,C2,1*%
%TO.N,VCC*%
X51181000Y-60678000D03*
%TO.P,C2,2*%
%TO.N,GND*%
X51181000Y-59718000D03*
%TD*%
D11*
%TO.P,U3,1,PD3*%
%TO.N,unconnected-(U3-PD3-Pad1)*%
X56007000Y-58203000D03*
D12*
%TO.P,U3,2,PD4*%
%TO.N,unconnected-(U3-PD4-Pad2)*%
X55557000Y-58203000D03*
%TO.P,U3,3,VCC*%
%TO.N,VCC*%
X55107000Y-58203000D03*
%TO.P,U3,4,GND*%
%TO.N,GND*%
X54657000Y-58203000D03*
%TO.P,U3,5,XTAL1/PB6*%
%TO.N,unconnected-(U3-XTAL1{slash}PB6-Pad5)*%
X54207000Y-58203000D03*
%TO.P,U3,6,XTAL2/PB7*%
%TO.N,unconnected-(U3-XTAL2{slash}PB7-Pad6)*%
X53757000Y-58203000D03*
D13*
%TO.P,U3,7,PD5*%
%TO.N,unconnected-(U3-PD5-Pad7)*%
X53307000Y-58203000D03*
D14*
%TO.P,U3,8,PD6*%
%TO.N,unconnected-(U3-PD6-Pad8)*%
X52707000Y-58803000D03*
D15*
%TO.P,U3,9,PD7*%
%TO.N,unconnected-(U3-PD7-Pad9)*%
X52707000Y-59253000D03*
%TO.P,U3,10,PB0*%
%TO.N,unconnected-(U3-PB0-Pad10)*%
X52707000Y-59703000D03*
%TO.P,U3,11,PB1*%
%TO.N,unconnected-(U3-PB1-Pad11)*%
X52707000Y-60153000D03*
%TO.P,U3,12,PB2*%
%TO.N,unconnected-(U3-PB2-Pad12)*%
X52707000Y-60603000D03*
%TO.P,U3,13,PB3*%
%TO.N,/MOSI*%
X52707000Y-61053000D03*
D16*
%TO.P,U3,14,PB4*%
%TO.N,/MISO*%
X52707000Y-61503000D03*
D17*
%TO.P,U3,15,PB5*%
%TO.N,/SCK*%
X53307000Y-62103000D03*
D12*
%TO.P,U3,16,AVCC*%
%TO.N,VCC*%
X53757000Y-62103000D03*
%TO.P,U3,17,AREF*%
%TO.N,unconnected-(U3-AREF-Pad17)*%
X54207000Y-62103000D03*
%TO.P,U3,18,GND*%
%TO.N,GND*%
X54657000Y-62103000D03*
%TO.P,U3,19,PC0*%
%TO.N,unconnected-(U3-PC0-Pad19)*%
X55107000Y-62103000D03*
%TO.P,U3,20,PC1*%
%TO.N,Net-(JP1-A)*%
X55557000Y-62103000D03*
D18*
%TO.P,U3,21,PC2*%
%TO.N,Net-(JP2-A)*%
X56007000Y-62103000D03*
D19*
%TO.P,U3,22,PC3*%
%TO.N,Net-(U3-PC3)*%
X56607000Y-61503000D03*
D15*
%TO.P,U3,23,PC4*%
%TO.N,/SDA*%
X56607000Y-61053000D03*
%TO.P,U3,24,PC5*%
%TO.N,/SCL*%
X56607000Y-60603000D03*
%TO.P,U3,25,~{RESET}/PC6*%
%TO.N,/nRESET*%
X56607000Y-60153000D03*
%TO.P,U3,26,PD0*%
%TO.N,/RXD*%
X56607000Y-59703000D03*
%TO.P,U3,27,PD1*%
%TO.N,/TXD*%
X56607000Y-59253000D03*
D20*
%TO.P,U3,28,PD2*%
%TO.N,unconnected-(U3-PD2-Pad28)*%
X56607000Y-58803000D03*
D21*
%TO.P,U3,29,GND*%
%TO.N,GND*%
X54657000Y-60153000D03*
%TD*%
D22*
%TO.P,D1,1,K*%
%TO.N,GND*%
X52243000Y-69469000D03*
%TO.P,D1,2,A*%
%TO.N,Net-(D1-A)*%
X53213000Y-69469000D03*
%TD*%
D23*
%TO.P,U2,P1,SDO/SA0*%
%TO.N,GND*%
X58957000Y-60488500D03*
%TO.P,U2,P2,SDX*%
X59457000Y-60488500D03*
%TO.P,U2,P3,SCX*%
X59957000Y-60488500D03*
%TO.P,U2,P4,INT1*%
%TO.N,unconnected-(U2-INT1-PadP4)*%
X60457000Y-60488500D03*
D24*
%TO.P,U2,P5,VDD_IO*%
%TO.N,VCC*%
X60707000Y-59826000D03*
%TO.P,U2,P6,GND@6*%
%TO.N,GND*%
X60707000Y-59326000D03*
%TO.P,U2,P7,GND@7*%
X60707000Y-58826000D03*
D23*
%TO.P,U2,P8,VDD*%
%TO.N,VCC*%
X60457000Y-58163500D03*
%TO.P,U2,P9,INT2*%
%TO.N,unconnected-(U2-INT2-PadP9)*%
X59957000Y-58163500D03*
%TO.P,U2,P10,OCS_AUX*%
%TO.N,unconnected-(U2-OCS_AUX-PadP10)*%
X59457000Y-58163500D03*
%TO.P,U2,P11,SDO_AUX*%
%TO.N,unconnected-(U2-SDO_AUX-PadP11)*%
X58957000Y-58163500D03*
D24*
%TO.P,U2,P12,~{CS}*%
%TO.N,VCC*%
X58707000Y-58826000D03*
%TO.P,U2,P13,SCL*%
%TO.N,/SCL*%
X58707000Y-59326000D03*
%TO.P,U2,P14,SDA/SDI/SDO*%
%TO.N,/SDA*%
X58707000Y-59826000D03*
%TD*%
D25*
%TO.P,R1,1*%
%TO.N,Net-(U3-PC3)*%
X52218000Y-68072000D03*
%TO.P,R1,2*%
%TO.N,Net-(D1-A)*%
X53238000Y-68072000D03*
%TD*%
D26*
%TO.P,JP1,1,A*%
%TO.N,Net-(JP1-A)*%
X60708000Y-70612000D03*
%TO.P,JP1,2,B*%
%TO.N,GND*%
X59688000Y-70612000D03*
%TD*%
%TO.P,JP2,1,A*%
%TO.N,Net-(JP2-A)*%
X60708000Y-68707000D03*
%TO.P,JP2,2,B*%
%TO.N,GND*%
X59688000Y-68707000D03*
%TD*%
D27*
%TO.P,J3,1,MISO*%
%TO.N,/MISO*%
X56134000Y-69278000D03*
D28*
%TO.P,J3,2,VCC*%
%TO.N,VCC*%
X56134000Y-68278000D03*
%TO.P,J3,3,SCK*%
%TO.N,/SCK*%
X56134000Y-67278000D03*
%TO.P,J3,4,MOSI*%
%TO.N,/MOSI*%
X56134000Y-66278000D03*
%TO.P,J3,5,~{RST}*%
%TO.N,/nRESET*%
X56134000Y-65278000D03*
%TO.P,J3,6,GND*%
%TO.N,GND*%
X56134000Y-64278000D03*
%TD*%
D29*
%TO.P,C1,1*%
%TO.N,VCC*%
X60551000Y-61976000D03*
%TO.P,C1,2*%
%TO.N,GND*%
X59591000Y-61976000D03*
%TD*%
D30*
%TO.P,J2,1*%
%TO.N,VCC*%
X54097000Y-71521000D03*
%TO.P,J2,2*%
%TO.N,/TXD*%
X55367000Y-74061000D03*
%TO.P,J2,3*%
%TO.N,/RXD*%
X56637000Y-71521000D03*
%TO.P,J2,4*%
%TO.N,GND*%
X57907000Y-74061000D03*
%TD*%
D31*
%TO.N,VCC*%
X54410800Y-63048476D03*
X55107000Y-57753000D03*
X51181000Y-61341000D03*
X61053000Y-60726000D03*
X60907000Y-58026000D03*
X59307000Y-58926000D03*
%TO.N,GND*%
X51181000Y-58928000D03*
X60107000Y-59126000D03*
X59563000Y-61214000D03*
X59690000Y-69723000D03*
X54607000Y-58953000D03*
X52324000Y-70104000D03*
X54607000Y-61453000D03*
X59507000Y-59826000D03*
%TO.N,/nRESET*%
X57658000Y-60270300D03*
%TO.N,/TXD*%
X57658000Y-58674000D03*
X58238200Y-62611000D03*
%TO.N,/RXD*%
X57514680Y-59508779D03*
X57187200Y-62103000D03*
%TO.N,/MOSI*%
X53848000Y-66675000D03*
%TO.N,Net-(JP1-A)*%
X60706000Y-69850000D03*
X55825200Y-63133033D03*
%TO.N,Net-(JP2-A)*%
X56566036Y-62972631D03*
X60706000Y-67564000D03*
%TO.N,Net-(U3-PC3)*%
X52197000Y-68707000D03*
X58420000Y-70104000D03*
%TD*%
D32*
%TO.N,VCC*%
X60769500Y-58163500D02*
X60907000Y-58026000D01*
X53757000Y-62502999D02*
X54302477Y-63048476D01*
X54302477Y-63048476D02*
X54410800Y-63048476D01*
X60457000Y-58163500D02*
X60769500Y-58163500D01*
X60551000Y-61228000D02*
X61053000Y-60726000D01*
X55107000Y-58503000D02*
X55107000Y-57753000D01*
X61053000Y-60172000D02*
X61053000Y-60726000D01*
X53757000Y-62103000D02*
X53757000Y-62502999D01*
X59207000Y-58826000D02*
X59307000Y-58926000D01*
X60707000Y-59826000D02*
X61053000Y-60172000D01*
X60551000Y-61976000D02*
X60551000Y-61228000D01*
X58707000Y-58826000D02*
X59207000Y-58826000D01*
X51181000Y-60678000D02*
X51181000Y-61341000D01*
%TO.N,GND*%
X59457000Y-60488500D02*
X59457000Y-59876000D01*
X59688000Y-70612000D02*
X59688000Y-69725000D01*
X60107000Y-59126000D02*
X60507000Y-59126000D01*
X60407000Y-58826000D02*
X60107000Y-59126000D01*
X59591000Y-61976000D02*
X59591000Y-61242000D01*
X54657000Y-62403000D02*
X54657000Y-60453000D01*
X60507000Y-59126000D02*
X60707000Y-59326000D01*
X52243000Y-69469000D02*
X52243000Y-70023000D01*
X51181000Y-59718000D02*
X51181000Y-58928000D01*
X60707000Y-58826000D02*
X60407000Y-58826000D01*
X59457000Y-59876000D02*
X59507000Y-59826000D01*
X54657000Y-58503000D02*
X54657000Y-59103000D01*
X54657000Y-59103000D02*
X54607000Y-59153000D01*
X59591000Y-61242000D02*
X59563000Y-61214000D01*
X59688000Y-69721000D02*
X59690000Y-69723000D01*
X52243000Y-70023000D02*
X52324000Y-70104000D01*
X54657000Y-59203000D02*
X54657000Y-60453000D01*
X59688000Y-68707000D02*
X59688000Y-69721000D01*
X59957000Y-59276000D02*
X60107000Y-59126000D01*
X59688000Y-69725000D02*
X59690000Y-69723000D01*
X54607000Y-59153000D02*
X54657000Y-59203000D01*
X59457000Y-60488500D02*
X58957000Y-60488500D01*
X59457000Y-60488500D02*
X59957000Y-60488500D01*
%TO.N,/nRESET*%
X57540700Y-60153000D02*
X57658000Y-60270300D01*
X56607000Y-60153000D02*
X57540700Y-60153000D01*
%TO.N,Net-(D1-A)*%
X53213000Y-68097000D02*
X53238000Y-68072000D01*
X53213000Y-69469000D02*
X53213000Y-68097000D01*
%TO.N,/TXD*%
X57480200Y-63369000D02*
X58238200Y-62611000D01*
X57658748Y-69773800D02*
X57480200Y-69595252D01*
X57079000Y-59253000D02*
X57658000Y-58674000D01*
X55367000Y-74061000D02*
X56444630Y-74061000D01*
X57658748Y-72846882D02*
X57658748Y-69773800D01*
X56607000Y-59253000D02*
X57079000Y-59253000D01*
X57480200Y-69595252D02*
X57480200Y-63369000D01*
X56444630Y-74061000D02*
X57658748Y-72846882D01*
%TO.N,/RXD*%
X57077800Y-62212400D02*
X57187200Y-62103000D01*
X57077800Y-70002570D02*
X57077800Y-62212400D01*
X56637000Y-70443370D02*
X57077800Y-70002570D01*
X57320459Y-59703000D02*
X57514680Y-59508779D01*
X56637000Y-71521000D02*
X56637000Y-70443370D01*
X56607000Y-59703000D02*
X57320459Y-59703000D01*
%TO.N,/MISO*%
X54423000Y-68144400D02*
X55556600Y-69278000D01*
X52707000Y-61503000D02*
X52707000Y-62530890D01*
X54423000Y-64246890D02*
X54423000Y-68144400D01*
X52707000Y-62530890D02*
X54423000Y-64246890D01*
X55556600Y-69278000D02*
X56134000Y-69278000D01*
%TO.N,/SCK*%
X53307000Y-62699838D02*
X54727800Y-64120638D01*
X53307000Y-62103000D02*
X53307000Y-62699838D01*
X54727800Y-65871800D02*
X56134000Y-67278000D01*
X54727800Y-64120638D02*
X54727800Y-65871800D01*
%TO.N,/MOSI*%
X52068400Y-61316318D02*
X52068400Y-62323342D01*
X52331718Y-61053000D02*
X52068400Y-61316318D01*
X52707000Y-61053000D02*
X52331718Y-61053000D01*
X54118200Y-64373142D02*
X54118200Y-66404800D01*
X54118200Y-66404800D02*
X53848000Y-66675000D01*
X52068400Y-62323342D02*
X54118200Y-64373142D01*
%TO.N,Net-(JP1-A)*%
X60706000Y-69850000D02*
X60706000Y-70610000D01*
X60706000Y-70610000D02*
X60708000Y-70612000D01*
X55557000Y-62864833D02*
X55825200Y-63133033D01*
X55557000Y-62103000D02*
X55557000Y-62864833D01*
%TO.N,Net-(JP2-A)*%
X56566036Y-62662036D02*
X56566036Y-62972631D01*
X56007000Y-62103000D02*
X56566036Y-62662036D01*
X60708000Y-68707000D02*
X60708000Y-67566000D01*
X60708000Y-67566000D02*
X60706000Y-67564000D01*
%TO.N,/SCL*%
X57898327Y-60905200D02*
X58238200Y-60565327D01*
X57417673Y-60905200D02*
X57898327Y-60905200D01*
X58238200Y-59371799D02*
X58283999Y-59326000D01*
X58238200Y-60565327D02*
X58238200Y-59371799D01*
X56607000Y-60603000D02*
X57115473Y-60603000D01*
X57115473Y-60603000D02*
X57417673Y-60905200D01*
X58283999Y-59326000D02*
X58707000Y-59326000D01*
%TO.N,/SDA*%
X58543000Y-60691579D02*
X58543000Y-59990000D01*
X58024579Y-61210000D02*
X58543000Y-60691579D01*
X57291421Y-61210000D02*
X58024579Y-61210000D01*
X57134421Y-61053000D02*
X57291421Y-61210000D01*
X58543000Y-59990000D02*
X58707000Y-59826000D01*
X56607000Y-61053000D02*
X57134421Y-61053000D01*
%TO.N,Net-(U3-PC3)*%
X58420000Y-63500000D02*
X57890800Y-64029200D01*
X57890800Y-64029200D02*
X57890800Y-69574800D01*
X52197000Y-68707000D02*
X52197000Y-68093000D01*
X57890800Y-69574800D02*
X58420000Y-70104000D01*
X56607000Y-61503000D02*
X56699000Y-61595000D01*
X58166000Y-61595000D02*
X58674000Y-62103000D01*
X56699000Y-61595000D02*
X57531000Y-61595000D01*
X57531000Y-61595000D02*
X58166000Y-61595000D01*
X58720800Y-63199200D02*
X58420000Y-63500000D01*
X58720800Y-62149800D02*
X58720800Y-63199200D01*
X58674000Y-62103000D02*
X58720800Y-62149800D01*
X52197000Y-68093000D02*
X52218000Y-68072000D01*
%TD*%
M02*
