M48
; DRILL file {KiCad 8.0.8-8.0.8-0~ubuntu24.04.1} date 2025-02-27T11:00:24-0500
; FORMAT={-:-/ absolute / inch / decimal}
; #@! TF.CreationDate,2025-02-27T11:00:24-05:00
; #@! TF.GenerationSoftware,Kicad,Pcbnew,8.0.8-8.0.8-0~ubuntu24.04.1
; #@! TF.FileFunction,Plated,1,4,PTH
FMAT,2
INCH
; #@! TA.AperFunction,Plated,PTH,ViaDrill
T1C0.0080
; #@! TA.AperFunction,Plated,PTH,ComponentDrill
T2C0.0197
; #@! TA.AperFunction,Plated,PTH,ComponentDrill
T3C0.0300
%
G90
G05
T1
X2.015Y-2.32
X2.015Y-2.415
X2.055Y-2.705
X2.06Y-2.76
X2.12Y-2.625
X2.1422Y-2.4822
X2.1499Y-2.321
X2.1499Y-2.4194
X2.1696Y-2.2737
X2.1978Y-2.4856
X2.227Y-2.4792
X2.2515Y-2.445
X2.2644Y-2.3429
X2.27Y-2.31
X2.27Y-2.3728
X2.2928Y-2.465
X2.3Y-2.76
X2.3349Y-2.3199
X2.3428Y-2.3554
X2.345Y-2.41
X2.35Y-2.745
X2.3664Y-2.3278
X2.39Y-2.66
X2.39Y-2.75
X2.3979Y-2.2845
X2.4037Y-2.3908
T2
X2.21Y-2.5306
X2.21Y-2.57
X2.21Y-2.6094
X2.21Y-2.6487
X2.21Y-2.6881
X2.21Y-2.7275
T3
X2.1298Y-2.8158
X2.1798Y-2.9158
X2.2298Y-2.8158
X2.2798Y-2.9158
M30
