%TF.GenerationSoftware,KiCad,Pcbnew,8.0.8-8.0.8-0~ubuntu22.04.1*%
%TF.CreationDate,2025-01-21T10:35:51-05:00*%
%TF.ProjectId,imu-board,696d752d-626f-4617-9264-2e6b69636164,rev?*%
%TF.SameCoordinates,Original*%
%TF.FileFunction,Copper,L3,Inr*%
%TF.FilePolarity,Positive*%
%FSLAX46Y46*%
G04 Gerber Fmt 4.6, Leading zero omitted, Abs format (unit mm)*
G04 Created by KiCad (PCBNEW 8.0.8-8.0.8-0~ubuntu22.04.1) date 2025-01-21 10:35:51*
%MOMM*%
%LPD*%
G01*
G04 APERTURE LIST*
%TA.AperFunction,ComponentPad*%
%ADD10R,0.850000X0.850000*%
%TD*%
%TA.AperFunction,ComponentPad*%
%ADD11O,0.850000X0.850000*%
%TD*%
%TA.AperFunction,ComponentPad*%
%ADD12C,1.524000*%
%TD*%
%TA.AperFunction,ComponentPad*%
%ADD13C,4.000000*%
%TD*%
%TA.AperFunction,ViaPad*%
%ADD14C,0.508000*%
%TD*%
G04 APERTURE END LIST*
D10*
%TO.N,/MISO*%
%TO.C,J3*%
X51200000Y-56200000D03*
D11*
%TO.N,VCC*%
X52200000Y-56200000D03*
%TO.N,/SCK*%
X53200000Y-56200000D03*
%TO.N,/MOSI*%
X54200000Y-56200000D03*
%TO.N,/nRESET*%
X55200000Y-56200000D03*
%TO.N,GND*%
X56200000Y-56200000D03*
%TD*%
D12*
%TO.N,VCC*%
%TO.C,J2*%
X54097000Y-71521000D03*
%TO.N,/TXD*%
X55367000Y-74061000D03*
%TO.N,/RXD*%
X56637000Y-71521000D03*
%TO.N,GND*%
X57907000Y-74061000D03*
D13*
%TO.N,N/C*%
X52192000Y-65171000D03*
X59817000Y-65171000D03*
%TD*%
D14*
%TO.N,VCC*%
X54400000Y-62500000D03*
X57800000Y-61500000D03*
X55600000Y-57300000D03*
X61546000Y-60400000D03*
X61400000Y-57700000D03*
X59800000Y-58600000D03*
%TO.N,GND*%
X60600000Y-58800000D03*
X59300000Y-55600000D03*
X55100000Y-58500000D03*
X57800000Y-62200000D03*
X55100000Y-61000000D03*
X60900000Y-62400000D03*
X60000000Y-59500000D03*
%TO.N,/nRESET*%
X58893598Y-57600000D03*
%TO.N,/TXD*%
X57404000Y-57785000D03*
%TO.N,/RXD*%
X58166000Y-57658000D03*
%TO.N,/SCK*%
X53300000Y-62500000D03*
%TD*%
%TA.AperFunction,Conductor*%
%TO.N,VCC*%
G36*
X61734691Y-54956407D02*
G01*
X61770655Y-55005907D01*
X61775500Y-55036500D01*
X61775500Y-63814947D01*
X61756593Y-63873138D01*
X61707093Y-63909102D01*
X61645907Y-63909102D01*
X61596407Y-63873138D01*
X61594185Y-63869949D01*
X61583959Y-63854645D01*
X61566520Y-63828546D01*
X61566515Y-63828540D01*
X61566512Y-63828536D01*
X61376335Y-63611682D01*
X61376334Y-63611681D01*
X61376327Y-63611673D01*
X61376317Y-63611664D01*
X61159463Y-63421487D01*
X61159450Y-63421477D01*
X60919611Y-63261222D01*
X60660911Y-63133645D01*
X60660900Y-63133640D01*
X60387759Y-63040920D01*
X60104836Y-62984643D01*
X59817000Y-62965778D01*
X59529163Y-62984643D01*
X59246240Y-63040920D01*
X58973099Y-63133640D01*
X58973088Y-63133645D01*
X58714388Y-63261222D01*
X58474549Y-63421477D01*
X58474536Y-63421487D01*
X58257682Y-63611664D01*
X58257664Y-63611682D01*
X58067487Y-63828536D01*
X58067477Y-63828549D01*
X57907222Y-64068388D01*
X57779645Y-64327088D01*
X57779640Y-64327099D01*
X57686920Y-64600240D01*
X57630643Y-64883163D01*
X57611778Y-65170999D01*
X57611778Y-65171000D01*
X57630643Y-65458836D01*
X57686920Y-65741759D01*
X57779640Y-66014900D01*
X57779645Y-66014911D01*
X57907222Y-66273611D01*
X58067477Y-66513450D01*
X58067487Y-66513463D01*
X58257664Y-66730317D01*
X58257673Y-66730327D01*
X58257681Y-66730334D01*
X58257682Y-66730335D01*
X58474536Y-66920512D01*
X58474549Y-66920522D01*
X58714388Y-67080778D01*
X58714393Y-67080780D01*
X58961837Y-67202806D01*
X59005665Y-67245500D01*
X59016027Y-67305802D01*
X59009515Y-67329481D01*
X58981500Y-67397116D01*
X58981500Y-73634212D01*
X58962593Y-73692403D01*
X58913093Y-73728367D01*
X58851907Y-73728367D01*
X58802407Y-73692403D01*
X58795190Y-73680881D01*
X58768775Y-73631462D01*
X58711162Y-73523676D01*
X58590883Y-73377117D01*
X58444324Y-73256838D01*
X58404959Y-73235797D01*
X58277120Y-73167465D01*
X58277115Y-73167463D01*
X58095683Y-73112426D01*
X58095678Y-73112425D01*
X57907003Y-73093843D01*
X57906997Y-73093843D01*
X57718321Y-73112425D01*
X57718316Y-73112426D01*
X57536884Y-73167463D01*
X57536879Y-73167465D01*
X57369681Y-73256835D01*
X57369671Y-73256841D01*
X57223121Y-73377113D01*
X57223113Y-73377121D01*
X57102841Y-73523671D01*
X57102835Y-73523681D01*
X57013465Y-73690879D01*
X57013463Y-73690884D01*
X56958426Y-73872316D01*
X56958425Y-73872321D01*
X56939843Y-74060996D01*
X56939843Y-74061003D01*
X56958425Y-74249678D01*
X56958426Y-74249683D01*
X57013463Y-74431115D01*
X57013465Y-74431120D01*
X57081797Y-74558959D01*
X57102838Y-74598324D01*
X57102841Y-74598328D01*
X57102842Y-74598329D01*
X57181928Y-74694694D01*
X57204229Y-74751671D01*
X57188781Y-74810874D01*
X57141484Y-74849690D01*
X57105401Y-74856500D01*
X56168599Y-74856500D01*
X56110408Y-74837593D01*
X56074444Y-74788093D01*
X56074444Y-74726907D01*
X56092072Y-74694694D01*
X56171162Y-74598324D01*
X56260537Y-74431115D01*
X56315573Y-74249683D01*
X56315574Y-74249678D01*
X56334157Y-74061003D01*
X56334157Y-74060996D01*
X56315574Y-73872321D01*
X56315573Y-73872316D01*
X56298877Y-73817280D01*
X56260537Y-73690885D01*
X56171162Y-73523676D01*
X56050883Y-73377117D01*
X55904324Y-73256838D01*
X55864959Y-73235797D01*
X55737120Y-73167465D01*
X55737115Y-73167463D01*
X55555683Y-73112426D01*
X55555678Y-73112425D01*
X55367003Y-73093843D01*
X55366997Y-73093843D01*
X55178321Y-73112425D01*
X55178316Y-73112426D01*
X54996884Y-73167463D01*
X54996879Y-73167465D01*
X54829681Y-73256835D01*
X54829671Y-73256841D01*
X54683121Y-73377113D01*
X54683113Y-73377121D01*
X54562841Y-73523671D01*
X54562835Y-73523681D01*
X54473465Y-73690879D01*
X54473463Y-73690884D01*
X54418426Y-73872316D01*
X54418425Y-73872321D01*
X54399843Y-74060996D01*
X54399843Y-74061003D01*
X54418425Y-74249678D01*
X54418426Y-74249683D01*
X54473463Y-74431115D01*
X54473465Y-74431120D01*
X54541797Y-74558959D01*
X54562838Y-74598324D01*
X54562841Y-74598328D01*
X54562842Y-74598329D01*
X54641928Y-74694694D01*
X54664229Y-74751671D01*
X54648781Y-74810874D01*
X54601484Y-74849690D01*
X54565401Y-74856500D01*
X53131500Y-74856500D01*
X53073309Y-74837593D01*
X53037345Y-74788093D01*
X53032500Y-74757500D01*
X53032500Y-71965435D01*
X53051407Y-71907244D01*
X53100907Y-71871280D01*
X53162093Y-71871280D01*
X53211593Y-71907244D01*
X53218810Y-71918767D01*
X53293253Y-72058039D01*
X53293259Y-72058049D01*
X53349724Y-72126851D01*
X53766323Y-71710251D01*
X53792124Y-71754940D01*
X53863060Y-71825876D01*
X53907745Y-71851675D01*
X53491147Y-72268274D01*
X53559950Y-72324740D01*
X53559956Y-72324744D01*
X53727076Y-72414072D01*
X53908414Y-72469081D01*
X53908419Y-72469082D01*
X54096997Y-72487655D01*
X54097003Y-72487655D01*
X54285580Y-72469082D01*
X54285585Y-72469081D01*
X54466923Y-72414072D01*
X54634043Y-72324744D01*
X54634050Y-72324739D01*
X54702851Y-72268274D01*
X54286253Y-71851676D01*
X54330940Y-71825876D01*
X54401876Y-71754940D01*
X54427676Y-71710253D01*
X54844274Y-72126851D01*
X54900739Y-72058050D01*
X54900744Y-72058043D01*
X54990072Y-71890923D01*
X55045081Y-71709585D01*
X55045082Y-71709580D01*
X55063655Y-71521003D01*
X55063655Y-71520996D01*
X55669843Y-71520996D01*
X55669843Y-71521003D01*
X55688425Y-71709678D01*
X55688426Y-71709683D01*
X55743463Y-71891115D01*
X55743465Y-71891120D01*
X55749281Y-71902000D01*
X55832838Y-72058324D01*
X55953117Y-72204883D01*
X56060419Y-72292944D01*
X56099160Y-72324739D01*
X56099676Y-72325162D01*
X56266885Y-72414537D01*
X56393280Y-72452877D01*
X56448316Y-72469573D01*
X56448321Y-72469574D01*
X56636997Y-72488157D01*
X56637000Y-72488157D01*
X56637003Y-72488157D01*
X56825678Y-72469574D01*
X56825683Y-72469573D01*
X56827305Y-72469081D01*
X57007115Y-72414537D01*
X57174324Y-72325162D01*
X57320883Y-72204883D01*
X57441162Y-72058324D01*
X57530537Y-71891115D01*
X57585573Y-71709683D01*
X57585574Y-71709678D01*
X57604157Y-71521003D01*
X57604157Y-71520996D01*
X57585574Y-71332321D01*
X57585573Y-71332316D01*
X57568877Y-71277280D01*
X57530537Y-71150885D01*
X57441162Y-70983676D01*
X57320883Y-70837117D01*
X57174324Y-70716838D01*
X57134959Y-70695797D01*
X57007120Y-70627465D01*
X57007115Y-70627463D01*
X56825683Y-70572426D01*
X56825678Y-70572425D01*
X56637003Y-70553843D01*
X56636997Y-70553843D01*
X56448321Y-70572425D01*
X56448316Y-70572426D01*
X56266884Y-70627463D01*
X56266879Y-70627465D01*
X56099681Y-70716835D01*
X56099671Y-70716841D01*
X55953121Y-70837113D01*
X55953113Y-70837121D01*
X55832841Y-70983671D01*
X55832835Y-70983681D01*
X55743465Y-71150879D01*
X55743463Y-71150884D01*
X55688426Y-71332316D01*
X55688425Y-71332321D01*
X55669843Y-71520996D01*
X55063655Y-71520996D01*
X55045082Y-71332419D01*
X55045081Y-71332414D01*
X54990072Y-71151076D01*
X54900744Y-70983956D01*
X54900740Y-70983950D01*
X54844274Y-70915147D01*
X54427675Y-71331745D01*
X54401876Y-71287060D01*
X54330940Y-71216124D01*
X54286251Y-71190323D01*
X54702851Y-70773724D01*
X54702852Y-70773724D01*
X54634049Y-70717259D01*
X54634043Y-70717255D01*
X54466923Y-70627927D01*
X54285585Y-70572918D01*
X54285580Y-70572917D01*
X54097003Y-70554345D01*
X54096997Y-70554345D01*
X53908419Y-70572917D01*
X53908414Y-70572918D01*
X53727076Y-70627927D01*
X53559952Y-70717257D01*
X53491147Y-70773724D01*
X53907746Y-71190323D01*
X53863060Y-71216124D01*
X53792124Y-71287060D01*
X53766323Y-71331746D01*
X53349724Y-70915147D01*
X53293257Y-70983952D01*
X53218810Y-71123233D01*
X53174704Y-71165639D01*
X53114096Y-71174022D01*
X53060135Y-71145179D01*
X53033434Y-71090128D01*
X53032500Y-71076564D01*
X53032500Y-67397117D01*
X53004484Y-67329481D01*
X53003635Y-67327433D01*
X52998835Y-67266439D01*
X53030804Y-67214269D01*
X53051314Y-67200759D01*
X53179590Y-67137500D01*
X53294611Y-67080778D01*
X53534454Y-66920520D01*
X53751327Y-66730327D01*
X53941520Y-66513454D01*
X54101778Y-66273611D01*
X54229359Y-66014902D01*
X54322081Y-65741753D01*
X54378356Y-65458839D01*
X54397222Y-65171000D01*
X54378356Y-64883161D01*
X54322081Y-64600247D01*
X54229359Y-64327098D01*
X54101778Y-64068389D01*
X53941520Y-63828546D01*
X53941517Y-63828543D01*
X53941512Y-63828536D01*
X53751335Y-63611682D01*
X53751334Y-63611681D01*
X53751327Y-63611673D01*
X53751317Y-63611664D01*
X53534463Y-63421487D01*
X53534450Y-63421477D01*
X53294611Y-63261222D01*
X53035911Y-63133645D01*
X53035900Y-63133640D01*
X52762759Y-63040920D01*
X52479836Y-62984643D01*
X52192000Y-62965778D01*
X51904163Y-62984643D01*
X51621240Y-63040920D01*
X51348099Y-63133640D01*
X51348088Y-63133645D01*
X51089388Y-63261222D01*
X50849549Y-63421477D01*
X50849536Y-63421487D01*
X50632682Y-63611664D01*
X50632664Y-63611682D01*
X50442487Y-63828536D01*
X50442477Y-63828549D01*
X50292815Y-64052535D01*
X50244766Y-64090414D01*
X50183627Y-64092816D01*
X50132754Y-64058823D01*
X50111576Y-64001420D01*
X50111500Y-63997533D01*
X50111500Y-62499997D01*
X52840826Y-62499997D01*
X52840826Y-62500002D01*
X52859424Y-62629358D01*
X52859425Y-62629361D01*
X52913719Y-62748250D01*
X52956511Y-62797634D01*
X52999305Y-62847021D01*
X53109252Y-62917679D01*
X53234653Y-62954500D01*
X53234654Y-62954500D01*
X53365346Y-62954500D01*
X53365347Y-62954500D01*
X53490748Y-62917679D01*
X53600695Y-62847021D01*
X53686282Y-62748248D01*
X53740574Y-62629364D01*
X53752413Y-62547023D01*
X53759174Y-62500002D01*
X53759174Y-62499997D01*
X53740575Y-62370641D01*
X53740574Y-62370638D01*
X53740574Y-62370636D01*
X53686282Y-62251752D01*
X53686280Y-62251750D01*
X53686280Y-62251749D01*
X53651281Y-62211358D01*
X53641437Y-62199997D01*
X57340826Y-62199997D01*
X57340826Y-62200002D01*
X57359424Y-62329358D01*
X57359425Y-62329361D01*
X57359425Y-62329362D01*
X57359426Y-62329364D01*
X57391683Y-62399997D01*
X57413719Y-62448250D01*
X57456511Y-62497634D01*
X57499305Y-62547021D01*
X57609252Y-62617679D01*
X57734653Y-62654500D01*
X57734654Y-62654500D01*
X57865346Y-62654500D01*
X57865347Y-62654500D01*
X57990748Y-62617679D01*
X58100695Y-62547021D01*
X58186282Y-62448248D01*
X58208317Y-62399997D01*
X60440826Y-62399997D01*
X60440826Y-62400002D01*
X60459424Y-62529358D01*
X60459425Y-62529361D01*
X60459425Y-62529362D01*
X60459426Y-62529364D01*
X60499757Y-62617678D01*
X60513719Y-62648250D01*
X60519135Y-62654500D01*
X60599305Y-62747021D01*
X60709252Y-62817679D01*
X60834653Y-62854500D01*
X60834654Y-62854500D01*
X60965346Y-62854500D01*
X60965347Y-62854500D01*
X61090748Y-62817679D01*
X61200695Y-62747021D01*
X61286282Y-62648248D01*
X61340574Y-62529364D01*
X61344796Y-62500000D01*
X61359174Y-62400002D01*
X61359174Y-62399997D01*
X61340575Y-62270641D01*
X61340574Y-62270638D01*
X61340574Y-62270636D01*
X61286282Y-62151752D01*
X61286280Y-62151750D01*
X61286280Y-62151749D01*
X61251281Y-62111358D01*
X61200695Y-62052979D01*
X61170779Y-62033753D01*
X61090752Y-61982323D01*
X61090749Y-61982322D01*
X61090748Y-61982321D01*
X61028047Y-61963910D01*
X60965348Y-61945500D01*
X60965347Y-61945500D01*
X60834653Y-61945500D01*
X60834651Y-61945500D01*
X60709252Y-61982321D01*
X60709247Y-61982323D01*
X60599309Y-62052976D01*
X60599304Y-62052980D01*
X60513719Y-62151749D01*
X60459425Y-62270638D01*
X60459424Y-62270641D01*
X60440826Y-62399997D01*
X58208317Y-62399997D01*
X58240574Y-62329364D01*
X58259174Y-62200000D01*
X58252413Y-62152980D01*
X58240575Y-62070641D01*
X58240574Y-62070638D01*
X58240574Y-62070636D01*
X58186282Y-61951752D01*
X58186280Y-61951750D01*
X58186280Y-61951749D01*
X58151281Y-61911358D01*
X58100695Y-61852979D01*
X58070779Y-61833753D01*
X57990752Y-61782323D01*
X57990749Y-61782322D01*
X57990748Y-61782321D01*
X57928047Y-61763910D01*
X57865348Y-61745500D01*
X57865347Y-61745500D01*
X57734653Y-61745500D01*
X57734651Y-61745500D01*
X57609252Y-61782321D01*
X57609247Y-61782323D01*
X57499309Y-61852976D01*
X57499304Y-61852980D01*
X57413719Y-61951749D01*
X57359425Y-62070638D01*
X57359424Y-62070641D01*
X57340826Y-62199997D01*
X53641437Y-62199997D01*
X53600695Y-62152979D01*
X53570779Y-62133753D01*
X53490752Y-62082323D01*
X53490749Y-62082322D01*
X53490748Y-62082321D01*
X53390822Y-62052980D01*
X53365348Y-62045500D01*
X53365347Y-62045500D01*
X53234653Y-62045500D01*
X53234651Y-62045500D01*
X53109252Y-62082321D01*
X53109247Y-62082323D01*
X52999309Y-62152976D01*
X52999304Y-62152980D01*
X52913719Y-62251749D01*
X52859425Y-62370638D01*
X52859424Y-62370641D01*
X52840826Y-62499997D01*
X50111500Y-62499997D01*
X50111500Y-60999997D01*
X54640826Y-60999997D01*
X54640826Y-61000002D01*
X54659424Y-61129358D01*
X54659425Y-61129361D01*
X54713719Y-61248250D01*
X54756511Y-61297634D01*
X54799305Y-61347021D01*
X54909252Y-61417679D01*
X55034653Y-61454500D01*
X55034654Y-61454500D01*
X55165346Y-61454500D01*
X55165347Y-61454500D01*
X55290748Y-61417679D01*
X55400695Y-61347021D01*
X55486282Y-61248248D01*
X55540574Y-61129364D01*
X55559174Y-61000000D01*
X55540574Y-60870636D01*
X55486282Y-60751752D01*
X55486280Y-60751750D01*
X55486280Y-60751749D01*
X55451281Y-60711358D01*
X55400695Y-60652979D01*
X55370779Y-60633753D01*
X55290752Y-60582323D01*
X55290749Y-60582322D01*
X55290748Y-60582321D01*
X55228047Y-60563910D01*
X55165348Y-60545500D01*
X55165347Y-60545500D01*
X55034653Y-60545500D01*
X55034651Y-60545500D01*
X54909252Y-60582321D01*
X54909247Y-60582323D01*
X54799309Y-60652976D01*
X54799304Y-60652980D01*
X54713719Y-60751749D01*
X54659425Y-60870638D01*
X54659424Y-60870641D01*
X54640826Y-60999997D01*
X50111500Y-60999997D01*
X50111500Y-59499997D01*
X59540826Y-59499997D01*
X59540826Y-59500002D01*
X59559424Y-59629358D01*
X59559425Y-59629361D01*
X59613719Y-59748250D01*
X59656511Y-59797634D01*
X59699305Y-59847021D01*
X59809252Y-59917679D01*
X59934653Y-59954500D01*
X59934654Y-59954500D01*
X60065346Y-59954500D01*
X60065347Y-59954500D01*
X60190748Y-59917679D01*
X60300695Y-59847021D01*
X60386282Y-59748248D01*
X60440574Y-59629364D01*
X60459174Y-59500000D01*
X60459174Y-59499997D01*
X60440137Y-59367589D01*
X60450570Y-59307300D01*
X60494448Y-59264657D01*
X60538129Y-59254500D01*
X60665346Y-59254500D01*
X60665347Y-59254500D01*
X60790748Y-59217679D01*
X60900695Y-59147021D01*
X60986282Y-59048248D01*
X61040574Y-58929364D01*
X61052413Y-58847023D01*
X61059174Y-58800002D01*
X61059174Y-58799997D01*
X61040575Y-58670641D01*
X61040574Y-58670638D01*
X61040574Y-58670636D01*
X60986282Y-58551752D01*
X60986280Y-58551750D01*
X60986280Y-58551749D01*
X60951281Y-58511358D01*
X60900695Y-58452979D01*
X60870779Y-58433753D01*
X60790752Y-58382323D01*
X60790749Y-58382322D01*
X60790748Y-58382321D01*
X60728047Y-58363910D01*
X60665348Y-58345500D01*
X60665347Y-58345500D01*
X60534653Y-58345500D01*
X60534651Y-58345500D01*
X60409252Y-58382321D01*
X60409247Y-58382323D01*
X60299309Y-58452976D01*
X60299304Y-58452980D01*
X60213719Y-58551749D01*
X60159425Y-58670638D01*
X60159424Y-58670641D01*
X60140826Y-58799997D01*
X60140826Y-58800002D01*
X60159863Y-58932411D01*
X60149430Y-58992700D01*
X60105552Y-59035343D01*
X60061871Y-59045500D01*
X59934651Y-59045500D01*
X59809252Y-59082321D01*
X59809247Y-59082323D01*
X59699309Y-59152976D01*
X59699304Y-59152980D01*
X59613719Y-59251749D01*
X59559425Y-59370638D01*
X59559424Y-59370641D01*
X59540826Y-59499997D01*
X50111500Y-59499997D01*
X50111500Y-58499997D01*
X54640826Y-58499997D01*
X54640826Y-58500002D01*
X54659424Y-58629358D01*
X54659425Y-58629361D01*
X54659425Y-58629362D01*
X54659426Y-58629364D01*
X54713718Y-58748248D01*
X54713719Y-58748250D01*
X54756511Y-58797634D01*
X54799305Y-58847021D01*
X54909252Y-58917679D01*
X55034653Y-58954500D01*
X55034654Y-58954500D01*
X55165346Y-58954500D01*
X55165347Y-58954500D01*
X55290748Y-58917679D01*
X55400695Y-58847021D01*
X55486282Y-58748248D01*
X55540574Y-58629364D01*
X55559174Y-58500000D01*
X55552413Y-58452980D01*
X55540575Y-58370641D01*
X55540574Y-58370638D01*
X55540574Y-58370636D01*
X55486282Y-58251752D01*
X55486280Y-58251750D01*
X55486280Y-58251749D01*
X55443759Y-58202678D01*
X55400695Y-58152979D01*
X55337708Y-58112500D01*
X55290752Y-58082323D01*
X55290749Y-58082322D01*
X55290748Y-58082321D01*
X55228047Y-58063910D01*
X55165348Y-58045500D01*
X55165347Y-58045500D01*
X55034653Y-58045500D01*
X55034651Y-58045500D01*
X54909252Y-58082321D01*
X54909247Y-58082323D01*
X54799309Y-58152976D01*
X54799304Y-58152980D01*
X54713719Y-58251749D01*
X54659425Y-58370638D01*
X54659424Y-58370641D01*
X54640826Y-58499997D01*
X50111500Y-58499997D01*
X50111500Y-57784997D01*
X56944826Y-57784997D01*
X56944826Y-57785002D01*
X56963424Y-57914358D01*
X56963425Y-57914361D01*
X56963425Y-57914362D01*
X56963426Y-57914364D01*
X57010608Y-58017679D01*
X57017719Y-58033250D01*
X57060240Y-58082321D01*
X57103305Y-58132021D01*
X57213252Y-58202679D01*
X57338653Y-58239500D01*
X57338654Y-58239500D01*
X57469346Y-58239500D01*
X57469347Y-58239500D01*
X57594748Y-58202679D01*
X57704695Y-58132021D01*
X57776653Y-58048976D01*
X57829045Y-58017383D01*
X57890006Y-58022619D01*
X57904991Y-58030525D01*
X57909231Y-58033250D01*
X57942296Y-58054500D01*
X57975252Y-58075679D01*
X58100653Y-58112500D01*
X58100654Y-58112500D01*
X58231346Y-58112500D01*
X58231347Y-58112500D01*
X58356748Y-58075679D01*
X58466695Y-58005021D01*
X58487943Y-57980499D01*
X58540337Y-57948904D01*
X58601298Y-57954140D01*
X58616284Y-57962047D01*
X58683156Y-58005023D01*
X58702850Y-58017679D01*
X58828251Y-58054500D01*
X58828252Y-58054500D01*
X58958944Y-58054500D01*
X58958945Y-58054500D01*
X59084346Y-58017679D01*
X59194293Y-57947021D01*
X59279880Y-57848248D01*
X59334172Y-57729364D01*
X59344772Y-57655641D01*
X59352772Y-57600002D01*
X59352772Y-57599997D01*
X59334173Y-57470641D01*
X59334172Y-57470638D01*
X59334172Y-57470636D01*
X59279880Y-57351752D01*
X59279878Y-57351750D01*
X59279878Y-57351749D01*
X59215542Y-57277502D01*
X59194293Y-57252979D01*
X59164377Y-57233753D01*
X59084350Y-57182323D01*
X59084347Y-57182322D01*
X59084346Y-57182321D01*
X59021645Y-57163910D01*
X58958946Y-57145500D01*
X58958945Y-57145500D01*
X58828251Y-57145500D01*
X58828249Y-57145500D01*
X58702850Y-57182321D01*
X58702845Y-57182323D01*
X58592907Y-57252976D01*
X58592903Y-57252979D01*
X58571653Y-57277502D01*
X58519256Y-57309096D01*
X58458295Y-57303858D01*
X58443313Y-57295952D01*
X58356752Y-57240323D01*
X58356749Y-57240322D01*
X58356748Y-57240321D01*
X58294047Y-57221910D01*
X58231348Y-57203500D01*
X58231347Y-57203500D01*
X58100653Y-57203500D01*
X58100651Y-57203500D01*
X57975252Y-57240321D01*
X57975247Y-57240323D01*
X57865309Y-57310976D01*
X57865307Y-57310977D01*
X57793349Y-57394021D01*
X57740953Y-57425616D01*
X57679992Y-57420380D01*
X57665007Y-57412473D01*
X57594752Y-57367323D01*
X57594749Y-57367322D01*
X57594748Y-57367321D01*
X57532047Y-57348910D01*
X57469348Y-57330500D01*
X57469347Y-57330500D01*
X57338653Y-57330500D01*
X57338651Y-57330500D01*
X57213252Y-57367321D01*
X57213247Y-57367323D01*
X57103309Y-57437976D01*
X57103304Y-57437980D01*
X57017719Y-57536749D01*
X56963425Y-57655638D01*
X56963424Y-57655641D01*
X56944826Y-57784997D01*
X50111500Y-57784997D01*
X50111500Y-55755253D01*
X50574500Y-55755253D01*
X50574500Y-56644746D01*
X50574501Y-56644758D01*
X50586132Y-56703227D01*
X50586134Y-56703233D01*
X50630445Y-56769548D01*
X50630448Y-56769552D01*
X50696769Y-56813867D01*
X50741231Y-56822711D01*
X50755241Y-56825498D01*
X50755246Y-56825498D01*
X50755252Y-56825500D01*
X50755253Y-56825500D01*
X51644747Y-56825500D01*
X51644748Y-56825500D01*
X51703231Y-56813867D01*
X51769552Y-56769552D01*
X51769556Y-56769545D01*
X51776446Y-56762657D01*
X51779310Y-56765521D01*
X51812313Y-56739419D01*
X51873447Y-56736919D01*
X51892735Y-56744585D01*
X51976745Y-56788677D01*
X52099999Y-56819057D01*
X52100000Y-56819057D01*
X52100000Y-56429176D01*
X52150272Y-56450000D01*
X52249728Y-56450000D01*
X52300000Y-56429176D01*
X52300000Y-56819057D01*
X52423254Y-56788677D01*
X52557649Y-56718140D01*
X52633972Y-56650524D01*
X52690066Y-56626088D01*
X52749810Y-56639291D01*
X52765271Y-56650523D01*
X52842066Y-56718557D01*
X52976566Y-56789148D01*
X53124051Y-56825500D01*
X53124054Y-56825500D01*
X53275946Y-56825500D01*
X53275949Y-56825500D01*
X53423434Y-56789148D01*
X53557934Y-56718557D01*
X53634351Y-56650858D01*
X53690445Y-56626423D01*
X53750189Y-56639626D01*
X53765649Y-56650858D01*
X53842066Y-56718557D01*
X53976566Y-56789148D01*
X54124051Y-56825500D01*
X54124054Y-56825500D01*
X54275946Y-56825500D01*
X54275949Y-56825500D01*
X54423434Y-56789148D01*
X54557934Y-56718557D01*
X54634351Y-56650858D01*
X54690445Y-56626423D01*
X54750189Y-56639626D01*
X54765649Y-56650858D01*
X54842066Y-56718557D01*
X54976566Y-56789148D01*
X55124051Y-56825500D01*
X55124054Y-56825500D01*
X55275946Y-56825500D01*
X55275949Y-56825500D01*
X55423434Y-56789148D01*
X55557934Y-56718557D01*
X55634351Y-56650858D01*
X55690445Y-56626423D01*
X55750189Y-56639626D01*
X55765649Y-56650858D01*
X55842066Y-56718557D01*
X55976566Y-56789148D01*
X56124051Y-56825500D01*
X56124054Y-56825500D01*
X56275946Y-56825500D01*
X56275949Y-56825500D01*
X56423434Y-56789148D01*
X56557934Y-56718557D01*
X56671632Y-56617830D01*
X56757921Y-56492819D01*
X56811785Y-56350791D01*
X56830094Y-56200000D01*
X56811785Y-56049209D01*
X56757921Y-55907181D01*
X56671632Y-55782170D01*
X56557934Y-55681443D01*
X56423434Y-55610852D01*
X56423433Y-55610851D01*
X56423432Y-55610851D01*
X56379396Y-55599997D01*
X58840826Y-55599997D01*
X58840826Y-55600002D01*
X58859424Y-55729358D01*
X58859425Y-55729361D01*
X58859425Y-55729362D01*
X58859426Y-55729364D01*
X58883542Y-55782171D01*
X58913719Y-55848250D01*
X58956511Y-55897634D01*
X58999305Y-55947021D01*
X59109252Y-56017679D01*
X59234653Y-56054500D01*
X59234654Y-56054500D01*
X59365346Y-56054500D01*
X59365347Y-56054500D01*
X59490748Y-56017679D01*
X59600695Y-55947021D01*
X59686282Y-55848248D01*
X59740574Y-55729364D01*
X59747464Y-55681443D01*
X59759174Y-55600002D01*
X59759174Y-55599997D01*
X59740575Y-55470641D01*
X59740574Y-55470638D01*
X59740574Y-55470636D01*
X59686282Y-55351752D01*
X59686280Y-55351750D01*
X59686280Y-55351749D01*
X59651281Y-55311358D01*
X59600695Y-55252979D01*
X59570779Y-55233753D01*
X59490752Y-55182323D01*
X59490749Y-55182322D01*
X59490748Y-55182321D01*
X59428047Y-55163910D01*
X59365348Y-55145500D01*
X59365347Y-55145500D01*
X59234653Y-55145500D01*
X59234651Y-55145500D01*
X59109252Y-55182321D01*
X59109247Y-55182323D01*
X58999309Y-55252976D01*
X58999304Y-55252980D01*
X58913719Y-55351749D01*
X58859425Y-55470638D01*
X58859424Y-55470641D01*
X58840826Y-55599997D01*
X56379396Y-55599997D01*
X56275951Y-55574500D01*
X56275949Y-55574500D01*
X56124051Y-55574500D01*
X56124048Y-55574500D01*
X55976567Y-55610851D01*
X55842064Y-55681444D01*
X55765649Y-55749142D01*
X55709555Y-55773577D01*
X55649811Y-55760374D01*
X55634351Y-55749142D01*
X55557935Y-55681444D01*
X55557934Y-55681443D01*
X55423434Y-55610852D01*
X55423433Y-55610851D01*
X55423432Y-55610851D01*
X55275951Y-55574500D01*
X55275949Y-55574500D01*
X55124051Y-55574500D01*
X55124048Y-55574500D01*
X54976567Y-55610851D01*
X54842064Y-55681444D01*
X54765649Y-55749142D01*
X54709555Y-55773577D01*
X54649811Y-55760374D01*
X54634351Y-55749142D01*
X54557935Y-55681444D01*
X54557934Y-55681443D01*
X54423434Y-55610852D01*
X54423433Y-55610851D01*
X54423432Y-55610851D01*
X54275951Y-55574500D01*
X54275949Y-55574500D01*
X54124051Y-55574500D01*
X54124048Y-55574500D01*
X53976567Y-55610851D01*
X53842064Y-55681444D01*
X53765649Y-55749142D01*
X53709555Y-55773577D01*
X53649811Y-55760374D01*
X53634351Y-55749142D01*
X53557935Y-55681444D01*
X53557934Y-55681443D01*
X53423434Y-55610852D01*
X53423433Y-55610851D01*
X53423432Y-55610851D01*
X53275951Y-55574500D01*
X53275949Y-55574500D01*
X53124051Y-55574500D01*
X53124048Y-55574500D01*
X52976567Y-55610851D01*
X52842064Y-55681444D01*
X52765271Y-55749476D01*
X52709176Y-55773911D01*
X52649432Y-55760708D01*
X52633973Y-55749475D01*
X52557652Y-55681860D01*
X52423256Y-55611323D01*
X52300000Y-55580942D01*
X52300000Y-55970823D01*
X52249728Y-55950000D01*
X52150272Y-55950000D01*
X52100000Y-55970823D01*
X52100000Y-55580942D01*
X52099999Y-55580942D01*
X51976743Y-55611323D01*
X51892735Y-55655414D01*
X51832423Y-55665715D01*
X51777574Y-55638598D01*
X51776492Y-55637296D01*
X51776446Y-55637343D01*
X51769554Y-55630451D01*
X51769552Y-55630448D01*
X51740225Y-55610852D01*
X51703233Y-55586134D01*
X51703231Y-55586133D01*
X51703228Y-55586132D01*
X51703227Y-55586132D01*
X51644758Y-55574501D01*
X51644748Y-55574500D01*
X50755252Y-55574500D01*
X50755251Y-55574500D01*
X50755241Y-55574501D01*
X50696772Y-55586132D01*
X50696766Y-55586134D01*
X50630451Y-55630445D01*
X50630445Y-55630451D01*
X50586134Y-55696766D01*
X50586132Y-55696772D01*
X50574501Y-55755241D01*
X50574500Y-55755253D01*
X50111500Y-55755253D01*
X50111500Y-55036500D01*
X50130407Y-54978309D01*
X50179907Y-54942345D01*
X50210500Y-54937500D01*
X61676500Y-54937500D01*
X61734691Y-54956407D01*
G37*
%TD.AperFunction*%
%TD*%
M02*
