%TF.GenerationSoftware,KiCad,Pcbnew,8.0.8-8.0.8-0~ubuntu22.04.1*%
%TF.CreationDate,2025-01-21T10:35:51-05:00*%
%TF.ProjectId,imu-board,696d752d-626f-4617-9264-2e6b69636164,rev?*%
%TF.SameCoordinates,Original*%
%TF.FileFunction,Copper,L2,Inr*%
%TF.FilePolarity,Positive*%
%FSLAX46Y46*%
G04 Gerber Fmt 4.6, Leading zero omitted, Abs format (unit mm)*
G04 Created by KiCad (PCBNEW 8.0.8-8.0.8-0~ubuntu22.04.1) date 2025-01-21 10:35:51*
%MOMM*%
%LPD*%
G01*
G04 APERTURE LIST*
%TA.AperFunction,ComponentPad*%
%ADD10R,0.850000X0.850000*%
%TD*%
%TA.AperFunction,ComponentPad*%
%ADD11O,0.850000X0.850000*%
%TD*%
%TA.AperFunction,ComponentPad*%
%ADD12C,1.524000*%
%TD*%
%TA.AperFunction,ComponentPad*%
%ADD13C,4.000000*%
%TD*%
%TA.AperFunction,ViaPad*%
%ADD14C,0.508000*%
%TD*%
G04 APERTURE END LIST*
D10*
%TO.N,/MISO*%
%TO.C,J3*%
X51200000Y-56200000D03*
D11*
%TO.N,VCC*%
X52200000Y-56200000D03*
%TO.N,/SCK*%
X53200000Y-56200000D03*
%TO.N,/MOSI*%
X54200000Y-56200000D03*
%TO.N,/nRESET*%
X55200000Y-56200000D03*
%TO.N,GND*%
X56200000Y-56200000D03*
%TD*%
D12*
%TO.N,VCC*%
%TO.C,J2*%
X54097000Y-71521000D03*
%TO.N,/TXD*%
X55367000Y-74061000D03*
%TO.N,/RXD*%
X56637000Y-71521000D03*
%TO.N,GND*%
X57907000Y-74061000D03*
D13*
%TO.N,N/C*%
X52192000Y-65171000D03*
X59817000Y-65171000D03*
%TD*%
D14*
%TO.N,VCC*%
X54400000Y-62500000D03*
X57800000Y-61500000D03*
X55600000Y-57300000D03*
X61546000Y-60400000D03*
X61400000Y-57700000D03*
X59800000Y-58600000D03*
%TO.N,GND*%
X60600000Y-58800000D03*
X59300000Y-55600000D03*
X55100000Y-58500000D03*
X57800000Y-62200000D03*
X55100000Y-61000000D03*
X60900000Y-62400000D03*
X60000000Y-59500000D03*
%TO.N,/nRESET*%
X58893598Y-57600000D03*
%TO.N,/TXD*%
X57404000Y-57785000D03*
%TO.N,/RXD*%
X58166000Y-57658000D03*
%TO.N,/SCK*%
X53300000Y-62500000D03*
%TD*%
%TA.AperFunction,Conductor*%
%TO.N,GND*%
G36*
X61734691Y-54956407D02*
G01*
X61770655Y-55005907D01*
X61775500Y-55036500D01*
X61775500Y-57219748D01*
X61756593Y-57277939D01*
X61707093Y-57313903D01*
X61645907Y-57313903D01*
X61622978Y-57303033D01*
X61590751Y-57282323D01*
X61590748Y-57282321D01*
X61490822Y-57252980D01*
X61465348Y-57245500D01*
X61465347Y-57245500D01*
X61334653Y-57245500D01*
X61334651Y-57245500D01*
X61209252Y-57282321D01*
X61209247Y-57282323D01*
X61099309Y-57352976D01*
X61099304Y-57352980D01*
X61013719Y-57451749D01*
X60959425Y-57570638D01*
X60959424Y-57570641D01*
X60940826Y-57699997D01*
X60940826Y-57700002D01*
X60959424Y-57829358D01*
X60959425Y-57829361D01*
X60959425Y-57829362D01*
X60959426Y-57829364D01*
X60998244Y-57914364D01*
X61013719Y-57948250D01*
X61041664Y-57980500D01*
X61099305Y-58047021D01*
X61152819Y-58081412D01*
X61201191Y-58112499D01*
X61209252Y-58117679D01*
X61334653Y-58154500D01*
X61334654Y-58154500D01*
X61465346Y-58154500D01*
X61465347Y-58154500D01*
X61590748Y-58117679D01*
X61622977Y-58096967D01*
X61682152Y-58081412D01*
X61739168Y-58103611D01*
X61772248Y-58155083D01*
X61775500Y-58180251D01*
X61775500Y-59861450D01*
X61756593Y-59919641D01*
X61707093Y-59955605D01*
X61648610Y-59956440D01*
X61611353Y-59945501D01*
X61611347Y-59945500D01*
X61480653Y-59945500D01*
X61480651Y-59945500D01*
X61355252Y-59982321D01*
X61355247Y-59982323D01*
X61245309Y-60052976D01*
X61245304Y-60052980D01*
X61159719Y-60151749D01*
X61105425Y-60270638D01*
X61105424Y-60270641D01*
X61086826Y-60399997D01*
X61086826Y-60400002D01*
X61105424Y-60529358D01*
X61105425Y-60529361D01*
X61159719Y-60648250D01*
X61202511Y-60697634D01*
X61245305Y-60747021D01*
X61355252Y-60817679D01*
X61480653Y-60854500D01*
X61480654Y-60854500D01*
X61611346Y-60854500D01*
X61611347Y-60854500D01*
X61648608Y-60843559D01*
X61709768Y-60845306D01*
X61758221Y-60882669D01*
X61775500Y-60938549D01*
X61775500Y-63814947D01*
X61756593Y-63873138D01*
X61707093Y-63909102D01*
X61645907Y-63909102D01*
X61596407Y-63873138D01*
X61594185Y-63869949D01*
X61583959Y-63854645D01*
X61566520Y-63828546D01*
X61566515Y-63828540D01*
X61566512Y-63828536D01*
X61376335Y-63611682D01*
X61376334Y-63611681D01*
X61376327Y-63611673D01*
X61376317Y-63611664D01*
X61159463Y-63421487D01*
X61159450Y-63421477D01*
X60919611Y-63261222D01*
X60660911Y-63133645D01*
X60660900Y-63133640D01*
X60387759Y-63040920D01*
X60104836Y-62984643D01*
X59817000Y-62965778D01*
X59529163Y-62984643D01*
X59246240Y-63040920D01*
X58973099Y-63133640D01*
X58973088Y-63133645D01*
X58714388Y-63261222D01*
X58474549Y-63421477D01*
X58474536Y-63421487D01*
X58257682Y-63611664D01*
X58257664Y-63611682D01*
X58067487Y-63828536D01*
X58067477Y-63828549D01*
X57907222Y-64068388D01*
X57779645Y-64327088D01*
X57779640Y-64327099D01*
X57686920Y-64600240D01*
X57630643Y-64883163D01*
X57611778Y-65170999D01*
X57611778Y-65171000D01*
X57630643Y-65458836D01*
X57686920Y-65741759D01*
X57779640Y-66014900D01*
X57779645Y-66014911D01*
X57907222Y-66273611D01*
X58067477Y-66513450D01*
X58067487Y-66513463D01*
X58257664Y-66730317D01*
X58257673Y-66730327D01*
X58257681Y-66730334D01*
X58257682Y-66730335D01*
X58474536Y-66920512D01*
X58474549Y-66920522D01*
X58714388Y-67080778D01*
X58714393Y-67080780D01*
X58961837Y-67202806D01*
X59005665Y-67245500D01*
X59016027Y-67305802D01*
X59009515Y-67329481D01*
X58981500Y-67397116D01*
X58981500Y-73635272D01*
X58962593Y-73693463D01*
X58913093Y-73729427D01*
X58851907Y-73729427D01*
X58802407Y-73693463D01*
X58795190Y-73681941D01*
X58710744Y-73523956D01*
X58710740Y-73523950D01*
X58654274Y-73455147D01*
X58237675Y-73871745D01*
X58211876Y-73827060D01*
X58140940Y-73756124D01*
X58096251Y-73730323D01*
X58512851Y-73313724D01*
X58512852Y-73313724D01*
X58444049Y-73257259D01*
X58444043Y-73257255D01*
X58276923Y-73167927D01*
X58095585Y-73112918D01*
X58095580Y-73112917D01*
X57907003Y-73094345D01*
X57906997Y-73094345D01*
X57718419Y-73112917D01*
X57718414Y-73112918D01*
X57537076Y-73167927D01*
X57369952Y-73257257D01*
X57301147Y-73313724D01*
X57717746Y-73730323D01*
X57673060Y-73756124D01*
X57602124Y-73827060D01*
X57576323Y-73871746D01*
X57159724Y-73455147D01*
X57103257Y-73523952D01*
X57013927Y-73691076D01*
X56958918Y-73872414D01*
X56958917Y-73872419D01*
X56940345Y-74060996D01*
X56940345Y-74061003D01*
X56958917Y-74249580D01*
X56958918Y-74249585D01*
X57013927Y-74430923D01*
X57103255Y-74598043D01*
X57103259Y-74598049D01*
X57159724Y-74666851D01*
X57576323Y-74250251D01*
X57602124Y-74294940D01*
X57673060Y-74365876D01*
X57717745Y-74391675D01*
X57281918Y-74827504D01*
X57227401Y-74855281D01*
X57211914Y-74856500D01*
X57209084Y-74856500D01*
X57155174Y-74838984D01*
X57142130Y-74849690D01*
X57106047Y-74856500D01*
X56168599Y-74856500D01*
X56110408Y-74837593D01*
X56074444Y-74788093D01*
X56074444Y-74726907D01*
X56092072Y-74694694D01*
X56171162Y-74598324D01*
X56260537Y-74431115D01*
X56315573Y-74249683D01*
X56315574Y-74249678D01*
X56334157Y-74061003D01*
X56334157Y-74060996D01*
X56315574Y-73872321D01*
X56315573Y-73872316D01*
X56298877Y-73817280D01*
X56260537Y-73690885D01*
X56171162Y-73523676D01*
X56050883Y-73377117D01*
X55904324Y-73256838D01*
X55864959Y-73235797D01*
X55737120Y-73167465D01*
X55737115Y-73167463D01*
X55555683Y-73112426D01*
X55555678Y-73112425D01*
X55367003Y-73093843D01*
X55366997Y-73093843D01*
X55178321Y-73112425D01*
X55178316Y-73112426D01*
X54996884Y-73167463D01*
X54996879Y-73167465D01*
X54829681Y-73256835D01*
X54829671Y-73256841D01*
X54683121Y-73377113D01*
X54683113Y-73377121D01*
X54562841Y-73523671D01*
X54562835Y-73523681D01*
X54473465Y-73690879D01*
X54473463Y-73690884D01*
X54418426Y-73872316D01*
X54418425Y-73872321D01*
X54399843Y-74060996D01*
X54399843Y-74061003D01*
X54418425Y-74249678D01*
X54418426Y-74249683D01*
X54473463Y-74431115D01*
X54473465Y-74431120D01*
X54478243Y-74440058D01*
X54562838Y-74598324D01*
X54562841Y-74598328D01*
X54562842Y-74598329D01*
X54641928Y-74694694D01*
X54664229Y-74751671D01*
X54648781Y-74810874D01*
X54601484Y-74849690D01*
X54565401Y-74856500D01*
X53131500Y-74856500D01*
X53073309Y-74837593D01*
X53037345Y-74788093D01*
X53032500Y-74757500D01*
X53032500Y-71966495D01*
X53051407Y-71908304D01*
X53100907Y-71872340D01*
X53162093Y-71872340D01*
X53211593Y-71908304D01*
X53218809Y-71919825D01*
X53292838Y-72058324D01*
X53413117Y-72204883D01*
X53559676Y-72325162D01*
X53726885Y-72414537D01*
X53853280Y-72452877D01*
X53908316Y-72469573D01*
X53908321Y-72469574D01*
X54096997Y-72488157D01*
X54097000Y-72488157D01*
X54097003Y-72488157D01*
X54285678Y-72469574D01*
X54285683Y-72469573D01*
X54467115Y-72414537D01*
X54634324Y-72325162D01*
X54780883Y-72204883D01*
X54901162Y-72058324D01*
X54990537Y-71891115D01*
X55045573Y-71709683D01*
X55045574Y-71709678D01*
X55064157Y-71521003D01*
X55064157Y-71520996D01*
X55669843Y-71520996D01*
X55669843Y-71521003D01*
X55688425Y-71709678D01*
X55688426Y-71709683D01*
X55743463Y-71891115D01*
X55743465Y-71891120D01*
X55783754Y-71966495D01*
X55832838Y-72058324D01*
X55953117Y-72204883D01*
X56099676Y-72325162D01*
X56266885Y-72414537D01*
X56393280Y-72452877D01*
X56448316Y-72469573D01*
X56448321Y-72469574D01*
X56636997Y-72488157D01*
X56637000Y-72488157D01*
X56637003Y-72488157D01*
X56825678Y-72469574D01*
X56825683Y-72469573D01*
X57007115Y-72414537D01*
X57174324Y-72325162D01*
X57320883Y-72204883D01*
X57441162Y-72058324D01*
X57530537Y-71891115D01*
X57585573Y-71709683D01*
X57585574Y-71709678D01*
X57604157Y-71521003D01*
X57604157Y-71520996D01*
X57585574Y-71332321D01*
X57585573Y-71332316D01*
X57568877Y-71277280D01*
X57530537Y-71150885D01*
X57441162Y-70983676D01*
X57320883Y-70837117D01*
X57174324Y-70716838D01*
X57134959Y-70695797D01*
X57007120Y-70627465D01*
X57007115Y-70627463D01*
X56825683Y-70572426D01*
X56825678Y-70572425D01*
X56637003Y-70553843D01*
X56636997Y-70553843D01*
X56448321Y-70572425D01*
X56448316Y-70572426D01*
X56266884Y-70627463D01*
X56266879Y-70627465D01*
X56099681Y-70716835D01*
X56099671Y-70716841D01*
X55953121Y-70837113D01*
X55953113Y-70837121D01*
X55832841Y-70983671D01*
X55832835Y-70983681D01*
X55743465Y-71150879D01*
X55743463Y-71150884D01*
X55688426Y-71332316D01*
X55688425Y-71332321D01*
X55669843Y-71520996D01*
X55064157Y-71520996D01*
X55045574Y-71332321D01*
X55045573Y-71332316D01*
X55028877Y-71277280D01*
X54990537Y-71150885D01*
X54901162Y-70983676D01*
X54780883Y-70837117D01*
X54634324Y-70716838D01*
X54594959Y-70695797D01*
X54467120Y-70627465D01*
X54467115Y-70627463D01*
X54285683Y-70572426D01*
X54285678Y-70572425D01*
X54097003Y-70553843D01*
X54096997Y-70553843D01*
X53908321Y-70572425D01*
X53908316Y-70572426D01*
X53726884Y-70627463D01*
X53726879Y-70627465D01*
X53559681Y-70716835D01*
X53559671Y-70716841D01*
X53413121Y-70837113D01*
X53413113Y-70837121D01*
X53292841Y-70983671D01*
X53292835Y-70983681D01*
X53218810Y-71122172D01*
X53174704Y-71164579D01*
X53114096Y-71172962D01*
X53060135Y-71144120D01*
X53033434Y-71089068D01*
X53032500Y-71075504D01*
X53032500Y-67397117D01*
X53004484Y-67329481D01*
X53003635Y-67327433D01*
X52998835Y-67266439D01*
X53030804Y-67214269D01*
X53051314Y-67200759D01*
X53179590Y-67137500D01*
X53294611Y-67080778D01*
X53534454Y-66920520D01*
X53751327Y-66730327D01*
X53941520Y-66513454D01*
X54101778Y-66273611D01*
X54229359Y-66014902D01*
X54322081Y-65741753D01*
X54378356Y-65458839D01*
X54397222Y-65171000D01*
X54378356Y-64883161D01*
X54322081Y-64600247D01*
X54229359Y-64327098D01*
X54101778Y-64068389D01*
X53941520Y-63828546D01*
X53941517Y-63828543D01*
X53941512Y-63828536D01*
X53751335Y-63611682D01*
X53751334Y-63611681D01*
X53751327Y-63611673D01*
X53751317Y-63611664D01*
X53534463Y-63421487D01*
X53534450Y-63421477D01*
X53294611Y-63261222D01*
X53035911Y-63133645D01*
X53035900Y-63133640D01*
X52762759Y-63040920D01*
X52479836Y-62984643D01*
X52192000Y-62965778D01*
X51904163Y-62984643D01*
X51621240Y-63040920D01*
X51348099Y-63133640D01*
X51348088Y-63133645D01*
X51089388Y-63261222D01*
X50849549Y-63421477D01*
X50849536Y-63421487D01*
X50632682Y-63611664D01*
X50632664Y-63611682D01*
X50442487Y-63828536D01*
X50442477Y-63828549D01*
X50292815Y-64052535D01*
X50244766Y-64090414D01*
X50183627Y-64092816D01*
X50132754Y-64058823D01*
X50111576Y-64001420D01*
X50111500Y-63997533D01*
X50111500Y-62499997D01*
X52840826Y-62499997D01*
X52840826Y-62500002D01*
X52859424Y-62629358D01*
X52859425Y-62629361D01*
X52913719Y-62748250D01*
X52956511Y-62797634D01*
X52999305Y-62847021D01*
X53109252Y-62917679D01*
X53234653Y-62954500D01*
X53234654Y-62954500D01*
X53365346Y-62954500D01*
X53365347Y-62954500D01*
X53490748Y-62917679D01*
X53600695Y-62847021D01*
X53686282Y-62748248D01*
X53740574Y-62629364D01*
X53752008Y-62549843D01*
X53775164Y-62502743D01*
X53922136Y-62502743D01*
X53937559Y-62517732D01*
X53947992Y-62549843D01*
X53959424Y-62629358D01*
X53959425Y-62629361D01*
X54013719Y-62748250D01*
X54056511Y-62797634D01*
X54099305Y-62847021D01*
X54209252Y-62917679D01*
X54334653Y-62954500D01*
X54334654Y-62954500D01*
X54465346Y-62954500D01*
X54465347Y-62954500D01*
X54590748Y-62917679D01*
X54700695Y-62847021D01*
X54786282Y-62748248D01*
X54840574Y-62629364D01*
X54852008Y-62549843D01*
X54859174Y-62500002D01*
X54859174Y-62499997D01*
X54840575Y-62370641D01*
X54840574Y-62370638D01*
X54840574Y-62370636D01*
X54786282Y-62251752D01*
X54786280Y-62251750D01*
X54786280Y-62251749D01*
X54751281Y-62211358D01*
X54700695Y-62152979D01*
X54670779Y-62133753D01*
X54590752Y-62082323D01*
X54590749Y-62082322D01*
X54590748Y-62082321D01*
X54528047Y-62063910D01*
X54465348Y-62045500D01*
X54465347Y-62045500D01*
X54334653Y-62045500D01*
X54334651Y-62045500D01*
X54209252Y-62082321D01*
X54209247Y-62082323D01*
X54099309Y-62152976D01*
X54099304Y-62152980D01*
X54013719Y-62251749D01*
X53959425Y-62370638D01*
X53959424Y-62370641D01*
X53947992Y-62450156D01*
X53922136Y-62502743D01*
X53775164Y-62502743D01*
X53777863Y-62497254D01*
X53762441Y-62482267D01*
X53752008Y-62450156D01*
X53740575Y-62370641D01*
X53740574Y-62370638D01*
X53740574Y-62370636D01*
X53686282Y-62251752D01*
X53686280Y-62251750D01*
X53686280Y-62251749D01*
X53651281Y-62211358D01*
X53600695Y-62152979D01*
X53570779Y-62133753D01*
X53490752Y-62082323D01*
X53490749Y-62082322D01*
X53490748Y-62082321D01*
X53428047Y-62063910D01*
X53365348Y-62045500D01*
X53365347Y-62045500D01*
X53234653Y-62045500D01*
X53234651Y-62045500D01*
X53109252Y-62082321D01*
X53109247Y-62082323D01*
X52999309Y-62152976D01*
X52999304Y-62152980D01*
X52913719Y-62251749D01*
X52859425Y-62370638D01*
X52859424Y-62370641D01*
X52840826Y-62499997D01*
X50111500Y-62499997D01*
X50111500Y-61499997D01*
X57340826Y-61499997D01*
X57340826Y-61500002D01*
X57359424Y-61629358D01*
X57359425Y-61629361D01*
X57413719Y-61748250D01*
X57456511Y-61797634D01*
X57499305Y-61847021D01*
X57609252Y-61917679D01*
X57734653Y-61954500D01*
X57734654Y-61954500D01*
X57865346Y-61954500D01*
X57865347Y-61954500D01*
X57990748Y-61917679D01*
X58100695Y-61847021D01*
X58186282Y-61748248D01*
X58240574Y-61629364D01*
X58259174Y-61500000D01*
X58240574Y-61370636D01*
X58186282Y-61251752D01*
X58186280Y-61251750D01*
X58186280Y-61251749D01*
X58151281Y-61211358D01*
X58100695Y-61152979D01*
X58070779Y-61133753D01*
X57990752Y-61082323D01*
X57990749Y-61082322D01*
X57990748Y-61082321D01*
X57928047Y-61063910D01*
X57865348Y-61045500D01*
X57865347Y-61045500D01*
X57734653Y-61045500D01*
X57734651Y-61045500D01*
X57609252Y-61082321D01*
X57609247Y-61082323D01*
X57499309Y-61152976D01*
X57499304Y-61152980D01*
X57413719Y-61251749D01*
X57359425Y-61370638D01*
X57359424Y-61370641D01*
X57340826Y-61499997D01*
X50111500Y-61499997D01*
X50111500Y-58599997D01*
X59340826Y-58599997D01*
X59340826Y-58600002D01*
X59359424Y-58729358D01*
X59359425Y-58729361D01*
X59413719Y-58848250D01*
X59456511Y-58897634D01*
X59499305Y-58947021D01*
X59609252Y-59017679D01*
X59734653Y-59054500D01*
X59734654Y-59054500D01*
X59865346Y-59054500D01*
X59865347Y-59054500D01*
X59990748Y-59017679D01*
X60100695Y-58947021D01*
X60186282Y-58848248D01*
X60240574Y-58729364D01*
X60259174Y-58600000D01*
X60240574Y-58470636D01*
X60186282Y-58351752D01*
X60186280Y-58351750D01*
X60186280Y-58351749D01*
X60151281Y-58311358D01*
X60100695Y-58252979D01*
X60022426Y-58202679D01*
X59990752Y-58182323D01*
X59990749Y-58182322D01*
X59990748Y-58182321D01*
X59897984Y-58155083D01*
X59865348Y-58145500D01*
X59865347Y-58145500D01*
X59734653Y-58145500D01*
X59734651Y-58145500D01*
X59609252Y-58182321D01*
X59609247Y-58182323D01*
X59499309Y-58252976D01*
X59499304Y-58252980D01*
X59413719Y-58351749D01*
X59359425Y-58470638D01*
X59359424Y-58470641D01*
X59340826Y-58599997D01*
X50111500Y-58599997D01*
X50111500Y-57784997D01*
X56944826Y-57784997D01*
X56944826Y-57785002D01*
X56963424Y-57914358D01*
X56963425Y-57914361D01*
X56963425Y-57914362D01*
X56963426Y-57914364D01*
X57010608Y-58017679D01*
X57017719Y-58033250D01*
X57059452Y-58081412D01*
X57103305Y-58132021D01*
X57213252Y-58202679D01*
X57338653Y-58239500D01*
X57338654Y-58239500D01*
X57469346Y-58239500D01*
X57469347Y-58239500D01*
X57594748Y-58202679D01*
X57704695Y-58132021D01*
X57776653Y-58048976D01*
X57829045Y-58017383D01*
X57890006Y-58022619D01*
X57904991Y-58030525D01*
X57909231Y-58033250D01*
X57942296Y-58054500D01*
X57975252Y-58075679D01*
X58100653Y-58112500D01*
X58100654Y-58112500D01*
X58231346Y-58112500D01*
X58231347Y-58112500D01*
X58356748Y-58075679D01*
X58466695Y-58005021D01*
X58487943Y-57980499D01*
X58540337Y-57948904D01*
X58601298Y-57954140D01*
X58616284Y-57962047D01*
X58683156Y-58005023D01*
X58702850Y-58017679D01*
X58828251Y-58054500D01*
X58828252Y-58054500D01*
X58958944Y-58054500D01*
X58958945Y-58054500D01*
X59084346Y-58017679D01*
X59194293Y-57947021D01*
X59279880Y-57848248D01*
X59334172Y-57729364D01*
X59338394Y-57700000D01*
X59352772Y-57600002D01*
X59352772Y-57599997D01*
X59334173Y-57470641D01*
X59334172Y-57470638D01*
X59334172Y-57470636D01*
X59279880Y-57351752D01*
X59279878Y-57351750D01*
X59279878Y-57351749D01*
X59237665Y-57303033D01*
X59194293Y-57252979D01*
X59142584Y-57219748D01*
X59084350Y-57182323D01*
X59084347Y-57182322D01*
X59084346Y-57182321D01*
X59021645Y-57163910D01*
X58958946Y-57145500D01*
X58958945Y-57145500D01*
X58828251Y-57145500D01*
X58828249Y-57145500D01*
X58702850Y-57182321D01*
X58702845Y-57182323D01*
X58592907Y-57252976D01*
X58592903Y-57252979D01*
X58571653Y-57277502D01*
X58519256Y-57309096D01*
X58458295Y-57303858D01*
X58443313Y-57295952D01*
X58356752Y-57240323D01*
X58356749Y-57240322D01*
X58356748Y-57240321D01*
X58286683Y-57219748D01*
X58231348Y-57203500D01*
X58231347Y-57203500D01*
X58100653Y-57203500D01*
X58100651Y-57203500D01*
X57975252Y-57240321D01*
X57975247Y-57240323D01*
X57865309Y-57310976D01*
X57865307Y-57310977D01*
X57865305Y-57310978D01*
X57865305Y-57310979D01*
X57848390Y-57330500D01*
X57793349Y-57394021D01*
X57740953Y-57425616D01*
X57679992Y-57420380D01*
X57665007Y-57412473D01*
X57594752Y-57367323D01*
X57594749Y-57367322D01*
X57594748Y-57367321D01*
X57532047Y-57348910D01*
X57469348Y-57330500D01*
X57469347Y-57330500D01*
X57338653Y-57330500D01*
X57338651Y-57330500D01*
X57213252Y-57367321D01*
X57213247Y-57367323D01*
X57103309Y-57437976D01*
X57103304Y-57437980D01*
X57017719Y-57536749D01*
X56963425Y-57655638D01*
X56963424Y-57655641D01*
X56944826Y-57784997D01*
X50111500Y-57784997D01*
X50111500Y-55755253D01*
X50574500Y-55755253D01*
X50574500Y-56644746D01*
X50574501Y-56644758D01*
X50586132Y-56703227D01*
X50586134Y-56703233D01*
X50625844Y-56762662D01*
X50630448Y-56769552D01*
X50696769Y-56813867D01*
X50741231Y-56822711D01*
X50755241Y-56825498D01*
X50755246Y-56825498D01*
X50755252Y-56825500D01*
X50755253Y-56825500D01*
X51644747Y-56825500D01*
X51644748Y-56825500D01*
X51703231Y-56813867D01*
X51769552Y-56769552D01*
X51769554Y-56769548D01*
X51776441Y-56762662D01*
X51830956Y-56734882D01*
X51891389Y-56744452D01*
X51892433Y-56744991D01*
X51976566Y-56789148D01*
X52124051Y-56825500D01*
X52124054Y-56825500D01*
X52275946Y-56825500D01*
X52275949Y-56825500D01*
X52423434Y-56789148D01*
X52557934Y-56718557D01*
X52634351Y-56650858D01*
X52690445Y-56626423D01*
X52750189Y-56639626D01*
X52765649Y-56650858D01*
X52842066Y-56718557D01*
X52976566Y-56789148D01*
X53124051Y-56825500D01*
X53124054Y-56825500D01*
X53275946Y-56825500D01*
X53275949Y-56825500D01*
X53423434Y-56789148D01*
X53557934Y-56718557D01*
X53634351Y-56650858D01*
X53690445Y-56626423D01*
X53750189Y-56639626D01*
X53765649Y-56650858D01*
X53842066Y-56718557D01*
X53976566Y-56789148D01*
X54124051Y-56825500D01*
X54124054Y-56825500D01*
X54275946Y-56825500D01*
X54275949Y-56825500D01*
X54423434Y-56789148D01*
X54557934Y-56718557D01*
X54634351Y-56650858D01*
X54690445Y-56626423D01*
X54750189Y-56639626D01*
X54765649Y-56650858D01*
X54842066Y-56718557D01*
X54976566Y-56789148D01*
X55124051Y-56825500D01*
X55124054Y-56825500D01*
X55192987Y-56825500D01*
X55251178Y-56844407D01*
X55287142Y-56893907D01*
X55287142Y-56955093D01*
X55267806Y-56989331D01*
X55213719Y-57051749D01*
X55159425Y-57170638D01*
X55159424Y-57170641D01*
X55140826Y-57299997D01*
X55140826Y-57300002D01*
X55159424Y-57429358D01*
X55159425Y-57429361D01*
X55159425Y-57429362D01*
X55159426Y-57429364D01*
X55184804Y-57484935D01*
X55213719Y-57548250D01*
X55256511Y-57597634D01*
X55299305Y-57647021D01*
X55409252Y-57717679D01*
X55534653Y-57754500D01*
X55534654Y-57754500D01*
X55665346Y-57754500D01*
X55665347Y-57754500D01*
X55790748Y-57717679D01*
X55900695Y-57647021D01*
X55986282Y-57548248D01*
X56040574Y-57429364D01*
X56057175Y-57313903D01*
X56059174Y-57300002D01*
X56059174Y-57299997D01*
X56040575Y-57170641D01*
X56040574Y-57170638D01*
X56040574Y-57170636D01*
X55986282Y-57051752D01*
X55986280Y-57051750D01*
X55986280Y-57051749D01*
X55903106Y-56955761D01*
X55879288Y-56899402D01*
X55893147Y-56839806D01*
X55939387Y-56799739D01*
X56000348Y-56794503D01*
X56001618Y-56794807D01*
X56100000Y-56819056D01*
X56100000Y-56429176D01*
X56150272Y-56450000D01*
X56249728Y-56450000D01*
X56300000Y-56429176D01*
X56300000Y-56819057D01*
X56423254Y-56788677D01*
X56557649Y-56718140D01*
X56671254Y-56617496D01*
X56671254Y-56617495D01*
X56757473Y-56492585D01*
X56811294Y-56350670D01*
X56811294Y-56350669D01*
X56817448Y-56300000D01*
X56429177Y-56300000D01*
X56450000Y-56249728D01*
X56450000Y-56150272D01*
X56429177Y-56100000D01*
X56817447Y-56100000D01*
X56811294Y-56049330D01*
X56811294Y-56049329D01*
X56757473Y-55907414D01*
X56671254Y-55782504D01*
X56671254Y-55782503D01*
X56557649Y-55681859D01*
X56423256Y-55611323D01*
X56300000Y-55580942D01*
X56300000Y-55970823D01*
X56249728Y-55950000D01*
X56150272Y-55950000D01*
X56100000Y-55970823D01*
X56100000Y-55580942D01*
X56099999Y-55580942D01*
X55976743Y-55611323D01*
X55842350Y-55681859D01*
X55766026Y-55749476D01*
X55709931Y-55773911D01*
X55650188Y-55760708D01*
X55634728Y-55749476D01*
X55575230Y-55696766D01*
X55557934Y-55681443D01*
X55423434Y-55610852D01*
X55423433Y-55610851D01*
X55423432Y-55610851D01*
X55275951Y-55574500D01*
X55275949Y-55574500D01*
X55124051Y-55574500D01*
X55124048Y-55574500D01*
X54976567Y-55610851D01*
X54842064Y-55681444D01*
X54765649Y-55749142D01*
X54709555Y-55773577D01*
X54649811Y-55760374D01*
X54634351Y-55749142D01*
X54575230Y-55696766D01*
X54557934Y-55681443D01*
X54423434Y-55610852D01*
X54423433Y-55610851D01*
X54423432Y-55610851D01*
X54275951Y-55574500D01*
X54275949Y-55574500D01*
X54124051Y-55574500D01*
X54124048Y-55574500D01*
X53976567Y-55610851D01*
X53842064Y-55681444D01*
X53765649Y-55749142D01*
X53709555Y-55773577D01*
X53649811Y-55760374D01*
X53634351Y-55749142D01*
X53575230Y-55696766D01*
X53557934Y-55681443D01*
X53423434Y-55610852D01*
X53423433Y-55610851D01*
X53423432Y-55610851D01*
X53275951Y-55574500D01*
X53275949Y-55574500D01*
X53124051Y-55574500D01*
X53124048Y-55574500D01*
X52976567Y-55610851D01*
X52842064Y-55681444D01*
X52765649Y-55749142D01*
X52709555Y-55773577D01*
X52649811Y-55760374D01*
X52634351Y-55749142D01*
X52575230Y-55696766D01*
X52557934Y-55681443D01*
X52423434Y-55610852D01*
X52423433Y-55610851D01*
X52423432Y-55610851D01*
X52275951Y-55574500D01*
X52275949Y-55574500D01*
X52124051Y-55574500D01*
X52124048Y-55574500D01*
X51976569Y-55610850D01*
X51892454Y-55654997D01*
X51832142Y-55665297D01*
X51777294Y-55638180D01*
X51776443Y-55637340D01*
X51769554Y-55630451D01*
X51769552Y-55630448D01*
X51740225Y-55610852D01*
X51703233Y-55586134D01*
X51703231Y-55586133D01*
X51703228Y-55586132D01*
X51703227Y-55586132D01*
X51644758Y-55574501D01*
X51644748Y-55574500D01*
X50755252Y-55574500D01*
X50755251Y-55574500D01*
X50755241Y-55574501D01*
X50696772Y-55586132D01*
X50696766Y-55586134D01*
X50630451Y-55630445D01*
X50630445Y-55630451D01*
X50586134Y-55696766D01*
X50586132Y-55696772D01*
X50574501Y-55755241D01*
X50574500Y-55755253D01*
X50111500Y-55755253D01*
X50111500Y-55036500D01*
X50130407Y-54978309D01*
X50179907Y-54942345D01*
X50210500Y-54937500D01*
X61676500Y-54937500D01*
X61734691Y-54956407D01*
G37*
%TD.AperFunction*%
%TA.AperFunction,Conductor*%
G36*
X58654274Y-74666851D02*
G01*
X58710739Y-74598050D01*
X58710744Y-74598043D01*
X58795190Y-74440058D01*
X58839296Y-74397652D01*
X58899904Y-74389269D01*
X58953865Y-74418112D01*
X58980566Y-74473163D01*
X58981500Y-74486727D01*
X58981500Y-74757500D01*
X58962593Y-74815691D01*
X58913093Y-74851655D01*
X58882500Y-74856500D01*
X58707951Y-74856500D01*
X58655961Y-74839608D01*
X58649860Y-74845710D01*
X58604915Y-74856500D01*
X58602085Y-74856500D01*
X58543894Y-74837593D01*
X58532081Y-74827504D01*
X58096253Y-74391676D01*
X58140940Y-74365876D01*
X58211876Y-74294940D01*
X58237676Y-74250253D01*
X58654274Y-74666851D01*
G37*
%TD.AperFunction*%
%TD*%
M02*
