%TF.GenerationSoftware,KiCad,Pcbnew,8.0.8-8.0.8-0~ubuntu24.04.1*%
%TF.CreationDate,2025-02-27T11:00:21-05:00*%
%TF.ProjectId,imu-board,696d752d-626f-4617-9264-2e6b69636164,rev?*%
%TF.SameCoordinates,Original*%
%TF.FileFunction,Copper,L2,Inr*%
%TF.FilePolarity,Positive*%
%FSLAX46Y46*%
G04 Gerber Fmt 4.6, Leading zero omitted, Abs format (unit mm)*
G04 Created by KiCad (PCBNEW 8.0.8-8.0.8-0~ubuntu24.04.1) date 2025-02-27 11:00:21*
%MOMM*%
%LPD*%
G01*
G04 APERTURE LIST*
%TA.AperFunction,ComponentPad*%
%ADD10R,0.850000X0.850000*%
%TD*%
%TA.AperFunction,ComponentPad*%
%ADD11O,0.850000X0.850000*%
%TD*%
%TA.AperFunction,ComponentPad*%
%ADD12C,1.524000*%
%TD*%
%TA.AperFunction,ViaPad*%
%ADD13C,0.508000*%
%TD*%
G04 APERTURE END LIST*
D10*
%TO.N,/MISO*%
%TO.C,J3*%
X56134000Y-69278000D03*
D11*
%TO.N,VCC*%
X56134000Y-68278000D03*
%TO.N,/SCK*%
X56134000Y-67278000D03*
%TO.N,/MOSI*%
X56134000Y-66278000D03*
%TO.N,/nRESET*%
X56134000Y-65278000D03*
%TO.N,GND*%
X56134000Y-64278000D03*
%TD*%
D12*
%TO.N,VCC*%
%TO.C,J2*%
X54097000Y-71521000D03*
%TO.N,/TXD*%
X55367000Y-74061000D03*
%TO.N,/RXD*%
X56637000Y-71521000D03*
%TO.N,GND*%
X57907000Y-74061000D03*
%TD*%
D13*
%TO.N,VCC*%
X54410800Y-63048476D03*
X55107000Y-57753000D03*
X51181000Y-61341000D03*
X61053000Y-60726000D03*
X60907000Y-58026000D03*
X59307000Y-58926000D03*
%TO.N,GND*%
X51181000Y-58928000D03*
X60107000Y-59126000D03*
X59563000Y-61214000D03*
X59690000Y-69723000D03*
X54607000Y-58953000D03*
X52324000Y-70104000D03*
X54607000Y-61453000D03*
X59507000Y-59826000D03*
%TO.N,/nRESET*%
X57658000Y-60270300D03*
%TO.N,/TXD*%
X57658000Y-58674000D03*
X58238200Y-62611000D03*
%TO.N,/RXD*%
X57514680Y-59508779D03*
X57187200Y-62103000D03*
%TO.N,/MOSI*%
X53848000Y-66675000D03*
%TO.N,Net-(JP1-A)*%
X60706000Y-69850000D03*
X55825200Y-63133033D03*
%TO.N,Net-(JP2-A)*%
X56566036Y-62972631D03*
X60706000Y-67564000D03*
%TO.N,Net-(U3-PC3)*%
X52197000Y-68707000D03*
X58420000Y-70104000D03*
%TD*%
%TA.AperFunction,Conductor*%
%TO.N,GND*%
G36*
X54688000Y-57385407D02*
G01*
X54723964Y-57434907D01*
X54723964Y-57496093D01*
X54719867Y-57506613D01*
X54685615Y-57581618D01*
X54666425Y-57623638D01*
X54666424Y-57623641D01*
X54647826Y-57752997D01*
X54647826Y-57753002D01*
X54666424Y-57882358D01*
X54666425Y-57882361D01*
X54720719Y-58001250D01*
X54742167Y-58026002D01*
X54806305Y-58100021D01*
X54886336Y-58151453D01*
X54892416Y-58155361D01*
X54916252Y-58170679D01*
X55041653Y-58207500D01*
X55041654Y-58207500D01*
X55172346Y-58207500D01*
X55172347Y-58207500D01*
X55297748Y-58170679D01*
X55407695Y-58100021D01*
X55493282Y-58001248D01*
X55547574Y-57882364D01*
X55566174Y-57753000D01*
X55561691Y-57721822D01*
X55547575Y-57623641D01*
X55547574Y-57623638D01*
X55547574Y-57623636D01*
X55494136Y-57506623D01*
X55487163Y-57445839D01*
X55517250Y-57392563D01*
X55572906Y-57367145D01*
X55584191Y-57366500D01*
X60579118Y-57366500D01*
X60614139Y-57366500D01*
X60623842Y-57366977D01*
X60683184Y-57372821D01*
X60765271Y-57380906D01*
X60784304Y-57384692D01*
X60808037Y-57391891D01*
X60858234Y-57426875D01*
X60878281Y-57484683D01*
X60860520Y-57543234D01*
X60811737Y-57580163D01*
X60807192Y-57581618D01*
X60763383Y-57594482D01*
X60716252Y-57608321D01*
X60716250Y-57608321D01*
X60716247Y-57608323D01*
X60606309Y-57678976D01*
X60606304Y-57678980D01*
X60520719Y-57777749D01*
X60466425Y-57896638D01*
X60466424Y-57896641D01*
X60447826Y-58025997D01*
X60447826Y-58026002D01*
X60466424Y-58155358D01*
X60466425Y-58155361D01*
X60466425Y-58155362D01*
X60466426Y-58155364D01*
X60495716Y-58219500D01*
X60520719Y-58274250D01*
X60541940Y-58298740D01*
X60606305Y-58373021D01*
X60716252Y-58443679D01*
X60841653Y-58480500D01*
X60841654Y-58480500D01*
X60972346Y-58480500D01*
X60972347Y-58480500D01*
X61097748Y-58443679D01*
X61207695Y-58373021D01*
X61244683Y-58330333D01*
X61297076Y-58298740D01*
X61358037Y-58303976D01*
X61404278Y-58344043D01*
X61418500Y-58395167D01*
X61418500Y-60239322D01*
X61399593Y-60297513D01*
X61350093Y-60333477D01*
X61288907Y-60333477D01*
X61265979Y-60322608D01*
X61243748Y-60308321D01*
X61181047Y-60289910D01*
X61118348Y-60271500D01*
X61118347Y-60271500D01*
X60987653Y-60271500D01*
X60987651Y-60271500D01*
X60862252Y-60308321D01*
X60862247Y-60308323D01*
X60752309Y-60378976D01*
X60752304Y-60378980D01*
X60666719Y-60477749D01*
X60612425Y-60596638D01*
X60612424Y-60596641D01*
X60593826Y-60725997D01*
X60593826Y-60726002D01*
X60612424Y-60855358D01*
X60612425Y-60855361D01*
X60666719Y-60974250D01*
X60687499Y-60998231D01*
X60752305Y-61073021D01*
X60862252Y-61143679D01*
X60987653Y-61180500D01*
X60987654Y-61180500D01*
X61118346Y-61180500D01*
X61118347Y-61180500D01*
X61243748Y-61143679D01*
X61265976Y-61129393D01*
X61325150Y-61113838D01*
X61382167Y-61136036D01*
X61415247Y-61187508D01*
X61418500Y-61212677D01*
X61418500Y-63926691D01*
X61399593Y-63984882D01*
X61350093Y-64020846D01*
X61288907Y-64020846D01*
X61240958Y-63986958D01*
X61211270Y-63948268D01*
X61211268Y-63948266D01*
X61211265Y-63948262D01*
X61039738Y-63776735D01*
X61039733Y-63776731D01*
X61039731Y-63776729D01*
X60847292Y-63629066D01*
X60847289Y-63629064D01*
X60637212Y-63507776D01*
X60637208Y-63507774D01*
X60637204Y-63507772D01*
X60413105Y-63414948D01*
X60413104Y-63414947D01*
X60413100Y-63414946D01*
X60178789Y-63352162D01*
X60178786Y-63352161D01*
X60178784Y-63352161D01*
X59938289Y-63320500D01*
X59938288Y-63320500D01*
X59695712Y-63320500D01*
X59695710Y-63320500D01*
X59455218Y-63352161D01*
X59455213Y-63352161D01*
X59220907Y-63414944D01*
X59220894Y-63414948D01*
X58996795Y-63507772D01*
X58786707Y-63629066D01*
X58594268Y-63776729D01*
X58422729Y-63948268D01*
X58275066Y-64140707D01*
X58153772Y-64350795D01*
X58060948Y-64574894D01*
X58060944Y-64574907D01*
X57998161Y-64809213D01*
X57998161Y-64809218D01*
X57966500Y-65049710D01*
X57966500Y-65292289D01*
X57998161Y-65532781D01*
X57998161Y-65532786D01*
X57998162Y-65532789D01*
X58053273Y-65738466D01*
X58060944Y-65767092D01*
X58060948Y-65767105D01*
X58153772Y-65991204D01*
X58153774Y-65991208D01*
X58153776Y-65991212D01*
X58244500Y-66148350D01*
X58275066Y-66201292D01*
X58422729Y-66393731D01*
X58422730Y-66393732D01*
X58422735Y-66393738D01*
X58594262Y-66565265D01*
X58594266Y-66565268D01*
X58594268Y-66565270D01*
X58774932Y-66703898D01*
X58786711Y-66712936D01*
X58996788Y-66834224D01*
X59220900Y-66927054D01*
X59455211Y-66989838D01*
X59695712Y-67021500D01*
X59695713Y-67021500D01*
X59938287Y-67021500D01*
X59938288Y-67021500D01*
X60178789Y-66989838D01*
X60413100Y-66927054D01*
X60637212Y-66834224D01*
X60847289Y-66712936D01*
X61039738Y-66565265D01*
X61211265Y-66393738D01*
X61240957Y-66355041D01*
X61291381Y-66320385D01*
X61352546Y-66321986D01*
X61401088Y-66359233D01*
X61418500Y-66415308D01*
X61418500Y-74161139D01*
X61418023Y-74170843D01*
X61404093Y-74312271D01*
X61400307Y-74331305D01*
X61360472Y-74462624D01*
X61353045Y-74480554D01*
X61288357Y-74601577D01*
X61277575Y-74617714D01*
X61190517Y-74723794D01*
X61176794Y-74737517D01*
X61070714Y-74824575D01*
X61054577Y-74835357D01*
X60933554Y-74900045D01*
X60915624Y-74907472D01*
X60784305Y-74947307D01*
X60765271Y-74951093D01*
X60623843Y-74965023D01*
X60614139Y-74965500D01*
X58597957Y-74965500D01*
X58539766Y-74946593D01*
X58503802Y-74897093D01*
X58503802Y-74835907D01*
X58512091Y-74823761D01*
X58512851Y-74808274D01*
X58096253Y-74391676D01*
X58140940Y-74365876D01*
X58211876Y-74294940D01*
X58237676Y-74250253D01*
X58654274Y-74666851D01*
X58710739Y-74598050D01*
X58710744Y-74598043D01*
X58800072Y-74430923D01*
X58855081Y-74249585D01*
X58855082Y-74249580D01*
X58873655Y-74061003D01*
X58873655Y-74060996D01*
X58855082Y-73872419D01*
X58855081Y-73872414D01*
X58800072Y-73691076D01*
X58710744Y-73523956D01*
X58710740Y-73523950D01*
X58654274Y-73455147D01*
X58237675Y-73871745D01*
X58211876Y-73827060D01*
X58140940Y-73756124D01*
X58096251Y-73730323D01*
X58512851Y-73313724D01*
X58512852Y-73313724D01*
X58444049Y-73257259D01*
X58444043Y-73257255D01*
X58276923Y-73167927D01*
X58095585Y-73112918D01*
X58095580Y-73112917D01*
X57907003Y-73094345D01*
X57906997Y-73094345D01*
X57718419Y-73112917D01*
X57718414Y-73112918D01*
X57537076Y-73167927D01*
X57369952Y-73257257D01*
X57301147Y-73313724D01*
X57717746Y-73730323D01*
X57673060Y-73756124D01*
X57602124Y-73827060D01*
X57576323Y-73871746D01*
X57159724Y-73455147D01*
X57103257Y-73523952D01*
X57013927Y-73691076D01*
X56958918Y-73872414D01*
X56958917Y-73872419D01*
X56940345Y-74060996D01*
X56940345Y-74061003D01*
X56958917Y-74249580D01*
X56958918Y-74249585D01*
X57013927Y-74430923D01*
X57103255Y-74598043D01*
X57103259Y-74598049D01*
X57159724Y-74666851D01*
X57576323Y-74250251D01*
X57602124Y-74294940D01*
X57673060Y-74365876D01*
X57717745Y-74391675D01*
X57301147Y-74808275D01*
X57302026Y-74826184D01*
X57311833Y-74841504D01*
X57308231Y-74902583D01*
X57269415Y-74949880D01*
X57216041Y-74965500D01*
X56058747Y-74965500D01*
X56000556Y-74946593D01*
X55964592Y-74897093D01*
X55964592Y-74835907D01*
X55995942Y-74789972D01*
X56050883Y-74744883D01*
X56171162Y-74598324D01*
X56260537Y-74431115D01*
X56315573Y-74249683D01*
X56315574Y-74249678D01*
X56334157Y-74061003D01*
X56334157Y-74060996D01*
X56315574Y-73872321D01*
X56315573Y-73872316D01*
X56298877Y-73817280D01*
X56260537Y-73690885D01*
X56171162Y-73523676D01*
X56050883Y-73377117D01*
X55904324Y-73256838D01*
X55864959Y-73235797D01*
X55737120Y-73167465D01*
X55737115Y-73167463D01*
X55555683Y-73112426D01*
X55555678Y-73112425D01*
X55367003Y-73093843D01*
X55366997Y-73093843D01*
X55178321Y-73112425D01*
X55178316Y-73112426D01*
X54996884Y-73167463D01*
X54996879Y-73167465D01*
X54829681Y-73256835D01*
X54829671Y-73256841D01*
X54683121Y-73377113D01*
X54683113Y-73377121D01*
X54562841Y-73523671D01*
X54562835Y-73523681D01*
X54473465Y-73690879D01*
X54473463Y-73690884D01*
X54418426Y-73872316D01*
X54418425Y-73872321D01*
X54399843Y-74060996D01*
X54399843Y-74061003D01*
X54418425Y-74249678D01*
X54418426Y-74249683D01*
X54473463Y-74431115D01*
X54473465Y-74431120D01*
X54541797Y-74558959D01*
X54562838Y-74598324D01*
X54562840Y-74598326D01*
X54562841Y-74598328D01*
X54572566Y-74610178D01*
X54683117Y-74744883D01*
X54683121Y-74744886D01*
X54738058Y-74789972D01*
X54771045Y-74841504D01*
X54767443Y-74902583D01*
X54728627Y-74949880D01*
X54675253Y-74965500D01*
X51423861Y-74965500D01*
X51414157Y-74965023D01*
X51272728Y-74951093D01*
X51253694Y-74947307D01*
X51122375Y-74907472D01*
X51104445Y-74900045D01*
X51039183Y-74865162D01*
X50983420Y-74835356D01*
X50967287Y-74824576D01*
X50870174Y-74744878D01*
X50861205Y-74737517D01*
X50847482Y-74723794D01*
X50800750Y-74666851D01*
X50760421Y-74617710D01*
X50749645Y-74601581D01*
X50684953Y-74480551D01*
X50677527Y-74462624D01*
X50672823Y-74447118D01*
X50637691Y-74331302D01*
X50633906Y-74312270D01*
X50619977Y-74170842D01*
X50619500Y-74161139D01*
X50619500Y-71520996D01*
X53129843Y-71520996D01*
X53129843Y-71521003D01*
X53148425Y-71709678D01*
X53148426Y-71709683D01*
X53203463Y-71891115D01*
X53203465Y-71891120D01*
X53271797Y-72018959D01*
X53292838Y-72058324D01*
X53413117Y-72204883D01*
X53559676Y-72325162D01*
X53726885Y-72414537D01*
X53853280Y-72452877D01*
X53908316Y-72469573D01*
X53908321Y-72469574D01*
X54096997Y-72488157D01*
X54097000Y-72488157D01*
X54097003Y-72488157D01*
X54285678Y-72469574D01*
X54285683Y-72469573D01*
X54467115Y-72414537D01*
X54634324Y-72325162D01*
X54780883Y-72204883D01*
X54901162Y-72058324D01*
X54990537Y-71891115D01*
X55045573Y-71709683D01*
X55045574Y-71709678D01*
X55064157Y-71521003D01*
X55064157Y-71520996D01*
X55669843Y-71520996D01*
X55669843Y-71521003D01*
X55688425Y-71709678D01*
X55688426Y-71709683D01*
X55743463Y-71891115D01*
X55743465Y-71891120D01*
X55811797Y-72018959D01*
X55832838Y-72058324D01*
X55953117Y-72204883D01*
X56099676Y-72325162D01*
X56266885Y-72414537D01*
X56393280Y-72452877D01*
X56448316Y-72469573D01*
X56448321Y-72469574D01*
X56636997Y-72488157D01*
X56637000Y-72488157D01*
X56637003Y-72488157D01*
X56825678Y-72469574D01*
X56825683Y-72469573D01*
X57007115Y-72414537D01*
X57174324Y-72325162D01*
X57320883Y-72204883D01*
X57441162Y-72058324D01*
X57530537Y-71891115D01*
X57585573Y-71709683D01*
X57585574Y-71709678D01*
X57604157Y-71521003D01*
X57604157Y-71520996D01*
X57585574Y-71332321D01*
X57585573Y-71332316D01*
X57568877Y-71277280D01*
X57530537Y-71150885D01*
X57441162Y-70983676D01*
X57320883Y-70837117D01*
X57174324Y-70716838D01*
X57134959Y-70695797D01*
X57007120Y-70627465D01*
X57007115Y-70627463D01*
X56825683Y-70572426D01*
X56825678Y-70572425D01*
X56637003Y-70553843D01*
X56636997Y-70553843D01*
X56448321Y-70572425D01*
X56448316Y-70572426D01*
X56266884Y-70627463D01*
X56266879Y-70627465D01*
X56099681Y-70716835D01*
X56099671Y-70716841D01*
X55953121Y-70837113D01*
X55953113Y-70837121D01*
X55832841Y-70983671D01*
X55832835Y-70983681D01*
X55743465Y-71150879D01*
X55743463Y-71150884D01*
X55688426Y-71332316D01*
X55688425Y-71332321D01*
X55669843Y-71520996D01*
X55064157Y-71520996D01*
X55045574Y-71332321D01*
X55045573Y-71332316D01*
X55028877Y-71277280D01*
X54990537Y-71150885D01*
X54901162Y-70983676D01*
X54780883Y-70837117D01*
X54634324Y-70716838D01*
X54594959Y-70695797D01*
X54467120Y-70627465D01*
X54467115Y-70627463D01*
X54285683Y-70572426D01*
X54285678Y-70572425D01*
X54097003Y-70553843D01*
X54096997Y-70553843D01*
X53908321Y-70572425D01*
X53908316Y-70572426D01*
X53726884Y-70627463D01*
X53726879Y-70627465D01*
X53559681Y-70716835D01*
X53559671Y-70716841D01*
X53413121Y-70837113D01*
X53413113Y-70837121D01*
X53292841Y-70983671D01*
X53292835Y-70983681D01*
X53203465Y-71150879D01*
X53203463Y-71150884D01*
X53148426Y-71332316D01*
X53148425Y-71332321D01*
X53129843Y-71520996D01*
X50619500Y-71520996D01*
X50619500Y-70103997D01*
X57960826Y-70103997D01*
X57960826Y-70104002D01*
X57979424Y-70233358D01*
X57979425Y-70233361D01*
X57979425Y-70233362D01*
X57979426Y-70233364D01*
X58033718Y-70352248D01*
X58033719Y-70352250D01*
X58076511Y-70401634D01*
X58119305Y-70451021D01*
X58229252Y-70521679D01*
X58354653Y-70558500D01*
X58354654Y-70558500D01*
X58485346Y-70558500D01*
X58485347Y-70558500D01*
X58610748Y-70521679D01*
X58720695Y-70451021D01*
X58806282Y-70352248D01*
X58860574Y-70233364D01*
X58865799Y-70197023D01*
X58879174Y-70104002D01*
X58879174Y-70103997D01*
X58860575Y-69974641D01*
X58860574Y-69974638D01*
X58860574Y-69974636D01*
X58806282Y-69855752D01*
X58806280Y-69855750D01*
X58806280Y-69855749D01*
X58801296Y-69849997D01*
X60246826Y-69849997D01*
X60246826Y-69850002D01*
X60265424Y-69979358D01*
X60265425Y-69979361D01*
X60319719Y-70098250D01*
X60362511Y-70147634D01*
X60405305Y-70197021D01*
X60515252Y-70267679D01*
X60640653Y-70304500D01*
X60640654Y-70304500D01*
X60771346Y-70304500D01*
X60771347Y-70304500D01*
X60896748Y-70267679D01*
X61006695Y-70197021D01*
X61092282Y-70098248D01*
X61146574Y-69979364D01*
X61157482Y-69903498D01*
X61165174Y-69850002D01*
X61165174Y-69849997D01*
X61146575Y-69720641D01*
X61146574Y-69720638D01*
X61146574Y-69720636D01*
X61092282Y-69601752D01*
X61092280Y-69601750D01*
X61092280Y-69601749D01*
X61057281Y-69561358D01*
X61006695Y-69502979D01*
X60976779Y-69483753D01*
X60896752Y-69432323D01*
X60896749Y-69432322D01*
X60896748Y-69432321D01*
X60834047Y-69413910D01*
X60771348Y-69395500D01*
X60771347Y-69395500D01*
X60640653Y-69395500D01*
X60640651Y-69395500D01*
X60515252Y-69432321D01*
X60515247Y-69432323D01*
X60405309Y-69502976D01*
X60405304Y-69502980D01*
X60319719Y-69601749D01*
X60265425Y-69720638D01*
X60265424Y-69720641D01*
X60246826Y-69849997D01*
X58801296Y-69849997D01*
X58741709Y-69781231D01*
X58720695Y-69756979D01*
X58667427Y-69722746D01*
X58610752Y-69686323D01*
X58610749Y-69686322D01*
X58610748Y-69686321D01*
X58548047Y-69667910D01*
X58485348Y-69649500D01*
X58485347Y-69649500D01*
X58354653Y-69649500D01*
X58354651Y-69649500D01*
X58229252Y-69686321D01*
X58229247Y-69686323D01*
X58119309Y-69756976D01*
X58119304Y-69756980D01*
X58033719Y-69855749D01*
X57979425Y-69974638D01*
X57979424Y-69974641D01*
X57960826Y-70103997D01*
X50619500Y-70103997D01*
X50619500Y-68706997D01*
X51737826Y-68706997D01*
X51737826Y-68707002D01*
X51756424Y-68836358D01*
X51756425Y-68836361D01*
X51810719Y-68955250D01*
X51853511Y-69004634D01*
X51896305Y-69054021D01*
X52006252Y-69124679D01*
X52131653Y-69161500D01*
X52131654Y-69161500D01*
X52262346Y-69161500D01*
X52262347Y-69161500D01*
X52387748Y-69124679D01*
X52497695Y-69054021D01*
X52583282Y-68955248D01*
X52637574Y-68836364D01*
X52638021Y-68833253D01*
X52656174Y-68707002D01*
X52656174Y-68706997D01*
X52637575Y-68577641D01*
X52637574Y-68577638D01*
X52637574Y-68577636D01*
X52583282Y-68458752D01*
X52583280Y-68458750D01*
X52583280Y-68458749D01*
X52548281Y-68418358D01*
X52497695Y-68359979D01*
X52467779Y-68340753D01*
X52387752Y-68289323D01*
X52387749Y-68289322D01*
X52387748Y-68289321D01*
X52325047Y-68270910D01*
X52262348Y-68252500D01*
X52262347Y-68252500D01*
X52131653Y-68252500D01*
X52131651Y-68252500D01*
X52006252Y-68289321D01*
X52006247Y-68289323D01*
X51896309Y-68359976D01*
X51896304Y-68359980D01*
X51810719Y-68458749D01*
X51756425Y-68577638D01*
X51756424Y-68577641D01*
X51737826Y-68706997D01*
X50619500Y-68706997D01*
X50619500Y-66453102D01*
X50638407Y-66394911D01*
X50687907Y-66358947D01*
X50749093Y-66358947D01*
X50795268Y-66391583D01*
X50795594Y-66391298D01*
X50796784Y-66392655D01*
X50797046Y-66392840D01*
X50797735Y-66393738D01*
X50969262Y-66565265D01*
X50969266Y-66565268D01*
X50969268Y-66565270D01*
X51149932Y-66703898D01*
X51161711Y-66712936D01*
X51371788Y-66834224D01*
X51595900Y-66927054D01*
X51830211Y-66989838D01*
X52070712Y-67021500D01*
X52070713Y-67021500D01*
X52313287Y-67021500D01*
X52313288Y-67021500D01*
X52553789Y-66989838D01*
X52788100Y-66927054D01*
X53012212Y-66834224D01*
X53222289Y-66712936D01*
X53243001Y-66697042D01*
X53300673Y-66676617D01*
X53359340Y-66693992D01*
X53396589Y-66742532D01*
X53401261Y-66761493D01*
X53407424Y-66804359D01*
X53407425Y-66804361D01*
X53407425Y-66804362D01*
X53407426Y-66804364D01*
X53432910Y-66860167D01*
X53461719Y-66923250D01*
X53504511Y-66972634D01*
X53547305Y-67022021D01*
X53657252Y-67092679D01*
X53782653Y-67129500D01*
X53782654Y-67129500D01*
X53913346Y-67129500D01*
X53913347Y-67129500D01*
X54038748Y-67092679D01*
X54148695Y-67022021D01*
X54234282Y-66923248D01*
X54288574Y-66804364D01*
X54303019Y-66703898D01*
X54307174Y-66675002D01*
X54307174Y-66674997D01*
X54288575Y-66545641D01*
X54288574Y-66545638D01*
X54288574Y-66545636D01*
X54234282Y-66426752D01*
X54234280Y-66426750D01*
X54234280Y-66426749D01*
X54199281Y-66386358D01*
X54148695Y-66327979D01*
X54118779Y-66308753D01*
X54038752Y-66257323D01*
X54038749Y-66257322D01*
X54038748Y-66257321D01*
X53976047Y-66238910D01*
X53913348Y-66220500D01*
X53913347Y-66220500D01*
X53894318Y-66220500D01*
X53836127Y-66201593D01*
X53800163Y-66152093D01*
X53800163Y-66090907D01*
X53808581Y-66072000D01*
X53855224Y-65991212D01*
X53948054Y-65767100D01*
X54010838Y-65532789D01*
X54042500Y-65292288D01*
X54042500Y-65049712D01*
X54010838Y-64809211D01*
X53948054Y-64574900D01*
X53855224Y-64350788D01*
X53733936Y-64140711D01*
X53730617Y-64136386D01*
X53586270Y-63948268D01*
X53586268Y-63948266D01*
X53586265Y-63948262D01*
X53414738Y-63776735D01*
X53414733Y-63776731D01*
X53414731Y-63776729D01*
X53222292Y-63629066D01*
X53222289Y-63629064D01*
X53012212Y-63507776D01*
X53012208Y-63507774D01*
X53012204Y-63507772D01*
X52788105Y-63414948D01*
X52788104Y-63414947D01*
X52788100Y-63414946D01*
X52553789Y-63352162D01*
X52553786Y-63352161D01*
X52553784Y-63352161D01*
X52313289Y-63320500D01*
X52313288Y-63320500D01*
X52070712Y-63320500D01*
X52070710Y-63320500D01*
X51830218Y-63352161D01*
X51830213Y-63352161D01*
X51595907Y-63414944D01*
X51595894Y-63414948D01*
X51371795Y-63507772D01*
X51161707Y-63629066D01*
X50969268Y-63776729D01*
X50797731Y-63948266D01*
X50797039Y-63949169D01*
X50796786Y-63949342D01*
X50795594Y-63950702D01*
X50795248Y-63950399D01*
X50746612Y-63983822D01*
X50685448Y-63982217D01*
X50636908Y-63944967D01*
X50619500Y-63888897D01*
X50619500Y-63048473D01*
X53951626Y-63048473D01*
X53951626Y-63048478D01*
X53970224Y-63177834D01*
X53970225Y-63177837D01*
X54024519Y-63296726D01*
X54045120Y-63320500D01*
X54110105Y-63395497D01*
X54220052Y-63466155D01*
X54345453Y-63502976D01*
X54345454Y-63502976D01*
X54476146Y-63502976D01*
X54476147Y-63502976D01*
X54601548Y-63466155D01*
X54711495Y-63395497D01*
X54797082Y-63296724D01*
X54851374Y-63177840D01*
X54857816Y-63133035D01*
X54857817Y-63133030D01*
X55366026Y-63133030D01*
X55366026Y-63133035D01*
X55384624Y-63262391D01*
X55384625Y-63262394D01*
X55384625Y-63262395D01*
X55384626Y-63262397D01*
X55425620Y-63352162D01*
X55438919Y-63381283D01*
X55478646Y-63427130D01*
X55524505Y-63480054D01*
X55634452Y-63550712D01*
X55747331Y-63583856D01*
X55797838Y-63618392D01*
X55818400Y-63676019D01*
X55801162Y-63734726D01*
X55780486Y-63755495D01*
X55780834Y-63755887D01*
X55662745Y-63860503D01*
X55662745Y-63860504D01*
X55576526Y-63985414D01*
X55522705Y-64127329D01*
X55522705Y-64127330D01*
X55516552Y-64178000D01*
X55904823Y-64178000D01*
X55884000Y-64228272D01*
X55884000Y-64327728D01*
X55904823Y-64378000D01*
X55516552Y-64378000D01*
X55522705Y-64428669D01*
X55522705Y-64428670D01*
X55576526Y-64570585D01*
X55662745Y-64695495D01*
X55662746Y-64695497D01*
X55671851Y-64703563D01*
X55702870Y-64756303D01*
X55696964Y-64817202D01*
X55671855Y-64851764D01*
X55662368Y-64860169D01*
X55576079Y-64985180D01*
X55522215Y-65127209D01*
X55522214Y-65127210D01*
X55503906Y-65277998D01*
X55503906Y-65278001D01*
X55522214Y-65428789D01*
X55522215Y-65428790D01*
X55576079Y-65570819D01*
X55662368Y-65695830D01*
X55662369Y-65695832D01*
X55671474Y-65703898D01*
X55702493Y-65756638D01*
X55696587Y-65817537D01*
X55671474Y-65852102D01*
X55662369Y-65860167D01*
X55662368Y-65860169D01*
X55576079Y-65985180D01*
X55522215Y-66127209D01*
X55522214Y-66127210D01*
X55503906Y-66277998D01*
X55503906Y-66278001D01*
X55522214Y-66428789D01*
X55522215Y-66428790D01*
X55576079Y-66570819D01*
X55662368Y-66695830D01*
X55662369Y-66695832D01*
X55671474Y-66703898D01*
X55702493Y-66756638D01*
X55696587Y-66817537D01*
X55671474Y-66852102D01*
X55662369Y-66860167D01*
X55662368Y-66860169D01*
X55576079Y-66985180D01*
X55522215Y-67127209D01*
X55522214Y-67127210D01*
X55503906Y-67277998D01*
X55503906Y-67278001D01*
X55522214Y-67428789D01*
X55522215Y-67428791D01*
X55524434Y-67434641D01*
X55576079Y-67570819D01*
X55662368Y-67695830D01*
X55662369Y-67695832D01*
X55671474Y-67703898D01*
X55702493Y-67756638D01*
X55696587Y-67817537D01*
X55671474Y-67852102D01*
X55662369Y-67860167D01*
X55662368Y-67860169D01*
X55576079Y-67985180D01*
X55522215Y-68127209D01*
X55522214Y-68127210D01*
X55503906Y-68277998D01*
X55503906Y-68278001D01*
X55522214Y-68428789D01*
X55522215Y-68428790D01*
X55576080Y-68570821D01*
X55576081Y-68570824D01*
X55580666Y-68577466D01*
X55598159Y-68636097D01*
X55577848Y-68693813D01*
X55569195Y-68703701D01*
X55564447Y-68708449D01*
X55520134Y-68774766D01*
X55520132Y-68774772D01*
X55508501Y-68833241D01*
X55508500Y-68833253D01*
X55508500Y-69722746D01*
X55508501Y-69722758D01*
X55515309Y-69756980D01*
X55520133Y-69781231D01*
X55564448Y-69847552D01*
X55630769Y-69891867D01*
X55675231Y-69900711D01*
X55689241Y-69903498D01*
X55689246Y-69903498D01*
X55689252Y-69903500D01*
X55689253Y-69903500D01*
X56578747Y-69903500D01*
X56578748Y-69903500D01*
X56637231Y-69891867D01*
X56703552Y-69847552D01*
X56747867Y-69781231D01*
X56759500Y-69722748D01*
X56759500Y-68833252D01*
X56747867Y-68774769D01*
X56703552Y-68708448D01*
X56703548Y-68708445D01*
X56698807Y-68703704D01*
X56671030Y-68649187D01*
X56680601Y-68588755D01*
X56687338Y-68577458D01*
X56691921Y-68570819D01*
X56745785Y-68428791D01*
X56762719Y-68289323D01*
X56764094Y-68278001D01*
X56764094Y-68277998D01*
X56745785Y-68127210D01*
X56745785Y-68127209D01*
X56691921Y-67985181D01*
X56605632Y-67860170D01*
X56596525Y-67852102D01*
X56565507Y-67799366D01*
X56571410Y-67738466D01*
X56596524Y-67703898D01*
X56605632Y-67695830D01*
X56691921Y-67570819D01*
X56694508Y-67563997D01*
X60246826Y-67563997D01*
X60246826Y-67564002D01*
X60265424Y-67693358D01*
X60265425Y-67693361D01*
X60265425Y-67693362D01*
X60265426Y-67693364D01*
X60270237Y-67703898D01*
X60319719Y-67812250D01*
X60361243Y-67860171D01*
X60405305Y-67911021D01*
X60515252Y-67981679D01*
X60640653Y-68018500D01*
X60640654Y-68018500D01*
X60771346Y-68018500D01*
X60771347Y-68018500D01*
X60896748Y-67981679D01*
X61006695Y-67911021D01*
X61092282Y-67812248D01*
X61146574Y-67693364D01*
X61146575Y-67693358D01*
X61165174Y-67564002D01*
X61165174Y-67563997D01*
X61146575Y-67434641D01*
X61146574Y-67434638D01*
X61146574Y-67434636D01*
X61092282Y-67315752D01*
X61092280Y-67315750D01*
X61092280Y-67315749D01*
X61057281Y-67275358D01*
X61006695Y-67216979D01*
X60976779Y-67197753D01*
X60896752Y-67146323D01*
X60896749Y-67146322D01*
X60896748Y-67146321D01*
X60831658Y-67127209D01*
X60771348Y-67109500D01*
X60771347Y-67109500D01*
X60640653Y-67109500D01*
X60640651Y-67109500D01*
X60515252Y-67146321D01*
X60515247Y-67146323D01*
X60405309Y-67216976D01*
X60405304Y-67216980D01*
X60319719Y-67315749D01*
X60265425Y-67434638D01*
X60265424Y-67434641D01*
X60246826Y-67563997D01*
X56694508Y-67563997D01*
X56745785Y-67428791D01*
X56764094Y-67278000D01*
X56756684Y-67216976D01*
X56748106Y-67146323D01*
X56745785Y-67127209D01*
X56691921Y-66985181D01*
X56605632Y-66860170D01*
X56596525Y-66852102D01*
X56565507Y-66799366D01*
X56571410Y-66738466D01*
X56596524Y-66703898D01*
X56605632Y-66695830D01*
X56691921Y-66570819D01*
X56745785Y-66428791D01*
X56764094Y-66278000D01*
X56761583Y-66257323D01*
X56745785Y-66127210D01*
X56745785Y-66127209D01*
X56691921Y-65985181D01*
X56605632Y-65860170D01*
X56596525Y-65852102D01*
X56565507Y-65799366D01*
X56571410Y-65738466D01*
X56596524Y-65703898D01*
X56605632Y-65695830D01*
X56691921Y-65570819D01*
X56745785Y-65428791D01*
X56764094Y-65278000D01*
X56745785Y-65127209D01*
X56691921Y-64985181D01*
X56605632Y-64860170D01*
X56596147Y-64851767D01*
X56565129Y-64799027D01*
X56571035Y-64738127D01*
X56596150Y-64703560D01*
X56605256Y-64695492D01*
X56691473Y-64570585D01*
X56745294Y-64428670D01*
X56745294Y-64428669D01*
X56751448Y-64378000D01*
X56363177Y-64378000D01*
X56384000Y-64327728D01*
X56384000Y-64228272D01*
X56363177Y-64178000D01*
X56751447Y-64178000D01*
X56745294Y-64127330D01*
X56745294Y-64127329D01*
X56691473Y-63985414D01*
X56605254Y-63860504D01*
X56605254Y-63860503D01*
X56491649Y-63759859D01*
X56357256Y-63689323D01*
X56234000Y-63658942D01*
X56234000Y-64048823D01*
X56183728Y-64028000D01*
X56084272Y-64028000D01*
X56034000Y-64048823D01*
X56034000Y-63640916D01*
X56025479Y-63628247D01*
X56027696Y-63567102D01*
X56065430Y-63518937D01*
X56067072Y-63517856D01*
X56125895Y-63480054D01*
X56208871Y-63384293D01*
X56261267Y-63352698D01*
X56322228Y-63357934D01*
X56337213Y-63365841D01*
X56361241Y-63381283D01*
X56375288Y-63390310D01*
X56500689Y-63427131D01*
X56500690Y-63427131D01*
X56631382Y-63427131D01*
X56631383Y-63427131D01*
X56756784Y-63390310D01*
X56866731Y-63319652D01*
X56952318Y-63220879D01*
X57006610Y-63101995D01*
X57011857Y-63065500D01*
X57025210Y-62972633D01*
X57025210Y-62972628D01*
X57006611Y-62843272D01*
X57006610Y-62843269D01*
X57006610Y-62843267D01*
X56952318Y-62724383D01*
X56952316Y-62724381D01*
X56952316Y-62724380D01*
X56921306Y-62688593D01*
X56897488Y-62632234D01*
X56902426Y-62610997D01*
X57779026Y-62610997D01*
X57779026Y-62611002D01*
X57797624Y-62740358D01*
X57797625Y-62740361D01*
X57797625Y-62740362D01*
X57797626Y-62740364D01*
X57824965Y-62800228D01*
X57851919Y-62859250D01*
X57874043Y-62884782D01*
X57937505Y-62958021D01*
X58047452Y-63028679D01*
X58172853Y-63065500D01*
X58172854Y-63065500D01*
X58303546Y-63065500D01*
X58303547Y-63065500D01*
X58428948Y-63028679D01*
X58538895Y-62958021D01*
X58624482Y-62859248D01*
X58678774Y-62740364D01*
X58684368Y-62701456D01*
X58697374Y-62611002D01*
X58697374Y-62610997D01*
X58678775Y-62481641D01*
X58678774Y-62481638D01*
X58678774Y-62481636D01*
X58624482Y-62362752D01*
X58624480Y-62362750D01*
X58624480Y-62362749D01*
X58589481Y-62322358D01*
X58538895Y-62263979D01*
X58489696Y-62232361D01*
X58428952Y-62193323D01*
X58428949Y-62193322D01*
X58428948Y-62193321D01*
X58366247Y-62174910D01*
X58303548Y-62156500D01*
X58303547Y-62156500D01*
X58172853Y-62156500D01*
X58172851Y-62156500D01*
X58047452Y-62193321D01*
X58047447Y-62193323D01*
X57937509Y-62263976D01*
X57937504Y-62263980D01*
X57851919Y-62362749D01*
X57797625Y-62481638D01*
X57797624Y-62481641D01*
X57779026Y-62610997D01*
X56902426Y-62610997D01*
X56911346Y-62572639D01*
X56957587Y-62532571D01*
X57018548Y-62527335D01*
X57023991Y-62528765D01*
X57121853Y-62557500D01*
X57121854Y-62557500D01*
X57252546Y-62557500D01*
X57252547Y-62557500D01*
X57377948Y-62520679D01*
X57487895Y-62450021D01*
X57573482Y-62351248D01*
X57627774Y-62232364D01*
X57627775Y-62232358D01*
X57646374Y-62103002D01*
X57646374Y-62102997D01*
X57627775Y-61973641D01*
X57627774Y-61973638D01*
X57627774Y-61973636D01*
X57573482Y-61854752D01*
X57573480Y-61854750D01*
X57573480Y-61854749D01*
X57522139Y-61795499D01*
X57487895Y-61755979D01*
X57457979Y-61736753D01*
X57377952Y-61685323D01*
X57377949Y-61685322D01*
X57377948Y-61685321D01*
X57315247Y-61666910D01*
X57252548Y-61648500D01*
X57252547Y-61648500D01*
X57121853Y-61648500D01*
X57121851Y-61648500D01*
X56996452Y-61685321D01*
X56996447Y-61685323D01*
X56886509Y-61755976D01*
X56886504Y-61755980D01*
X56800919Y-61854749D01*
X56746625Y-61973638D01*
X56746624Y-61973641D01*
X56728026Y-62102997D01*
X56728026Y-62103002D01*
X56746624Y-62232358D01*
X56746625Y-62232361D01*
X56746625Y-62232362D01*
X56746626Y-62232364D01*
X56800918Y-62351248D01*
X56800919Y-62351250D01*
X56831929Y-62387037D01*
X56855747Y-62443396D01*
X56841889Y-62502991D01*
X56795648Y-62543059D01*
X56734687Y-62548295D01*
X56729218Y-62546858D01*
X56631384Y-62518131D01*
X56631383Y-62518131D01*
X56500689Y-62518131D01*
X56500687Y-62518131D01*
X56375288Y-62554952D01*
X56375283Y-62554954D01*
X56265345Y-62625607D01*
X56265343Y-62625608D01*
X56265341Y-62625609D01*
X56265341Y-62625610D01*
X56260845Y-62630799D01*
X56182364Y-62721370D01*
X56129967Y-62752965D01*
X56069006Y-62747729D01*
X56054022Y-62739822D01*
X56015952Y-62715356D01*
X56015949Y-62715355D01*
X56015948Y-62715354D01*
X55953247Y-62696943D01*
X55890548Y-62678533D01*
X55890547Y-62678533D01*
X55759853Y-62678533D01*
X55759851Y-62678533D01*
X55634452Y-62715354D01*
X55634447Y-62715356D01*
X55524509Y-62786009D01*
X55524504Y-62786013D01*
X55438919Y-62884782D01*
X55384625Y-63003671D01*
X55384624Y-63003674D01*
X55366026Y-63133030D01*
X54857817Y-63133030D01*
X54869974Y-63048478D01*
X54869974Y-63048473D01*
X54851375Y-62919117D01*
X54851374Y-62919114D01*
X54851374Y-62919112D01*
X54797082Y-62800228D01*
X54797080Y-62800226D01*
X54797080Y-62800225D01*
X54762081Y-62759834D01*
X54711495Y-62701455D01*
X54675827Y-62678533D01*
X54601552Y-62630799D01*
X54601549Y-62630798D01*
X54601548Y-62630797D01*
X54534115Y-62610997D01*
X54476148Y-62593976D01*
X54476147Y-62593976D01*
X54345453Y-62593976D01*
X54345451Y-62593976D01*
X54220052Y-62630797D01*
X54220047Y-62630799D01*
X54110109Y-62701452D01*
X54110104Y-62701456D01*
X54024519Y-62800225D01*
X53970225Y-62919114D01*
X53970224Y-62919117D01*
X53951626Y-63048473D01*
X50619500Y-63048473D01*
X50619500Y-61652464D01*
X50638407Y-61594273D01*
X50687907Y-61558309D01*
X50749093Y-61558309D01*
X50793319Y-61587633D01*
X50794717Y-61589247D01*
X50794718Y-61589248D01*
X50880305Y-61688021D01*
X50960336Y-61739453D01*
X50986050Y-61755979D01*
X50990252Y-61758679D01*
X51115653Y-61795500D01*
X51115654Y-61795500D01*
X51246346Y-61795500D01*
X51246347Y-61795500D01*
X51371748Y-61758679D01*
X51481695Y-61688021D01*
X51567282Y-61589248D01*
X51621574Y-61470364D01*
X51640174Y-61341000D01*
X51621574Y-61211636D01*
X51567282Y-61092752D01*
X51567280Y-61092750D01*
X51567280Y-61092749D01*
X51485379Y-60998231D01*
X51481695Y-60993979D01*
X51450993Y-60974248D01*
X51371752Y-60923323D01*
X51371749Y-60923322D01*
X51371748Y-60923321D01*
X51309047Y-60904910D01*
X51246348Y-60886500D01*
X51246347Y-60886500D01*
X51115653Y-60886500D01*
X51115651Y-60886500D01*
X50990252Y-60923321D01*
X50990247Y-60923323D01*
X50880309Y-60993976D01*
X50880304Y-60993980D01*
X50793319Y-61094366D01*
X50740923Y-61125962D01*
X50679962Y-61120726D01*
X50633721Y-61080658D01*
X50619500Y-61029535D01*
X50619500Y-59508776D01*
X57055506Y-59508776D01*
X57055506Y-59508781D01*
X57074104Y-59638137D01*
X57074105Y-59638140D01*
X57128399Y-59757029D01*
X57159827Y-59793298D01*
X57213985Y-59855800D01*
X57234987Y-59869297D01*
X57247483Y-59877328D01*
X57286214Y-59924694D01*
X57289708Y-59985779D01*
X57274180Y-60015218D01*
X57275546Y-60016096D01*
X57271720Y-60022048D01*
X57217425Y-60140938D01*
X57217424Y-60140941D01*
X57198826Y-60270297D01*
X57198826Y-60270302D01*
X57217424Y-60399658D01*
X57217425Y-60399661D01*
X57271719Y-60518550D01*
X57314511Y-60567934D01*
X57357305Y-60617321D01*
X57467252Y-60687979D01*
X57592653Y-60724800D01*
X57592654Y-60724800D01*
X57723346Y-60724800D01*
X57723347Y-60724800D01*
X57848748Y-60687979D01*
X57958695Y-60617321D01*
X58044282Y-60518548D01*
X58098574Y-60399664D01*
X58101549Y-60378976D01*
X58117174Y-60270302D01*
X58117174Y-60270297D01*
X58098575Y-60140941D01*
X58098574Y-60140938D01*
X58098574Y-60140936D01*
X58044282Y-60022052D01*
X58044280Y-60022050D01*
X58044280Y-60022049D01*
X58009281Y-59981658D01*
X57958695Y-59923279D01*
X57925195Y-59901750D01*
X57886464Y-59854384D01*
X57882972Y-59793298D01*
X57898508Y-59763867D01*
X57897134Y-59762984D01*
X57900959Y-59757031D01*
X57900959Y-59757029D01*
X57900962Y-59757027D01*
X57955254Y-59638143D01*
X57973854Y-59508779D01*
X57955254Y-59379415D01*
X57900962Y-59260531D01*
X57900960Y-59260529D01*
X57900960Y-59260528D01*
X57863127Y-59216867D01*
X57839309Y-59160508D01*
X57853167Y-59100913D01*
X57884419Y-59068754D01*
X57958695Y-59021021D01*
X58041033Y-58925997D01*
X58847826Y-58925997D01*
X58847826Y-58926002D01*
X58866424Y-59055358D01*
X58866425Y-59055361D01*
X58866425Y-59055362D01*
X58866426Y-59055364D01*
X58914443Y-59160508D01*
X58920719Y-59174250D01*
X58957647Y-59216867D01*
X59006305Y-59273021D01*
X59116252Y-59343679D01*
X59241653Y-59380500D01*
X59241654Y-59380500D01*
X59372346Y-59380500D01*
X59372347Y-59380500D01*
X59497748Y-59343679D01*
X59607695Y-59273021D01*
X59693282Y-59174248D01*
X59747574Y-59055364D01*
X59766174Y-58926000D01*
X59748541Y-58803364D01*
X59747575Y-58796641D01*
X59747574Y-58796638D01*
X59747574Y-58796636D01*
X59693282Y-58677752D01*
X59693280Y-58677750D01*
X59693280Y-58677749D01*
X59658281Y-58637358D01*
X59607695Y-58578979D01*
X59554256Y-58544636D01*
X59497752Y-58508323D01*
X59497749Y-58508322D01*
X59497748Y-58508321D01*
X59435047Y-58489910D01*
X59372348Y-58471500D01*
X59372347Y-58471500D01*
X59241653Y-58471500D01*
X59241651Y-58471500D01*
X59116252Y-58508321D01*
X59116247Y-58508323D01*
X59006309Y-58578976D01*
X59006304Y-58578980D01*
X58920719Y-58677749D01*
X58866425Y-58796638D01*
X58866424Y-58796641D01*
X58847826Y-58925997D01*
X58041033Y-58925997D01*
X58044282Y-58922248D01*
X58098574Y-58803364D01*
X58117174Y-58674000D01*
X58103511Y-58578976D01*
X58098575Y-58544641D01*
X58098574Y-58544638D01*
X58098574Y-58544636D01*
X58044282Y-58425752D01*
X58044280Y-58425750D01*
X58044280Y-58425749D01*
X57998589Y-58373019D01*
X57958695Y-58326979D01*
X57914754Y-58298740D01*
X57848752Y-58256323D01*
X57848749Y-58256322D01*
X57848748Y-58256321D01*
X57786047Y-58237910D01*
X57723348Y-58219500D01*
X57723347Y-58219500D01*
X57592653Y-58219500D01*
X57592651Y-58219500D01*
X57467252Y-58256321D01*
X57467247Y-58256323D01*
X57357309Y-58326976D01*
X57357304Y-58326980D01*
X57271719Y-58425749D01*
X57217425Y-58544638D01*
X57217424Y-58544641D01*
X57198826Y-58673997D01*
X57198826Y-58674002D01*
X57217424Y-58803358D01*
X57217425Y-58803361D01*
X57271719Y-58922250D01*
X57309552Y-58965911D01*
X57333370Y-59022270D01*
X57319512Y-59081865D01*
X57288257Y-59114026D01*
X57213986Y-59161757D01*
X57213984Y-59161759D01*
X57128399Y-59260528D01*
X57074105Y-59379417D01*
X57074104Y-59379420D01*
X57055506Y-59508776D01*
X50619500Y-59508776D01*
X50619500Y-58170860D01*
X50619977Y-58161157D01*
X50633288Y-58026002D01*
X50633906Y-58019726D01*
X50637690Y-58000699D01*
X50677529Y-57869368D01*
X50684951Y-57851451D01*
X50749647Y-57730413D01*
X50760417Y-57714294D01*
X50847485Y-57608201D01*
X50861201Y-57594485D01*
X50967294Y-57507417D01*
X50983413Y-57496647D01*
X51104451Y-57431951D01*
X51122368Y-57424529D01*
X51253699Y-57384690D01*
X51272726Y-57380906D01*
X51370943Y-57371233D01*
X51414158Y-57366977D01*
X51423861Y-57366500D01*
X51458882Y-57366500D01*
X54629809Y-57366500D01*
X54688000Y-57385407D01*
G37*
%TD.AperFunction*%
%TD*%
M02*
